<svg width="194" height="106" viewBox="0 0 194 106" fill="none" xmlns="http://www.w3.org/2000/svg">
<g opacity="0.3" clip-path="url(#clip0_277_2535)">
<mask id="mask0_277_2535" style="mask-type:luminance" maskUnits="userSpaceOnUse" x="-247" y="0" width="919" height="441">
<path d="M10.25 0H-26.5V441H10.25V0Z" fill="white"/>
<path d="M83.75 0H47V441H83.75V0Z" fill="white"/>
<path d="M157.25 0H120.5V441H157.25V0Z" fill="white"/>
</mask>
<g mask="url(#mask0_277_2535)">
<path opacity="0.39" d="M-26.5 419.501C83.4054 419.501 172.501 330.405 172.501 220.5C172.501 110.595 83.4054 21.4988 -26.5 21.4988C-136.405 21.4988 -225.501 110.595 -225.501 220.5C-225.501 330.405 -136.405 419.501 -26.5 419.501Z" stroke="#0B552E" stroke-width="30"/>
</g>
<mask id="mask1_277_2535" style="mask-type:luminance" maskUnits="userSpaceOnUse" x="-247" y="0" width="919" height="441">
<path d="M10.25 0H-26.5V441H10.25V0Z" fill="white"/>
<path d="M83.75 0H47V441H83.75V0Z" fill="white"/>
<path d="M157.25 0H120.5V441H157.25V0Z" fill="white"/>
</mask>
<g mask="url(#mask1_277_2535)">
<path opacity="0.39" d="M-26.5 382.568C63.0074 382.568 135.568 310.008 135.568 220.5C135.568 130.993 63.0074 58.4326 -26.5 58.4326C-116.007 58.4326 -188.568 130.993 -188.568 220.5C-188.568 310.008 -116.007 382.568 -26.5 382.568Z" stroke="#0B552E" stroke-width="30"/>
</g>
<mask id="mask2_277_2535" style="mask-type:luminance" maskUnits="userSpaceOnUse" x="-247" y="0" width="919" height="441">
<path d="M10.25 0H-26.5V441H10.25V0Z" fill="white"/>
<path d="M83.75 0H47V441H83.75V0Z" fill="white"/>
<path d="M157.25 0H120.5V441H157.25V0Z" fill="white"/>
</mask>
<g mask="url(#mask2_277_2535)">
<path opacity="0.39" d="M-26.5 345.634C42.6094 345.634 98.6337 289.609 98.6337 220.5C98.6337 151.39 42.6094 95.3662 -26.5 95.3662C-95.6095 95.3662 -151.634 151.39 -151.634 220.5C-151.634 289.609 -95.6095 345.634 -26.5 345.634Z" stroke="#0B552E" stroke-width="30"/>
</g>
<mask id="mask3_277_2535" style="mask-type:luminance" maskUnits="userSpaceOnUse" x="-211" y="0" width="846" height="441">
<path d="M47 0H10.25V441H47V0Z" fill="white"/>
<path d="M120.5 0H83.75V441H120.5V0Z" fill="white"/>
<path d="M194 0H157.25V441H194V0Z" fill="white"/>
</mask>
<g mask="url(#mask3_277_2535)">
<path d="M-26.5 432.731C90.7121 432.731 185.731 337.712 185.731 220.5C185.731 103.288 90.7121 8.2688 -26.5 8.2688C-143.712 8.2688 -238.731 103.288 -238.731 220.5C-238.731 337.712 -143.712 432.731 -26.5 432.731Z" stroke="#0B552E" stroke-width="30"/>
</g>
<mask id="mask4_277_2535" style="mask-type:luminance" maskUnits="userSpaceOnUse" x="-211" y="0" width="846" height="441">
<path d="M47 0H10.25V441H47V0Z" fill="white"/>
<path d="M120.5 0H83.75V441H120.5V0Z" fill="white"/>
<path d="M194 0H157.25V441H194V0Z" fill="white"/>
</mask>
<g mask="url(#mask4_277_2535)">
<path d="M-26.5 395.797C70.3141 395.797 148.798 317.314 148.798 220.5C148.798 123.686 70.3141 45.2024 -26.5 45.2024C-123.314 45.2024 -201.797 123.686 -201.797 220.5C-201.797 317.314 -123.314 395.797 -26.5 395.797Z" stroke="#0B552E" stroke-width="30"/>
</g>
<mask id="mask5_277_2535" style="mask-type:luminance" maskUnits="userSpaceOnUse" x="-211" y="0" width="846" height="441">
<path d="M47 0H10.25V441H47V0Z" fill="white"/>
<path d="M120.5 0H83.75V441H120.5V0Z" fill="white"/>
<path d="M194 0H157.25V441H194V0Z" fill="white"/>
</mask>
<g mask="url(#mask5_277_2535)">
<path d="M-26.5 358.864C49.9162 358.864 111.864 296.916 111.864 220.5C111.864 144.084 49.9162 82.1362 -26.5 82.1362C-102.916 82.1362 -164.864 144.084 -164.864 220.5C-164.864 296.916 -102.916 358.864 -26.5 358.864Z" stroke="#0B552E" stroke-width="30"/>
</g>
<mask id="mask6_277_2535" style="mask-type:luminance" maskUnits="userSpaceOnUse" x="-211" y="0" width="846" height="441">
<path d="M47 0H10.25V441H47V0Z" fill="white"/>
<path d="M120.5 0H83.75V441H120.5V0Z" fill="white"/>
<path d="M194 0H157.25V441H194V0Z" fill="white"/>
</mask>
<g mask="url(#mask6_277_2535)">
<path d="M-26.4999 321.93C29.5183 321.93 74.9301 276.518 74.9301 220.5C74.9301 164.482 29.5183 119.07 -26.4999 119.07C-82.5182 119.07 -127.93 164.482 -127.93 220.5C-127.93 276.518 -82.5182 321.93 -26.4999 321.93Z" stroke="#0B552E" stroke-width="30"/>
</g>
</g>
<defs>
<clipPath id="clip0_277_2535">
<rect width="441" height="441" fill="white" transform="translate(-247)"/>
</clipPath>
</defs>
</svg>
