<svg width="73" height="73" viewBox="0 0 73 73" fill="none" xmlns="http://www.w3.org/2000/svg">
<path d="M35.5911 0.0356445H35.8762V6.52295L35.9119 11.9409L35.8049 12.0479L34.9495 12.1904L34.4148 12.333L33.5593 12.6895L32.9177 13.0459L32.3474 13.438L31.991 13.7231L31.6345 14.0439L31.3494 14.2935L30.9573 14.7212L30.4939 15.3271L30.0662 16.0044L29.781 16.5391L29.4958 17.252L29.2463 18.0361L22.6165 18.0718H17.1985L17.2341 17.5728L17.448 16.2539L17.6975 15.1489L18.054 13.9014L18.3748 12.9746L18.7668 12.0122L19.0876 11.2993L19.5867 10.3013L20.0857 9.4458L20.5847 8.66162L21.0481 8.02002L21.3689 7.59229L21.761 7.09326L22.2244 6.55859L22.6165 6.13086L23.1155 5.59619L23.7214 5.02588L24.1135 4.66943L24.5056 4.34863L25.0759 3.88525L25.7175 3.42188L26.2522 3.06543L27.0007 2.60205L27.7849 2.17432L28.3909 1.85352L29.5315 1.35449L30.6008 0.962402L31.8127 0.605957L33.0959 0.320801L34.2722 0.142578L35.5911 0.0356445Z" fill="#020022"/>
<path d="M38.407 0.142578H38.7278L39.9041 0.320801L41.1873 0.605957L42.2922 0.926758L43.2903 1.2832L44.217 1.67529L45.1794 2.13867L45.9993 2.60205L46.6409 2.99414L47.0686 3.2793L47.6746 3.70703L48.1379 4.06348L48.4944 4.34863L48.9934 4.77637L49.8489 5.56055L50.3123 6.02393L50.5618 6.30908L50.9539 6.73682L51.2747 7.12891L51.7024 7.66357L52.2014 8.34082L52.8074 9.26758L53.2708 10.0518L53.6985 10.8359L54.1619 11.834L54.554 12.7607L55.0173 14.1152L55.2668 15.0063L55.5164 16.0757L55.6946 17.0737L55.8372 18.1431V18.4639L55.5876 18.5352L53.8054 18.4639L51.9875 18.4282L44.6091 18.3926L44.5022 18.1074L44.1101 16.8599L43.8606 16.2539L43.5042 15.5767L43.0051 14.7925L42.6487 14.3291L42.2209 13.8657L41.8289 13.5449L41.2942 13.1528L40.6526 12.7964L39.9397 12.4756L39.1555 12.1904L38.6565 12.0479L38.3713 12.0122V7.41406L38.407 0.142578Z" fill="#17E57A"/>
<path d="M35.2703 27.1968H38.5496V70.7188L38.0505 71.396L37.4802 72.1445L36.9812 72.8218L36.8386 72.9644L36.4465 72.4297L36.0544 71.8594L35.5554 71.1465L35.2703 70.7188V27.1968Z" fill="#0EC858"/>
<path d="M28.8899 42.1675H29.1038L29.781 42.5239L30.3513 42.8447L30.9216 43.1299L31.6345 43.3794L31.991 43.4507L32.5256 43.4863V68.8652L32.3474 68.7939L31.1355 67.9741L29.9592 67.1899L28.9612 66.5127L28.8899 66.4414V42.1675Z" fill="#0EC858"/>
<path d="M45.0012 42.0605L45.1794 42.0962V66.3701L43.4685 67.5107L41.9358 68.5444L41.5437 68.7939V43.415L42.3279 43.3081L43.0764 43.0586L43.825 42.7021L44.6804 42.2031L45.0012 42.0605Z" fill="#0EC858"/>
<path d="M22.6165 38.7456L22.7947 38.9238L23.0085 39.1733L23.2937 39.4229L23.8284 39.8506L24.6838 40.4209L25.3967 40.813L25.8601 40.9912L26.2522 41.0625V64.8374L26.074 64.7305L25.6106 64.3384L25.2542 64.0532L24.6838 63.5898L23.5076 62.6274L22.9373 62.1641L22.6165 61.9146V38.7456Z" fill="#0EC858"/>
<path d="M51.4172 38.6387H51.4529V61.8076L50.8469 62.3066L50.4548 62.6274L49.8845 63.0908L48.3162 64.374L47.8528 64.7305H47.8171V40.9912L48.53 40.7773L49.3499 40.3496L49.9915 39.9219L50.4192 39.6011L50.8113 39.2803L51.1677 38.9595L51.4172 38.6387Z" fill="#0EC858"/>
<path d="M36.6248 14.8994H37.4802L38.1218 15.0063L38.6921 15.1846L39.1199 15.3628L39.7615 15.7549L40.1536 16.0757L40.6882 16.6104L41.116 17.2163L41.4724 17.9648L41.6506 18.5352L41.7576 19.0342L41.7932 19.3906V20.1392L41.7219 20.6738L41.5437 21.3867L41.2585 22.0283L41.0447 22.4204L40.6169 22.9907L40.0466 23.561L39.5476 23.9175L39.1199 24.167L38.5852 24.3809L38.1218 24.5234L37.4446 24.6304H36.6604L35.9475 24.5234L35.199 24.2739L34.5217 23.9175L34.0583 23.561L33.7019 23.2402L33.3455 22.8481L33.0247 22.3848L32.6682 21.7075L32.4543 21.0659L32.3118 20.3887V19.1411L32.4543 18.4639L32.6682 17.8223L33.0603 17.0737L33.4167 16.6104L33.7375 16.2539L34.1296 15.8975L34.593 15.5767L35.199 15.2559L35.8406 15.042L36.3396 14.9351L36.6248 14.8994Z" fill="#24FE86"/>
<path d="M31.8484 32.4722H32.8821L33.0247 32.5791L33.0603 32.686V37.5337L33.0247 40.3496L32.6682 40.314L31.6345 40.0645L30.5652 39.7437L29.6741 39.4229L28.676 38.9951L27.4641 38.3892L26.6799 37.9258L25.967 37.4624L25.3611 37.0347L24.7551 36.5713L24.2917 36.1792L23.8997 35.8584L23.6501 35.6089L23.365 35.3594L22.5452 34.5396L22.2957 34.2544L21.9749 33.8979L21.5828 33.3989L21.155 32.8643L21.0837 32.7217L21.7253 32.686L31.8484 32.4722Z" fill="#020022"/>
<path d="M40.4387 32.4722H41.4724L51.5955 32.686L51.9163 32.7217L51.7737 32.9712L51.2747 33.5771L50.9539 33.9692L50.5618 34.397L50.241 34.7534L49.3499 35.6445L49.0647 35.894L48.53 36.3574L47.4607 37.1772L46.6052 37.7476L45.7141 38.2822L45.0012 38.6743L44.0032 39.1377L43.0408 39.5298L41.7576 39.9575L40.6526 40.2427L40.2961 40.2783L40.2605 37.5337V32.686L40.3674 32.5078L40.4387 32.4722Z" fill="#020022"/>
<path d="M31.4919 26.2344L31.6702 26.3057L32.2048 26.6265L32.7395 26.8047L33.2029 26.876L33.2385 26.9116V30.0483L33.2029 30.084H19.4441L19.2659 29.7988L18.7668 28.7295L18.3748 27.7314L18.0896 26.876L29.0325 26.8403L30.1731 26.6978L30.9216 26.4839L31.4919 26.2344Z" fill="#02002D"/>
<path d="M41.7219 26.2344L41.9001 26.27L42.613 26.5552L43.1477 26.6978L44.324 26.8403L54.9104 26.876L54.8035 27.2681L54.4114 28.3018L54.0193 29.1929L53.6272 30.0127L53.5559 30.084H40.1179L40.0823 30.0483V26.876L40.6882 26.769L41.0803 26.6265L41.5437 26.377L41.7219 26.2344Z" fill="#02002D"/>
<path d="M17.0916 20.9946H29.1394L29.2107 21.3511L29.3533 22.1709L29.6028 23.0264L29.8879 23.668L30.2087 24.167V24.2383H17.448L17.3767 24.0601L17.1985 22.8481L17.0916 21.5649V20.9946Z" fill="#02002D"/>
<path d="M44.1814 20.9946H55.9084V21.6719L55.8015 22.9194L55.6233 24.0957L55.5876 24.2026H43.1121L43.3972 23.7036L43.6111 23.2759L43.8962 22.4204L44.1101 21.3154L44.1458 21.0303L44.1814 20.9946Z" fill="#02002D"/>
</svg>
