<svg width="776" height="178" viewBox="0 0 776 178" fill="none" xmlns="http://www.w3.org/2000/svg">
<g opacity="0.5" clip-path="url(#clip0_80_7942)">
<path opacity="0.15" d="M53.5527 -44.03L0 9.45497" stroke="#13924E" stroke-width="5" stroke-linecap="round"/>
<path opacity="0.96" d="M53.5527 -44.03L107.105 9.45497" stroke="#13924E" stroke-width="5" stroke-linecap="round"/>
<path opacity="0.18" d="M107.105 -44.03L160.658 9.45497" stroke="#13924E" stroke-width="5" stroke-linecap="round"/>
<path opacity="0.43" d="M160.658 -44.03L214.211 9.45497" stroke="#13924E" stroke-width="5" stroke-linecap="round"/>
<path opacity="0.88" d="M214.211 -44.03L267.764 9.45497" stroke="#13924E" stroke-width="5" stroke-linecap="round"/>
<path opacity="0.31" d="M267.764 -44.03L321.316 9.45497" stroke="#13924E" stroke-width="5" stroke-linecap="round"/>
<path opacity="0.25" d="M374.869 -44.03L321.316 9.45497" stroke="#13924E" stroke-width="5" stroke-linecap="round"/>
<path opacity="0.32" d="M428.422 -44.03L374.869 9.45497" stroke="#13924E" stroke-width="5" stroke-linecap="round"/>
<path opacity="0.68" d="M428.422 -44.03L481.975 9.45497" stroke="#13924E" stroke-width="5" stroke-linecap="round"/>
<path opacity="0.07" d="M481.975 -44.03L535.527 9.45497" stroke="#13924E" stroke-width="5" stroke-linecap="round"/>
<path opacity="0.71" d="M535.527 -44.03L589.08 9.45497" stroke="#13924E" stroke-width="5" stroke-linecap="round"/>
<path opacity="0.8" d="M589.08 -44.03L642.633 9.45497" stroke="#13924E" stroke-width="5" stroke-linecap="round"/>
<path opacity="0.33" d="M696.186 -44.03L642.633 9.45497" stroke="#13924E" stroke-width="5" stroke-linecap="round"/>
<path opacity="0.82" d="M696.186 -44.03L749.738 9.45497" stroke="#13924E" stroke-width="5" stroke-linecap="round"/>
<path opacity="0.95" d="M749.738 -44.03L803.291 9.45497" stroke="#13924E" stroke-width="5" stroke-linecap="round"/>
<path opacity="0.1" d="M53.5527 9.45496L0 62.94" stroke="#13924E" stroke-width="5" stroke-linecap="round"/>
<path opacity="0.54" d="M53.5527 9.45496L107.105 62.94" stroke="#13924E" stroke-width="5" stroke-linecap="round"/>
<path opacity="0.35" d="M107.105 9.45496L160.658 62.94" stroke="#13924E" stroke-width="5" stroke-linecap="round"/>
<path opacity="0.33" d="M214.211 9.45496L160.658 62.94" stroke="#13924E" stroke-width="5" stroke-linecap="round"/>
<path opacity="0.93" d="M214.211 9.45496L267.764 62.94" stroke="#13924E" stroke-width="5" stroke-linecap="round"/>
<path opacity="0.38" d="M267.764 9.45496L321.316 62.94" stroke="#13924E" stroke-width="5" stroke-linecap="round"/>
<path opacity="0.8" d="M321.316 9.45496L374.869 62.94" stroke="#13924E" stroke-width="5" stroke-linecap="round"/>
<path opacity="0.48" d="M374.869 9.45496L428.422 62.94" stroke="#13924E" stroke-width="5" stroke-linecap="round"/>
<path opacity="0.74" d="M428.422 9.45496L481.975 62.94" stroke="#13924E" stroke-width="5" stroke-linecap="round"/>
<path opacity="0.84" d="M481.975 9.45496L535.527 62.94" stroke="#13924E" stroke-width="5" stroke-linecap="round"/>
<path opacity="0.32" d="M535.527 9.45496L589.08 62.94" stroke="#13924E" stroke-width="5" stroke-linecap="round"/>
<path opacity="0.36" d="M589.08 9.45496L642.633 62.94" stroke="#13924E" stroke-width="5" stroke-linecap="round"/>
<path opacity="0.78" d="M642.633 9.45496L696.186 62.94" stroke="#13924E" stroke-width="5" stroke-linecap="round"/>
<path opacity="0.95" d="M696.186 9.45496L749.738 62.94" stroke="#13924E" stroke-width="5" stroke-linecap="round"/>
<path opacity="0.28" d="M749.738 9.45496L803.291 62.94" stroke="#13924E" stroke-width="5" stroke-linecap="round"/>
<path opacity="0.4" d="M0 62.9399L53.5527 116.425" stroke="#13924E" stroke-width="5" stroke-linecap="round"/>
<path opacity="0.99" d="M107.105 62.9399L53.5527 116.425" stroke="#13924E" stroke-width="5" stroke-linecap="round"/>
<path opacity="0.18" d="M107.105 62.9399L160.658 116.425" stroke="#13924E" stroke-width="5" stroke-linecap="round"/>
<path opacity="0.65" d="M214.211 62.9399L160.658 116.425" stroke="#13924E" stroke-width="5" stroke-linecap="round"/>
<path opacity="0.38" d="M267.764 62.9399L214.211 116.425" stroke="#13924E" stroke-width="5" stroke-linecap="round"/>
<path opacity="0.25" d="M267.764 62.9399L321.316 116.425" stroke="#13924E" stroke-width="5" stroke-linecap="round"/>
<path opacity="0.66" d="M321.316 62.9399L374.869 116.425" stroke="#13924E" stroke-width="5" stroke-linecap="round"/>
<path opacity="0.82" d="M428.422 62.9399L374.869 116.425" stroke="#13924E" stroke-width="5" stroke-linecap="round"/>
<path opacity="0.34" d="M428.422 62.9399L481.975 116.425" stroke="#13924E" stroke-width="5" stroke-linecap="round"/>
<path opacity="0.99" d="M535.527 62.9399L481.975 116.425" stroke="#13924E" stroke-width="5" stroke-linecap="round"/>
<path opacity="0.22" d="M589.08 62.9399L535.527 116.425" stroke="#13924E" stroke-width="5" stroke-linecap="round"/>
<path opacity="0.3" d="M589.08 62.9399L642.633 116.425" stroke="#13924E" stroke-width="5" stroke-linecap="round"/>
<path opacity="0.15" d="M642.633 62.9399L696.186 116.425" stroke="#13924E" stroke-width="5" stroke-linecap="round"/>
<path opacity="0.88" d="M749.738 62.9399L696.186 116.425" stroke="#13924E" stroke-width="5" stroke-linecap="round"/>
<path opacity="0.41" d="M803.291 62.9399L749.738 116.425" stroke="#13924E" stroke-width="5" stroke-linecap="round"/>
<path opacity="0.96" d="M0 116.425L53.5527 169.91" stroke="#13924E" stroke-width="5" stroke-linecap="round"/>
<path opacity="0.94" d="M53.5527 116.425L107.105 169.91" stroke="#13924E" stroke-width="5" stroke-linecap="round"/>
<path opacity="0.66" d="M107.105 116.425L160.658 169.91" stroke="#13924E" stroke-width="5" stroke-linecap="round"/>
<path opacity="0.14" d="M160.658 116.425L214.211 169.91" stroke="#13924E" stroke-width="5" stroke-linecap="round"/>
<path opacity="0.88" d="M214.211 116.425L267.764 169.91" stroke="#13924E" stroke-width="5" stroke-linecap="round"/>
<path opacity="0.21" d="M321.316 116.425L267.764 169.91" stroke="#13924E" stroke-width="5" stroke-linecap="round"/>
<path opacity="0.51" d="M321.316 116.425L374.869 169.91" stroke="#13924E" stroke-width="5" stroke-linecap="round"/>
<path opacity="0.83" d="M374.869 116.425L428.422 169.91" stroke="#13924E" stroke-width="5" stroke-linecap="round"/>
<path opacity="0.81" d="M428.422 116.425L481.975 169.91" stroke="#13924E" stroke-width="5" stroke-linecap="round"/>
<path opacity="0.88" d="M535.527 116.425L481.975 169.91" stroke="#13924E" stroke-width="5" stroke-linecap="round"/>
<path opacity="0.82" d="M535.527 116.425L589.08 169.91" stroke="#13924E" stroke-width="5" stroke-linecap="round"/>
<path opacity="0.5" d="M589.08 116.425L642.633 169.91" stroke="#13924E" stroke-width="5" stroke-linecap="round"/>
<path opacity="0.44" d="M642.633 116.425L696.186 169.91" stroke="#13924E" stroke-width="5" stroke-linecap="round"/>
<path opacity="0.66" d="M696.186 116.425L749.738 169.91" stroke="#13924E" stroke-width="5" stroke-linecap="round"/>
<path opacity="0.17" d="M749.738 116.425L803.291 169.91" stroke="#13924E" stroke-width="5" stroke-linecap="round"/>
<path opacity="0.27" d="M53.5527 169.91L0 223.395" stroke="#13924E" stroke-width="5" stroke-linecap="round"/>
<path opacity="0.39" d="M53.5527 169.91L107.105 223.395" stroke="#13924E" stroke-width="5" stroke-linecap="round"/>
<path opacity="0.91" d="M107.105 169.91L160.658 223.395" stroke="#13924E" stroke-width="5" stroke-linecap="round"/>
<path opacity="0.78" d="M214.211 169.91L160.658 223.395" stroke="#13924E" stroke-width="5" stroke-linecap="round"/>
<path opacity="0.32" d="M214.211 169.91L267.764 223.395" stroke="#13924E" stroke-width="5" stroke-linecap="round"/>
<path opacity="0.14" d="M321.316 169.91L267.764 223.395" stroke="#13924E" stroke-width="5" stroke-linecap="round"/>
<path opacity="0.18" d="M374.869 169.91L321.316 223.395" stroke="#13924E" stroke-width="5" stroke-linecap="round"/>
<path opacity="0.7" d="M374.869 169.91L428.422 223.395" stroke="#13924E" stroke-width="5" stroke-linecap="round"/>
<path opacity="0.74" d="M428.422 169.91L481.975 223.395" stroke="#13924E" stroke-width="5" stroke-linecap="round"/>
<path opacity="0.25" d="M481.975 169.91L535.527 223.395" stroke="#13924E" stroke-width="5" stroke-linecap="round"/>
<path opacity="0.75" d="M589.08 169.91L535.527 223.395" stroke="#13924E" stroke-width="5" stroke-linecap="round"/>
<path opacity="0.54" d="M589.08 169.91L642.633 223.395" stroke="#13924E" stroke-width="5" stroke-linecap="round"/>
<path opacity="0.23" d="M642.633 169.91L696.186 223.395" stroke="#13924E" stroke-width="5" stroke-linecap="round"/>
<path opacity="0.72" d="M696.186 169.91L749.738 223.395" stroke="#13924E" stroke-width="5" stroke-linecap="round"/>
<path opacity="0.29" d="M803.291 169.91L749.738 223.395" stroke="#13924E" stroke-width="5" stroke-linecap="round"/>
</g>
<defs>
<clipPath id="clip0_80_7942">
<rect width="1002" height="563" fill="white" transform="translate(0 -151)"/>
</clipPath>
</defs>
</svg>
