<svg width="363" height="149" viewBox="0 0 363 149" fill="none" xmlns="http://www.w3.org/2000/svg">
<g clip-path="url(#clip0_73_5546)">
<rect width="363" height="149" rx="8" fill="#02002D"/>
<g opacity="0.35" clip-path="url(#clip1_73_5546)">
<path opacity="0.72" d="M41 -20L64.6765 4.985" stroke="#F46036" stroke-width="5" stroke-linecap="round"/>
<path opacity="0.77" d="M64.6765 -20L88.353 4.985" stroke="#F46036" stroke-width="5" stroke-linecap="round"/>
<path opacity="0.96" d="M88.353 -20L112.03 4.985" stroke="#F46036" stroke-width="5" stroke-linecap="round"/>
<path opacity="0.38" d="M112.03 -20L135.706 4.985" stroke="#F46036" stroke-width="5" stroke-linecap="round"/>
<path opacity="0.42" d="M135.706 -20L159.383 4.985" stroke="#F46036" stroke-width="5" stroke-linecap="round"/>
<path opacity="0.79" d="M159.383 -20L183.059 4.985" stroke="#F46036" stroke-width="5" stroke-linecap="round"/>
<path opacity="0.74" d="M206.736 -20L183.059 4.985" stroke="#F46036" stroke-width="5" stroke-linecap="round"/>
<path opacity="0.65" d="M206.736 -20L230.412 4.985" stroke="#F46036" stroke-width="5" stroke-linecap="round"/>
<path opacity="0.5" d="M254.089 -20L230.412 4.985" stroke="#F46036" stroke-width="5" stroke-linecap="round"/>
<path opacity="0.88" d="M277.765 -20L254.089 4.985" stroke="#F46036" stroke-width="5" stroke-linecap="round"/>
<path opacity="0.47" d="M301.442 -20L277.765 4.985" stroke="#F46036" stroke-width="5" stroke-linecap="round"/>
<path opacity="0.47" d="M301.442 -20L325.118 4.985" stroke="#F46036" stroke-width="5" stroke-linecap="round"/>
<path opacity="0.2" d="M348.795 -20L325.118 4.985" stroke="#F46036" stroke-width="5" stroke-linecap="round"/>
<path opacity="0.59" d="M348.795 -20L372.471 4.985" stroke="#F46036" stroke-width="5" stroke-linecap="round"/>
<path d="M64.6765 4.98499L41 29.97" stroke="#F46036" stroke-width="5" stroke-linecap="round"/>
<path opacity="0.89" d="M64.6765 4.98499L88.353 29.97" stroke="#F46036" stroke-width="5" stroke-linecap="round"/>
<path opacity="0.19" d="M88.353 4.98499L112.03 29.97" stroke="#F46036" stroke-width="5" stroke-linecap="round"/>
<path opacity="0.8" d="M112.03 4.98499L135.706 29.97" stroke="#F46036" stroke-width="5" stroke-linecap="round"/>
<path opacity="0.91" d="M135.706 4.98499L159.383 29.97" stroke="#F46036" stroke-width="5" stroke-linecap="round"/>
<path opacity="0.52" d="M159.383 4.98499L183.059 29.97" stroke="#F46036" stroke-width="5" stroke-linecap="round"/>
<path opacity="0.46" d="M183.059 4.98499L206.736 29.97" stroke="#F46036" stroke-width="5" stroke-linecap="round"/>
<path opacity="0.21" d="M230.412 4.98499L206.736 29.97" stroke="#F46036" stroke-width="5" stroke-linecap="round"/>
<path opacity="0.6" d="M230.412 4.98499L254.089 29.97" stroke="#F46036" stroke-width="5" stroke-linecap="round"/>
<path opacity="0.36" d="M254.089 4.98499L277.765 29.97" stroke="#F46036" stroke-width="5" stroke-linecap="round"/>
<path opacity="0.5" d="M277.765 4.98499L301.442 29.97" stroke="#F46036" stroke-width="5" stroke-linecap="round"/>
<path opacity="0.67" d="M301.442 4.98499L325.118 29.97" stroke="#F46036" stroke-width="5" stroke-linecap="round"/>
<path opacity="0.25" d="M325.118 4.98499L348.795 29.97" stroke="#F46036" stroke-width="5" stroke-linecap="round"/>
<path opacity="0.79" d="M348.795 4.98499L372.471 29.97" stroke="#F46036" stroke-width="5" stroke-linecap="round"/>
<path opacity="0.15" d="M64.6765 29.97L41 54.955" stroke="#F46036" stroke-width="5" stroke-linecap="round"/>
<path opacity="0.96" d="M64.6765 29.97L88.353 54.955" stroke="#F46036" stroke-width="5" stroke-linecap="round"/>
<path opacity="0.18" d="M88.353 29.97L112.03 54.955" stroke="#F46036" stroke-width="5" stroke-linecap="round"/>
<path opacity="0.43" d="M112.03 29.97L135.706 54.955" stroke="#F46036" stroke-width="5" stroke-linecap="round"/>
<path opacity="0.88" d="M135.706 29.97L159.383 54.955" stroke="#F46036" stroke-width="5" stroke-linecap="round"/>
<path opacity="0.31" d="M159.383 29.97L183.059 54.955" stroke="#F46036" stroke-width="5" stroke-linecap="round"/>
<path opacity="0.25" d="M206.736 29.97L183.059 54.955" stroke="#F46036" stroke-width="5" stroke-linecap="round"/>
<path opacity="0.32" d="M230.412 29.97L206.736 54.955" stroke="#F46036" stroke-width="5" stroke-linecap="round"/>
<path opacity="0.68" d="M230.412 29.97L254.089 54.955" stroke="#F46036" stroke-width="5" stroke-linecap="round"/>
<path opacity="0.07" d="M254.089 29.97L277.765 54.955" stroke="#F46036" stroke-width="5" stroke-linecap="round"/>
<path opacity="0.71" d="M277.765 29.97L301.442 54.955" stroke="#F46036" stroke-width="5" stroke-linecap="round"/>
<path opacity="0.8" d="M301.442 29.97L325.118 54.955" stroke="#F46036" stroke-width="5" stroke-linecap="round"/>
<path opacity="0.33" d="M348.795 29.97L325.118 54.955" stroke="#F46036" stroke-width="5" stroke-linecap="round"/>
<path opacity="0.82" d="M348.795 29.97L372.471 54.955" stroke="#F46036" stroke-width="5" stroke-linecap="round"/>
<path opacity="0.1" d="M64.6765 54.955L41 79.94" stroke="#F46036" stroke-width="5" stroke-linecap="round"/>
<path opacity="0.54" d="M64.6765 54.955L88.353 79.94" stroke="#F46036" stroke-width="5" stroke-linecap="round"/>
<path opacity="0.35" d="M88.353 54.955L112.03 79.94" stroke="#F46036" stroke-width="5" stroke-linecap="round"/>
<path opacity="0.33" d="M135.706 54.955L112.03 79.94" stroke="#F46036" stroke-width="5" stroke-linecap="round"/>
<path opacity="0.93" d="M135.706 54.955L159.383 79.94" stroke="#F46036" stroke-width="5" stroke-linecap="round"/>
<path opacity="0.38" d="M159.383 54.955L183.059 79.94" stroke="#F46036" stroke-width="5" stroke-linecap="round"/>
<path opacity="0.8" d="M183.059 54.955L206.736 79.94" stroke="#F46036" stroke-width="5" stroke-linecap="round"/>
<path opacity="0.48" d="M206.736 54.955L230.412 79.94" stroke="#F46036" stroke-width="5" stroke-linecap="round"/>
<path opacity="0.74" d="M230.412 54.955L254.089 79.94" stroke="#F46036" stroke-width="5" stroke-linecap="round"/>
<path opacity="0.84" d="M254.089 54.955L277.765 79.94" stroke="#F46036" stroke-width="5" stroke-linecap="round"/>
<path opacity="0.32" d="M277.765 54.955L301.442 79.94" stroke="#F46036" stroke-width="5" stroke-linecap="round"/>
<path opacity="0.36" d="M301.442 54.955L325.118 79.94" stroke="#F46036" stroke-width="5" stroke-linecap="round"/>
<path opacity="0.78" d="M325.118 54.955L348.795 79.94" stroke="#F46036" stroke-width="5" stroke-linecap="round"/>
<path opacity="0.95" d="M348.795 54.955L372.471 79.94" stroke="#F46036" stroke-width="5" stroke-linecap="round"/>
<path opacity="0.4" d="M41 79.9399L64.6765 104.925" stroke="#F46036" stroke-width="5" stroke-linecap="round"/>
<path opacity="0.99" d="M88.353 79.9399L64.6765 104.925" stroke="#F46036" stroke-width="5" stroke-linecap="round"/>
<path opacity="0.18" d="M88.353 79.9399L112.03 104.925" stroke="#F46036" stroke-width="5" stroke-linecap="round"/>
<path opacity="0.65" d="M135.706 79.9399L112.03 104.925" stroke="#F46036" stroke-width="5" stroke-linecap="round"/>
<path opacity="0.38" d="M159.383 79.9399L135.706 104.925" stroke="#F46036" stroke-width="5" stroke-linecap="round"/>
<path opacity="0.25" d="M159.383 79.9399L183.059 104.925" stroke="#F46036" stroke-width="5" stroke-linecap="round"/>
<path opacity="0.66" d="M183.059 79.9399L206.736 104.925" stroke="#F46036" stroke-width="5" stroke-linecap="round"/>
<path opacity="0.82" d="M230.412 79.9399L206.736 104.925" stroke="#F46036" stroke-width="5" stroke-linecap="round"/>
<path opacity="0.34" d="M230.412 79.9399L254.089 104.925" stroke="#F46036" stroke-width="5" stroke-linecap="round"/>
<path opacity="0.99" d="M277.765 79.9399L254.089 104.925" stroke="#F46036" stroke-width="5" stroke-linecap="round"/>
<path opacity="0.22" d="M301.442 79.9399L277.765 104.925" stroke="#F46036" stroke-width="5" stroke-linecap="round"/>
<path opacity="0.3" d="M301.442 79.9399L325.118 104.925" stroke="#F46036" stroke-width="5" stroke-linecap="round"/>
<path opacity="0.15" d="M325.118 79.9399L348.795 104.925" stroke="#F46036" stroke-width="5" stroke-linecap="round"/>
<path opacity="0.88" d="M372.471 79.9399L348.795 104.925" stroke="#F46036" stroke-width="5" stroke-linecap="round"/>
<path opacity="0.96" d="M41 104.925L64.6765 129.91" stroke="#F46036" stroke-width="5" stroke-linecap="round"/>
<path opacity="0.94" d="M64.6765 104.925L88.353 129.91" stroke="#F46036" stroke-width="5" stroke-linecap="round"/>
<path opacity="0.66" d="M88.353 104.925L112.03 129.91" stroke="#F46036" stroke-width="5" stroke-linecap="round"/>
<path opacity="0.14" d="M112.03 104.925L135.706 129.91" stroke="#F46036" stroke-width="5" stroke-linecap="round"/>
<path opacity="0.88" d="M135.706 104.925L159.383 129.91" stroke="#F46036" stroke-width="5" stroke-linecap="round"/>
<path opacity="0.21" d="M183.059 104.925L159.383 129.91" stroke="#F46036" stroke-width="5" stroke-linecap="round"/>
<path opacity="0.51" d="M183.059 104.925L206.736 129.91" stroke="#F46036" stroke-width="5" stroke-linecap="round"/>
<path opacity="0.83" d="M206.736 104.925L230.412 129.91" stroke="#F46036" stroke-width="5" stroke-linecap="round"/>
<path opacity="0.81" d="M230.412 104.925L254.089 129.91" stroke="#F46036" stroke-width="5" stroke-linecap="round"/>
<path opacity="0.88" d="M277.765 104.925L254.089 129.91" stroke="#F46036" stroke-width="5" stroke-linecap="round"/>
<path opacity="0.82" d="M277.765 104.925L301.442 129.91" stroke="#F46036" stroke-width="5" stroke-linecap="round"/>
<path opacity="0.5" d="M301.442 104.925L325.118 129.91" stroke="#F46036" stroke-width="5" stroke-linecap="round"/>
<path opacity="0.44" d="M325.118 104.925L348.795 129.91" stroke="#F46036" stroke-width="5" stroke-linecap="round"/>
<path opacity="0.66" d="M348.795 104.925L372.471 129.91" stroke="#F46036" stroke-width="5" stroke-linecap="round"/>
<path opacity="0.27" d="M64.6765 129.91L41 154.895" stroke="#F46036" stroke-width="5" stroke-linecap="round"/>
<path opacity="0.39" d="M64.6765 129.91L88.353 154.895" stroke="#F46036" stroke-width="5" stroke-linecap="round"/>
<path opacity="0.91" d="M88.353 129.91L112.03 154.895" stroke="#F46036" stroke-width="5" stroke-linecap="round"/>
<path opacity="0.78" d="M135.706 129.91L112.03 154.895" stroke="#F46036" stroke-width="5" stroke-linecap="round"/>
<path opacity="0.32" d="M135.706 129.91L159.383 154.895" stroke="#F46036" stroke-width="5" stroke-linecap="round"/>
<path opacity="0.14" d="M183.059 129.91L159.383 154.895" stroke="#F46036" stroke-width="5" stroke-linecap="round"/>
<path opacity="0.18" d="M206.736 129.91L183.059 154.895" stroke="#F46036" stroke-width="5" stroke-linecap="round"/>
<path opacity="0.7" d="M206.736 129.91L230.412 154.895" stroke="#F46036" stroke-width="5" stroke-linecap="round"/>
<path opacity="0.74" d="M230.412 129.91L254.089 154.895" stroke="#F46036" stroke-width="5" stroke-linecap="round"/>
<path opacity="0.25" d="M254.089 129.91L277.765 154.895" stroke="#F46036" stroke-width="5" stroke-linecap="round"/>
<path opacity="0.75" d="M301.442 129.91L277.765 154.895" stroke="#F46036" stroke-width="5" stroke-linecap="round"/>
<path opacity="0.54" d="M301.442 129.91L325.118 154.895" stroke="#F46036" stroke-width="5" stroke-linecap="round"/>
<path opacity="0.23" d="M325.118 129.91L348.795 154.895" stroke="#F46036" stroke-width="5" stroke-linecap="round"/>
<path opacity="0.72" d="M348.795 129.91L372.471 154.895" stroke="#F46036" stroke-width="5" stroke-linecap="round"/>
</g>
<path d="M12.7159 18.897V16.9091H23.1605V18.897H19.1143V30H16.7621V18.897H12.7159ZM27.3857 24.2472V30H25.0717V16.9091H27.3345V21.8501H27.4496C27.6797 21.2962 28.0355 20.8594 28.517 20.5398C29.0028 20.2159 29.6207 20.054 30.3707 20.054C31.0526 20.054 31.647 20.1967 32.1541 20.4822C32.6612 20.7678 33.0533 21.1854 33.3303 21.7351C33.6115 22.2848 33.7521 22.956 33.7521 23.7486V30H31.4382V24.1065C31.4382 23.446 31.2678 22.9325 30.9268 22.5661C30.5902 22.1953 30.1172 22.0099 29.5078 22.0099C29.0987 22.0099 28.7322 22.0994 28.4084 22.2784C28.0888 22.4531 27.8374 22.7067 27.6541 23.0391C27.4751 23.3714 27.3857 23.7741 27.3857 24.2472ZM40.4574 30.1918C39.473 30.1918 38.6229 29.9872 37.907 29.5781C37.1953 29.1648 36.6477 28.581 36.2642 27.8267C35.8807 27.0682 35.6889 26.1754 35.6889 25.1484C35.6889 24.1385 35.8807 23.2521 36.2642 22.4893C36.652 21.7223 37.1932 21.1257 37.8878 20.6996C38.5824 20.2692 39.3984 20.054 40.3359 20.054C40.9411 20.054 41.5121 20.152 42.049 20.348C42.5902 20.5398 43.0675 20.8381 43.4808 21.2429C43.8984 21.6477 44.2266 22.1634 44.4652 22.7898C44.7038 23.4119 44.8232 24.1534 44.8232 25.0142V25.7237H36.7756V24.1641H42.6051C42.6009 23.7209 42.505 23.3267 42.3175 22.9815C42.13 22.6321 41.8679 22.3572 41.5312 22.157C41.1989 21.9567 40.8111 21.8565 40.3679 21.8565C39.8949 21.8565 39.4794 21.9716 39.1214 22.2017C38.7635 22.4276 38.4844 22.7259 38.2841 23.0966C38.0881 23.4631 37.9879 23.8658 37.9837 24.3047V25.6662C37.9837 26.2372 38.0881 26.7273 38.2969 27.1364C38.5057 27.5412 38.7976 27.8523 39.1726 28.0696C39.5476 28.2827 39.9865 28.3892 40.4893 28.3892C40.826 28.3892 41.1307 28.3423 41.4034 28.2486C41.6761 28.1506 41.9126 28.0078 42.1129 27.8203C42.3132 27.6328 42.4645 27.4006 42.5668 27.1236L44.7273 27.3665C44.5909 27.9375 44.331 28.4361 43.9474 28.8622C43.5682 29.2841 43.0824 29.6122 42.4901 29.8466C41.8977 30.0767 41.2202 30.1918 40.4574 30.1918ZM56.1483 20.1818V21.9716H50.5041V20.1818H56.1483ZM51.8975 17.8295H54.2115V27.0469C54.2115 27.358 54.2583 27.5966 54.3521 27.7628C54.4501 27.9247 54.5779 28.0355 54.7356 28.0952C54.8933 28.1548 55.068 28.1847 55.2598 28.1847C55.4047 28.1847 55.5368 28.174 55.6561 28.1527C55.7797 28.1314 55.8734 28.1122 55.9373 28.0952L56.3272 29.9041C56.2037 29.9467 56.0268 29.9936 55.7967 30.0447C55.5708 30.0959 55.2939 30.1257 54.9657 30.1342C54.3862 30.1513 53.8642 30.0639 53.3997 29.8722C52.9352 29.6761 52.5666 29.3736 52.2939 28.9645C52.0254 28.5554 51.8933 28.044 51.8975 27.4304V17.8295ZM58.0835 30V20.1818H60.3974V30H58.0835ZM59.2468 18.7884C58.8803 18.7884 58.565 18.6669 58.3008 18.424C58.0366 18.1768 57.9045 17.8807 57.9045 17.5355C57.9045 17.1861 58.0366 16.8899 58.3008 16.647C58.565 16.3999 58.8803 16.2763 59.2468 16.2763C59.6175 16.2763 59.9329 16.3999 60.1928 16.647C60.457 16.8899 60.5891 17.1861 60.5891 17.5355C60.5891 17.8807 60.457 18.1768 60.1928 18.424C59.9329 18.6669 59.6175 18.7884 59.2468 18.7884ZM62.7768 30V20.1818H64.9885V21.8501H65.1035C65.3081 21.2876 65.6468 20.8487 66.1199 20.5334C66.5929 20.2138 67.1575 20.054 67.8137 20.054C68.4785 20.054 69.0389 20.2159 69.4949 20.5398C69.9551 20.8594 70.2789 21.2962 70.4664 21.8501H70.5687C70.786 21.3047 71.1525 20.87 71.6681 20.5462C72.188 20.218 72.8038 20.054 73.5154 20.054C74.4189 20.054 75.1561 20.3395 75.7271 20.9105C76.2981 21.4815 76.5836 22.3146 76.5836 23.4098V30H74.2633V23.7678C74.2633 23.1584 74.1014 22.7131 73.7775 22.4318C73.4537 22.1463 73.0574 22.0036 72.5886 22.0036C72.0304 22.0036 71.5936 22.1783 71.2782 22.5277C70.9672 22.8729 70.8116 23.3224 70.8116 23.8764V30H68.5424V23.6719C68.5424 23.1648 68.389 22.7599 68.0822 22.4574C67.7797 22.1548 67.3833 22.0036 66.8933 22.0036C66.5609 22.0036 66.2583 22.0888 65.9856 22.2592C65.7129 22.4254 65.4956 22.6619 65.3336 22.9688C65.1717 23.2713 65.0907 23.625 65.0907 24.0298V30H62.7768ZM83.2777 30.1918C82.2933 30.1918 81.4432 29.9872 80.7273 29.5781C80.0156 29.1648 79.468 28.581 79.0845 27.8267C78.701 27.0682 78.5092 26.1754 78.5092 25.1484C78.5092 24.1385 78.701 23.2521 79.0845 22.4893C79.4723 21.7223 80.0135 21.1257 80.7081 20.6996C81.4027 20.2692 82.2188 20.054 83.1562 20.054C83.7614 20.054 84.3324 20.152 84.8693 20.348C85.4105 20.5398 85.8878 20.8381 86.3011 21.2429C86.7188 21.6477 87.0469 22.1634 87.2855 22.7898C87.5241 23.4119 87.6435 24.1534 87.6435 25.0142V25.7237H79.5959V24.1641H85.4254C85.4212 23.7209 85.3253 23.3267 85.1378 22.9815C84.9503 22.6321 84.6882 22.3572 84.3516 22.157C84.0192 21.9567 83.6314 21.8565 83.1882 21.8565C82.7152 21.8565 82.2997 21.9716 81.9418 22.2017C81.5838 22.4276 81.3047 22.7259 81.1044 23.0966C80.9084 23.4631 80.8082 23.8658 80.804 24.3047V25.6662C80.804 26.2372 80.9084 26.7273 81.1172 27.1364C81.326 27.5412 81.6179 27.8523 81.9929 28.0696C82.3679 28.2827 82.8068 28.3892 83.3097 28.3892C83.6463 28.3892 83.951 28.3423 84.2237 28.2486C84.4964 28.1506 84.733 28.0078 84.9332 27.8203C85.1335 27.6328 85.2848 27.4006 85.3871 27.1236L87.5476 27.3665C87.4112 27.9375 87.1513 28.4361 86.7678 28.8622C86.3885 29.2841 85.9027 29.6122 85.3104 29.8466C84.718 30.0767 84.0405 30.1918 83.2777 30.1918ZM99.0389 20.1818V21.9716H93.2349V20.1818H99.0389ZM94.6859 30V19.255C94.6859 18.5945 94.8223 18.0447 95.095 17.6058C95.372 17.1669 95.7427 16.8388 96.2072 16.6214C96.6717 16.4041 97.1873 16.2955 97.7541 16.2955C98.1547 16.2955 98.5105 16.3274 98.8216 16.3913C99.1326 16.4553 99.3627 16.5128 99.5119 16.5639L99.0517 18.3537C98.9537 18.3239 98.8301 18.294 98.6809 18.2642C98.5318 18.2301 98.3656 18.2131 98.1824 18.2131C97.752 18.2131 97.4473 18.3175 97.2683 18.5263C97.0936 18.7308 97.0062 19.0249 97.0062 19.4084V30H94.6859ZM104.828 30.1918C103.844 30.1918 102.994 29.9872 102.278 29.5781C101.566 29.1648 101.019 28.581 100.635 27.8267C100.252 27.0682 100.06 26.1754 100.06 25.1484C100.06 24.1385 100.252 23.2521 100.635 22.4893C101.023 21.7223 101.564 21.1257 102.259 20.6996C102.953 20.2692 103.77 20.054 104.707 20.054C105.312 20.054 105.883 20.152 106.42 20.348C106.961 20.5398 107.439 20.8381 107.852 21.2429C108.27 21.6477 108.598 22.1634 108.836 22.7898C109.075 23.4119 109.194 24.1534 109.194 25.0142V25.7237H101.147V24.1641H106.976C106.972 23.7209 106.876 23.3267 106.689 22.9815C106.501 22.6321 106.239 22.3572 105.902 22.157C105.57 21.9567 105.182 21.8565 104.739 21.8565C104.266 21.8565 103.85 21.9716 103.493 22.2017C103.135 22.4276 102.855 22.7259 102.655 23.0966C102.459 23.4631 102.359 23.8658 102.355 24.3047V25.6662C102.355 26.2372 102.459 26.7273 102.668 27.1364C102.877 27.5412 103.169 27.8523 103.544 28.0696C103.919 28.2827 104.358 28.3892 104.86 28.3892C105.197 28.3892 105.502 28.3423 105.775 28.2486C106.047 28.1506 106.284 28.0078 106.484 27.8203C106.684 27.6328 106.836 27.4006 106.938 27.1236L109.098 27.3665C108.962 27.9375 108.702 28.4361 108.319 28.8622C107.939 29.2841 107.453 29.6122 106.861 29.8466C106.269 30.0767 105.591 30.1918 104.828 30.1918ZM118.912 22.777L116.802 23.0071C116.743 22.794 116.638 22.5938 116.489 22.4062C116.344 22.2188 116.148 22.0675 115.901 21.9524C115.654 21.8374 115.351 21.7798 114.993 21.7798C114.512 21.7798 114.107 21.8842 113.779 22.093C113.455 22.3018 113.295 22.5724 113.3 22.9048C113.295 23.1903 113.4 23.4226 113.613 23.6016C113.83 23.7805 114.188 23.9276 114.687 24.0426L116.361 24.4006C117.29 24.6009 117.981 24.9183 118.432 25.353C118.888 25.7876 119.118 26.3565 119.123 27.0597C119.118 27.6776 118.937 28.223 118.579 28.696C118.226 29.1648 117.733 29.5312 117.103 29.7955C116.472 30.0597 115.748 30.1918 114.93 30.1918C113.728 30.1918 112.76 29.9403 112.028 29.4375C111.295 28.9304 110.858 28.2251 110.717 27.3217L112.974 27.1044C113.076 27.5476 113.293 27.8821 113.626 28.108C113.958 28.3338 114.39 28.4467 114.923 28.4467C115.473 28.4467 115.914 28.3338 116.246 28.108C116.583 27.8821 116.751 27.603 116.751 27.2706C116.751 26.9893 116.643 26.7571 116.425 26.5739C116.212 26.3906 115.88 26.25 115.428 26.152L113.753 25.8004C112.812 25.6044 112.115 25.2741 111.663 24.8097C111.211 24.3409 110.988 23.7486 110.992 23.0327C110.988 22.4276 111.152 21.9034 111.484 21.4602C111.821 21.0128 112.287 20.6676 112.884 20.4247C113.485 20.1776 114.177 20.054 114.961 20.054C116.112 20.054 117.018 20.299 117.678 20.7891C118.343 21.2791 118.754 21.9418 118.912 22.777ZM125.933 20.1818V21.9716H120.289V20.1818H125.933ZM121.683 17.8295H123.997V27.0469C123.997 27.358 124.044 27.5966 124.137 27.7628C124.235 27.9247 124.363 28.0355 124.521 28.0952C124.678 28.1548 124.853 28.1847 125.045 28.1847C125.19 28.1847 125.322 28.174 125.441 28.1527C125.565 28.1314 125.659 28.1122 125.722 28.0952L126.112 29.9041C125.989 29.9467 125.812 29.9936 125.582 30.0447C125.356 30.0959 125.079 30.1257 124.751 30.1342C124.171 30.1513 123.649 30.0639 123.185 29.8722C122.72 29.6761 122.352 29.3736 122.079 28.9645C121.811 28.5554 121.678 28.044 121.683 27.4304V17.8295ZM137.306 20.1818V21.9716H131.502V20.1818H137.306ZM132.953 30V19.255C132.953 18.5945 133.09 18.0447 133.363 17.6058C133.64 17.1669 134.01 16.8388 134.475 16.6214C134.939 16.4041 135.455 16.2955 136.022 16.2955C136.422 16.2955 136.778 16.3274 137.089 16.3913C137.4 16.4553 137.63 16.5128 137.779 16.5639L137.319 18.3537C137.221 18.3239 137.098 18.294 136.949 18.2642C136.799 18.2301 136.633 18.2131 136.45 18.2131C136.02 18.2131 135.715 18.3175 135.536 18.5263C135.361 18.7308 135.274 19.0249 135.274 19.4084V30H132.953ZM143.032 30.1918C142.073 30.1918 141.242 29.9808 140.539 29.5589C139.836 29.1371 139.291 28.5469 138.903 27.7884C138.519 27.0298 138.328 26.1435 138.328 25.1293C138.328 24.1151 138.519 23.2266 138.903 22.4638C139.291 21.701 139.836 21.1087 140.539 20.6868C141.242 20.2649 142.073 20.054 143.032 20.054C143.991 20.054 144.822 20.2649 145.525 20.6868C146.228 21.1087 146.771 21.701 147.155 22.4638C147.543 23.2266 147.737 24.1151 147.737 25.1293C147.737 26.1435 147.543 27.0298 147.155 27.7884C146.771 28.5469 146.228 29.1371 145.525 29.5589C144.822 29.9808 143.991 30.1918 143.032 30.1918ZM143.045 28.3381C143.565 28.3381 143.999 28.1953 144.349 27.9098C144.698 27.62 144.958 27.2322 145.129 26.7464C145.303 26.2607 145.391 25.7195 145.391 25.1229C145.391 24.522 145.303 23.9787 145.129 23.4929C144.958 23.0028 144.698 22.6129 144.349 22.3232C143.999 22.0334 143.565 21.8885 143.045 21.8885C142.512 21.8885 142.069 22.0334 141.715 22.3232C141.366 22.6129 141.104 23.0028 140.929 23.4929C140.759 23.9787 140.673 24.522 140.673 25.1229C140.673 25.7195 140.759 26.2607 140.929 26.7464C141.104 27.2322 141.366 27.62 141.715 27.9098C142.069 28.1953 142.512 28.3381 143.045 28.3381ZM149.701 30V20.1818H151.944V21.8182H152.047C152.225 21.2514 152.532 20.8146 152.967 20.5078C153.406 20.1967 153.907 20.0412 154.469 20.0412C154.597 20.0412 154.74 20.0476 154.897 20.0604C155.059 20.0689 155.194 20.0838 155.3 20.1051V22.2337C155.202 22.1996 155.047 22.1697 154.833 22.1442C154.625 22.1143 154.422 22.0994 154.226 22.0994C153.804 22.0994 153.425 22.1911 153.088 22.3743C152.756 22.5533 152.494 22.8026 152.302 23.1222C152.11 23.4418 152.015 23.8104 152.015 24.228V30H149.701ZM164.127 30.1982C163.505 30.1982 162.945 30.0874 162.446 29.8658C161.952 29.6399 161.56 29.3075 161.27 28.8686C160.985 28.4297 160.842 27.8885 160.842 27.245C160.842 26.6911 160.944 26.233 161.149 25.8707C161.353 25.5085 161.632 25.2188 161.986 25.0014C162.34 24.7841 162.738 24.62 163.181 24.5092C163.629 24.3942 164.091 24.3111 164.569 24.2599C165.144 24.2003 165.61 24.147 165.968 24.1001C166.326 24.049 166.586 23.9723 166.748 23.87C166.914 23.7635 166.998 23.5994 166.998 23.3778V23.3395C166.998 22.858 166.855 22.4851 166.569 22.2209C166.284 21.9567 165.873 21.8246 165.336 21.8246C164.769 21.8246 164.319 21.9482 163.987 22.1953C163.659 22.4425 163.437 22.7344 163.322 23.071L161.162 22.7642C161.332 22.1676 161.613 21.669 162.005 21.2685C162.397 20.8636 162.877 20.5611 163.444 20.3608C164.01 20.1562 164.637 20.054 165.323 20.054C165.796 20.054 166.267 20.1094 166.735 20.2202C167.204 20.331 167.632 20.5142 168.02 20.7699C168.408 21.0213 168.719 21.3643 168.953 21.799C169.192 22.2337 169.311 22.777 169.311 23.429V30H167.087V28.6513H167.01C166.87 28.924 166.672 29.1797 166.416 29.4183C166.164 29.6527 165.847 29.8423 165.463 29.9872C165.084 30.1278 164.639 30.1982 164.127 30.1982ZM164.728 28.4979C165.193 28.4979 165.596 28.4062 165.936 28.223C166.277 28.0355 166.539 27.7884 166.723 27.4815C166.91 27.1747 167.004 26.8402 167.004 26.478V25.321C166.931 25.3807 166.808 25.4361 166.633 25.4872C166.463 25.5384 166.271 25.5831 166.058 25.6214C165.845 25.6598 165.634 25.6939 165.425 25.7237C165.216 25.7536 165.035 25.7791 164.882 25.8004C164.537 25.8473 164.228 25.924 163.955 26.0305C163.682 26.1371 163.467 26.2862 163.309 26.478C163.152 26.6655 163.073 26.9084 163.073 27.2067C163.073 27.6328 163.228 27.9545 163.539 28.1719C163.85 28.3892 164.247 28.4979 164.728 28.4979ZM173.952 16.9091V30H171.638V16.9091H173.952ZM178.645 16.9091V30H176.331V16.9091H178.645ZM194.26 20.1818L190.763 30H188.206L184.71 20.1818H187.177L189.434 27.4751H189.536L191.799 20.1818H194.26ZM199.809 30.1918C198.851 30.1918 198.02 29.9808 197.317 29.5589C196.613 29.1371 196.068 28.5469 195.68 27.7884C195.297 27.0298 195.105 26.1435 195.105 25.1293C195.105 24.1151 195.297 23.2266 195.68 22.4638C196.068 21.701 196.613 21.1087 197.317 20.6868C198.02 20.2649 198.851 20.054 199.809 20.054C200.768 20.054 201.599 20.2649 202.302 20.6868C203.006 21.1087 203.549 21.701 203.932 22.4638C204.32 23.2266 204.514 24.1151 204.514 25.1293C204.514 26.1435 204.32 27.0298 203.932 27.7884C203.549 28.5469 203.006 29.1371 202.302 29.5589C201.599 29.9808 200.768 30.1918 199.809 30.1918ZM199.822 28.3381C200.342 28.3381 200.777 28.1953 201.126 27.9098C201.476 27.62 201.736 27.2322 201.906 26.7464C202.081 26.2607 202.168 25.7195 202.168 25.1229C202.168 24.522 202.081 23.9787 201.906 23.4929C201.736 23.0028 201.476 22.6129 201.126 22.3232C200.777 22.0334 200.342 21.8885 199.822 21.8885C199.29 21.8885 198.846 22.0334 198.493 22.3232C198.143 22.6129 197.881 23.0028 197.706 23.4929C197.536 23.9787 197.451 24.522 197.451 25.1229C197.451 25.7195 197.536 26.2607 197.706 26.7464C197.881 27.2322 198.143 27.62 198.493 27.9098C198.846 28.1953 199.29 28.3381 199.822 28.3381ZM211.381 20.1818V21.9716H205.737V20.1818H211.381ZM207.13 17.8295H209.444V27.0469C209.444 27.358 209.491 27.5966 209.585 27.7628C209.683 27.9247 209.81 28.0355 209.968 28.0952C210.126 28.1548 210.3 28.1847 210.492 28.1847C210.637 28.1847 210.769 28.174 210.888 28.1527C211.012 28.1314 211.106 28.1122 211.17 28.0952L211.56 29.9041C211.436 29.9467 211.259 29.9936 211.029 30.0447C210.803 30.0959 210.526 30.1257 210.198 30.1342C209.619 30.1513 209.097 30.0639 208.632 29.8722C208.168 29.6761 207.799 29.3736 207.526 28.9645C207.258 28.5554 207.126 28.044 207.13 27.4304V17.8295ZM217.557 30.1918C216.573 30.1918 215.722 29.9872 215.007 29.5781C214.295 29.1648 213.747 28.581 213.364 27.8267C212.98 27.0682 212.789 26.1754 212.789 25.1484C212.789 24.1385 212.98 23.2521 213.364 22.4893C213.752 21.7223 214.293 21.1257 214.987 20.6996C215.682 20.2692 216.498 20.054 217.436 20.054C218.041 20.054 218.612 20.152 219.149 20.348C219.69 20.5398 220.167 20.8381 220.58 21.2429C220.998 21.6477 221.326 22.1634 221.565 22.7898C221.803 23.4119 221.923 24.1534 221.923 25.0142V25.7237H213.875V24.1641H219.705C219.7 23.7209 219.605 23.3267 219.417 22.9815C219.23 22.6321 218.968 22.3572 218.631 22.157C218.298 21.9567 217.911 21.8565 217.468 21.8565C216.994 21.8565 216.579 21.9716 216.221 22.2017C215.863 22.4276 215.584 22.7259 215.384 23.0966C215.188 23.4631 215.088 23.8658 215.083 24.3047V25.6662C215.083 26.2372 215.188 26.7273 215.396 27.1364C215.605 27.5412 215.897 27.8523 216.272 28.0696C216.647 28.2827 217.086 28.3892 217.589 28.3892C217.926 28.3892 218.23 28.3423 218.503 28.2486C218.776 28.1506 219.012 28.0078 219.213 27.8203C219.413 27.6328 219.564 27.4006 219.666 27.1236L221.827 27.3665C221.691 27.9375 221.431 28.4361 221.047 28.8622C220.668 29.2841 220.182 29.6122 219.59 29.8466C218.997 30.0767 218.32 30.1918 217.557 30.1918ZM231.64 22.777L229.531 23.0071C229.471 22.794 229.367 22.5938 229.218 22.4062C229.073 22.2188 228.877 22.0675 228.63 21.9524C228.382 21.8374 228.08 21.7798 227.722 21.7798C227.24 21.7798 226.836 21.8842 226.507 22.093C226.184 22.3018 226.024 22.5724 226.028 22.9048C226.024 23.1903 226.128 23.4226 226.341 23.6016C226.559 23.7805 226.917 23.9276 227.415 24.0426L229.09 24.4006C230.019 24.6009 230.709 24.9183 231.161 25.353C231.617 25.7876 231.847 26.3565 231.851 27.0597C231.847 27.6776 231.666 28.223 231.308 28.696C230.954 29.1648 230.462 29.5312 229.831 29.7955C229.201 30.0597 228.476 30.1918 227.658 30.1918C226.456 30.1918 225.489 29.9403 224.756 29.4375C224.023 28.9304 223.586 28.2251 223.446 27.3217L225.702 27.1044C225.804 27.5476 226.022 27.8821 226.354 28.108C226.686 28.3338 227.119 28.4467 227.652 28.4467C228.201 28.4467 228.642 28.3338 228.975 28.108C229.311 27.8821 229.48 27.603 229.48 27.2706C229.48 26.9893 229.371 26.7571 229.154 26.5739C228.941 26.3906 228.608 26.25 228.157 26.152L226.482 25.8004C225.54 25.6044 224.843 25.2741 224.392 24.8097C223.94 24.3409 223.716 23.7486 223.721 23.0327C223.716 22.4276 223.88 21.9034 224.213 21.4602C224.549 21.0128 225.016 20.6676 225.613 20.4247C226.213 20.1776 226.906 20.054 227.69 20.054C228.841 20.054 229.746 20.299 230.407 20.7891C231.071 21.2791 231.483 21.9418 231.64 22.777ZM235.185 30.1406C234.797 30.1406 234.464 30.0043 234.188 29.7315C233.911 29.4588 233.774 29.1264 233.778 28.7344C233.774 28.3509 233.911 28.0227 234.188 27.75C234.464 27.4773 234.797 27.3409 235.185 27.3409C235.56 27.3409 235.886 27.4773 236.163 27.75C236.444 28.0227 236.587 28.3509 236.591 28.7344C236.587 28.9943 236.518 29.2308 236.386 29.4439C236.259 29.657 236.088 29.8274 235.875 29.9553C235.666 30.0788 235.436 30.1406 235.185 30.1406ZM235.185 23.1349C234.797 23.1349 234.464 22.9986 234.188 22.7259C233.911 22.4489 233.774 22.1165 233.778 21.7287C233.774 21.3452 233.911 21.017 234.188 20.7443C234.464 20.4673 234.797 20.3288 235.185 20.3288C235.56 20.3288 235.886 20.4673 236.163 20.7443C236.444 21.017 236.587 21.3452 236.591 21.7287C236.587 21.9844 236.518 22.2187 236.386 22.4318C236.259 22.6449 236.088 22.8153 235.875 22.9432C235.666 23.071 235.436 23.1349 235.185 23.1349Z" fill="white"/>
<path d="M289.114 129.773V138.5H288.057V129.773H289.114ZM292.102 134.562V138.5H291.096V131.955H292.068V132.977H292.153C292.306 132.645 292.539 132.378 292.852 132.176C293.164 131.972 293.568 131.869 294.062 131.869C294.505 131.869 294.893 131.96 295.225 132.142C295.558 132.321 295.816 132.594 296.001 132.96C296.186 133.324 296.278 133.784 296.278 134.341V138.5H295.272V134.409C295.272 133.895 295.139 133.494 294.872 133.207C294.605 132.918 294.238 132.773 293.772 132.773C293.451 132.773 293.164 132.842 292.912 132.982C292.662 133.121 292.464 133.324 292.319 133.591C292.174 133.858 292.102 134.182 292.102 134.562ZM303.234 131.955L300.813 138.5H299.79L297.37 131.955H298.461L300.268 137.17H300.336L302.143 131.955H303.234ZM304.561 138.5V131.955H305.567V138.5H304.561ZM305.072 130.864C304.876 130.864 304.707 130.797 304.565 130.663C304.426 130.53 304.357 130.369 304.357 130.182C304.357 129.994 304.426 129.834 304.565 129.7C304.707 129.567 304.876 129.5 305.072 129.5C305.268 129.5 305.436 129.567 305.575 129.7C305.717 129.834 305.788 129.994 305.788 130.182C305.788 130.369 305.717 130.53 305.575 130.663C305.436 130.797 305.268 130.864 305.072 130.864ZM310.255 131.955V132.807H306.863V131.955H310.255ZM307.852 130.386H308.858V136.625C308.858 136.909 308.899 137.122 308.981 137.264C309.066 137.403 309.174 137.497 309.305 137.545C309.439 137.591 309.579 137.614 309.727 137.614C309.838 137.614 309.929 137.608 310 137.597C310.071 137.582 310.127 137.571 310.17 137.562L310.375 138.466C310.306 138.491 310.211 138.517 310.089 138.543C309.967 138.571 309.812 138.585 309.625 138.585C309.341 138.585 309.062 138.524 308.789 138.402C308.52 138.28 308.295 138.094 308.116 137.844C307.94 137.594 307.852 137.278 307.852 136.898V130.386ZM314.442 138.636C313.811 138.636 313.267 138.497 312.81 138.219C312.355 137.938 312.005 137.545 311.757 137.043C311.513 136.537 311.391 135.949 311.391 135.278C311.391 134.608 311.513 134.017 311.757 133.506C312.005 132.991 312.348 132.591 312.789 132.304C313.232 132.014 313.749 131.869 314.34 131.869C314.681 131.869 315.017 131.926 315.35 132.04C315.682 132.153 315.985 132.338 316.257 132.594C316.53 132.847 316.748 133.182 316.909 133.599C317.071 134.017 317.152 134.531 317.152 135.142V135.568H312.107V134.699H316.13C316.13 134.33 316.056 134 315.908 133.71C315.763 133.42 315.556 133.192 315.286 133.024C315.019 132.857 314.703 132.773 314.34 132.773C313.939 132.773 313.593 132.872 313.3 133.071C313.01 133.267 312.787 133.523 312.631 133.838C312.475 134.153 312.397 134.491 312.397 134.852V135.432C312.397 135.926 312.482 136.345 312.652 136.689C312.826 137.03 313.066 137.29 313.373 137.469C313.679 137.645 314.036 137.733 314.442 137.733C314.706 137.733 314.945 137.696 315.158 137.622C315.374 137.545 315.56 137.432 315.716 137.281C315.873 137.128 315.993 136.937 316.078 136.71L317.05 136.983C316.948 137.312 316.776 137.602 316.534 137.852C316.293 138.099 315.995 138.293 315.64 138.432C315.284 138.568 314.885 138.636 314.442 138.636ZM321.154 138.636C320.608 138.636 320.127 138.499 319.709 138.223C319.292 137.945 318.965 137.553 318.729 137.047C318.493 136.538 318.375 135.938 318.375 135.244C318.375 134.557 318.493 133.96 318.729 133.455C318.965 132.949 319.293 132.558 319.713 132.283C320.134 132.007 320.62 131.869 321.171 131.869C321.597 131.869 321.934 131.94 322.181 132.082C322.431 132.222 322.621 132.381 322.752 132.56C322.885 132.736 322.989 132.881 323.063 132.994H323.148V129.773H324.154V138.5H323.182V137.494H323.063C322.989 137.614 322.884 137.764 322.748 137.946C322.611 138.125 322.417 138.286 322.164 138.428C321.911 138.567 321.574 138.636 321.154 138.636ZM321.29 137.733C321.694 137.733 322.034 137.628 322.313 137.418C322.591 137.205 322.803 136.911 322.948 136.536C323.093 136.158 323.165 135.722 323.165 135.227C323.165 134.739 323.094 134.311 322.952 133.945C322.81 133.575 322.6 133.288 322.321 133.084C322.043 132.876 321.699 132.773 321.29 132.773C320.864 132.773 320.509 132.882 320.225 133.101C319.944 133.317 319.732 133.611 319.59 133.983C319.451 134.352 319.381 134.767 319.381 135.227C319.381 135.693 319.452 136.116 319.594 136.497C319.739 136.875 319.952 137.176 320.233 137.401C320.517 137.622 320.87 137.733 321.29 137.733Z" fill="#E89005"/>
<g clip-path="url(#clip2_73_5546)">
<path d="M346.667 137.333V138.667H338.667V137.333C338.667 137.333 338.667 134.667 342.667 134.667C346.667 134.667 346.667 137.333 346.667 137.333ZM344.667 131.333C344.667 130.938 344.549 130.551 344.33 130.222C344.11 129.893 343.797 129.637 343.432 129.486C343.067 129.334 342.664 129.295 342.276 129.372C341.889 129.449 341.532 129.639 341.252 129.919C340.973 130.199 340.782 130.555 340.705 130.943C340.628 131.331 340.668 131.733 340.819 132.099C340.97 132.464 341.227 132.777 341.556 132.996C341.884 133.216 342.271 133.333 342.667 133.333C343.197 133.333 343.706 133.123 344.081 132.748C344.456 132.373 344.667 131.864 344.667 131.333ZM346.8 134.707C347.164 135.043 347.458 135.448 347.664 135.899C347.87 136.35 347.984 136.838 348 137.333V138.667H350V137.333C350 137.333 350 135.033 346.8 134.707ZM346 129.333C345.799 129.333 345.598 129.365 345.407 129.427C345.797 129.986 346.006 130.651 346.006 131.333C346.006 132.015 345.797 132.681 345.407 133.24C345.598 133.302 345.799 133.333 346 133.333C346.53 133.333 347.039 133.123 347.414 132.748C347.789 132.373 348 131.864 348 131.333C348 130.803 347.789 130.294 347.414 129.919C347.039 129.544 346.53 129.333 346 129.333ZM339.333 132.667H337.333V130.667H336V132.667H334V134H336V136H337.333V134H339.333V132.667Z" fill="#E89005"/>
</g>
<rect x="12" y="126" width="57" height="16" rx="8" fill="#707073"/>
<path d="M28.5739 137V131.182H32.358V132.065H29.6278V133.645H32.1619V134.528H29.6278V136.116H32.3807V137H28.5739ZM34.4162 134.443V137H33.3878V132.636H34.3707V133.378H34.4219C34.5223 133.134 34.6823 132.939 34.902 132.795C35.1236 132.652 35.3973 132.58 35.723 132.58C36.0241 132.58 36.2865 132.644 36.5099 132.773C36.7353 132.902 36.9096 133.088 37.0327 133.332C37.1577 133.577 37.2192 133.873 37.2173 134.222V137H36.1889V134.381C36.1889 134.089 36.1132 133.861 35.9616 133.696C35.812 133.531 35.6046 133.449 35.3395 133.449C35.1596 133.449 34.9995 133.489 34.8594 133.568C34.7211 133.646 34.6122 133.759 34.5327 133.906C34.455 134.054 34.4162 134.233 34.4162 134.443ZM39.8821 137.077C39.5393 137.077 39.2325 136.989 38.9616 136.812C38.6908 136.636 38.4768 136.381 38.3196 136.045C38.1624 135.71 38.0838 135.303 38.0838 134.824C38.0838 134.339 38.1634 133.93 38.3224 133.597C38.4834 133.261 38.7003 133.009 38.973 132.838C39.2457 132.666 39.5497 132.58 39.8849 132.58C40.1406 132.58 40.3509 132.623 40.5156 132.71C40.6804 132.795 40.8111 132.899 40.9077 133.02C41.0043 133.139 41.0791 133.252 41.1321 133.358H41.1747V131.182H42.206V137H41.1946V136.312H41.1321C41.0791 136.419 41.0024 136.531 40.902 136.651C40.8016 136.768 40.669 136.868 40.5043 136.952C40.3395 137.035 40.1321 137.077 39.8821 137.077ZM40.169 136.233C40.3868 136.233 40.5724 136.174 40.7259 136.057C40.8793 135.937 40.9957 135.772 41.0753 135.56C41.1548 135.348 41.1946 135.1 41.1946 134.818C41.1946 134.536 41.1548 134.291 41.0753 134.082C40.9976 133.874 40.8821 133.712 40.7287 133.597C40.5772 133.481 40.3906 133.423 40.169 133.423C39.9399 133.423 39.7486 133.483 39.5952 133.602C39.4418 133.722 39.3262 133.886 39.2486 134.097C39.1709 134.307 39.1321 134.547 39.1321 134.818C39.1321 135.091 39.1709 135.334 39.2486 135.548C39.3281 135.76 39.4446 135.928 39.598 136.051C39.7533 136.172 39.9437 136.233 40.169 136.233ZM45.2337 137.085C44.7962 137.085 44.4183 136.994 44.1001 136.812C43.7839 136.629 43.5405 136.369 43.37 136.034C43.1996 135.697 43.1143 135.3 43.1143 134.844C43.1143 134.395 43.1996 134.001 43.37 133.662C43.5424 133.321 43.7829 133.056 44.0916 132.866C44.4003 132.675 44.763 132.58 45.1797 132.58C45.4486 132.58 45.7024 132.623 45.9411 132.71C46.1816 132.795 46.3937 132.928 46.5774 133.108C46.763 133.288 46.9089 133.517 47.0149 133.795C47.121 134.072 47.174 134.402 47.174 134.784V135.099H43.5973V134.406H46.1882C46.1863 134.209 46.1437 134.034 46.0604 133.881C45.977 133.725 45.8606 133.603 45.7109 133.514C45.5632 133.425 45.3909 133.381 45.1939 133.381C44.9837 133.381 44.799 133.432 44.6399 133.534C44.4808 133.634 44.3568 133.767 44.2678 133.932C44.1806 134.095 44.1361 134.274 44.1342 134.469V135.074C44.1342 135.328 44.1806 135.545 44.2734 135.727C44.3662 135.907 44.496 136.045 44.6626 136.142C44.8293 136.237 45.0244 136.284 45.2479 136.284C45.3975 136.284 45.5329 136.263 45.6541 136.222C45.7753 136.178 45.8804 136.115 45.9695 136.031C46.0585 135.948 46.1257 135.845 46.1712 135.722L47.1314 135.83C47.0708 136.083 46.9553 136.305 46.7848 136.494C46.6162 136.682 46.4003 136.828 46.1371 136.932C45.8738 137.034 45.5727 137.085 45.2337 137.085ZM49.6634 137.077C49.3205 137.077 49.0137 136.989 48.7429 136.812C48.4721 136.636 48.258 136.381 48.1009 136.045C47.9437 135.71 47.8651 135.303 47.8651 134.824C47.8651 134.339 47.9446 133.93 48.1037 133.597C48.2647 133.261 48.4815 133.009 48.7543 132.838C49.027 132.666 49.331 132.58 49.6662 132.58C49.9219 132.58 50.1321 132.623 50.2969 132.71C50.4616 132.795 50.5923 132.899 50.6889 133.02C50.7855 133.139 50.8603 133.252 50.9134 133.358H50.956V131.182H51.9872V137H50.9759V136.312H50.9134C50.8603 136.419 50.7836 136.531 50.6832 136.651C50.5829 136.768 50.4503 136.868 50.2855 136.952C50.1207 137.035 49.9134 137.077 49.6634 137.077ZM49.9503 136.233C50.1681 136.233 50.3537 136.174 50.5071 136.057C50.6605 135.937 50.777 135.772 50.8565 135.56C50.9361 135.348 50.9759 135.1 50.9759 134.818C50.9759 134.536 50.9361 134.291 50.8565 134.082C50.7789 133.874 50.6634 133.712 50.5099 133.597C50.3584 133.481 50.1719 133.423 49.9503 133.423C49.7211 133.423 49.5298 133.483 49.3764 133.602C49.223 133.722 49.1075 133.886 49.0298 134.097C48.9522 134.307 48.9134 134.547 48.9134 134.818C48.9134 135.091 48.9522 135.334 49.0298 135.548C49.1094 135.76 49.2259 135.928 49.3793 136.051C49.5346 136.172 49.7249 136.233 49.9503 136.233Z" fill="#FEFEFF"/>
<path d="M86.321 137H85.196L87.2443 131.182H88.5455L90.5966 137H89.4716L87.9176 132.375H87.8722L86.321 137ZM86.358 134.719H89.4261V135.565H86.358V134.719ZM91.3629 137V131.182H92.3913V133.358H92.4339C92.487 133.252 92.5618 133.139 92.6584 133.02C92.755 132.899 92.8857 132.795 93.0504 132.71C93.2152 132.623 93.4254 132.58 93.6811 132.58C94.0182 132.58 94.3222 132.666 94.593 132.838C94.8658 133.009 95.0817 133.261 95.2408 133.597C95.4018 133.93 95.4822 134.339 95.4822 134.824C95.4822 135.303 95.4036 135.71 95.2464 136.045C95.0893 136.381 94.8752 136.636 94.6044 136.812C94.3336 136.989 94.0268 137.077 93.6839 137.077C93.4339 137.077 93.2266 137.035 93.0618 136.952C92.897 136.868 92.7644 136.768 92.6641 136.651C92.5656 136.531 92.4889 136.419 92.4339 136.312H92.3743V137H91.3629ZM92.3714 134.818C92.3714 135.1 92.4112 135.348 92.4908 135.56C92.5722 135.772 92.6887 135.937 92.8402 136.057C92.9936 136.174 93.1792 136.233 93.397 136.233C93.6243 136.233 93.8146 136.172 93.968 136.051C94.1214 135.928 94.237 135.76 94.3146 135.548C94.3942 135.334 94.4339 135.091 94.4339 134.818C94.4339 134.547 94.3951 134.307 94.3175 134.097C94.2398 133.886 94.1243 133.722 93.9709 133.602C93.8175 133.483 93.6262 133.423 93.397 133.423C93.1773 133.423 92.9908 133.481 92.8374 133.597C92.6839 133.712 92.5675 133.874 92.4879 134.082C92.4103 134.291 92.3714 134.536 92.3714 134.818ZM98.2599 137.085C97.8338 137.085 97.4645 136.991 97.152 136.804C96.8395 136.616 96.5971 136.354 96.4247 136.017C96.2543 135.68 96.169 135.286 96.169 134.835C96.169 134.384 96.2543 133.99 96.4247 133.651C96.5971 133.312 96.8395 133.048 97.152 132.861C97.4645 132.673 97.8338 132.58 98.2599 132.58C98.6861 132.58 99.0554 132.673 99.3679 132.861C99.6804 133.048 99.9219 133.312 100.092 133.651C100.265 133.99 100.351 134.384 100.351 134.835C100.351 135.286 100.265 135.68 100.092 136.017C99.9219 136.354 99.6804 136.616 99.3679 136.804C99.0554 136.991 98.6861 137.085 98.2599 137.085ZM98.2656 136.261C98.4967 136.261 98.6899 136.198 98.8452 136.071C99.0005 135.942 99.116 135.77 99.1918 135.554C99.2694 135.338 99.3082 135.098 99.3082 134.832C99.3082 134.565 99.2694 134.324 99.1918 134.108C99.116 133.89 99.0005 133.717 98.8452 133.588C98.6899 133.459 98.4967 133.395 98.2656 133.395C98.0289 133.395 97.8319 133.459 97.6747 133.588C97.5194 133.717 97.4029 133.89 97.3253 134.108C97.2495 134.324 97.2116 134.565 97.2116 134.832C97.2116 135.098 97.2495 135.338 97.3253 135.554C97.4029 135.77 97.5194 135.942 97.6747 136.071C97.8319 136.198 98.0289 136.261 98.2656 136.261ZM104.005 135.165V132.636H105.033V137H104.036V136.224H103.991C103.892 136.469 103.73 136.669 103.505 136.824C103.281 136.979 103.006 137.057 102.678 137.057C102.392 137.057 102.139 136.993 101.92 136.866C101.702 136.738 101.531 136.551 101.408 136.307C101.285 136.061 101.224 135.763 101.224 135.415V132.636H102.252V135.256C102.252 135.532 102.328 135.752 102.479 135.915C102.631 136.078 102.83 136.159 103.076 136.159C103.228 136.159 103.374 136.122 103.516 136.048C103.658 135.974 103.775 135.865 103.866 135.719C103.959 135.571 104.005 135.386 104.005 135.165ZM108.27 132.636V133.432H105.761V132.636H108.27ZM106.381 131.591H107.409V135.688C107.409 135.826 107.43 135.932 107.472 136.006C107.515 136.078 107.572 136.127 107.642 136.153C107.712 136.18 107.79 136.193 107.875 136.193C107.939 136.193 107.998 136.188 108.051 136.179C108.106 136.17 108.148 136.161 108.176 136.153L108.349 136.957C108.295 136.976 108.216 136.997 108.114 137.02C108.013 137.043 107.89 137.056 107.744 137.06C107.487 137.067 107.255 137.028 107.048 136.943C106.842 136.856 106.678 136.722 106.557 136.54C106.438 136.358 106.379 136.131 106.381 135.858V131.591ZM113.191 137.08C112.782 137.08 112.418 137.009 112.1 136.869C111.784 136.729 111.534 136.534 111.35 136.284C111.166 136.034 111.069 135.745 111.058 135.418H112.126C112.135 135.575 112.187 135.712 112.282 135.83C112.377 135.945 112.503 136.035 112.66 136.099C112.817 136.164 112.993 136.196 113.188 136.196C113.397 136.196 113.581 136.16 113.742 136.088C113.903 136.014 114.029 135.912 114.12 135.781C114.211 135.651 114.255 135.5 114.254 135.33C114.255 135.153 114.21 134.998 114.117 134.864C114.024 134.729 113.89 134.624 113.714 134.548C113.54 134.473 113.329 134.435 113.083 134.435H112.569V133.622H113.083C113.286 133.622 113.463 133.587 113.614 133.517C113.768 133.447 113.888 133.348 113.975 133.222C114.062 133.093 114.105 132.944 114.103 132.776C114.105 132.611 114.068 132.468 113.992 132.347C113.918 132.223 113.813 132.128 113.677 132.06C113.542 131.991 113.384 131.957 113.202 131.957C113.024 131.957 112.86 131.99 112.708 132.054C112.557 132.118 112.434 132.21 112.342 132.33C112.249 132.447 112.2 132.587 112.194 132.75H111.18C111.187 132.424 111.281 132.138 111.461 131.892C111.643 131.644 111.885 131.451 112.188 131.312C112.491 131.172 112.831 131.102 113.208 131.102C113.596 131.102 113.933 131.175 114.219 131.321C114.507 131.465 114.73 131.659 114.887 131.903C115.044 132.148 115.123 132.418 115.123 132.713C115.125 133.041 115.028 133.315 114.833 133.537C114.64 133.759 114.386 133.903 114.072 133.972V134.017C114.481 134.074 114.794 134.225 115.012 134.472C115.232 134.716 115.341 135.02 115.339 135.384C115.339 135.709 115.246 136.001 115.06 136.259C114.877 136.514 114.623 136.715 114.299 136.861C113.977 137.007 113.608 137.08 113.191 137.08ZM118.402 137.08C117.993 137.08 117.629 137.009 117.311 136.869C116.995 136.729 116.745 136.534 116.561 136.284C116.377 136.034 116.28 135.745 116.268 135.418H117.337C117.346 135.575 117.398 135.712 117.493 135.83C117.588 135.945 117.714 136.035 117.871 136.099C118.028 136.164 118.204 136.196 118.399 136.196C118.607 136.196 118.792 136.16 118.953 136.088C119.114 136.014 119.24 135.912 119.331 135.781C119.422 135.651 119.466 135.5 119.464 135.33C119.466 135.153 119.421 134.998 119.328 134.864C119.235 134.729 119.101 134.624 118.925 134.548C118.75 134.473 118.54 134.435 118.294 134.435H117.78V133.622H118.294C118.497 133.622 118.674 133.587 118.825 133.517C118.979 133.447 119.099 133.348 119.186 133.222C119.273 133.093 119.316 132.944 119.314 132.776C119.316 132.611 119.279 132.468 119.203 132.347C119.129 132.223 119.024 132.128 118.888 132.06C118.753 131.991 118.595 131.957 118.413 131.957C118.235 131.957 118.071 131.99 117.919 132.054C117.768 132.118 117.645 132.21 117.553 132.33C117.46 132.447 117.411 132.587 117.405 132.75H116.391C116.398 132.424 116.492 132.138 116.672 131.892C116.854 131.644 117.096 131.451 117.399 131.312C117.702 131.172 118.042 131.102 118.419 131.102C118.807 131.102 119.144 131.175 119.43 131.321C119.718 131.465 119.941 131.659 120.098 131.903C120.255 132.148 120.334 132.418 120.334 132.713C120.336 133.041 120.239 133.315 120.044 133.537C119.851 133.759 119.597 133.903 119.283 133.972V134.017C119.692 134.074 120.005 134.225 120.223 134.472C120.443 134.716 120.552 135.02 120.55 135.384C120.55 135.709 120.457 136.001 120.271 136.259C120.088 136.514 119.834 136.715 119.51 136.861C119.188 137.007 118.819 137.08 118.402 137.08ZM123.548 137.08C123.169 137.08 122.83 137.009 122.531 136.866C122.231 136.723 121.994 136.526 121.817 136.276C121.643 136.026 121.55 135.74 121.539 135.418H122.562C122.581 135.656 122.684 135.851 122.871 136.003C123.059 136.152 123.284 136.227 123.548 136.227C123.754 136.227 123.938 136.18 124.099 136.085C124.26 135.991 124.387 135.859 124.479 135.69C124.572 135.522 124.618 135.33 124.616 135.114C124.618 134.894 124.571 134.699 124.477 134.528C124.382 134.358 124.252 134.224 124.087 134.128C123.923 134.029 123.733 133.98 123.519 133.98C123.345 133.978 123.174 134.01 123.005 134.077C122.836 134.143 122.703 134.23 122.604 134.338L121.653 134.182L121.957 131.182H125.332V132.062H122.829L122.661 133.605H122.695C122.803 133.478 122.956 133.373 123.153 133.29C123.35 133.205 123.566 133.162 123.8 133.162C124.153 133.162 124.467 133.245 124.744 133.412C125.02 133.577 125.238 133.804 125.397 134.094C125.556 134.384 125.636 134.715 125.636 135.088C125.636 135.473 125.547 135.815 125.369 136.116C125.192 136.416 124.947 136.652 124.633 136.824C124.32 136.994 123.959 137.08 123.548 137.08ZM127.536 135.631L127.533 134.389H127.698L129.266 132.636H130.468L128.539 134.784H128.326L127.536 135.631ZM126.599 137V131.182H127.627V137H126.599ZM129.337 137L127.917 135.014L128.61 134.29L130.567 137H129.337ZM137.036 132.636L135.482 137H134.345L132.791 132.636H133.888L134.891 135.878H134.936L135.942 132.636H137.036ZM139.502 137.085C139.076 137.085 138.707 136.991 138.394 136.804C138.082 136.616 137.839 136.354 137.667 136.017C137.496 135.68 137.411 135.286 137.411 134.835C137.411 134.384 137.496 133.99 137.667 133.651C137.839 133.312 138.082 133.048 138.394 132.861C138.707 132.673 139.076 132.58 139.502 132.58C139.928 132.58 140.298 132.673 140.61 132.861C140.923 133.048 141.164 133.312 141.335 133.651C141.507 133.99 141.593 134.384 141.593 134.835C141.593 135.286 141.507 135.68 141.335 136.017C141.164 136.354 140.923 136.616 140.61 136.804C140.298 136.991 139.928 137.085 139.502 137.085ZM139.508 136.261C139.739 136.261 139.932 136.198 140.087 136.071C140.243 135.942 140.358 135.77 140.434 135.554C140.512 135.338 140.55 135.098 140.55 134.832C140.55 134.565 140.512 134.324 140.434 134.108C140.358 133.89 140.243 133.717 140.087 133.588C139.932 133.459 139.739 133.395 139.508 133.395C139.271 133.395 139.074 133.459 138.917 133.588C138.762 133.717 138.645 133.89 138.567 134.108C138.492 134.324 138.454 134.565 138.454 134.832C138.454 135.098 138.492 135.338 138.567 135.554C138.645 135.77 138.762 135.942 138.917 136.071C139.074 136.198 139.271 136.261 139.508 136.261ZM144.645 132.636V133.432H142.136V132.636H144.645ZM142.756 131.591H143.784V135.688C143.784 135.826 143.805 135.932 143.847 136.006C143.89 136.078 143.947 136.127 144.017 136.153C144.087 136.18 144.165 136.193 144.25 136.193C144.314 136.193 144.373 136.188 144.426 136.179C144.481 136.17 144.523 136.161 144.551 136.153L144.724 136.957C144.67 136.976 144.591 136.997 144.489 137.02C144.388 137.043 144.265 137.056 144.119 137.06C143.862 137.067 143.63 137.028 143.423 136.943C143.217 136.856 143.053 136.722 142.932 136.54C142.813 136.358 142.754 136.131 142.756 135.858V131.591ZM147.39 137.085C146.952 137.085 146.575 136.994 146.256 136.812C145.94 136.629 145.697 136.369 145.526 136.034C145.356 135.697 145.271 135.3 145.271 134.844C145.271 134.395 145.356 134.001 145.526 133.662C145.699 133.321 145.939 133.056 146.248 132.866C146.557 132.675 146.919 132.58 147.336 132.58C147.605 132.58 147.859 132.623 148.097 132.71C148.338 132.795 148.55 132.928 148.734 133.108C148.919 133.288 149.065 133.517 149.171 133.795C149.277 134.072 149.33 134.402 149.33 134.784V135.099H145.754V134.406H148.344C148.343 134.209 148.3 134.034 148.217 133.881C148.133 133.725 148.017 133.603 147.867 133.514C147.719 133.425 147.547 133.381 147.35 133.381C147.14 133.381 146.955 133.432 146.796 133.534C146.637 133.634 146.513 133.767 146.424 133.932C146.337 134.095 146.292 134.274 146.29 134.469V135.074C146.29 135.328 146.337 135.545 146.43 135.727C146.522 135.907 146.652 136.045 146.819 136.142C146.986 136.237 147.181 136.284 147.404 136.284C147.554 136.284 147.689 136.263 147.81 136.222C147.932 136.178 148.037 136.115 148.126 136.031C148.215 135.948 148.282 135.845 148.327 135.722L149.288 135.83C149.227 136.083 149.112 136.305 148.941 136.494C148.772 136.682 148.557 136.828 148.293 136.932C148.03 137.034 147.729 137.085 147.39 137.085ZM153.649 133.79L152.712 133.892C152.685 133.797 152.639 133.708 152.572 133.625C152.508 133.542 152.421 133.474 152.311 133.423C152.201 133.372 152.067 133.347 151.908 133.347C151.694 133.347 151.514 133.393 151.368 133.486C151.224 133.579 151.153 133.699 151.155 133.847C151.153 133.973 151.199 134.077 151.294 134.156C151.391 134.236 151.55 134.301 151.771 134.352L152.516 134.511C152.929 134.6 153.235 134.741 153.436 134.935C153.639 135.128 153.741 135.381 153.743 135.693C153.741 135.968 153.661 136.21 153.501 136.42C153.344 136.629 153.125 136.792 152.845 136.909C152.565 137.027 152.243 137.085 151.879 137.085C151.345 137.085 150.915 136.973 150.589 136.75C150.264 136.525 150.07 136.211 150.007 135.81L151.01 135.713C151.055 135.91 151.152 136.059 151.3 136.159C151.447 136.259 151.64 136.31 151.876 136.31C152.121 136.31 152.317 136.259 152.464 136.159C152.614 136.059 152.689 135.935 152.689 135.787C152.689 135.662 152.641 135.559 152.544 135.477C152.449 135.396 152.302 135.333 152.101 135.29L151.357 135.134C150.938 135.046 150.628 134.9 150.428 134.693C150.227 134.485 150.127 134.222 150.129 133.903C150.127 133.634 150.2 133.402 150.348 133.205C150.498 133.006 150.705 132.852 150.97 132.744C151.237 132.634 151.545 132.58 151.893 132.58C152.405 132.58 152.807 132.688 153.101 132.906C153.396 133.124 153.579 133.419 153.649 133.79Z" fill="#FEFEFF"/>
<path d="M160.473 132.636L158.919 137H157.783L156.229 132.636H157.325L158.328 135.878H158.374L159.379 132.636H160.473ZM162.968 137.085C162.531 137.085 162.153 136.994 161.835 136.812C161.518 136.629 161.275 136.369 161.104 136.034C160.934 135.697 160.849 135.3 160.849 134.844C160.849 134.395 160.934 134.001 161.104 133.662C161.277 133.321 161.517 133.056 161.826 132.866C162.135 132.675 162.497 132.58 162.914 132.58C163.183 132.58 163.437 132.623 163.675 132.71C163.916 132.795 164.128 132.928 164.312 133.108C164.497 133.288 164.643 133.517 164.749 133.795C164.855 134.072 164.908 134.402 164.908 134.784V135.099H161.332V134.406H163.923C163.921 134.209 163.878 134.034 163.795 133.881C163.711 133.725 163.595 133.603 163.445 133.514C163.298 133.425 163.125 133.381 162.928 133.381C162.718 133.381 162.533 133.432 162.374 133.534C162.215 133.634 162.091 133.767 162.002 133.932C161.915 134.095 161.871 134.274 161.869 134.469V135.074C161.869 135.328 161.915 135.545 162.008 135.727C162.101 135.907 162.23 136.045 162.397 136.142C162.564 136.237 162.759 136.284 162.982 136.284C163.132 136.284 163.267 136.263 163.388 136.222C163.51 136.178 163.615 136.115 163.704 136.031C163.793 135.948 163.86 135.845 163.906 135.722L164.866 135.83C164.805 136.083 164.69 136.305 164.519 136.494C164.351 136.682 164.135 136.828 163.871 136.932C163.608 137.034 163.307 137.085 162.968 137.085ZM165.778 137V132.636H166.776V133.364H166.821C166.901 133.112 167.037 132.918 167.23 132.781C167.425 132.643 167.648 132.574 167.898 132.574C167.955 132.574 168.018 132.577 168.088 132.582C168.16 132.586 168.22 132.593 168.267 132.602V133.548C168.223 133.533 168.154 133.52 168.06 133.509C167.967 133.495 167.877 133.489 167.79 133.489C167.602 133.489 167.434 133.529 167.284 133.611C167.136 133.69 167.02 133.801 166.935 133.943C166.849 134.085 166.807 134.249 166.807 134.435V137H165.778ZM168.95 137V132.636H169.979V137H168.95ZM169.467 132.017C169.304 132.017 169.164 131.963 169.047 131.855C168.929 131.745 168.871 131.614 168.871 131.46C168.871 131.305 168.929 131.173 169.047 131.065C169.164 130.955 169.304 130.901 169.467 130.901C169.632 130.901 169.772 130.955 169.888 131.065C170.005 131.173 170.064 131.305 170.064 131.46C170.064 131.614 170.005 131.745 169.888 131.855C169.772 131.963 169.632 132.017 169.467 132.017ZM173.246 132.636V133.432H170.667V132.636H173.246ZM171.312 137V132.224C171.312 131.931 171.372 131.687 171.494 131.491C171.617 131.296 171.781 131.151 171.988 131.054C172.194 130.957 172.424 130.909 172.675 130.909C172.853 130.909 173.012 130.923 173.15 130.952C173.288 130.98 173.39 131.006 173.457 131.028L173.252 131.824C173.209 131.811 173.154 131.797 173.087 131.784C173.021 131.769 172.947 131.761 172.866 131.761C172.674 131.761 172.539 131.808 172.46 131.901C172.382 131.991 172.343 132.122 172.343 132.293V137H171.312ZM174.052 137V132.636H175.08V137H174.052ZM174.569 132.017C174.406 132.017 174.266 131.963 174.148 131.855C174.031 131.745 173.972 131.614 173.972 131.46C173.972 131.305 174.031 131.173 174.148 131.065C174.266 130.955 174.406 130.901 174.569 130.901C174.734 130.901 174.874 130.955 174.989 131.065C175.107 131.173 175.165 131.305 175.165 131.46C175.165 131.614 175.107 131.745 174.989 131.855C174.874 131.963 174.734 132.017 174.569 132.017ZM178.07 137.085C177.632 137.085 177.254 136.994 176.936 136.812C176.62 136.629 176.376 136.369 176.206 136.034C176.036 135.697 175.95 135.3 175.95 134.844C175.95 134.395 176.036 134.001 176.206 133.662C176.378 133.321 176.619 133.056 176.928 132.866C177.236 132.675 177.599 132.58 178.016 132.58C178.285 132.58 178.538 132.623 178.777 132.71C179.018 132.795 179.23 132.928 179.413 133.108C179.599 133.288 179.745 133.517 179.851 133.795C179.957 134.072 180.01 134.402 180.01 134.784V135.099H176.433V134.406H179.024C179.022 134.209 178.98 134.034 178.896 133.881C178.813 133.725 178.696 133.603 178.547 133.514C178.399 133.425 178.227 133.381 178.03 133.381C177.82 133.381 177.635 133.432 177.476 133.534C177.317 133.634 177.193 133.767 177.104 133.932C177.017 134.095 176.972 134.274 176.97 134.469V135.074C176.97 135.328 177.017 135.545 177.109 135.727C177.202 135.907 177.332 136.045 177.499 136.142C177.665 136.237 177.86 136.284 178.084 136.284C178.233 136.284 178.369 136.263 178.49 136.222C178.611 136.178 178.716 136.115 178.805 136.031C178.894 135.948 178.962 135.845 179.007 135.722L179.967 135.83C179.907 136.083 179.791 136.305 179.621 136.494C179.452 136.682 179.236 136.828 178.973 136.932C178.71 137.034 178.409 137.085 178.07 137.085ZM182.499 137.077C182.156 137.077 181.85 136.989 181.579 136.812C181.308 136.636 181.094 136.381 180.937 136.045C180.78 135.71 180.701 135.303 180.701 134.824C180.701 134.339 180.781 133.93 180.94 133.597C181.101 133.261 181.317 133.009 181.59 132.838C181.863 132.666 182.167 132.58 182.502 132.58C182.758 132.58 182.968 132.623 183.133 132.71C183.298 132.795 183.428 132.899 183.525 133.02C183.621 133.139 183.696 133.252 183.749 133.358H183.792V131.182H184.823V137H183.812V136.312H183.749C183.696 136.419 183.62 136.531 183.519 136.651C183.419 136.768 183.286 136.868 183.121 136.952C182.957 137.035 182.749 137.077 182.499 137.077ZM182.786 136.233C183.004 136.233 183.19 136.174 183.343 136.057C183.496 135.937 183.613 135.772 183.692 135.56C183.772 135.348 183.812 135.1 183.812 134.818C183.812 134.536 183.772 134.291 183.692 134.082C183.615 133.874 183.499 133.712 183.346 133.597C183.194 133.481 183.008 133.423 182.786 133.423C182.557 133.423 182.366 133.483 182.212 133.602C182.059 133.722 181.943 133.886 181.866 134.097C181.788 134.307 181.749 134.547 181.749 134.818C181.749 135.091 181.788 135.334 181.866 135.548C181.945 135.76 182.062 135.928 182.215 136.051C182.371 136.172 182.561 136.233 182.786 136.233Z" fill="#20F382"/>
</g>
<defs>
<clipPath id="clip0_73_5546">
<rect width="363" height="149" rx="8" fill="white"/>
</clipPath>
<clipPath id="clip1_73_5546">
<rect width="443" height="263" fill="white" transform="translate(41 -20)"/>
</clipPath>
<clipPath id="clip2_73_5546">
<rect width="16" height="16" fill="white" transform="translate(334 126)"/>
</clipPath>
</defs>
</svg>
