<svg width="160" height="160" viewBox="0 0 160 160" fill="none" xmlns="http://www.w3.org/2000/svg">
<rect x="0.75" y="0.75" width="158.5" height="158.5" rx="15.25" stroke="#02002D" stroke-width="1.5"/>
<path d="M22.7727 136H21.3636C21.2803 135.595 21.1345 135.239 20.9261 134.932C20.7216 134.625 20.4716 134.367 20.1761 134.159C19.8845 133.947 19.5606 133.788 19.2045 133.682C18.8485 133.576 18.4773 133.523 18.0909 133.523C17.3864 133.523 16.7481 133.701 16.1761 134.057C15.608 134.413 15.1553 134.938 14.8182 135.631C14.4848 136.324 14.3182 137.174 14.3182 138.182C14.3182 139.189 14.4848 140.04 14.8182 140.733C15.1553 141.426 15.608 141.951 16.1761 142.307C16.7481 142.663 17.3864 142.841 18.0909 142.841C18.4773 142.841 18.8485 142.788 19.2045 142.682C19.5606 142.576 19.8845 142.419 20.1761 142.21C20.4716 141.998 20.7216 141.739 20.9261 141.432C21.1345 141.121 21.2803 140.765 21.3636 140.364H22.7727C22.6667 140.958 22.4735 141.491 22.1932 141.96C21.9129 142.43 21.5644 142.83 21.1477 143.159C20.7311 143.485 20.2633 143.733 19.7443 143.903C19.2292 144.074 18.678 144.159 18.0909 144.159C17.0985 144.159 16.2159 143.917 15.4432 143.432C14.6705 142.947 14.0625 142.258 13.6193 141.364C13.1761 140.47 12.9545 139.409 12.9545 138.182C12.9545 136.955 13.1761 135.894 13.6193 135C14.0625 134.106 14.6705 133.417 15.4432 132.932C16.2159 132.447 17.0985 132.205 18.0909 132.205C18.678 132.205 19.2292 132.29 19.7443 132.46C20.2633 132.631 20.7311 132.881 21.1477 133.21C21.5644 133.536 21.9129 133.934 22.1932 134.403C22.4735 134.869 22.6667 135.402 22.7727 136ZM24.8679 144V135.273H26.1634V136.591H26.2543C26.4134 136.159 26.7012 135.809 27.1179 135.54C27.5346 135.271 28.0043 135.136 28.527 135.136C28.6255 135.136 28.7486 135.138 28.8963 135.142C29.044 135.146 29.1558 135.152 29.2315 135.159V136.523C29.1861 136.511 29.0819 136.494 28.919 136.472C28.7599 136.445 28.5914 136.432 28.4134 136.432C27.9891 136.432 27.6103 136.521 27.277 136.699C26.9474 136.873 26.6861 137.116 26.4929 137.426C26.3035 137.733 26.2088 138.083 26.2088 138.477V144H24.8679ZM34.2145 144.182C33.3736 144.182 32.6482 143.996 32.0384 143.625C31.4323 143.25 30.9645 142.727 30.6349 142.057C30.3092 141.383 30.1463 140.598 30.1463 139.705C30.1463 138.811 30.3092 138.023 30.6349 137.341C30.9645 136.655 31.4228 136.121 32.0099 135.739C32.6009 135.352 33.2902 135.159 34.0781 135.159C34.5327 135.159 34.9815 135.235 35.4247 135.386C35.8679 135.538 36.2713 135.784 36.6349 136.125C36.9986 136.462 37.2884 136.909 37.5043 137.466C37.7202 138.023 37.8281 138.708 37.8281 139.523V140.091H31.1009V138.932H36.4645C36.4645 138.439 36.366 138 36.169 137.614C35.9759 137.227 35.6993 136.922 35.3395 136.699C34.9834 136.475 34.563 136.364 34.0781 136.364C33.544 136.364 33.0819 136.496 32.6918 136.761C32.3054 137.023 32.008 137.364 31.7997 137.784C31.5914 138.205 31.4872 138.655 31.4872 139.136V139.909C31.4872 140.568 31.6009 141.127 31.8281 141.585C32.0592 142.04 32.3793 142.386 32.7884 142.625C33.1974 142.86 33.6728 142.977 34.2145 142.977C34.5668 142.977 34.8849 142.928 35.169 142.83C35.4569 142.727 35.705 142.576 35.9134 142.375C36.1217 142.17 36.2827 141.917 36.3963 141.614L37.6918 141.977C37.5554 142.417 37.3262 142.803 37.0043 143.136C36.6823 143.466 36.2846 143.723 35.8111 143.909C35.3376 144.091 34.8054 144.182 34.2145 144.182ZM42.4361 144.205C41.883 144.205 41.3812 144.1 40.9304 143.892C40.4796 143.68 40.1217 143.375 39.8565 142.977C39.5914 142.576 39.4588 142.091 39.4588 141.523C39.4588 141.023 39.5573 140.617 39.7543 140.307C39.9512 139.992 40.2145 139.746 40.544 139.568C40.8736 139.39 41.2372 139.258 41.6349 139.17C42.0365 139.08 42.4399 139.008 42.8452 138.955C43.3755 138.886 43.8054 138.835 44.1349 138.801C44.4683 138.763 44.7107 138.701 44.8622 138.614C45.0175 138.527 45.0952 138.375 45.0952 138.159V138.114C45.0952 137.553 44.9418 137.117 44.6349 136.807C44.3319 136.496 43.8717 136.341 43.2543 136.341C42.6141 136.341 42.1122 136.481 41.7486 136.761C41.3849 137.042 41.1293 137.341 40.9815 137.659L39.7088 137.205C39.9361 136.674 40.2391 136.261 40.6179 135.966C41.0005 135.667 41.4171 135.458 41.8679 135.341C42.3224 135.22 42.7694 135.159 43.2088 135.159C43.4891 135.159 43.8111 135.193 44.1747 135.261C44.5421 135.326 44.8963 135.46 45.2372 135.665C45.5819 135.869 45.8679 136.178 46.0952 136.591C46.3224 137.004 46.4361 137.557 46.4361 138.25V144H45.0952V142.818H45.027C44.9361 143.008 44.7846 143.21 44.5724 143.426C44.3603 143.642 44.0781 143.826 43.7259 143.977C43.3736 144.129 42.9437 144.205 42.4361 144.205ZM42.6406 143C43.1709 143 43.6179 142.896 43.9815 142.688C44.349 142.479 44.6255 142.21 44.8111 141.881C45.0005 141.551 45.0952 141.205 45.0952 140.841V139.614C45.0384 139.682 44.9134 139.744 44.7202 139.801C44.5308 139.854 44.3111 139.902 44.0611 139.943C43.8149 139.981 43.5743 140.015 43.3395 140.045C43.1084 140.072 42.9209 140.095 42.777 140.114C42.4285 140.159 42.1027 140.233 41.7997 140.335C41.5005 140.434 41.258 140.583 41.0724 140.784C40.8906 140.981 40.7997 141.25 40.7997 141.591C40.7997 142.057 40.9721 142.409 41.3168 142.648C41.6652 142.883 42.1065 143 42.6406 143ZM52.679 135.273V136.409H48.1562V135.273H52.679ZM49.4744 133.182H50.8153V141.5C50.8153 141.879 50.8703 142.163 50.9801 142.352C51.0938 142.538 51.2377 142.663 51.4119 142.727C51.59 142.788 51.7775 142.818 51.9744 142.818C52.1222 142.818 52.2434 142.811 52.3381 142.795C52.4328 142.777 52.5085 142.761 52.5653 142.75L52.8381 143.955C52.7472 143.989 52.6203 144.023 52.4574 144.057C52.2945 144.095 52.0881 144.114 51.8381 144.114C51.4593 144.114 51.0881 144.032 50.7244 143.869C50.3646 143.706 50.0653 143.458 49.8267 143.125C49.5919 142.792 49.4744 142.371 49.4744 141.864V133.182ZM58.2614 144.182C57.4205 144.182 56.6951 143.996 56.0852 143.625C55.4792 143.25 55.0114 142.727 54.6818 142.057C54.3561 141.383 54.1932 140.598 54.1932 139.705C54.1932 138.811 54.3561 138.023 54.6818 137.341C55.0114 136.655 55.4697 136.121 56.0568 135.739C56.6477 135.352 57.3371 135.159 58.125 135.159C58.5795 135.159 59.0284 135.235 59.4716 135.386C59.9148 135.538 60.3182 135.784 60.6818 136.125C61.0455 136.462 61.3352 136.909 61.5511 137.466C61.767 138.023 61.875 138.708 61.875 139.523V140.091H55.1477V138.932H60.5114C60.5114 138.439 60.4129 138 60.2159 137.614C60.0227 137.227 59.7462 136.922 59.3864 136.699C59.0303 136.475 58.6098 136.364 58.125 136.364C57.5909 136.364 57.1288 136.496 56.7386 136.761C56.3523 137.023 56.0549 137.364 55.8466 137.784C55.6383 138.205 55.5341 138.655 55.5341 139.136V139.909C55.5341 140.568 55.6477 141.127 55.875 141.585C56.1061 142.04 56.4261 142.386 56.8352 142.625C57.2443 142.86 57.7197 142.977 58.2614 142.977C58.6136 142.977 58.9318 142.928 59.2159 142.83C59.5038 142.727 59.7519 142.576 59.9602 142.375C60.1686 142.17 60.3295 141.917 60.4432 141.614L61.7386 141.977C61.6023 142.417 61.3731 142.803 61.0511 143.136C60.7292 143.466 60.3314 143.723 59.858 143.909C59.3845 144.091 58.8523 144.182 58.2614 144.182ZM68.5966 144V132.364H72.5284C73.4413 132.364 74.1875 132.528 74.767 132.858C75.3504 133.184 75.7822 133.625 76.0625 134.182C76.3428 134.739 76.483 135.36 76.483 136.045C76.483 136.731 76.3428 137.354 76.0625 137.915C75.786 138.475 75.358 138.922 74.7784 139.256C74.1989 139.585 73.4564 139.75 72.5511 139.75H69.733V138.5H72.5057C73.1307 138.5 73.6326 138.392 74.0114 138.176C74.3902 137.96 74.6648 137.669 74.8352 137.301C75.0095 136.93 75.0966 136.511 75.0966 136.045C75.0966 135.58 75.0095 135.163 74.8352 134.795C74.6648 134.428 74.3883 134.14 74.0057 133.932C73.6231 133.72 73.1155 133.614 72.483 133.614H70.0057V144H68.5966ZM82.0227 144.182C81.2348 144.182 80.5436 143.994 79.9489 143.619C79.358 143.244 78.8958 142.72 78.5625 142.045C78.233 141.371 78.0682 140.583 78.0682 139.682C78.0682 138.773 78.233 137.979 78.5625 137.301C78.8958 136.623 79.358 136.097 79.9489 135.722C80.5436 135.347 81.2348 135.159 82.0227 135.159C82.8106 135.159 83.5 135.347 84.0909 135.722C84.6856 136.097 85.1477 136.623 85.4773 137.301C85.8106 137.979 85.9773 138.773 85.9773 139.682C85.9773 140.583 85.8106 141.371 85.4773 142.045C85.1477 142.72 84.6856 143.244 84.0909 143.619C83.5 143.994 82.8106 144.182 82.0227 144.182ZM82.0227 142.977C82.6212 142.977 83.1136 142.824 83.5 142.517C83.8864 142.21 84.1723 141.807 84.358 141.307C84.5436 140.807 84.6364 140.265 84.6364 139.682C84.6364 139.098 84.5436 138.555 84.358 138.051C84.1723 137.547 83.8864 137.14 83.5 136.83C83.1136 136.519 82.6212 136.364 82.0227 136.364C81.4242 136.364 80.9318 136.519 80.5455 136.83C80.1591 137.14 79.8731 137.547 79.6875 138.051C79.5019 138.555 79.4091 139.098 79.4091 139.682C79.4091 140.265 79.5019 140.807 79.6875 141.307C79.8731 141.807 80.1591 142.21 80.5455 142.517C80.9318 142.824 81.4242 142.977 82.0227 142.977ZM89.3651 132.364V144H88.0241V132.364H89.3651ZM93.1619 132.364V144H91.821V132.364H93.1619Z" fill="black"/>
<g clip-path="url(#clip0_199_19319)">
<rect x="132" y="1.37256" width="32" height="32" rx="16" transform="rotate(45 132 1.37256)" fill="#02002D"/>
<path d="M136.54 27.5356L136.54 20.4645C136.537 20.3329 136.508 20.2031 136.455 20.0827C136.353 19.8398 136.16 19.6467 135.917 19.5453C135.797 19.4921 135.667 19.4633 135.536 19.4604L128.464 19.4604C128.333 19.4604 128.202 19.4864 128.08 19.5368C127.958 19.5873 127.848 19.6613 127.754 19.7545C127.566 19.9428 127.46 20.1982 127.46 20.4645C127.46 20.7308 127.566 20.9862 127.754 21.1745C127.943 21.3628 128.198 21.4686 128.464 21.4686L133.124 21.4615L127.757 26.8285C127.57 27.016 127.464 27.2703 127.464 27.5356C127.464 27.8008 127.57 28.0551 127.757 28.2427C127.945 28.4302 128.199 28.5356 128.464 28.5356C128.73 28.5356 128.984 28.4302 129.172 28.2427L134.539 22.8757L134.531 27.5356C134.531 27.6676 134.557 27.7984 134.607 27.9205C134.657 28.0425 134.731 28.1534 134.824 28.2468C134.918 28.3401 135.029 28.4141 135.151 28.4643C135.273 28.5146 135.404 28.5402 135.536 28.5397C135.668 28.5402 135.798 28.5146 135.92 28.4643C136.042 28.4141 136.153 28.3401 136.247 28.2468C136.34 28.1534 136.414 28.0425 136.464 27.9205C136.515 27.7984 136.54 27.6676 136.54 27.5356Z" fill="#ECECEB"/>
</g>
<g opacity="0.4">
<path d="M42.4477 123.249C63.1874 134.084 96.8126 134.084 117.555 123.249C138.297 112.415 138.292 94.8492 117.555 84.0121C96.8174 73.1749 63.1874 73.1797 42.4453 84.0121C21.7033 94.8445 21.708 112.415 42.4477 123.249Z" fill="#F5F5F5"/>
<path d="M119.919 106.956C125.184 106.956 129.451 104.922 129.451 102.413C129.451 99.9038 125.184 97.8699 119.919 97.8699C114.655 97.8699 110.387 99.9038 110.387 102.413C110.387 104.922 114.655 106.956 119.919 106.956Z" fill="#E0E0E0"/>
<path d="M43.2406 111.957C48.505 111.957 52.7727 109.923 52.7727 107.414C52.7727 104.905 48.505 102.871 43.2406 102.871C37.9762 102.871 33.7086 104.905 33.7086 107.414C33.7086 109.923 37.9762 111.957 43.2406 111.957Z" fill="#E0E0E0"/>
<path d="M78.6949 125.312L54.5616 111.388C54.4794 111.334 54.4109 111.262 54.3617 111.178C54.3125 111.093 54.2839 110.997 54.2784 110.899V110.534C54.2839 110.436 54.3125 110.34 54.3617 110.256C54.4109 110.171 54.4794 110.099 54.5616 110.045L83.986 93.0532C84.0735 93.009 84.1701 92.986 84.2681 92.986C84.366 92.986 84.4626 93.009 84.5501 93.0532L108.683 106.977C108.765 107.031 108.833 107.103 108.882 107.188C108.931 107.273 108.959 107.368 108.964 107.466V107.834C108.959 107.932 108.931 108.027 108.882 108.112C108.833 108.197 108.765 108.269 108.683 108.322L79.259 125.312C79.1715 125.356 79.0749 125.379 78.9769 125.379C78.879 125.379 78.7824 125.356 78.6949 125.312Z" fill="#EBEBEB"/>
<path d="M108.683 107.298L79.2566 124.29C79.1695 124.335 79.0728 124.359 78.9746 124.359C78.8764 124.359 78.7797 124.335 78.6926 124.29L54.5616 110.366C54.5277 110.354 54.4983 110.332 54.4775 110.303C54.4567 110.274 54.4455 110.239 54.4455 110.203C54.4455 110.167 54.4567 110.132 54.4775 110.103C54.4983 110.074 54.5277 110.052 54.5616 110.04L83.986 93.0484C84.0735 93.0042 84.1701 92.9812 84.2681 92.9812C84.366 92.9812 84.4626 93.0042 84.5501 93.0484L108.683 106.972C108.717 106.984 108.747 107.006 108.768 107.035C108.788 107.064 108.799 107.099 108.799 107.135C108.799 107.171 108.788 107.206 108.768 107.235C108.747 107.264 108.717 107.286 108.683 107.298Z" fill="#FAFAFA"/>
<path d="M108.683 107.298L79.2566 124.29C79.1695 124.335 79.0728 124.359 78.9746 124.359C78.8764 124.359 78.7797 124.335 78.6926 124.29L54.5616 110.366C54.5277 110.354 54.4983 110.332 54.4775 110.303C54.4567 110.274 54.4455 110.239 54.4455 110.203C54.4455 110.167 54.4567 110.132 54.4775 110.103C54.4983 110.074 54.5277 110.052 54.5616 110.04L83.986 93.0484C84.0735 93.0042 84.1701 92.9812 84.2681 92.9812C84.366 92.9812 84.4626 93.0042 84.5501 93.0484L108.683 106.972C108.717 106.984 108.747 107.006 108.768 107.035C108.788 107.064 108.799 107.099 108.799 107.135C108.799 107.171 108.788 107.206 108.768 107.235C108.747 107.264 108.717 107.286 108.683 107.298Z" fill="#FAFAFA"/>
<path d="M78.9758 124.451V125.373C78.8778 125.375 78.7812 125.351 78.6949 125.305L54.5616 111.381C54.4791 111.328 54.4104 111.256 54.3612 111.171C54.312 111.086 54.2836 110.99 54.2784 110.892V110.527C54.284 110.439 54.3079 110.353 54.3486 110.275C54.3892 110.197 54.4457 110.128 54.5144 110.073C54.4129 110.163 54.4294 110.286 54.5663 110.364L78.6996 124.288C78.7227 124.301 78.7473 124.311 78.7728 124.318L78.9758 124.451Z" fill="#E0E0E0"/>
<path d="M64.424 108.945C64.4259 108.957 64.4259 108.969 64.424 108.981L64.398 109.016L64.2635 109.07L61.1247 109.231C61.0761 109.239 61.0298 109.257 60.9891 109.285C60.9483 109.313 60.9141 109.349 60.8887 109.391C60.8392 109.476 60.8651 109.545 60.9477 109.55L63.9072 109.701L63.9756 109.755C63.973 109.767 63.9682 109.779 63.9614 109.79C63.9471 109.813 63.9274 109.833 63.904 109.847C63.8806 109.861 63.8541 109.869 63.8269 109.87L60.8415 109.717C60.674 109.717 60.6197 109.566 60.7188 109.391C60.7724 109.303 60.8452 109.227 60.9318 109.171C61.0184 109.114 61.1165 109.077 61.2191 109.063L64.3839 108.901C64.4098 108.901 64.424 108.917 64.424 108.945Z" fill="#455A64"/>
<path d="M92.0785 107.043C92.0772 107.062 92.0707 107.08 92.0596 107.095C92.044 107.117 92.0235 107.135 91.9997 107.148C91.976 107.16 91.9496 107.167 91.9227 107.168C91.9227 107.168 91.1392 107.076 89.7067 106.953C89.6642 106.953 89.6524 106.909 89.6831 106.861C89.698 106.839 89.7179 106.821 89.7413 106.808C89.7647 106.794 89.7908 106.787 89.8176 106.786C91.2525 106.909 92.0313 107.001 92.0384 107.001C92.0492 107.001 92.0594 107.006 92.0669 107.014C92.0743 107.022 92.0785 107.032 92.0785 107.043Z" fill="#455A64"/>
<path d="M89.473 111.567C89.4761 111.577 89.4761 111.588 89.473 111.598C89.4608 111.623 89.4428 111.644 89.4207 111.66C89.3985 111.677 89.3728 111.688 89.3456 111.692C89.3456 111.692 88.4512 111.787 86.8747 111.914C86.8251 111.914 86.8039 111.884 86.8275 111.839C86.8403 111.814 86.8587 111.793 86.8813 111.777C86.9038 111.761 86.9299 111.751 86.9573 111.747C88.5314 111.619 89.414 111.525 89.4235 111.525C89.4329 111.525 89.473 111.539 89.473 111.567Z" fill="#455A64"/>
<path d="M86.136 106.557C86.1354 106.574 86.1306 106.59 86.1218 106.604C86.1063 106.627 86.086 106.645 86.0623 106.659C86.0386 106.672 86.0122 106.68 85.985 106.682C84.6752 106.602 83.304 106.533 81.9092 106.474C75.549 106.217 73.4321 106.451 71.5016 106.76C69.406 107.095 64.0747 109.035 63.6192 109.387C63.6712 109.736 66.7746 111.666 68.4856 111.994C70.0644 112.299 71.9146 112.528 78.584 112.249C80.0425 112.188 81.4962 112.115 82.9075 112.03C82.9547 112.03 82.9736 112.063 82.95 112.108C82.9369 112.132 82.9184 112.152 82.8958 112.168C82.8733 112.184 82.8474 112.194 82.8202 112.197C81.4042 112.282 79.9528 112.355 78.4943 112.417C71.8061 112.698 69.9488 112.466 68.3605 112.162C66.8265 111.865 63.1944 109.818 63.4422 109.387C63.69 108.955 69.6892 106.894 71.5677 106.592C73.51 106.283 75.6364 106.047 82.0131 106.307C83.4078 106.363 84.7814 106.434 86.0935 106.514C86.0993 106.514 86.1051 106.514 86.1107 106.516C86.1162 106.518 86.1212 106.521 86.1253 106.525C86.1294 106.529 86.1325 106.534 86.1344 106.54C86.1362 106.545 86.1368 106.551 86.136 106.557Z" fill="#455A64"/>
<path d="M74.2062 107.968C74.0481 107.602 73.6705 107.4 73.1489 107.4C72.5293 107.431 71.9303 107.632 71.4167 107.98C71.128 108.163 70.8604 108.378 70.619 108.62C70.3933 108.846 70.1967 109.1 70.0337 109.375C69.8147 109.715 69.712 110.118 69.7411 110.522C69.8142 111.041 70.239 111.35 70.8739 111.348C71.4937 111.317 72.093 111.116 72.6061 110.767C73.1697 110.417 73.6434 109.939 73.9891 109.372C74.1658 109.087 74.2695 108.763 74.2912 108.428C74.296 108.271 74.267 108.114 74.2062 107.968ZM73.8192 109.372C73.5038 109.892 73.0704 110.329 72.5542 110.649C72.0853 110.967 71.5386 111.15 70.973 111.18C70.3877 111.18 70.0007 110.897 69.937 110.425C69.9271 110.365 69.9231 110.304 69.9252 110.243C69.9456 109.935 70.0412 109.637 70.2036 109.375C70.5194 108.857 70.9518 108.42 71.4662 108.098C71.9358 107.78 72.4835 107.598 73.0498 107.569C73.5218 107.569 73.8734 107.754 74.0198 108.089C74.1661 108.424 74.1 108.884 73.8192 109.372Z" fill="#455A64"/>
<path d="M74.0198 108.084C73.8734 107.749 73.5312 107.565 73.0498 107.565C72.4835 107.593 71.9358 107.776 71.4662 108.093C70.9518 108.415 70.5194 108.852 70.2036 109.37C70.0412 109.632 69.9456 109.931 69.9252 110.239C69.9231 110.299 69.9271 110.36 69.937 110.42C70.0007 110.892 70.3877 111.176 70.973 111.176C71.5386 111.146 72.0852 110.962 72.5542 110.645C73.0704 110.324 73.5038 109.887 73.8192 109.368C74.1 108.884 74.1684 108.428 74.0198 108.084ZM73.392 109.372C72.9507 110.135 71.976 110.758 71.209 110.758C70.4514 110.758 70.1895 110.135 70.6261 109.375C71.0627 108.615 72.0421 107.992 72.8067 107.99C73.3306 107.99 73.6186 108.282 73.6068 108.698C73.5914 108.937 73.5177 109.168 73.392 109.372Z" fill="#02002D"/>
<path d="M68.5446 107.414C68.5345 107.409 68.5236 107.407 68.5127 107.407C68.5018 107.407 68.4909 107.409 68.4808 107.414C66.9846 107.886 63.6358 109.042 63.4352 109.389C63.2346 109.736 65.2547 110.883 66.2082 111.352C66.2302 111.361 66.2545 111.361 66.2766 111.352C66.3042 111.341 66.3291 111.324 66.3498 111.303C67.5156 110.024 68.2614 108.733 68.5611 107.468V107.454C68.5632 107.446 68.5627 107.438 68.5597 107.431C68.5567 107.424 68.5514 107.418 68.5446 107.414Z" fill="#455A64"/>
<path d="M68.3487 107.612C68.0513 108.792 67.3622 109.972 66.2955 111.171C64.8488 110.451 63.6428 109.616 63.6122 109.396C63.8954 109.167 66.076 108.32 68.3487 107.612Z" fill="#02002D"/>
<path d="M92.1068 107.27C92.0796 107.616 91.9909 107.955 91.8448 108.27C91.8329 108.295 91.815 108.317 91.7929 108.334C91.7707 108.351 91.7448 108.362 91.7174 108.367C91.6678 108.367 91.6419 108.344 91.6608 108.299C91.9723 107.548 91.9156 107.239 91.8968 107.166C91.774 107.152 91.2572 107.093 90.3887 107.015C90.305 107.549 90.131 108.066 89.8742 108.542C89.8612 108.566 89.8426 108.587 89.8201 108.603C89.7976 108.619 89.7717 108.629 89.7444 108.634C89.6949 108.634 89.676 108.603 89.6972 108.558C90.1079 107.711 90.1952 107.215 90.2023 106.958C90.205 106.941 90.2113 106.924 90.2206 106.909C90.2299 106.894 90.2421 106.881 90.2566 106.871C90.284 106.847 90.3192 106.833 90.3557 106.833C91.446 106.93 92.0336 107.001 92.0407 107.001C92.0478 107.001 92.0547 107.004 92.0609 107.007C92.067 107.011 92.0722 107.016 92.0761 107.022C92.1053 107.101 92.1158 107.186 92.1068 107.27Z" fill="#455A64"/>
<path d="M90.62 110.376C90.6169 110.395 90.6087 110.414 90.5964 110.43C89.9073 111.374 89.4164 111.659 89.3928 111.671C89.3749 111.682 89.3548 111.69 89.3338 111.692C89.3338 111.692 88.6588 111.766 87.4458 111.867C87.4128 111.867 87.3915 111.867 87.3892 111.827C87.3904 111.81 87.3952 111.794 87.4034 111.779C87.4115 111.765 87.4228 111.752 87.4364 111.742C87.9473 111.269 88.3954 110.733 88.7698 110.147C88.7844 110.123 88.8046 110.104 88.8285 110.091C88.8523 110.077 88.8792 110.069 88.9066 110.069C88.9491 110.069 88.9609 110.114 88.9302 110.161C88.5731 110.713 88.1569 111.224 87.6889 111.685C88.647 111.603 89.2323 111.541 89.3716 111.527C89.7853 111.212 90.1455 110.832 90.4383 110.401C90.454 110.38 90.4746 110.363 90.4984 110.351C90.5223 110.339 90.5485 110.333 90.5752 110.333C90.5811 110.332 90.5872 110.332 90.5931 110.334C90.5989 110.335 90.6042 110.338 90.6086 110.343C90.613 110.347 90.6163 110.352 90.6183 110.358C90.6203 110.363 90.6209 110.37 90.62 110.376Z" fill="#455A64"/>
<path d="M93.6219 113.658L87.6016 114.064L87.0021 111.775C87.0002 111.768 86.9963 111.762 86.9908 111.757C86.9853 111.753 86.9786 111.75 86.9714 111.749C85.8245 111.437 84.4439 111.534 82.8698 112.035C82.8362 112.047 82.8061 112.067 82.7824 112.094C82.7731 112.104 82.7662 112.116 82.7626 112.13C82.7589 112.143 82.7584 112.158 82.7612 112.171L84.1347 115.787C84.1378 115.795 84.1437 115.803 84.1514 115.807C84.1592 115.812 84.1682 115.814 84.1772 115.813L86.5372 115.853H86.5679L93.5653 113.828C93.5896 113.821 93.6121 113.809 93.6313 113.792C93.6504 113.775 93.6657 113.755 93.6762 113.731C93.6769 113.724 93.6769 113.716 93.6762 113.708C93.688 113.675 93.6573 113.656 93.6219 113.658ZM86.608 115.683L84.3046 115.645L82.976 112.145C84.4392 111.702 85.7277 111.622 86.8062 111.909L87.408 114.208C87.408 114.227 87.434 114.239 87.4623 114.236L92.8691 113.873L86.608 115.683Z" fill="#455A64"/>
<path d="M92.8785 113.871L86.608 115.683L84.3046 115.645L82.976 112.146C84.4392 111.702 85.7277 111.622 86.8062 111.91L87.408 114.208C87.408 114.227 87.434 114.239 87.4623 114.236L92.8785 113.871Z" fill="#02002D"/>
<path d="M98.7266 104.853L94.0514 102.845H94.0255L91.6206 102.892C91.5943 102.893 91.5688 102.902 91.5475 102.918L86.0038 106.543C85.9743 106.561 85.9513 106.589 85.9378 106.621C85.9326 106.631 85.9317 106.644 85.9352 106.655C85.9387 106.666 85.9463 106.676 85.9566 106.682C86.9573 107.178 88.227 107.27 89.7326 106.956C89.7545 106.95 89.7753 106.94 89.794 106.928L93.0319 104.634L98.5992 105.016C98.6241 105.015 98.6485 105.008 98.6705 104.996C98.6926 104.984 98.7117 104.968 98.7266 104.947C98.7406 104.932 98.7489 104.912 98.7502 104.891C98.7508 104.883 98.7488 104.875 98.7446 104.868C98.7403 104.861 98.734 104.856 98.7266 104.853ZM93.1004 104.459C93.0686 104.459 93.0377 104.47 93.013 104.49L89.7586 106.793C88.3426 107.081 87.1626 107.005 86.1997 106.557L91.564 103.055L93.924 103.01L98.1059 104.806L93.1004 104.459Z" fill="#455A64"/>
<path d="M98.0988 104.806L93.1004 104.459C93.0686 104.459 93.0377 104.47 93.013 104.49L89.7586 106.793C88.3426 107.081 87.1626 107.005 86.1997 106.557L91.564 103.055L93.924 103.01L98.0988 104.806Z" fill="#02002D"/>
<path d="M98.5 109.231L92.6331 108.084H92.6071L83.8633 109.264C83.8388 109.269 83.8155 109.279 83.7948 109.293C83.7742 109.307 83.7565 109.325 83.743 109.346C83.717 109.389 83.7288 109.424 83.7666 109.431L91.1557 110.611H91.184L98.4056 109.398C98.4301 109.393 98.4533 109.383 98.4736 109.368C98.494 109.354 98.511 109.335 98.5236 109.313C98.5304 109.301 98.5345 109.287 98.5354 109.273C98.5361 109.263 98.5328 109.253 98.5262 109.245C98.5196 109.237 98.5103 109.232 98.5 109.231ZM91.2643 110.444L84.4203 109.351L92.5292 108.263L97.9714 109.321L91.2643 110.444Z" fill="#455A64"/>
<path d="M97.962 109.318L91.2643 110.442L84.4108 109.349L92.5198 108.261L97.962 109.318Z" fill="#02002D"/>
<path d="M90.9079 114.439L90.2306 114.638L89.5462 114.838L88.7816 115.06C88.5043 115.143 88.2496 115.288 88.0366 115.484C87.8236 115.68 87.6579 115.921 87.552 116.191C87.4198 116.663 87.7408 116.939 88.286 116.823L89.0081 116.67H89.0294L89.6972 116.528L90.3533 116.389C90.7097 116.299 90.9858 115.742 91.1132 115.294C91.1598 115.135 91.1875 114.972 91.1958 114.808C91.2076 114.555 91.1321 114.383 90.9079 114.439ZM90.9268 115.336C90.8017 115.785 90.5657 116.181 90.4076 116.221L89.9356 116.32L89.7114 116.368L89.2394 116.467L89.0246 116.514L88.3284 116.66C87.9461 116.74 87.6983 116.582 87.7054 116.292C87.7077 116.241 87.7165 116.19 87.7314 116.141C87.8175 115.921 87.9526 115.724 88.1265 115.565C88.3003 115.405 88.5082 115.288 88.7344 115.221L89.4424 115.011L89.6618 114.947L90.1338 114.808L90.3698 114.739L90.8418 114.6C91.0236 114.562 91.0542 114.893 90.9268 115.336Z" fill="#455A64"/>
<path d="M90.384 114.739C90.3741 114.716 90.3596 114.694 90.3414 114.676C90.3232 114.659 90.3015 114.645 90.2778 114.635C90.2608 114.631 90.2429 114.631 90.2259 114.635L89.5415 114.836C89.501 114.848 89.466 114.874 89.4424 114.909C89.4188 114.942 89.4188 114.975 89.4424 114.989C89.4491 114.994 89.4547 115.001 89.4589 115.008C89.5391 115.105 89.5297 115.379 89.4353 115.716C89.3631 116.009 89.226 116.283 89.0341 116.516L89.0034 116.547C88.9892 116.558 88.9776 116.572 88.9694 116.588C88.9613 116.604 88.9567 116.621 88.9562 116.639C88.959 116.65 88.9656 116.659 88.9747 116.665C88.9838 116.671 88.9949 116.673 89.0058 116.672H89.027L89.6949 116.53C89.7137 116.525 89.7313 116.516 89.7468 116.504C89.8166 116.455 89.8786 116.395 89.9309 116.327C90.1183 116.078 90.2554 115.794 90.3344 115.492C90.3825 115.335 90.4103 115.172 90.417 115.008C90.4263 114.917 90.415 114.825 90.384 114.739ZM90.148 115.532C90.0739 115.843 89.923 116.13 89.709 116.368L89.237 116.467C89.4082 116.224 89.5352 115.953 89.6123 115.667C89.6932 115.436 89.7119 115.187 89.6666 114.947L90.1386 114.808C90.2542 114.874 90.2542 115.164 90.148 115.532Z" fill="#455A64"/>
<path d="M90.148 115.532C90.0739 115.843 89.923 116.13 89.709 116.367L89.237 116.467C89.4082 116.224 89.5352 115.953 89.6123 115.667C89.6932 115.436 89.7119 115.187 89.6666 114.947L90.1386 114.807C90.2542 114.874 90.2542 115.164 90.148 115.532Z" fill="#02002D"/>
<path d="M98.467 102.295L97.9667 102.158L97.464 102.019L96.9 101.863C96.4893 101.75 95.845 102.031 95.4368 102.5C95.0285 102.97 94.9954 103.465 95.366 103.628L95.8734 103.848L96.3288 104.046L96.7796 104.242C96.8622 104.27 97.0274 104.242 97.3436 104.006C97.5704 103.82 97.7804 103.615 97.9714 103.392C98.1545 103.187 98.3166 102.964 98.4552 102.727C98.5095 102.638 98.5441 102.538 98.5567 102.434C98.5613 102.404 98.5547 102.373 98.5382 102.347C98.5217 102.322 98.4964 102.303 98.467 102.295ZM98.2806 102.731C98.153 102.951 98.0036 103.156 97.8345 103.345C97.6589 103.55 97.4654 103.739 97.2563 103.909C97.0958 104.037 96.9731 104.098 96.9212 104.081L96.605 103.944L96.4492 103.876L96.133 103.739L95.989 103.675L95.517 103.468C95.2149 103.336 95.2385 102.932 95.5736 102.547C95.9088 102.163 96.4327 101.934 96.7702 102.028L97.3012 102.174L97.4593 102.217L97.8156 102.314L97.9856 102.361L98.3372 102.458C98.382 102.477 98.3632 102.576 98.2806 102.731Z" fill="#455A64"/>
<path d="M97.995 102.184C97.9933 102.177 97.9897 102.171 97.9847 102.167C97.9796 102.162 97.9734 102.159 97.9667 102.158L97.464 102.019C97.4266 102.016 97.3896 102.027 97.3597 102.05C97.3298 102.072 97.309 102.105 97.3012 102.141C97.3012 102.141 97.3012 102.16 97.3012 102.172C97.1799 102.468 97.0028 102.738 96.7796 102.967C96.5565 103.243 96.2912 103.482 95.9937 103.675L95.9536 103.694C95.9146 103.71 95.8821 103.738 95.8616 103.775C95.845 103.808 95.8498 103.836 95.8757 103.848L96.3312 104.046C96.348 104.052 96.3663 104.052 96.3831 104.046C96.4665 104.023 96.5461 103.988 96.6191 103.942C96.922 103.729 97.1957 103.478 97.4333 103.194C97.6644 102.948 97.8534 102.666 97.9926 102.359C98.0064 102.32 98.0144 102.279 98.0162 102.238C98.0129 102.219 98.0057 102.2 97.995 102.184ZM97.287 103.149C97.0572 103.442 96.7736 103.689 96.4516 103.876L96.1353 103.739C96.4208 103.53 96.6806 103.287 96.9094 103.017C97.1294 102.778 97.3131 102.509 97.4546 102.217L97.8109 102.314C97.818 102.439 97.5985 102.786 97.2846 103.149H97.287Z" fill="#455A64"/>
<path d="M97.8086 102.314C97.8086 102.439 97.5985 102.786 97.2846 103.149C97.0548 103.442 96.7713 103.689 96.4492 103.876L96.133 103.739C96.4184 103.53 96.6782 103.287 96.907 103.017C97.1271 102.778 97.3108 102.509 97.4522 102.217L97.8086 102.314Z" fill="#02002D"/>
<path d="M72.8067 107.99C72.0444 107.99 71.065 108.613 70.6261 109.375C70.1871 110.137 70.4514 110.758 71.209 110.758C71.9736 110.758 72.9507 110.135 73.392 109.372C73.5142 109.171 73.5863 108.944 73.602 108.709C73.628 108.282 73.3306 107.99 72.8067 107.99ZM73.2268 109.372C72.8398 110.043 71.9831 110.588 71.3105 110.588C70.6379 110.588 70.409 110.045 70.796 109.375C71.183 108.705 72.0397 108.162 72.71 108.159C73.3802 108.157 73.6115 108.702 73.2268 109.372Z" fill="#455A64"/>
<path d="M115.136 63.716C114.152 65.0258 112.164 67.374 111.178 68.613C110.656 69.2602 110.373 70.0681 110.378 70.8998C110.378 71.5158 110.555 72.0302 111.157 71.7683C111.593 71.5771 111.865 71.3529 112.507 70.7252C113.078 70.1611 116.382 65.9839 116.382 65.9839C116.382 65.9839 116.653 63.6428 117.507 63.3879C118.362 63.133 117.201 62.425 117.201 62.425C116.84 62.4652 116.129 62.3944 115.136 63.716Z" fill="#9A4A4D"/>
<path d="M103.048 95.0356L96.8787 102.078C96.8392 102.122 96.7869 102.153 96.729 102.166C96.6711 102.179 96.6106 102.174 96.5559 102.151C96.5011 102.128 96.4548 102.089 96.4234 102.039C96.3921 101.988 96.3771 101.929 96.3808 101.87L96.9944 92.475L103.048 95.0356Z" fill="#FFA8A7"/>
<path d="M96.3808 101.87C96.3771 101.929 96.3921 101.988 96.4234 102.039C96.4548 102.089 96.5011 102.128 96.5559 102.151C96.6106 102.174 96.6711 102.179 96.729 102.166C96.7869 102.153 96.8392 102.122 96.8787 102.078L98.0823 100.702C97.794 100.732 97.5031 100.681 97.2416 100.557C96.9801 100.432 96.7582 100.237 96.6002 99.9939L96.5106 99.8594L96.3808 101.87Z" fill="#263238"/>
<path d="M112.096 55.9775L111.766 56.7799L111.362 57.7452L96.992 92.4726C97.3715 93.4587 98.1101 94.2647 99.0594 94.7287C100.475 95.4839 102.172 95.6208 103.041 95.0332L117.288 60.5607L118.053 58.7128C117.5 59.881 111.541 57.1575 112.096 55.9775Z" fill="#02002D"/>
<path d="M110.819 59.022L110.083 60.8132C109.847 61.3253 110.819 62.1136 112.049 62.7531C113.677 63.6098 115.763 64.2045 116.061 63.5272L116.606 62.208L116.792 61.736C116.486 62.4133 114.399 61.8209 112.769 60.9643C111.589 60.3483 110.645 59.5931 110.791 59.0763C110.796 59.056 110.805 59.0373 110.819 59.022Z" fill="#EBEBEB"/>
<path d="M110.64 59.468C110.102 60.648 116.084 63.369 116.622 62.182L117.366 60.3907C116.828 61.5707 110.845 58.8662 111.383 57.6791L110.64 59.468Z" fill="#02002D"/>
<path d="M112.096 55.9775L111.362 57.7452C110.819 58.9063 116.58 61.592 117.288 60.5607C117.303 60.5409 117.316 60.5195 117.326 60.4969L118.053 58.7128C117.5 59.881 111.541 57.1575 112.096 55.9775Z" fill="#EBEBEB"/>
<path opacity="0.1" d="M117.288 60.5607L118.053 58.7128C117.798 59.2414 116.443 58.9724 115.084 58.4131L100.204 95.1913L96.8787 102.078L103.048 95.0356L117.288 60.5607Z" fill="black"/>
<path d="M115.197 48.4822L112.096 55.9776C111.86 56.4826 112.804 57.2685 114.031 57.9104C115.657 58.7718 117.748 59.3831 118.069 58.7128L121.064 51.4959C121.899 49.8723 119.018 47.8285 116.948 47.7199C116.165 47.668 115.509 47.8757 115.197 48.4822Z" fill="#FFA8A7"/>
<path d="M118.062 50.9554L115.093 58.4107C116.304 58.9086 117.505 59.1753 117.925 58.8544C117.956 58.8292 117.984 58.8016 118.01 58.7718C118.024 58.7505 118.041 58.734 118.053 58.7128L121.132 51.2811C120.75 52.1732 118.062 50.9554 118.062 50.9554Z" fill="#F28F8F"/>
<path d="M127.363 100.355L125.661 100.862L124.925 98.3821L126.664 97.7874L127.363 100.355Z" fill="#B16668"/>
<path d="M125.411 100.022L125.338 99.7864C125.196 99.9044 125.154 101.41 124.755 102.279C124.321 103.223 123.861 103.902 123.667 104.329C123.407 104.9 124.418 105.203 125.534 104.653C126.086 104.379 126.973 103.666 127.115 103.208C127.257 102.751 127.207 102.158 127.33 101.816C127.453 101.474 127.835 101.025 127.851 100.669C127.795 100.357 127.671 100.062 127.488 99.8029C127.32 99.5268 127.136 99.22 127.042 99.279C127.042 99.3167 127.096 99.4654 127.096 99.4654C126.932 99.7605 126.686 100.002 126.388 100.159C126.121 100.296 125.501 100.317 125.411 100.022Z" fill="#263238"/>
<path d="M123.146 72.0704C124.172 73.3873 124.356 74.7467 124.132 78.5958C123.908 82.445 123.839 85.6758 123.896 85.8812C123.953 86.0865 125.161 87.6441 125.548 89.053C125.935 90.4619 126.995 98.4434 126.995 98.4434C126.763 98.7302 126.467 98.9588 126.131 99.1112C125.795 99.2636 125.428 99.3356 125.059 99.3213C125.059 99.3213 120.776 87.6582 120.488 86.7897C120.2 85.9213 118.364 76.8022 118.364 76.8022L118.643 71.6527L123.146 72.0704Z" fill="#37474F"/>
<path d="M118.68 60.7307H120.096C120.987 60.7307 121.842 60.3769 122.472 59.7472C123.102 59.1175 123.456 58.2633 123.457 57.3724C123.457 56.2927 123.028 55.2572 122.265 54.4938C121.501 53.7303 120.466 53.3014 119.386 53.3014C118.306 53.3014 117.271 53.7303 116.507 54.4938C115.744 55.2572 115.315 56.2927 115.315 57.3724C115.315 57.814 115.402 58.2513 115.571 58.6592C115.741 59.0671 115.989 59.4376 116.301 59.7496C116.614 60.0615 116.985 60.3087 117.393 60.4771C117.801 60.6454 118.239 60.7316 118.68 60.7307Z" fill="#263238"/>
<path d="M116.544 97.0985L114.77 97.075L114.735 99.6613L116.51 99.6848L116.544 97.0985Z" fill="#B16668"/>
<path d="M115.306 76.4978C115.464 74.7207 115.844 71.6409 115.844 71.6409L120.389 71.3743C121.125 72.5212 120.804 74.4423 120.604 76.1556L118.008 86.3319C118.06 86.8205 118.508 87.8541 118.008 90.4737C117.448 93.4002 116.618 97.5939 116.618 97.5939C116.618 97.5939 115.322 98.2452 114.683 97.5349C114.683 97.5349 114.34 88.0241 114.581 85.4989C114.838 82.7518 115.199 77.7156 115.306 76.4978Z" fill="#37474F"/>
<path d="M114.753 98.7786V98.5237C114.583 98.5945 114.093 100.02 113.455 100.73C112.759 101.507 112.117 102.014 111.803 102.363C111.388 102.835 112.261 103.421 113.488 103.227C114.1 103.133 115.159 102.713 115.428 102.321C115.697 101.929 115.83 101.344 116.049 101.056C116.268 100.768 116.757 100.449 116.887 100.112C116.927 99.7945 116.897 99.4721 116.797 99.168C116.719 98.8541 116.634 98.5072 116.528 98.5355C116.528 98.5732 116.528 98.729 116.528 98.729C116.282 98.9615 115.974 99.118 115.641 99.1798C115.353 99.2388 114.751 99.0877 114.753 98.7786Z" fill="#263238"/>
<path d="M116.384 68.0797C116.271 69.1181 115.601 73.628 115.601 73.628C119.027 75.4547 123.278 74.244 123.927 73.4912C123.339 71.5512 122.704 70.4468 122.22 69.9323L122.952 67.0814C122.952 67.0814 121.3 65.3209 122.77 62.5479L120.953 62.3992L118.286 62.3213C117.649 62.3567 117.194 62.418 117.194 62.418C116.706 63.2268 116.289 64.0755 115.945 64.955C115.681 65.6442 115.4 66.6519 116.384 68.0797Z" fill="#F0F0F0"/>
<path d="M116.774 55.0737C116.344 55.3286 115.813 56.4095 115.865 58.6774C115.91 60.5985 116.533 61.0729 116.844 61.2097C117.156 61.3466 117.76 61.264 118.348 61.1649V62.3189C118.348 62.3189 117.536 63.2629 117.588 63.7892C117.64 64.3155 118.768 64.4429 119.516 63.9261C120.064 63.5006 120.537 62.9851 120.913 62.4015L120.899 59.7512C120.899 59.7512 121.246 60.0864 121.831 59.5742C122.303 59.1518 122.475 58.4414 122.1 58.0591C122.002 57.9682 121.884 57.9018 121.756 57.8653C121.628 57.8288 121.492 57.8234 121.362 57.8495C121.231 57.8755 121.108 57.9323 121.003 58.0151C120.898 58.0979 120.815 58.2044 120.76 58.3258C120.76 58.3258 119.816 58.3588 118.581 57.6744C118.097 57.4138 117.68 57.0424 117.366 56.5904C117.052 56.1385 116.849 55.6189 116.774 55.0737Z" fill="#B16668"/>
<path d="M118.01 58.1937C118.006 58.2268 118.01 58.2603 118.02 58.292C118.03 58.3237 118.047 58.3528 118.069 58.3776C118.092 58.4023 118.119 58.4221 118.149 58.4355C118.18 58.449 118.213 58.4558 118.246 58.4556C118.296 58.4584 118.345 58.4464 118.387 58.4211C118.43 58.3959 118.464 58.3586 118.486 58.3139C118.507 58.2692 118.515 58.2191 118.508 58.1701C118.501 58.1211 118.479 58.0752 118.446 58.0384C118.413 58.0016 118.369 57.9755 118.321 57.9633C118.273 57.9512 118.223 57.9536 118.176 57.9702C118.129 57.9868 118.089 58.0169 118.059 58.0567C118.03 58.0965 118.013 58.1442 118.01 58.1937Z" fill="#263238"/>
<path d="M117.946 59.822L117.385 60.0014C117.395 60.039 117.413 60.0741 117.437 60.1047C117.461 60.1354 117.491 60.1609 117.525 60.1798C117.559 60.1987 117.597 60.2106 117.635 60.2148C117.674 60.219 117.713 60.2155 117.751 60.2043C117.826 60.1775 117.888 60.123 117.924 60.0519C117.961 59.9809 117.969 59.8987 117.946 59.822Z" fill="#9A4A4D"/>
<path d="M116.03 57.4526L116.519 57.1127C116.498 57.0799 116.471 57.0515 116.439 57.0294C116.407 57.0074 116.371 56.992 116.333 56.9843C116.295 56.9765 116.256 56.9766 116.218 56.9845C116.18 56.9924 116.144 57.0079 116.113 57.0301C116.048 57.0768 116.003 57.1465 115.988 57.225C115.972 57.3035 115.987 57.3849 116.03 57.4526Z" fill="#263238"/>
<path d="M116.141 58.0191C116.141 58.0649 116.155 58.1097 116.18 58.148C116.205 58.1863 116.241 58.2164 116.283 58.2347C116.325 58.253 116.371 58.2587 116.417 58.251C116.462 58.2433 116.504 58.2226 116.537 58.1915C116.571 58.1603 116.595 58.1201 116.606 58.0756C116.617 58.0311 116.615 57.9844 116.6 57.9411C116.585 57.8978 116.558 57.8597 116.521 57.8317C116.485 57.8036 116.442 57.7867 116.396 57.7831C116.331 57.7811 116.268 57.8048 116.22 57.8489C116.173 57.8931 116.144 57.9542 116.141 58.0191Z" fill="#263238"/>
<path d="M117.281 57.8822L117.243 59.336L116.479 59.1L117.281 57.8822Z" fill="#9A4A4D"/>
<path d="M118.348 61.1649C118.966 61.0847 120.236 60.7189 120.434 60.2209C120.354 60.4755 120.199 60.6996 119.988 60.8629C119.608 61.1885 118.348 61.5543 118.348 61.5543V61.1649Z" fill="#9A4A4D"/>
<path d="M123.424 58.0048L124.29 57.37C124.251 57.3113 124.201 57.2611 124.142 57.2224C124.084 57.1836 124.018 57.1572 123.948 57.1446C123.879 57.1321 123.808 57.1336 123.739 57.1492C123.671 57.1648 123.606 57.1942 123.549 57.2355C123.434 57.3233 123.356 57.4521 123.333 57.5952C123.31 57.7384 123.342 57.885 123.424 58.0048Z" fill="#263238"/>
<path d="M119.176 80.8166L118.433 77.0807C117.776 76.8481 117.152 76.5308 116.578 76.1367C116.945 76.6013 117.383 77.0051 117.876 77.3332L119.176 80.8166Z" fill="#263238"/>
<path d="M122.952 60.7472C122.164 60.3483 122.272 59.6026 122.671 58.812C123.07 58.0214 123.603 57.4904 124.394 57.8869C124.759 58.086 125.033 58.4194 125.157 58.8166C125.281 59.2138 125.245 59.6437 125.058 60.0152C124.871 60.3868 124.546 60.6709 124.153 60.8075C123.76 60.9441 123.329 60.9225 122.952 60.7472Z" fill="#263238"/>
<path d="M110.236 72.5519C110.633 72.6557 111.017 72.6227 111.565 72.8115C111.929 72.9694 112.326 73.0366 112.721 73.0074C113.236 72.9743 114.579 72.3395 115.771 71.615C117.078 70.766 118.23 69.6987 119.176 68.4597C120.255 66.9327 121.449 64.5232 122.02 63.6028C122.591 62.6824 122.787 62.5479 122.787 62.5479C123.533 62.5785 124.274 63.2558 123.778 65.0825C123.367 66.5882 122.265 68.5399 120.908 70.1824C119.877 71.3969 118.653 72.4334 117.286 73.2504C116.025 74.0198 114.926 74.4021 113.51 74.8718C113.127 74.9992 112.877 75.188 112.179 75.5184C111.897 75.6709 111.595 75.7814 111.282 75.8464C110.89 75.9029 110.493 75.9029 110.102 75.8464C109.604 75.778 109.135 75.5766 108.742 75.2635C108.527 75.0923 108.355 74.8733 108.24 74.624C108.125 74.3713 108.104 74.0863 108.178 73.8192C108.192 73.7651 108.22 73.7154 108.259 73.6752C108.3 73.646 108.346 73.6251 108.395 73.6138C108.444 73.6024 108.495 73.6009 108.544 73.6092C109.116 73.666 109.69 73.6936 110.265 73.6918C110.737 73.6587 111.065 73.5691 110.996 73.503C110.928 73.4369 110.654 73.4747 110.276 73.3118C109.899 73.149 109.651 72.7903 109.755 72.6038C109.859 72.4174 109.84 72.4481 110.236 72.5519Z" fill="#B16668"/>
<path d="M107.631 66.7533C108.177 66.5162 108.78 66.4409 109.368 66.5362C109.84 66.614 109.84 68.1882 108.322 68.6908C107.334 69.0142 106.739 68.8702 106.42 69.6844C106.42 69.6844 105.778 69.5994 105.925 68.6908C106.085 67.7525 106.506 66.8783 107.14 66.168C107.574 65.6535 107.612 65.224 107.817 65.3656C108.023 65.5072 107.947 66.0099 107.947 66.0099L107.631 66.7533Z" fill="#B16668"/>
<path d="M46.3629 67.9027C47.4155 69.1605 49.3342 71.5607 50.3206 72.7997C50.8441 73.4463 51.1269 74.2546 51.1207 75.0865C51.1207 75.7025 50.946 76.2169 50.3419 75.955C49.9076 75.7638 49.6339 75.5396 48.9943 74.9119C48.4232 74.3478 46.3983 71.9147 46.3983 71.9147C46.3983 71.9147 44.8454 67.8295 43.9911 67.5699C43.5251 67.4163 43.0345 67.3507 42.5444 67.3764C43.5758 67.02 45.0272 66.312 46.3629 67.9027Z" fill="#F28F8F"/>
<path d="M42.0347 66.5598C43.0896 65.7668 44.8667 65.9721 45.8626 67.1663C46.5871 68.0419 48.3076 70.1777 48.3076 70.1777C48.0976 70.6454 47.7919 71.0639 47.4102 71.4061C47.0285 71.7484 46.5793 72.0069 46.0915 72.1648L42.0347 66.5598Z" fill="#E0E0E0"/>
<path d="M62.2246 94.7382C62.2246 94.7382 59.2604 83.9931 55.0808 73.864C50.9343 63.8316 44.5411 53.653 43.472 52.1166L43.4578 52.0977L43.4413 52.0741C43.3392 51.9386 43.1971 51.8385 43.0351 51.7881C42.8731 51.7377 42.6993 51.7395 42.5383 51.7933C42.3774 51.847 42.2374 51.95 42.1381 52.0876C42.0389 52.2252 41.9854 52.3906 41.9852 52.5603C41.985 52.6223 41.9921 52.6841 42.0064 52.7444C42.0064 52.7444 44.8384 66.64 48.9283 76.5072C53.0182 86.3744 58.6043 96.2486 58.6043 96.2486C58.6951 96.3784 58.8144 96.4857 58.9531 96.5622C59.0918 96.6387 59.2461 96.6824 59.4044 96.6899C59.8884 96.7266 60.3743 96.6489 60.8227 96.4632C61.2712 96.2775 61.6698 95.9889 61.9862 95.6208C62.0907 95.5017 62.1664 95.3602 62.2077 95.2072C62.2491 95.0542 62.2548 94.8938 62.2246 94.7382Z" fill="#02002D"/>
<path opacity="0.1" d="M41.9828 52.5697C41.9826 52.6317 41.9897 52.6935 42.004 52.7538C42.004 52.7538 44.836 66.6495 48.9259 76.5167C51.6706 83.1553 55.0949 89.794 57.0443 93.4308L59.1824 92.0761C59.1824 92.0761 42.1598 52.0647 42.7946 51.7603C42.6881 51.7599 42.5826 51.7807 42.4841 51.8212C42.3856 51.8617 42.2961 51.9213 42.2207 51.9965C42.1453 52.0717 42.0854 52.1611 42.0446 52.2594C42.0038 52.3578 41.9828 52.4632 41.9828 52.5697Z" fill="black"/>
<path d="M58.5924 96.2581C58.2479 97.9927 57.6484 100.221 58.7388 103.114C59.9683 106.399 63.6948 107.305 65.4836 107.308C67.9782 107.308 69.557 106.382 69.557 106.382C69.557 106.382 68.2661 105.887 67.7327 104.022C67.6268 103.616 67.5619 103.2 67.5392 102.781C67.4236 101.271 67.374 99.6258 66.0548 97.8015C65.0982 96.4341 63.7698 95.3694 62.2268 94.7335L58.5924 96.2581Z" fill="#EBEBEB"/>
<path d="M67.728 104.022C67.622 103.616 67.5572 103.2 67.5345 102.781C67.5345 102.793 67.0837 104.749 65.9816 104.634C64.8795 104.518 64.5656 103.345 63.1 103.345C61.3182 103.345 60.7046 104.841 59.1777 104.034C60.707 106.604 63.8576 107.305 65.4789 107.308C67.9734 107.308 69.5523 106.382 69.5523 106.382C69.5523 106.382 68.2661 105.887 67.728 104.022Z" fill="#02002D"/>
<path opacity="0.1" d="M63.0741 104.653C60.1902 102.654 60.733 97.3366 60.8179 96.4705L58.5924 96.2581C58.2479 97.9927 57.6484 100.22 58.7388 103.114C59.9683 106.399 63.6948 107.305 65.4836 107.308C67.9782 107.308 69.557 106.382 69.557 106.382C69.557 106.382 66.4512 106.996 63.0741 104.653Z" fill="black"/>
<path d="M58.5924 96.2581C58.6832 96.3879 58.8025 96.4952 58.9412 96.5717C59.0799 96.6482 59.2343 96.6919 59.3925 96.6994C59.8765 96.736 60.3624 96.6584 60.8109 96.4727C61.2593 96.287 61.6579 95.9984 61.9743 95.6303C62.0825 95.5112 62.1616 95.3687 62.2054 95.2139C62.2492 95.0592 62.2566 94.8963 62.2268 94.7382C61.8068 93.2467 61.323 91.6301 60.7967 89.9309C60.9005 90.2613 60.7967 90.6672 60.4875 91.0826C60.0887 91.5481 59.5858 91.913 59.0195 92.1475C58.4532 92.3821 57.8395 92.4797 57.2284 92.4325C56.695 92.3641 56.3363 92.1328 56.1829 91.8166C57.108 93.5464 57.9718 95.163 58.5924 96.2581Z" fill="#455A64"/>
<path d="M59.1824 92.0761C58.5759 92.3712 57.9 92.4945 57.2284 92.4325C56.695 92.364 56.3363 92.1328 56.1829 91.8165C57.1033 93.5464 57.9718 95.163 58.5924 96.258C58.6832 96.3879 58.8025 96.4952 58.9412 96.5717C59.0799 96.6482 59.2343 96.6919 59.3925 96.6994C59.8768 96.7416 60.364 96.6604 60.8085 96.4634L60.8344 96.4185L59.1824 92.0691V92.0761Z" fill="#37474F"/>
<path d="M44.1119 62.8143C45.4883 62.4894 46.3407 61.1103 46.0159 59.734C45.691 58.3576 44.3119 57.5052 42.9355 57.83C41.5592 58.1549 40.7068 59.534 41.0316 60.9103C41.3565 62.2867 42.7356 63.1391 44.1119 62.8143Z" fill="#263238"/>
<path d="M37.3973 106.72H39.2003V103.633H37.3973V106.72Z" fill="#FFA8A7"/>
<path d="M43.6466 103.468L45.4496 103.529L45.5393 100.263L43.7386 100.202L43.6466 103.468Z" fill="#FFA8A7"/>
<path d="M37.52 79.1647C37.52 80.8875 37.284 91.321 37.284 91.321C37.2415 91.8166 36.779 92.737 36.8781 94.625C37.015 97.2092 37.2392 103.931 37.2392 103.931C37.2392 103.931 38.084 104.768 39.2782 103.931C39.2782 103.931 40.9113 94.6345 41.2323 92.0715C41.532 89.8437 42.004 83.7761 42.004 83.7761L43.6749 90.9246C43.6749 90.9246 43.3799 92.6049 43.3162 93.7896C43.2524 94.9743 43.6206 101.186 43.6206 101.186C43.913 101.369 44.2481 101.471 44.5926 101.484C44.9371 101.497 45.279 101.419 45.5841 101.259C45.5841 101.259 47.0308 91.8922 47.2172 90.8207C47.4037 89.7493 45.9499 79.1694 45.9499 79.1694L37.52 79.1647Z" fill="#37474F"/>
<path d="M39.2475 66.7109C38.8632 66.778 38.5075 66.9575 38.2252 67.2268C37.9429 67.496 37.7468 67.8429 37.6616 68.2236C37.5636 68.6733 37.5146 69.1322 37.5153 69.5924V79.1646C38.7779 80.5405 43.1793 81.18 45.9476 79.1646C45.9476 79.1646 45.8933 70.7111 45.6856 69.321C45.3269 66.9068 44.1728 66.0477 43.0117 66.1374L40.2293 66.548L39.2475 66.7109Z" fill="#F0F0F0"/>
<path d="M39.1012 62.1395C39.1012 62.1395 39.5166 64.0889 39.6818 64.4098C39.7935 64.6064 39.9757 64.7531 40.1915 64.8205L40.1632 63.4493L39.1012 62.1395Z" fill="#263238"/>
<path d="M39.6228 59.3477C39.4776 59.3311 39.3305 59.3477 39.1927 59.3964C39.0549 59.445 38.93 59.5244 38.8274 59.6285C38.4852 59.9778 38.6764 61.0705 39.1012 62.1396L39.8824 62.2292L39.6228 59.3477Z" fill="#263238"/>
<path d="M40.116 62.2316C39.9602 62.3236 39.736 62.0239 39.5425 61.8209C39.349 61.618 38.7189 61.3489 38.405 62.005C38.0911 62.6611 38.6835 63.5744 39.1791 63.7302C40.0358 63.9992 40.1632 63.4493 40.1632 63.4493L40.2293 66.548C40.4181 66.962 40.7067 67.3227 41.0691 67.5978C41.4316 67.873 41.8566 68.0539 42.3061 68.1245C43.8236 68.3298 43.512 67.079 43.0141 66.4725V65.5285C43.3955 65.5895 43.7824 65.6101 44.1681 65.5899C44.7982 65.4907 45.1947 64.9951 45.3835 64.3131C45.6903 63.2204 45.8083 62.3354 45.5464 60.1855C45.2632 57.8255 42.5185 57.8019 41.0388 58.7341C39.559 59.6663 40.116 62.2316 40.116 62.2316Z" fill="#FFA8A7"/>
<path d="M40.116 62.4936C40.0381 62.4936 39.7384 61.998 39.5425 61.821C39.2735 61.585 39.6228 59.3477 39.6228 59.3477C39.5513 59.1552 39.5377 58.946 39.5839 58.7459C39.63 58.5459 39.7338 58.3637 39.8824 58.222C40.2529 57.8161 40.8712 57.7689 41.9285 57.6037C42.4807 57.5163 43.3209 57.3677 43.8755 57.2591C44.5363 57.1364 45.0838 57.0066 45.5487 57.4125C45.7309 57.5715 45.8599 57.7826 45.9181 58.0173C45.9764 58.252 45.9611 58.4989 45.8744 58.7247C45.826 58.8272 45.7623 58.9219 45.6856 59.0055C45.5601 59.1541 45.3971 59.2666 45.2136 59.3312C45.2136 59.3312 44.9257 59.5884 43.9227 59.7088C42.9972 59.7783 42.0672 59.7609 41.145 59.6569C40.8547 59.6167 40.7933 59.8929 40.6352 60.6693C40.496 61.3561 40.3803 62.4889 40.116 62.4936Z" fill="#263238"/>
<path d="M39.6228 59.5224L38.6788 59.0126C38.7091 58.9501 38.7517 58.8942 38.8039 58.8483C38.8562 58.8025 38.9171 58.7675 38.9831 58.7455C39.049 58.7235 39.1187 58.7149 39.188 58.7203C39.2574 58.7256 39.3249 58.7448 39.3868 58.7766C39.5144 58.8467 39.6102 58.9633 39.6542 59.1022C39.6981 59.2411 39.6869 59.3916 39.6228 59.5224Z" fill="#263238"/>
<path d="M43.0094 65.5143C43.0094 65.5143 41.5934 65.2335 41.1214 64.9716C40.8323 64.8208 40.5955 64.5864 40.4417 64.299C40.5144 64.5863 40.6445 64.856 40.824 65.0919C41.1827 65.5521 43.0117 65.8896 43.0117 65.8896L43.0094 65.5143Z" fill="#F28F8F"/>
<path d="M42.6719 61.88C42.6705 61.9352 42.6528 61.9888 42.6211 62.034C42.5895 62.0793 42.5451 62.1141 42.4937 62.1343C42.4423 62.1545 42.386 62.1591 42.332 62.1474C42.278 62.1358 42.2287 62.1085 42.1901 62.069C42.1515 62.0294 42.1255 61.9794 42.1152 61.9251C42.1049 61.8708 42.1109 61.8147 42.1323 61.7638C42.1538 61.7129 42.1898 61.6695 42.2358 61.6389C42.2818 61.6084 42.3358 61.5921 42.391 61.592C42.4284 61.5923 42.4654 61.6001 42.4998 61.6147C42.5342 61.6294 42.5653 61.6507 42.5914 61.6775C42.6176 61.7043 42.6381 61.7359 42.6519 61.7707C42.6657 61.8054 42.6725 61.8426 42.6719 61.88Z" fill="#263238"/>
<path d="M42.3745 60.8179L41.768 61.1483C41.7272 61.0666 41.7189 60.9725 41.7448 60.8849C41.7706 60.7974 41.8287 60.7228 41.9072 60.6763C41.9469 60.6535 41.9908 60.6391 42.0362 60.6339C42.0817 60.6287 42.1277 60.6329 42.1715 60.6461C42.2153 60.6594 42.2559 60.6815 42.2908 60.711C42.3257 60.7406 42.3542 60.7769 42.3745 60.8179Z" fill="#263238"/>
<path d="M42.8819 63.8246L43.5262 64.0606C43.5122 64.1037 43.4896 64.1435 43.4598 64.1776C43.4301 64.2118 43.3937 64.2396 43.353 64.2594C43.3122 64.2793 43.2679 64.2907 43.2227 64.293C43.1774 64.2953 43.1322 64.2885 43.0896 64.273C43.0041 64.2391 42.9349 64.1737 42.8962 64.0902C42.8576 64.0068 42.8525 63.9117 42.8819 63.8246Z" fill="#F28F8F"/>
<path d="M45.1829 61.0516L44.633 60.6291C44.6588 60.5928 44.6916 60.562 44.7295 60.5385C44.7673 60.5151 44.8095 60.4995 44.8536 60.4927C44.8976 60.4859 44.9425 60.488 44.9857 60.4988C45.0289 60.5097 45.0695 60.5291 45.105 60.556C45.1792 60.6127 45.2287 60.6959 45.2432 60.7882C45.2577 60.8805 45.2361 60.9748 45.1829 61.0516Z" fill="#263238"/>
<path d="M45.013 61.7997C45.0107 61.8547 44.9923 61.9078 44.96 61.9524C44.9278 61.997 44.8832 62.0312 44.8317 62.0506C44.7802 62.0701 44.7242 62.074 44.6705 62.0619C44.6168 62.0497 44.5679 62.0221 44.5298 61.9824C44.4917 61.9427 44.4661 61.8926 44.4562 61.8385C44.4462 61.7844 44.4525 61.7285 44.474 61.6779C44.4956 61.6273 44.5315 61.5841 44.5774 61.5537C44.6233 61.5233 44.6771 61.5071 44.7322 61.5071C44.77 61.5074 44.8073 61.5152 44.842 61.5302C44.8767 61.5452 44.9081 61.5669 44.9343 61.5942C44.9605 61.6215 44.9809 61.6537 44.9944 61.689C45.0079 61.7243 45.0143 61.7619 45.013 61.7997Z" fill="#263238"/>
<path d="M43.5805 61.5331L43.6725 63.2252L44.5552 62.9255L43.5805 61.5331Z" fill="#F28F8F"/>
<path d="M39.198 105.828V105.571C39.3726 105.646 39.7714 107.175 40.4889 107.827C41.0576 108.346 41.8317 108.945 42.03 109.524C42.2282 110.102 40.9491 110.468 40.4181 110.364C39.7998 110.253 38.7307 109.819 38.4616 109.42C38.1926 109.021 38.0675 108.424 37.8504 108.129C37.6333 107.834 37.1282 107.504 37.0102 107.161C36.9442 106.973 37.0102 106.562 37.1141 106.217C37.2179 105.873 37.2864 105.547 37.3949 105.578C37.3949 105.616 37.3949 105.774 37.3949 105.774C37.6513 105.976 37.9698 106.084 38.2964 106.078C38.5608 106.083 39.2003 106.029 39.198 105.828Z" fill="#263238"/>
<path d="M45.4685 102.972C45.5629 102.972 45.6384 103.109 45.8437 103.331C46.1528 103.643 46.5117 103.902 46.9057 104.096C47.5807 104.433 48.8928 104.952 49.4876 105.221C49.8581 105.387 49.8416 105.835 49.4569 106.092C49.0722 106.349 48.1471 106.529 47.0355 106.281C46.429 106.146 45.6408 105.587 45.1475 105.615C44.6543 105.644 43.7126 105.639 43.3445 105.379C42.9763 105.12 43.1226 104.582 43.2288 104.117C43.3421 103.607 43.505 102.828 43.6725 102.864V103.024C43.8896 103.352 44.9918 103.496 45.4685 103.244V102.972Z" fill="#263238"/>
<path d="M42.004 83.776C42.936 83.4851 43.7931 82.9938 44.515 82.3364C44.515 82.3364 44.0289 83.2427 42.5893 84.0875L43.1297 88.6966L42.004 83.776Z" fill="#263238"/>
<path d="M52.093 77.0452C51.6965 77.1467 51.3142 77.1136 50.7667 77.3024C50.4022 77.4614 50.0044 77.5287 49.6079 77.4983C49.0958 77.4676 47.7506 76.8304 46.5588 76.1083C45.255 75.2571 44.1064 74.1891 43.1628 72.9506C42.0842 71.4237 40.8901 69.0165 40.3308 68.0961C39.7714 67.1757 39.2192 67.0766 38.5844 67.1049C37.8386 67.1356 37.3619 67.8129 38.018 69.2289C38.9547 71.16 40.1041 72.9806 41.4447 74.6569C42.4748 75.8713 43.6979 76.9079 45.0649 77.7249C46.3252 78.4966 47.4249 78.8766 48.8409 79.3462C49.2233 79.4736 49.4758 79.6624 50.1743 79.9928C50.4547 80.1461 50.7561 80.2574 51.0688 80.3232C51.46 80.3808 51.8575 80.3808 52.2488 80.3232C52.7459 80.2556 53.2155 80.055 53.6081 79.7427C53.8244 79.5712 53.9974 79.3513 54.1132 79.1008C54.2268 78.8478 54.2477 78.5628 54.1722 78.296C54.1587 78.2422 54.1319 78.1927 54.0943 78.152C54.011 78.0943 53.9089 78.0707 53.8087 78.086C53.2363 78.1436 52.6613 78.172 52.0859 78.1709C51.6139 78.1355 51.2882 78.0482 51.3543 77.9821C51.4204 77.916 51.6989 77.9538 52.0765 77.791C52.4541 77.6281 52.6995 77.267 52.5981 77.083C52.4966 76.8989 52.4895 76.9437 52.093 77.0452Z" fill="#FFA8A7"/>
<path d="M38.8156 66.8406C38.2422 66.8689 37.5011 67.2182 37.5153 68.1976C37.5295 69.177 39.0328 72.0208 40.1915 73.6445C40.1915 73.6445 42.0017 73.5288 42.9504 72.1648C42.9504 72.1648 41.2606 69.4767 40.8028 68.6248C40.3898 67.8483 39.644 66.7981 38.8156 66.8406Z" fill="#E0E0E0"/>
<path d="M53.804 70.9092C53.2828 70.6892 52.7089 70.6253 52.152 70.7252C51.68 70.803 51.68 72.3772 53.1975 72.8798C54.1863 73.2032 54.781 73.0616 55.0996 73.8734C55.0996 73.8734 55.7392 73.7884 55.5952 72.8798C55.4365 71.9429 55.0188 71.069 54.3893 70.357C53.9527 69.8425 53.9173 69.413 53.7096 69.557C53.5019 69.7009 53.5043 70.2296 53.5043 70.2296L53.804 70.9092Z" fill="#FFA8A7"/>
<path d="M95.2456 77.4465L86.5844 77.3285L86.5089 84.4085C86.5089 85.0481 86.9172 85.6923 87.7573 86.1903C89.44 87.1862 92.1823 87.2145 93.8933 86.2564C94.7524 85.7726 95.1819 85.1307 95.1795 84.484L95.2456 77.4465Z" fill="#37474F"/>
<path d="M87.873 75.5751C86.1714 76.5356 86.1549 78.1191 87.8352 79.1151C89.5155 80.111 92.2578 80.1393 93.9594 79.1811C95.661 78.223 95.6798 76.6394 93.9995 75.6411C92.3192 74.6429 89.5745 74.6169 87.873 75.5751Z" fill="#455A64"/>
<path d="M94.868 77.4182C94.866 77.534 94.8452 77.6488 94.8066 77.758C94.6768 78.164 94.3228 78.5392 93.7706 78.8507C92.874 79.2897 91.8871 79.5128 90.8888 79.5022C89.8906 79.4915 88.9087 79.2474 88.0216 78.7894C87.4883 78.4731 87.139 78.0814 87.0163 77.6967C86.9749 77.58 86.9542 77.457 86.9549 77.3332C86.9549 76.807 87.3514 76.2972 88.0547 75.9172C88.9517 75.4798 89.9384 75.2577 90.9364 75.2683C91.9344 75.279 92.9161 75.5222 93.8036 75.9786C94.5022 76.3774 94.868 76.8896 94.868 77.4182Z" fill="#263238"/>
<path d="M94.8114 77.7581C94.6816 78.164 94.3276 78.5392 93.7753 78.8507C92.8787 79.2897 91.8918 79.5128 90.8936 79.5022C89.8953 79.4915 88.9134 79.2474 88.0264 78.7894C87.493 78.4731 87.1437 78.0814 87.021 77.6967C87.2181 77.2164 87.5888 76.828 88.0594 76.6087C88.9552 76.1668 89.9424 75.9421 90.9412 75.9528C91.94 75.9634 92.9222 76.2092 93.8084 76.6701C94.264 76.8985 94.6206 77.2854 94.8114 77.7581Z" fill="#02002D"/>
<path d="M92.7605 80.0968C92.9517 79.9906 93.1027 80.0803 93.1004 80.2974C93.0927 80.416 93.0573 80.5312 92.9971 80.6336C92.9368 80.7361 92.8534 80.823 92.7534 80.8874C92.5623 80.9936 92.4112 80.9039 92.4136 80.6868C92.4213 80.5682 92.4566 80.453 92.5169 80.3505C92.5771 80.248 92.6606 80.1611 92.7605 80.0968Z" fill="#263238"/>
<path d="M86.5702 78.584C86.0982 79.528 85.1542 81.7559 86.3767 82.6668C86.4286 82.7046 86.4758 82.7376 86.5278 82.7707V83.2214C86.405 83.1483 86.2776 83.0633 86.1549 82.9736C84.3164 81.6095 86.3909 78.1144 86.4806 77.9681C86.5034 77.9288 86.5407 77.9 86.5844 77.8878L86.5702 78.584Z" fill="#E0E0E0"/>
<path d="M92.9234 80.5806C92.8714 80.6892 91.5333 83.2474 89.3314 83.7619C89.0826 83.822 88.8275 83.8521 88.5715 83.8516C87.8414 83.8379 87.1304 83.6151 86.523 83.2097V82.7589C87.4316 83.389 88.3473 83.6062 89.2418 83.3985C91.2737 82.9265 92.5741 80.4296 92.5835 80.406C92.595 80.384 92.6107 80.3644 92.6297 80.3485C92.6487 80.3325 92.6707 80.3205 92.6943 80.313C92.718 80.3056 92.7429 80.3029 92.7676 80.3051C92.7923 80.3072 92.8164 80.3143 92.8384 80.3258C92.8613 80.3363 92.8818 80.3514 92.8986 80.3701C92.9154 80.3889 92.9282 80.4109 92.9361 80.4348C92.9441 80.4587 92.9471 80.4839 92.9449 80.509C92.9427 80.5341 92.9353 80.5585 92.9234 80.5806Z" fill="#E0E0E0"/>
<path d="M81.7157 63.3668H61.8917L64.1078 81.6049C64.2092 82.6622 64.9479 83.7006 66.345 84.5077C69.3588 86.247 74.2416 86.247 77.253 84.5077C78.6501 83.7006 79.3911 82.6622 79.4926 81.6049L81.7157 63.3668Z" fill="#37474F"/>
<path d="M64.804 59.3171C68.6767 57.0821 74.952 57.0821 78.8271 59.3171C82.7022 61.552 82.6998 65.1793 78.8271 67.4142C74.9543 69.6491 68.6791 69.6491 64.804 67.4142C60.9288 65.1793 60.9312 61.5543 64.804 59.3171Z" fill="#455A64"/>
<path d="M71.8155 67.9405C69.3658 67.9405 67.079 67.4001 65.3798 66.4183C63.8765 65.5498 63.0505 64.4666 63.0505 63.3644C63.0505 62.2623 63.8765 61.1815 65.3798 60.313C67.079 59.3312 69.3658 58.7908 71.8155 58.7908C74.2652 58.7908 76.552 59.3312 78.2512 60.313C79.7546 61.1815 80.5806 62.2647 80.5806 63.3644C80.5806 64.4642 79.7546 65.5498 78.2512 66.4159C76.552 67.4001 74.2652 67.9405 71.8155 67.9405Z" fill="#263238"/>
<mask id="mask0_199_19319" style="mask-type:luminance" maskUnits="userSpaceOnUse" x="59" y="28" width="27" height="40">
<path d="M71.6834 67.9404C69.2337 67.9404 66.9468 67.4 65.2476 66.4182C63.7443 65.5498 62.9183 64.4665 62.9183 63.3644C62.9183 62.2623 59.2178 35.4763 59.2178 35.4763L68.0891 28.1815L85.7065 34.5771C85.7065 34.5771 80.5806 62.2646 80.5806 63.3691C80.5806 64.4736 79.6531 65.6135 78.1521 66.4796C76.46 67.4566 74.133 67.9404 71.6834 67.9404Z" fill="white"/>
</mask>
<g mask="url(#mask0_199_19319)">
<path d="M77.0264 44.6637L76.9155 45.3717L76.7739 46.2378L71.858 77.4347C72.3591 78.1647 73.1179 78.6782 73.982 78.8719C75.28 79.2141 76.6984 78.9899 77.286 78.3385L82.1806 47.3848L82.4426 45.7328C82.2137 46.7901 76.8116 45.7351 77.0264 44.6637Z" fill="#02002D"/>
<path d="M76.5874 47.3989L76.3373 49.0061C76.25 49.4781 77.194 49.9241 78.3244 50.2073C79.8206 50.5849 81.6426 50.6628 81.7606 50.0492L81.947 48.8692L82.006 48.4444C81.888 49.058 80.0661 48.9825 78.5698 48.6049C77.4866 48.3311 76.5709 47.8969 76.5827 47.4556C76.5775 47.4367 76.5792 47.4167 76.5874 47.3989Z" fill="#EBEBEB"/>
<path d="M76.5284 47.8025C76.3208 48.8763 81.7417 49.9265 81.9564 48.8432L82.2113 47.2361C82.006 48.3099 76.5851 47.2691 76.7833 46.1953L76.5284 47.8025Z" fill="#02002D"/>
<path d="M77.0264 44.6637L76.7739 46.252C76.5638 47.3069 81.7865 48.376 82.1806 47.3871C82.1897 47.3685 82.1961 47.3486 82.1995 47.3281L82.4355 45.7281C82.2137 46.7901 76.8116 45.7351 77.0264 44.6637Z" fill="#EBEBEB"/>
<path opacity="0.1" d="M82.1806 47.3848L82.4426 45.7328C82.3388 46.2048 81.1776 46.2614 79.9575 46.0703L75.0133 79.0253L73.6469 85.3029L77.3049 78.3409L82.1806 47.3848Z" fill="black"/>
<path d="M78.0955 37.9306L77.0264 44.6637C76.9344 45.1215 77.8689 45.577 78.9876 45.8626C80.4838 46.2473 82.3128 46.3346 82.4426 45.7257L83.4692 39.2499C83.8326 37.7583 81.0785 36.6539 79.3628 36.963C78.7232 37.0669 78.2324 37.3737 78.0955 37.9306Z" fill="#FFA8A7"/>
<path d="M65.4954 76.814L65.3963 76.0918L65.2712 75.2234L60.8958 43.9557C61.3017 44.3734 62.3519 44.5953 63.4918 44.4726C64.8252 44.3286 66.0548 43.7811 66.3474 43.1462L70.6898 74.1826L70.9258 75.8464C70.7181 74.7773 65.2996 75.7378 65.4954 76.814Z" fill="#02002D"/>
<path d="M63.1307 37.8055C62.3378 38.0109 62.0569 37.8457 62.0569 37.8457L60.8982 43.9557C61.5306 44.8643 63.0717 45.0531 64.3768 44.6637L64.3367 44.364L63.1307 37.8055Z" fill="#FFA8A7"/>
<path d="M63.5107 37.4918L62.8216 36.1206L63.5107 37.4918Z" fill="#E0E0E0"/>
<path d="M62.3732 36.1843L62.0569 37.8363C62.0569 37.8363 62.326 38.0274 63.1307 37.7962L62.8216 36.1111C62.808 36.0832 62.789 36.0582 62.7657 36.0376C62.7425 36.0171 62.7154 36.0013 62.686 35.9912C62.6566 35.9811 62.6255 35.9769 62.5945 35.9789C62.5635 35.9808 62.5332 35.9889 62.5053 36.0026C62.4699 36.0195 62.4393 36.045 62.4162 36.0767C62.3931 36.1084 62.3783 36.1454 62.3732 36.1843Z" fill="#455A64"/>
<path opacity="0.1" d="M70.6969 74.1826L66.3545 43.1533C66.0477 43.892 65.2665 44.4159 64.3768 44.6732L68.4502 75.4641C69.675 75.2942 70.8338 75.3626 70.9282 75.8464L70.6969 74.1826Z" fill="black"/>
<path d="M66.3545 43.1534L63.5083 37.4894C63.4224 37.6353 63.2879 37.7464 63.1284 37.8033L64.3367 44.3641L64.3768 44.6685C65.2665 44.416 66.0477 43.8921 66.3545 43.1534Z" fill="#F28F8F"/>
<path d="M63.1307 37.8056C63.2137 37.7855 63.291 37.7468 63.3568 37.6924C63.4226 37.638 63.4752 37.5694 63.5107 37.4918L62.8216 36.1206L63.1307 37.8056Z" fill="#37474F"/>
<path d="M70.055 41.1332C70.055 41.1332 69 49.5962 68.9906 57.9765C68.9906 66.2837 70.5175 75.3532 70.8243 76.7527C70.8243 76.7527 70.8243 76.7527 70.8243 76.7692C70.8254 76.7771 70.8254 76.785 70.8243 76.7928C70.8554 76.9208 70.9264 77.0356 71.027 77.1206C71.1277 77.2056 71.2527 77.2563 71.3841 77.2655C71.5155 77.2747 71.6464 77.2419 71.7579 77.1717C71.8694 77.1016 71.9557 76.9978 72.0043 76.8754C72.0226 76.8316 72.0353 76.7856 72.0421 76.7385C72.0421 76.7385 74.1 66.0761 74.1165 57.9105C74.133 49.7449 73.0687 41.1238 73.0687 41.1238C73.0406 41.0075 72.9868 40.8991 72.9112 40.8064C72.8357 40.7136 72.7403 40.639 72.6321 40.5881C72.3008 40.4198 71.9345 40.332 71.563 40.332C71.1915 40.332 70.8252 40.4198 70.4939 40.5881C70.3835 40.6387 70.2864 40.7143 70.2102 40.8089C70.134 40.9035 70.0809 41.0145 70.055 41.1332Z" fill="#02002D"/>
<path opacity="0.1" d="M72.0067 76.8754C72.025 76.8316 72.0377 76.7856 72.0444 76.7385C72.0444 76.7385 74.1 66.076 74.1165 57.9104C74.1165 52.414 73.6445 46.717 73.333 43.5758L71.4261 43.9062C71.4261 43.9062 71.7329 77.1822 71.1901 77.2105C71.2657 77.2426 71.3469 77.2594 71.4289 77.2599C71.511 77.2604 71.5924 77.2446 71.6684 77.2134C71.7443 77.1822 71.8133 77.1363 71.8714 77.0783C71.9294 77.0203 71.9754 76.9513 72.0067 76.8754Z" fill="black"/>
<path d="M71.5583 40.3213C71.8226 39.8257 73.2646 37.1495 72.7996 34.9689C72.5094 34.961 72.2231 34.9002 71.9548 34.7895C70.9187 34.36 71.0414 33.4396 70.3028 33.0337C69.5641 32.6277 68.6696 33.8785 68.6626 33.8903C68.3015 34.9901 67.8531 36.1677 68.2519 37.8457C68.5291 39.0912 69.1573 40.2312 70.062 41.1308H73.0758L71.5583 40.3213Z" fill="#F0F0F0"/>
<path opacity="0.1" d="M74.9307 35.4503C74.2888 34.6786 73.6304 34.9972 72.8067 34.9783C73.2787 37.1589 71.8297 39.8352 71.5654 40.3308L73.0758 41.1308C73.2646 40.85 73.4722 40.5503 73.6776 40.2246C73.7295 40.1443 73.7814 40.0594 73.8333 39.9744C73.9372 39.8045 74.0386 39.6251 74.1354 39.4387C74.2902 39.1449 74.4258 38.8414 74.5413 38.5301C74.6192 38.313 74.6924 38.0864 74.7537 37.8457C74.8919 37.322 74.971 36.7845 74.9897 36.2433C74.9936 35.9777 74.9738 35.7124 74.9307 35.4503Z" fill="black"/>
<path d="M74.9284 35.4385C74.9071 35.304 74.8812 35.1742 74.8505 35.0444V35.0066C74.8245 34.9099 74.7962 34.8131 74.7655 34.7211L74.7301 34.6125C74.7301 34.5842 74.7065 34.5559 74.6971 34.5275L74.6381 34.3789C74.6121 34.3175 74.5862 34.2585 74.5578 34.2019C74.4916 34.0686 74.4175 33.9394 74.336 33.8148C74.2628 33.6897 74.185 33.5788 74.1 33.4514C74.015 33.3239 73.9324 33.2154 73.8428 33.1139C73.2847 32.4466 72.6027 31.8936 71.8344 31.4855L71.6668 31.4005L71.6196 31.3769L71.4261 31.292C71.0262 31.1243 70.6124 30.9916 70.1895 30.8955C70.0007 30.853 69.8213 30.8223 69.6538 30.7964C69.4862 30.7704 69.3304 30.7563 69.1818 30.7468L68.9788 30.7327H68.7994H68.5115C68.3534 30.7327 68.2755 30.7515 68.2755 30.7515C68.2755 30.7515 69.0449 31.4808 68.875 32.9534C68.8283 33.2752 68.7492 33.5915 68.639 33.8974C68.639 33.8974 69.5358 32.6372 70.2792 33.0407C71.0226 33.4443 70.9022 34.3671 71.9312 34.7966C72.1995 34.9073 72.4858 34.9681 72.776 34.9759C73.6068 35.0043 74.2652 34.6857 74.9 35.4479L74.9284 35.4385Z" fill="#02002D"/>
<path opacity="0.1" d="M68.2826 30.7515C68.2826 30.7515 70.6591 31.2235 72.3607 33.8738C72.5725 34.209 72.7213 34.5802 72.7996 34.9689C73.6304 34.9972 74.2888 34.6786 74.9236 35.4409C74.9024 35.3063 74.8764 35.1765 74.8458 35.0467V35.009C74.8198 34.9122 74.7915 34.8155 74.7608 34.7234L74.7254 34.6149C74.7254 34.5865 74.7018 34.5582 74.6924 34.5299L74.6334 34.3812C74.6074 34.3199 74.5814 34.2609 74.5531 34.2042C74.4875 34.0708 74.415 33.9408 74.336 33.8148C74.2628 33.6897 74.185 33.5788 74.1 33.4514C74.015 33.3239 73.9324 33.2154 73.8428 33.1139C73.2847 32.4466 72.6027 31.8936 71.8344 31.4855L71.6668 31.4005L71.6196 31.3769L71.4261 31.292C71.0262 31.1243 70.6124 30.9916 70.1895 30.8955C70.0007 30.853 69.8213 30.8223 69.6538 30.7964C69.4862 30.7704 69.3304 30.7563 69.1818 30.7468L68.9788 30.7327H68.7994H68.5115C68.3534 30.7327 68.2755 30.7515 68.2755 30.7515H68.2826Z" fill="black"/>
<path d="M73.0687 41.1214C73.0401 41.0057 72.9861 40.8977 72.9106 40.8055C72.835 40.7132 72.7399 40.6389 72.6321 40.5881C72.3008 40.4198 71.9345 40.332 71.563 40.332C71.1914 40.332 70.8252 40.4198 70.4939 40.5881C70.3822 40.6393 70.2841 40.7163 70.2078 40.8127C70.1316 40.9091 70.0792 41.0221 70.055 41.1427C69.9134 42.3227 69.7812 43.6065 69.6538 44.9611C69.6813 44.8044 69.7463 44.6567 69.8433 44.5305C69.9403 44.4043 70.0663 44.3035 70.2107 44.2366C70.629 44.0243 71.0915 43.9137 71.5606 43.9137C72.0297 43.9137 72.4922 44.0243 72.9106 44.2366C73.0582 44.3037 73.1867 44.4066 73.2844 44.5361C73.3821 44.6655 73.4458 44.8173 73.4699 44.9777C73.3259 43.4767 73.1867 42.0796 73.0687 41.1214Z" fill="#455A64"/>
<path d="M71.4261 43.9062C71.9441 43.8734 72.4611 43.9845 72.92 44.2272C73.0676 44.2942 73.1961 44.3972 73.2938 44.5266C73.3915 44.656 73.4553 44.8078 73.4793 44.9682C73.3354 43.4767 73.1961 42.0796 73.0781 41.1214C73.0485 41.0047 72.9931 40.8962 72.9159 40.8039C72.8387 40.7116 72.7417 40.6378 72.6321 40.588C72.3018 40.4128 71.9321 40.3251 71.5583 40.3332L71.5252 40.3568L71.4261 43.918V43.9062Z" fill="#37474F"/>
</g>
<path d="M82.4426 45.7258L83.4692 39.2499C83.4854 39.1842 83.4949 39.117 83.4975 39.0493C83.068 40.1562 80.944 39.5898 80.944 39.5898L79.9504 46.0609C81.18 46.252 82.3388 46.2072 82.4426 45.7258Z" fill="#F28F8F"/>
</g>
<defs>
<clipPath id="clip0_199_19319">
<rect x="132" y="1.37256" width="32" height="32" rx="16" transform="rotate(45 132 1.37256)" fill="white"/>
</clipPath>
</defs>
</svg>
