<svg width="1440" height="1024" viewBox="0 0 1440 1024" fill="none" xmlns="http://www.w3.org/2000/svg">
<g opacity="0.15">
<path opacity="0.296664" d="M1423.12 279.953C1429.42 279.953 1434.53 274.845 1434.53 268.544C1434.53 262.242 1429.42 257.134 1423.12 257.134C1416.82 257.134 1411.71 262.242 1411.71 268.544C1411.71 274.845 1416.82 279.953 1423.12 279.953Z" fill="#20F382" fill-opacity="0.5"/>
<path opacity="0.990049" d="M843.838 111.297C848.69 111.297 852.624 107.363 852.624 102.51C852.624 97.6575 848.69 93.7236 843.838 93.7236C838.985 93.7236 835.051 97.6575 835.051 102.51C835.051 107.363 838.985 111.297 843.838 111.297Z" fill="#20F382" fill-opacity="0.5"/>
<path opacity="0.748924" d="M1227.21 102.459C1235.57 102.459 1242.34 95.6824 1242.34 87.3237C1242.34 78.965 1235.57 72.189 1227.21 72.189C1218.85 72.189 1212.07 78.965 1212.07 87.3237C1212.07 95.6824 1218.85 102.459 1227.21 102.459Z" fill="#20F382" fill-opacity="0.5"/>
<path opacity="0.200399" d="M52.7732 337.445C55.873 337.445 58.386 334.932 58.386 331.832C58.386 328.732 55.873 326.219 52.7732 326.219C49.6733 326.219 47.1604 328.732 47.1604 331.832C47.1604 334.932 49.6733 337.445 52.7732 337.445Z" fill="#20F382" fill-opacity="0.5"/>
<path opacity="0.680391" d="M460.409 415.112C467.041 415.112 472.418 409.735 472.418 403.102C472.418 396.47 467.041 391.093 460.409 391.093C453.776 391.093 448.4 396.47 448.4 403.102C448.4 409.735 453.776 415.112 460.409 415.112Z" fill="#20F382" fill-opacity="0.5"/>
<path opacity="0.842318" d="M1360.89 85.5328C1371.11 85.5328 1379.38 77.2533 1379.38 67.04C1379.38 56.8266 1371.11 48.5471 1360.89 48.5471C1350.68 48.5471 1342.4 56.8266 1342.4 67.04C1342.4 77.2533 1350.68 85.5328 1360.89 85.5328Z" fill="#20F382" fill-opacity="0.5"/>
<path opacity="0.459917" d="M112.616 329.613C115.526 329.613 117.885 327.254 117.885 324.344C117.885 321.434 115.526 319.075 112.616 319.075C109.707 319.075 107.348 321.434 107.348 324.344C107.348 327.254 109.707 329.613 112.616 329.613Z" fill="#20F382" fill-opacity="0.5"/>
<path opacity="0.529168" d="M1237.16 533.058C1245.51 533.058 1252.28 526.287 1252.28 517.934C1252.28 509.582 1245.51 502.81 1237.16 502.81C1228.8 502.81 1222.03 509.582 1222.03 517.934C1222.03 526.287 1228.8 533.058 1237.16 533.058Z" fill="#20F382" fill-opacity="0.5"/>
<path opacity="0.202086" d="M142.79 826.417C145.95 826.417 148.513 823.855 148.513 820.694C148.513 817.533 145.95 814.97 142.79 814.97C139.629 814.97 137.066 817.533 137.066 820.694C137.066 823.855 139.629 826.417 142.79 826.417Z" fill="#20F382" fill-opacity="0.5"/>
<path opacity="0.650053" d="M261.066 478.019C268.633 478.019 274.767 471.884 274.767 464.317C274.767 456.75 268.633 450.616 261.066 450.616C253.499 450.616 247.365 456.75 247.365 464.317C247.365 471.884 253.499 478.019 261.066 478.019Z" fill="#20F382" fill-opacity="0.5"/>
<path opacity="0.797215" d="M718.638 785.852C723.963 785.852 728.28 781.535 728.28 776.21C728.28 770.885 723.963 766.568 718.638 766.568C713.313 766.568 708.996 770.885 708.996 776.21C708.996 781.535 713.313 785.852 718.638 785.852Z" fill="#20F382" fill-opacity="0.5"/>
<path opacity="0.641914" d="M11.9531 404.283C18.1382 404.283 23.1523 399.269 23.1523 393.084C23.1523 386.899 18.1382 381.885 11.9531 381.885C5.76795 381.885 0.753906 386.899 0.753906 393.084C0.753906 399.269 5.76795 404.283 11.9531 404.283Z" fill="#20F382" fill-opacity="0.5"/>
<path opacity="0.875851" d="M1343.41 776.208C1350 776.208 1355.35 770.86 1355.35 764.263C1355.35 757.667 1350 752.319 1343.41 752.319C1336.81 752.319 1331.46 757.667 1331.46 764.263C1331.46 770.86 1336.81 776.208 1343.41 776.208Z" fill="#20F382" fill-opacity="0.5"/>
<path opacity="0.806351" d="M826.701 369.489C833.719 369.489 839.409 363.799 839.409 356.781C839.409 349.762 833.719 344.072 826.701 344.072C819.682 344.072 813.992 349.762 813.992 356.781C813.992 363.799 819.682 369.489 826.701 369.489Z" fill="#20F382" fill-opacity="0.5"/>
<path opacity="0.490226" d="M541.562 563.581C546.49 563.581 550.484 559.586 550.484 554.659C550.484 549.731 546.49 545.737 541.562 545.737C536.635 545.737 532.641 549.731 532.641 554.659C532.641 559.586 536.635 563.581 541.562 563.581Z" fill="#20F382" fill-opacity="0.5"/>
<path opacity="0.721854" d="M716.025 884.512C720.734 884.512 724.552 880.694 724.552 875.985C724.552 871.276 720.734 867.459 716.025 867.459C711.316 867.459 707.499 871.276 707.499 875.985C707.499 880.694 711.316 884.512 716.025 884.512Z" fill="#20F382" fill-opacity="0.5"/>
<path opacity="0.936614" d="M629.968 99.4142C638.101 99.4142 644.694 92.821 644.694 84.6879C644.694 76.5548 638.101 69.9617 629.968 69.9617C621.835 69.9617 615.242 76.5548 615.242 84.6879C615.242 92.821 621.835 99.4142 629.968 99.4142Z" fill="#20F382" fill-opacity="0.5"/>
<path opacity="0.460445" d="M607.415 399.171C611.361 399.171 614.56 395.972 614.56 392.026C614.56 388.08 611.361 384.881 607.415 384.881C603.469 384.881 600.27 388.08 600.27 392.026C600.27 395.972 603.469 399.171 607.415 399.171Z" fill="#20F382" fill-opacity="0.5"/>
<path opacity="0.29045" d="M667.691 801.581C672.245 801.581 675.937 797.889 675.937 793.335C675.937 788.78 672.245 785.088 667.691 785.088C663.136 785.088 659.444 788.78 659.444 793.335C659.444 797.889 663.136 801.581 667.691 801.581Z" fill="#20F382" fill-opacity="0.5"/>
<path opacity="0.776988" d="M793.866 87.466C797.363 87.466 800.198 84.6313 800.198 81.1344C800.198 77.6376 797.363 74.8029 793.866 74.8029C790.37 74.8029 787.535 77.6376 787.535 81.1344C787.535 84.6313 790.37 87.466 793.866 87.466Z" fill="#20F382" fill-opacity="0.5"/>
<path opacity="0.171919" d="M159.412 429.79C164.284 429.79 168.233 425.841 168.233 420.969C168.233 416.097 164.284 412.147 159.412 412.147C154.54 412.147 150.591 416.097 150.591 420.969C150.591 425.841 154.54 429.79 159.412 429.79Z" fill="#20F382" fill-opacity="0.5"/>
<path opacity="0.375127" d="M1079.44 1010.73C1087.84 1010.73 1094.65 1003.92 1094.65 995.516C1094.65 987.116 1087.84 980.306 1079.44 980.306C1071.04 980.306 1064.23 987.116 1064.23 995.516C1064.23 1003.92 1071.04 1010.73 1079.44 1010.73Z" fill="#20F382" fill-opacity="0.5"/>
<path opacity="0.979301" d="M559.96 611.281C564.849 611.281 568.813 607.317 568.813 602.427C568.813 597.537 564.849 593.573 559.96 593.573C555.07 593.573 551.106 597.537 551.106 602.427C551.106 607.317 555.07 611.281 559.96 611.281Z" fill="#20F382" fill-opacity="0.5"/>
<path opacity="0.962159" d="M198.014 638.092C203.716 638.092 208.338 633.47 208.338 627.768C208.338 622.066 203.716 617.444 198.014 617.444C192.313 617.444 187.691 622.066 187.691 627.768C187.691 633.47 192.313 638.092 198.014 638.092Z" fill="#20F382" fill-opacity="0.5"/>
<path opacity="0.599418" d="M949.191 861.248C955.899 861.248 961.336 855.81 961.336 849.103C961.336 842.395 955.899 836.958 949.191 836.958C942.484 836.958 937.046 842.395 937.046 849.103C937.046 855.81 942.484 861.248 949.191 861.248Z" fill="#20F382" fill-opacity="0.5"/>
<path opacity="0.875256" d="M987.823 813.041C993.04 813.041 997.269 808.812 997.269 803.595C997.269 798.378 993.04 794.148 987.823 794.148C982.606 794.148 978.377 798.378 978.377 803.595C978.377 808.812 982.606 813.041 987.823 813.041Z" fill="#20F382" fill-opacity="0.5"/>
<path opacity="0.658653" d="M1011.3 477.313C1021.42 477.313 1029.63 469.108 1029.63 458.987C1029.63 448.867 1021.42 440.662 1011.3 440.662C1001.18 440.662 992.978 448.867 992.978 458.987C992.978 469.108 1001.18 477.313 1011.3 477.313Z" fill="#20F382" fill-opacity="0.5"/>
<path opacity="0.986292" d="M691.235 629.061C694.38 629.061 696.93 626.511 696.93 623.366C696.93 620.22 694.38 617.67 691.235 617.67C688.089 617.67 685.539 620.22 685.539 623.366C685.539 626.511 688.089 629.061 691.235 629.061Z" fill="#20F382" fill-opacity="0.5"/>
<path opacity="0.673982" d="M1189.88 738.798C1195.41 738.798 1199.9 734.314 1199.9 728.783C1199.9 723.252 1195.41 718.768 1189.88 718.768C1184.35 718.768 1179.87 723.252 1179.87 728.783C1179.87 734.314 1184.35 738.798 1189.88 738.798Z" fill="#20F382" fill-opacity="0.5"/>
<path opacity="0.14265" d="M591.87 743.959C594.994 743.959 597.527 741.427 597.527 738.303C597.527 735.178 594.994 732.646 591.87 732.646C588.746 732.646 586.214 735.178 586.214 738.303C586.214 741.427 588.746 743.959 591.87 743.959Z" fill="#20F382" fill-opacity="0.5"/>
<path opacity="0.629456" d="M163.737 232.887C171.949 232.887 178.606 226.23 178.606 218.018C178.606 209.806 171.949 203.149 163.737 203.149C155.525 203.149 148.868 209.806 148.868 218.018C148.868 226.23 155.525 232.887 163.737 232.887Z" fill="#20F382" fill-opacity="0.5"/>
<path opacity="0.315571" d="M596.079 266.195C602.046 266.195 606.883 261.358 606.883 255.391C606.883 249.424 602.046 244.586 596.079 244.586C590.112 244.586 585.274 249.424 585.274 255.391C585.274 261.358 590.112 266.195 596.079 266.195Z" fill="#20F382" fill-opacity="0.5"/>
<path opacity="0.319801" d="M1035.16 632.262C1040.71 632.262 1045.21 627.762 1045.21 622.211C1045.21 616.66 1040.71 612.16 1035.16 612.16C1029.61 612.16 1025.11 616.66 1025.11 622.211C1025.11 627.762 1029.61 632.262 1035.16 632.262Z" fill="#20F382" fill-opacity="0.5"/>
<path opacity="0.748785" d="M548.286 437.182C555.071 437.182 560.571 431.682 560.571 424.897C560.571 418.112 555.071 412.611 548.286 412.611C541.5 412.611 536 418.112 536 424.897C536 431.682 541.5 437.182 548.286 437.182Z" fill="#20F382" fill-opacity="0.5"/>
<path opacity="0.80531" d="M452.99 965.794C458.138 965.794 462.311 961.621 462.311 956.474C462.311 951.326 458.138 947.153 452.99 947.153C447.843 947.153 443.67 951.326 443.67 956.474C443.67 961.621 447.843 965.794 452.99 965.794Z" fill="#20F382" fill-opacity="0.5"/>
<path opacity="0.564196" d="M207.43 997.691C216.049 997.691 223.037 990.703 223.037 982.084C223.037 973.465 216.049 966.477 207.43 966.477C198.81 966.477 191.823 973.465 191.823 982.084C191.823 990.703 198.81 997.691 207.43 997.691Z" fill="#20F382" fill-opacity="0.5"/>
<path opacity="0.8922" d="M15.1065 947.451C21.4539 947.451 26.5994 942.306 26.5994 935.958C26.5994 929.611 21.4539 924.466 15.1065 924.466C8.75918 924.466 3.61365 929.611 3.61365 935.958C3.61365 942.306 8.75918 947.451 15.1065 947.451Z" fill="#20F382" fill-opacity="0.5"/>
<path opacity="0.323939" d="M397.437 386.126C404.178 386.126 409.643 380.662 409.643 373.921C409.643 367.18 404.178 361.716 397.437 361.716C390.697 361.716 385.232 367.18 385.232 373.921C385.232 380.662 390.697 386.126 397.437 386.126Z" fill="#20F382" fill-opacity="0.5"/>
<path opacity="0.799421" d="M1300.67 112.977C1306.52 112.977 1311.25 108.24 1311.25 102.397C1311.25 96.5542 1306.52 91.8175 1300.67 91.8175C1294.83 91.8175 1290.09 96.5542 1290.09 102.397C1290.09 108.24 1294.83 112.977 1300.67 112.977Z" fill="#20F382" fill-opacity="0.5"/>
<path opacity="0.294563" d="M695.501 391.351C698.706 391.351 701.303 388.753 701.303 385.549C701.303 382.344 698.706 379.747 695.501 379.747C692.297 379.747 689.699 382.344 689.699 385.549C689.699 388.753 692.297 391.351 695.501 391.351Z" fill="#20F382" fill-opacity="0.5"/>
<path opacity="0.422255" d="M680.091 583.513C688.344 583.513 695.034 576.823 695.034 568.57C695.034 560.317 688.344 553.626 680.091 553.626C671.838 553.626 665.147 560.317 665.147 568.57C665.147 576.823 671.838 583.513 680.091 583.513Z" fill="#20F382" fill-opacity="0.5"/>
<path opacity="0.228301" d="M357.705 124.547C364.088 124.547 369.263 119.372 369.263 112.989C369.263 106.606 364.088 101.431 357.705 101.431C351.322 101.431 346.147 106.606 346.147 112.989C346.147 119.372 351.322 124.547 357.705 124.547Z" fill="#20F382" fill-opacity="0.5"/>
<path opacity="0.59824" d="M762.044 890.828C767.544 890.828 772.003 886.37 772.003 880.869C772.003 875.369 767.544 870.91 762.044 870.91C756.543 870.91 752.084 875.369 752.084 880.869C752.084 886.37 756.543 890.828 762.044 890.828Z" fill="#20F382" fill-opacity="0.5"/>
<path opacity="0.583506" d="M865.157 748.128C871.361 748.128 876.391 743.098 876.391 736.893C876.391 730.688 871.361 725.658 865.157 725.658C858.952 725.658 853.922 730.688 853.922 736.893C853.922 743.098 858.952 748.128 865.157 748.128Z" fill="#20F382" fill-opacity="0.5"/>
<path opacity="0.39779" d="M1245.91 311.659C1251.95 311.659 1256.85 306.759 1256.85 300.714C1256.85 294.67 1251.95 289.77 1245.91 289.77C1239.86 289.77 1234.96 294.67 1234.96 300.714C1234.96 306.759 1239.86 311.659 1245.91 311.659Z" fill="#20F382" fill-opacity="0.5"/>
<path opacity="0.198423" d="M398.879 521.428C405.348 521.428 410.593 516.184 410.593 509.714C410.593 503.245 405.348 498 398.879 498C392.41 498 387.165 503.245 387.165 509.714C387.165 516.184 392.41 521.428 398.879 521.428Z" fill="#20F382" fill-opacity="0.5"/>
<path opacity="0.109747" d="M23.4281 59.9969C29.6378 59.9969 34.6717 54.9629 34.6717 48.7533C34.6717 42.5437 29.6378 37.5098 23.4281 37.5098C17.2185 37.5098 12.1846 42.5437 12.1846 48.7533C12.1846 54.9629 17.2185 59.9969 23.4281 59.9969Z" fill="#20F382" fill-opacity="0.5"/>
<path opacity="0.247444" d="M1297.9 509.501C1302.71 509.501 1306.61 505.603 1306.61 500.795C1306.61 495.986 1302.71 492.089 1297.9 492.089C1293.09 492.089 1289.2 495.986 1289.2 500.795C1289.2 505.603 1293.09 509.501 1297.9 509.501Z" fill="#20F382" fill-opacity="0.5"/>
<path opacity="0.927946" d="M265.145 841.776C271.016 841.776 275.775 837.016 275.775 831.145C275.775 825.274 271.016 820.515 265.145 820.515C259.274 820.515 254.515 825.274 254.515 831.145C254.515 837.016 259.274 841.776 265.145 841.776Z" fill="#20F382" fill-opacity="0.5"/>
<path opacity="0.520811" d="M103.919 414.382C109.495 414.382 114.016 409.862 114.016 404.285C114.016 398.709 109.495 394.189 103.919 394.189C98.3429 394.189 93.8225 398.709 93.8225 404.285C93.8225 409.862 98.3429 414.382 103.919 414.382Z" fill="#20F382" fill-opacity="0.5"/>
<path opacity="0.955679" d="M162.492 942.162C167.415 942.162 171.405 938.172 171.405 933.249C171.405 928.327 167.415 924.336 162.492 924.336C157.57 924.336 153.579 928.327 153.579 933.249C153.579 938.172 157.57 942.162 162.492 942.162Z" fill="#20F382" fill-opacity="0.5"/>
<path opacity="0.970131" d="M570.554 50.9815C576.251 50.9815 580.87 46.363 580.87 40.6657C580.87 34.9684 576.251 30.3499 570.554 30.3499C564.857 30.3499 560.238 34.9684 560.238 40.6657C560.238 46.363 564.857 50.9815 570.554 50.9815Z" fill="#20F382" fill-opacity="0.5"/>
<path opacity="0.672324" d="M915.008 200.788C920.82 200.788 925.531 196.077 925.531 190.265C925.531 184.453 920.82 179.742 915.008 179.742C909.196 179.742 904.485 184.453 904.485 190.265C904.485 196.077 909.196 200.788 915.008 200.788Z" fill="#20F382" fill-opacity="0.5"/>
<path opacity="0.31866" d="M437.142 825.717C442.36 825.717 446.591 821.486 446.591 816.268C446.591 811.049 442.36 806.819 437.142 806.819C431.923 806.819 427.693 811.049 427.693 816.268C427.693 821.486 431.923 825.717 437.142 825.717Z" fill="#20F382" fill-opacity="0.5"/>
<path opacity="0.247481" d="M504.949 909.534C510.606 909.534 515.192 904.948 515.192 899.291C515.192 893.633 510.606 889.047 504.949 889.047C499.292 889.047 494.706 893.633 494.706 899.291C494.706 904.948 499.292 909.534 504.949 909.534Z" fill="#20F382" fill-opacity="0.5"/>
<path opacity="0.786378" d="M579.19 701.003C583.332 701.003 586.69 697.645 586.69 693.503C586.69 689.362 583.332 686.004 579.19 686.004C575.048 686.004 571.691 689.362 571.691 693.503C571.691 697.645 575.048 701.003 579.19 701.003Z" fill="#20F382" fill-opacity="0.5"/>
<path opacity="0.8639" d="M887.909 471.178C892.048 471.178 895.403 467.823 895.403 463.684C895.403 459.545 892.048 456.19 887.909 456.19C883.77 456.19 880.414 459.545 880.414 463.684C880.414 467.823 883.77 471.178 887.909 471.178Z" fill="#20F382" fill-opacity="0.5"/>
<path opacity="0.451285" d="M729.158 667.132C735.747 667.132 741.088 661.79 741.088 655.201C741.088 648.612 735.747 643.271 729.158 643.271C722.569 643.271 717.227 648.612 717.227 655.201C717.227 661.79 722.569 667.132 729.158 667.132Z" fill="#20F382" fill-opacity="0.5"/>
<path opacity="0.173477" d="M499.383 621.836C505.12 621.836 509.771 617.185 509.771 611.448C509.771 605.711 505.12 601.06 499.383 601.06C493.646 601.06 488.995 605.711 488.995 611.448C488.995 617.185 493.646 621.836 499.383 621.836Z" fill="#20F382" fill-opacity="0.5"/>
<path opacity="0.341786" d="M849.577 26.5543C854.135 26.5543 857.829 22.8599 857.829 18.3025C857.829 13.7452 854.135 10.0508 849.577 10.0508C845.02 10.0508 841.326 13.7452 841.326 18.3025C841.326 22.8599 845.02 26.5543 849.577 26.5543Z" fill="#20F382" fill-opacity="0.5"/>
<path opacity="0.901419" d="M429.199 472.913C437.405 472.913 444.057 466.26 444.057 458.054C444.057 449.848 437.405 443.196 429.199 443.196C420.993 443.196 414.34 449.848 414.34 458.054C414.34 466.26 420.993 472.913 429.199 472.913Z" fill="#20F382" fill-opacity="0.5"/>
<path opacity="0.556722" d="M769.828 528.641C776.246 528.641 781.448 523.439 781.448 517.021C781.448 510.604 776.246 505.401 769.828 505.401C763.411 505.401 758.208 510.604 758.208 517.021C758.208 523.439 763.411 528.641 769.828 528.641Z" fill="#20F382" fill-opacity="0.5"/>
<path opacity="0.461165" d="M1095.21 357.849C1099.5 357.849 1102.97 354.376 1102.97 350.091C1102.97 345.807 1099.5 342.333 1095.21 342.333C1090.93 342.333 1087.45 345.807 1087.45 350.091C1087.45 354.376 1090.93 357.849 1095.21 357.849Z" fill="#20F382" fill-opacity="0.5"/>
<path opacity="0.730059" d="M28.6889 188.126C34.8134 188.126 39.7782 183.162 39.7782 177.037C39.7782 170.913 34.8134 165.948 28.6889 165.948C22.5645 165.948 17.5996 170.913 17.5996 177.037C17.5996 183.162 22.5645 188.126 28.6889 188.126Z" fill="#20F382" fill-opacity="0.5"/>
<path opacity="0.279507" d="M581.935 796.66C585.647 796.66 588.657 793.651 588.657 789.938C588.657 786.226 585.647 783.216 581.935 783.216C578.222 783.216 575.213 786.226 575.213 789.938C575.213 793.651 578.222 796.66 581.935 796.66Z" fill="#20F382" fill-opacity="0.5"/>
<path opacity="0.586218" d="M154.542 1027.27C159.077 1027.27 162.754 1023.59 162.754 1019.06C162.754 1014.52 159.077 1010.84 154.542 1010.84C150.007 1010.84 146.331 1014.52 146.331 1019.06C146.331 1023.59 150.007 1027.27 154.542 1027.27Z" fill="#20F382" fill-opacity="0.5"/>
<path opacity="0.884262" d="M766.225 1010.42C771.519 1010.42 775.811 1006.12 775.811 1000.83C775.811 995.536 771.519 991.245 766.225 991.245C760.931 991.245 756.639 995.536 756.639 1000.83C756.639 1006.12 760.931 1010.42 766.225 1010.42Z" fill="#20F382" fill-opacity="0.5"/>
<path opacity="0.941794" d="M1014.72 366.074C1020.89 366.074 1025.9 361.07 1025.9 354.896C1025.9 348.723 1020.89 343.718 1014.72 343.718C1008.54 343.718 1003.54 348.723 1003.54 354.896C1003.54 361.07 1008.54 366.074 1014.72 366.074Z" fill="#20F382" fill-opacity="0.5"/>
<path opacity="0.204861" d="M1227.4 812.38C1236.53 812.38 1243.94 804.974 1243.94 795.838C1243.94 786.703 1236.53 779.297 1227.4 779.297C1218.26 779.297 1210.86 786.703 1210.86 795.838C1210.86 804.974 1218.26 812.38 1227.4 812.38Z" fill="#20F382" fill-opacity="0.5"/>
<path opacity="0.367312" d="M525.302 683.377C532.097 683.377 537.606 677.869 537.606 671.073C537.606 664.278 532.097 658.77 525.302 658.77C518.506 658.77 512.998 664.278 512.998 671.073C512.998 677.869 518.506 683.377 525.302 683.377Z" fill="#20F382" fill-opacity="0.5"/>
<path opacity="0.297219" d="M126.146 789.89C130.696 789.89 134.385 786.201 134.385 781.651C134.385 777.101 130.696 773.412 126.146 773.412C121.596 773.412 117.907 777.101 117.907 781.651C117.907 786.201 121.596 789.89 126.146 789.89Z" fill="#20F382" fill-opacity="0.5"/>
<path opacity="0.9899" d="M752.289 134.079C757.903 134.079 762.454 129.528 762.454 123.914C762.454 118.3 757.903 113.749 752.289 113.749C746.674 113.749 742.123 118.3 742.123 123.914C742.123 129.528 746.674 134.079 752.289 134.079Z" fill="#20F382" fill-opacity="0.5"/>
<path opacity="0.860782" d="M809.832 926.473C816.002 926.473 821.005 921.47 821.005 915.3C821.005 909.129 816.002 904.127 809.832 904.127C803.661 904.127 798.659 909.129 798.659 915.3C798.659 921.47 803.661 926.473 809.832 926.473Z" fill="#20F382" fill-opacity="0.5"/>
<path opacity="0.26008" d="M1338.22 645.559C1344.65 645.559 1349.86 640.349 1349.86 633.921C1349.86 627.494 1344.65 622.284 1338.22 622.284C1331.79 622.284 1326.58 627.494 1326.58 633.921C1326.58 640.349 1331.79 645.559 1338.22 645.559Z" fill="#20F382" fill-opacity="0.5"/>
<path opacity="0.737739" d="M196.149 851.097C203.273 851.097 209.049 845.321 209.049 838.197C209.049 831.072 203.273 825.297 196.149 825.297C189.024 825.297 183.249 831.072 183.249 838.197C183.249 845.321 189.024 851.097 196.149 851.097Z" fill="#20F382" fill-opacity="0.5"/>
<path opacity="0.903077" d="M742.998 372.412C752.172 372.412 759.609 364.975 759.609 355.801C759.609 346.627 752.172 339.189 742.998 339.189C733.823 339.189 726.386 346.627 726.386 355.801C726.386 364.975 733.823 372.412 742.998 372.412Z" fill="#20F382" fill-opacity="0.5"/>
<path opacity="0.288956" d="M1017.57 52.1782C1024.28 52.1782 1029.72 46.7396 1029.72 40.0308C1029.72 33.322 1024.28 27.8834 1017.57 27.8834C1010.86 27.8834 1005.42 33.322 1005.42 40.0308C1005.42 46.7396 1010.86 52.1782 1017.57 52.1782Z" fill="#20F382" fill-opacity="0.5"/>
<path opacity="0.534258" d="M85.9132 19.8035C90.2573 19.8035 93.779 16.2819 93.779 11.9377C93.779 7.59354 90.2573 4.0719 85.9132 4.0719C81.569 4.0719 78.0474 7.59354 78.0474 11.9377C78.0474 16.2819 81.569 19.8035 85.9132 19.8035Z" fill="#20F382" fill-opacity="0.5"/>
<path opacity="0.660899" d="M279.578 959.392C284.559 959.392 288.597 955.353 288.597 950.372C288.597 945.391 284.559 941.353 279.578 941.353C274.597 941.353 270.559 945.391 270.559 950.372C270.559 955.353 274.597 959.392 279.578 959.392Z" fill="#20F382" fill-opacity="0.5"/>
<path opacity="0.416821" d="M1158.4 10.9534C1164.06 10.9534 1168.65 6.36495 1168.65 0.704833C1168.65 -4.95528 1164.06 -9.5437 1158.4 -9.5437C1152.74 -9.5437 1148.15 -4.95528 1148.15 0.704833C1148.15 6.36495 1152.74 10.9534 1158.4 10.9534Z" fill="#20F382" fill-opacity="0.5"/>
<path opacity="0.994137" d="M313.462 162.186C320 162.186 325.3 156.886 325.3 150.349C325.3 143.811 320 138.511 313.462 138.511C306.925 138.511 301.625 143.811 301.625 150.349C301.625 156.886 306.925 162.186 313.462 162.186Z" fill="#20F382" fill-opacity="0.5"/>
<path opacity="0.23717" d="M930.057 976.035C936.549 976.035 941.812 970.772 941.812 964.28C941.812 957.787 936.549 952.524 930.057 952.524C923.565 952.524 918.302 957.787 918.302 964.28C918.302 970.772 923.565 976.035 930.057 976.035Z" fill="#20F382" fill-opacity="0.5"/>
<path opacity="0.266814" d="M1423.39 199.301C1429.18 199.301 1433.88 194.603 1433.88 188.808C1433.88 183.012 1429.18 178.314 1423.39 178.314C1417.59 178.314 1412.89 183.012 1412.89 188.808C1412.89 194.603 1417.59 199.301 1423.39 199.301Z" fill="#20F382" fill-opacity="0.5"/>
<path opacity="0.408167" d="M691.107 734.113C694.418 734.113 697.102 731.429 697.102 728.119C697.102 724.808 694.418 722.124 691.107 722.124C687.796 722.124 685.112 724.808 685.112 728.119C685.112 731.429 687.796 734.113 691.107 734.113Z" fill="#20F382" fill-opacity="0.5"/>
<path opacity="0.182603" d="M156.135 873.06C160.944 873.06 164.843 869.161 164.843 864.351C164.843 859.541 160.944 855.642 156.135 855.642C151.325 855.642 147.426 859.541 147.426 864.351C147.426 869.161 151.325 873.06 156.135 873.06Z" fill="#20F382" fill-opacity="0.5"/>
<path opacity="0.54824" d="M895.752 317.814C899.466 317.814 902.476 314.803 902.476 311.09C902.476 307.376 899.466 304.366 895.752 304.366C892.039 304.366 889.029 307.376 889.029 311.09C889.029 314.803 892.039 317.814 895.752 317.814Z" fill="#20F382" fill-opacity="0.5"/>
<path opacity="0.670087" d="M652.908 925.91C656.344 925.91 659.13 923.125 659.13 919.689C659.13 916.253 656.344 913.468 652.908 913.468C649.472 913.468 646.687 916.253 646.687 919.689C646.687 923.125 649.472 925.91 652.908 925.91Z" fill="#20F382" fill-opacity="0.5"/>
<path opacity="0.202109" d="M614.055 579.549C619.841 579.549 624.532 574.859 624.532 569.073C624.532 563.287 619.841 558.596 614.055 558.596C608.269 558.596 603.579 563.287 603.579 569.073C603.579 574.859 608.269 579.549 614.055 579.549Z" fill="#20F382" fill-opacity="0.5"/>
<path opacity="0.158427" d="M440.655 908.858C444.435 908.858 447.499 905.794 447.499 902.014C447.499 898.234 444.435 895.169 440.655 895.169C436.875 895.169 433.81 898.234 433.81 902.014C433.81 905.794 436.875 908.858 440.655 908.858Z" fill="#20F382" fill-opacity="0.5"/>
<path opacity="0.139588" d="M1229.35 982.039C1235.61 982.039 1240.68 976.969 1240.68 970.715C1240.68 964.461 1235.61 959.391 1229.35 959.391C1223.1 959.391 1218.03 964.461 1218.03 970.715C1218.03 976.969 1223.1 982.039 1229.35 982.039Z" fill="#20F382" fill-opacity="0.5"/>
<path opacity="0.762308" d="M1283.67 857.844C1291.68 857.844 1298.17 851.349 1298.17 843.338C1298.17 835.326 1291.68 828.831 1283.67 828.831C1275.65 828.831 1269.16 835.326 1269.16 843.338C1269.16 851.349 1275.65 857.844 1283.67 857.844Z" fill="#20F382" fill-opacity="0.5"/>
<path opacity="0.895545" d="M1053.92 210.752C1060.64 210.752 1066.09 205.305 1066.09 198.586C1066.09 191.867 1060.64 186.42 1053.92 186.42C1047.21 186.42 1041.76 191.867 1041.76 198.586C1041.76 205.305 1047.21 210.752 1053.92 210.752Z" fill="#20F382" fill-opacity="0.5"/>
<path opacity="0.172" d="M1094.51 810.176C1098.7 810.176 1102.1 806.779 1102.1 802.589C1102.1 798.398 1098.7 795.001 1094.51 795.001C1090.32 795.001 1086.93 798.398 1086.93 802.589C1086.93 806.779 1090.32 810.176 1094.51 810.176Z" fill="#20F382" fill-opacity="0.5"/>
<path opacity="0.717506" d="M1003.79 173.585C1010.94 173.585 1016.73 167.795 1016.73 160.653C1016.73 153.51 1010.94 147.72 1003.79 147.72C996.651 147.72 990.861 153.51 990.861 160.653C990.861 167.795 996.651 173.585 1003.79 173.585Z" fill="#20F382" fill-opacity="0.5"/>
<path opacity="0.631281" d="M805.476 199.209C811.07 199.209 815.606 194.674 815.606 189.079C815.606 183.485 811.07 178.95 805.476 178.95C799.882 178.95 795.346 183.485 795.346 189.079C795.346 194.674 799.882 199.209 805.476 199.209Z" fill="#20F382" fill-opacity="0.5"/>
<path opacity="0.329494" d="M893.551 653.151C901.259 653.151 907.508 646.902 907.508 639.194C907.508 631.485 901.259 625.236 893.551 625.236C885.843 625.236 879.594 631.485 879.594 639.194C879.594 646.902 885.843 653.151 893.551 653.151Z" fill="#20F382" fill-opacity="0.5"/>
<path opacity="0.148733" d="M77.7498 220.775C82.9616 220.775 87.1865 216.55 87.1865 211.338C87.1865 206.126 82.9616 201.901 77.7498 201.901C72.5381 201.901 68.3131 206.126 68.3131 211.338C68.3131 216.55 72.5381 220.775 77.7498 220.775Z" fill="#20F382" fill-opacity="0.5"/>
<path opacity="0.688838" d="M382.211 720.758C387.235 720.758 391.308 716.685 391.308 711.661C391.308 706.637 387.235 702.564 382.211 702.564C377.187 702.564 373.114 706.637 373.114 711.661C373.114 716.685 377.187 720.758 382.211 720.758Z" fill="#20F382" fill-opacity="0.5"/>
<path opacity="0.649643" d="M1117.59 866.39C1121.86 866.39 1125.33 862.928 1125.33 858.657C1125.33 854.386 1121.86 850.924 1117.59 850.924C1113.32 850.924 1109.86 854.386 1109.86 858.657C1109.86 862.928 1113.32 866.39 1117.59 866.39Z" fill="#20F382" fill-opacity="0.5"/>
<path opacity="0.512053" d="M776.659 784.569C779.644 784.569 782.064 782.149 782.064 779.164C782.064 776.179 779.644 773.759 776.659 773.759C773.674 773.759 771.254 776.179 771.254 779.164C771.254 782.149 773.674 784.569 776.659 784.569Z" fill="#20F382" fill-opacity="0.5"/>
<path opacity="0.8246" d="M673.255 1.06091C681.39 1.06091 687.984 -5.53356 687.984 -13.6683C687.984 -21.803 681.39 -28.3975 673.255 -28.3975C665.12 -28.3975 658.526 -21.803 658.526 -13.6683C658.526 -5.53356 665.12 1.06091 673.255 1.06091Z" fill="#20F382" fill-opacity="0.5"/>
<path opacity="0.672304" d="M841.935 510.526C849.059 510.526 854.834 504.751 854.834 497.627C854.834 490.504 849.059 484.729 841.935 484.729C834.812 484.729 829.037 490.504 829.037 497.627C829.037 504.751 834.812 510.526 841.935 510.526Z" fill="#20F382" fill-opacity="0.5"/>
<path opacity="0.83671" d="M440.071 774.053C446.991 774.053 452.6 768.443 452.6 761.523C452.6 754.603 446.991 748.993 440.071 748.993C433.151 748.993 427.541 754.603 427.541 761.523C427.541 768.443 433.151 774.053 440.071 774.053Z" fill="#20F382" fill-opacity="0.5"/>
<path opacity="0.517668" d="M253.685 41.919C258.936 41.919 263.192 37.6626 263.192 32.4121C263.192 27.1616 258.936 22.9053 253.685 22.9053C248.435 22.9053 244.179 27.1616 244.179 32.4121C244.179 37.6626 248.435 41.919 253.685 41.919Z" fill="#20F382" fill-opacity="0.5"/>
<path opacity="0.914771" d="M1154.36 263.223C1158.58 263.223 1162 259.803 1162 255.584C1162 251.365 1158.58 247.944 1154.36 247.944C1150.14 247.944 1146.72 251.365 1146.72 255.584C1146.72 259.803 1150.14 263.223 1154.36 263.223Z" fill="#20F382" fill-opacity="0.5"/>
<path opacity="0.747641" d="M947.945 907.812C951.557 907.812 954.485 904.883 954.485 901.271C954.485 897.659 951.557 894.731 947.945 894.731C944.333 894.731 941.405 897.659 941.405 901.271C941.405 904.883 944.333 907.812 947.945 907.812Z" fill="#20F382" fill-opacity="0.5"/>
<path opacity="0.391121" d="M326.543 288.93C332.811 288.93 337.893 283.849 337.893 277.581C337.893 271.313 332.811 266.232 326.543 266.232C320.275 266.232 315.194 271.313 315.194 277.581C315.194 283.849 320.275 288.93 326.543 288.93Z" fill="#20F382" fill-opacity="0.5"/>
<path opacity="0.295494" d="M388.952 992.536C394.591 992.536 399.163 987.964 399.163 982.324C399.163 976.685 394.591 972.113 388.952 972.113C383.312 972.113 378.74 976.685 378.74 982.324C378.74 987.964 383.312 992.536 388.952 992.536Z" fill="#20F382" fill-opacity="0.5"/>
<path opacity="0.69849" d="M1303.23 225.071C1310.19 225.071 1315.84 219.424 1315.84 212.459C1315.84 205.494 1310.19 199.848 1303.23 199.848C1296.26 199.848 1290.62 205.494 1290.62 212.459C1290.62 219.424 1296.26 225.071 1303.23 225.071Z" fill="#20F382" fill-opacity="0.5"/>
<path opacity="0.100593" d="M392.289 52.616C399.383 52.616 405.135 46.8649 405.135 39.7706C405.135 32.6763 399.383 26.9252 392.289 26.9252C385.195 26.9252 379.444 32.6763 379.444 39.7706C379.444 46.8649 385.195 52.616 392.289 52.616Z" fill="#20F382" fill-opacity="0.5"/>
<path opacity="0.896201" d="M752.964 950.747C758.452 950.747 762.902 946.298 762.902 940.809C762.902 935.321 758.452 930.872 752.964 930.872C747.475 930.872 743.026 935.321 743.026 940.809C743.026 946.298 747.475 950.747 752.964 950.747Z" fill="#20F382" fill-opacity="0.5"/>
<path opacity="0.884091" d="M963.465 324.938C971.456 324.938 977.934 318.46 977.934 310.47C977.934 302.479 971.456 296.001 963.465 296.001C955.475 296.001 948.997 302.479 948.997 310.47C948.997 318.46 955.475 324.938 963.465 324.938Z" fill="#20F382" fill-opacity="0.5"/>
<path opacity="0.760367" d="M224.617 888.976C229.847 888.976 234.086 884.737 234.086 879.508C234.086 874.278 229.847 870.039 224.617 870.039C219.388 870.039 215.149 874.278 215.149 879.508C215.149 884.737 219.388 888.976 224.617 888.976Z" fill="#20F382" fill-opacity="0.5"/>
<path opacity="0.21748" d="M731.774 472.26C739.729 472.26 746.178 465.811 746.178 457.856C746.178 449.901 739.729 443.452 731.774 443.452C723.819 443.452 717.37 449.901 717.37 457.856C717.37 465.811 723.819 472.26 731.774 472.26Z" fill="#20F382" fill-opacity="0.5"/>
<path opacity="0.917965" d="M1014.61 751.73C1022.75 751.73 1029.35 745.132 1029.35 736.993C1029.35 728.853 1022.75 722.255 1014.61 722.255C1006.47 722.255 999.877 728.853 999.877 736.993C999.877 745.132 1006.47 751.73 1014.61 751.73Z" fill="#20F382" fill-opacity="0.5"/>
<path opacity="0.637423" d="M1064.96 75.329C1070.2 75.329 1074.44 71.081 1074.44 65.8407C1074.44 60.6005 1070.2 56.3524 1064.96 56.3524C1059.72 56.3524 1055.47 60.6005 1055.47 65.8407C1055.47 71.081 1059.72 75.329 1064.96 75.329Z" fill="#20F382" fill-opacity="0.5"/>
<path opacity="0.618743" d="M1353.7 704.977C1360.67 704.977 1366.32 699.328 1366.32 692.359C1366.32 685.391 1360.67 679.741 1353.7 679.741C1346.73 679.741 1341.09 685.391 1341.09 692.359C1341.09 699.328 1346.73 704.977 1353.7 704.977Z" fill="#20F382" fill-opacity="0.5"/>
<path opacity="0.488353" d="M964.253 394.84C969.822 394.84 974.336 390.325 974.336 384.756C974.336 379.188 969.822 374.673 964.253 374.673C958.684 374.673 954.17 379.188 954.17 384.756C954.17 390.325 958.684 394.84 964.253 394.84Z" fill="#20F382" fill-opacity="0.5"/>
<path opacity="0.836691" d="M1073.35 567.878C1080.12 567.878 1085.61 562.391 1085.61 555.623C1085.61 548.855 1080.12 543.369 1073.35 543.369C1066.58 543.369 1061.1 548.855 1061.1 555.623C1061.1 562.391 1066.58 567.878 1073.35 567.878Z" fill="#20F382" fill-opacity="0.5"/>
<path opacity="0.822413" d="M68.995 777.315C74.0987 777.315 78.2361 773.178 78.2361 768.074C78.2361 762.97 74.0987 758.833 68.995 758.833C63.8912 758.833 59.7538 762.97 59.7538 768.074C59.7538 773.178 63.8912 777.315 68.995 777.315Z" fill="#20F382" fill-opacity="0.5"/>
<path opacity="0.795488" d="M1226.29 255.78C1232.17 255.78 1236.94 251.011 1236.94 245.129C1236.94 239.247 1232.17 234.478 1226.29 234.478C1220.41 234.478 1215.64 239.247 1215.64 245.129C1215.64 251.011 1220.41 255.78 1226.29 255.78Z" fill="#20F382" fill-opacity="0.5"/>
<path opacity="0.785173" d="M1413.46 768.576C1419.06 768.576 1423.6 764.037 1423.6 758.437C1423.6 752.838 1419.06 748.298 1413.46 748.298C1407.86 748.298 1403.32 752.838 1403.32 758.437C1403.32 764.037 1407.86 768.576 1413.46 768.576Z" fill="#20F382" fill-opacity="0.5"/>
<path opacity="0.171813" d="M1370.59 244.264C1376 244.264 1380.39 239.876 1380.39 234.465C1380.39 229.053 1376 224.666 1370.59 224.666C1365.18 224.666 1360.79 229.053 1360.79 234.465C1360.79 239.876 1365.18 244.264 1370.59 244.264Z" fill="#20F382" fill-opacity="0.5"/>
<path opacity="0.275954" d="M509.688 335.656C515.651 335.656 520.485 330.822 520.485 324.859C520.485 318.896 515.651 314.062 509.688 314.062C503.725 314.062 498.891 318.896 498.891 324.859C498.891 330.822 503.725 335.656 509.688 335.656Z" fill="#20F382" fill-opacity="0.5"/>
<path opacity="0.206393" d="M939.97 744.042C949.593 744.042 957.394 736.242 957.394 726.619C957.394 716.996 949.593 709.196 939.97 709.196C930.347 709.196 922.547 716.996 922.547 726.619C922.547 736.242 930.347 744.042 939.97 744.042Z" fill="#20F382" fill-opacity="0.5"/>
<path opacity="0.148147" d="M157.435 331.246C164.217 331.246 169.714 325.749 169.714 318.967C169.714 312.186 164.217 306.688 157.435 306.688C150.654 306.688 145.157 312.186 145.157 318.967C145.157 325.749 150.654 331.246 157.435 331.246Z" fill="#20F382" fill-opacity="0.5"/>
<path opacity="0.940496" d="M520.717 769.611C526.979 769.611 532.056 764.535 532.056 758.273C532.056 752.011 526.979 746.934 520.717 746.934C514.455 746.934 509.379 752.011 509.379 758.273C509.379 764.535 514.455 769.611 520.717 769.611Z" fill="#20F382" fill-opacity="0.5"/>
<path opacity="0.312105" d="M343.862 444.496C350.618 444.496 356.096 439.019 356.096 432.262C356.096 425.505 350.618 420.028 343.862 420.028C337.105 420.028 331.627 425.505 331.627 432.262C331.627 439.019 337.105 444.496 343.862 444.496Z" fill="#20F382" fill-opacity="0.5"/>
<path opacity="0.345732" d="M1337.13 546.78C1343.11 546.78 1347.97 541.929 1347.97 535.945C1347.97 529.961 1343.11 525.109 1337.13 525.109C1331.15 525.109 1326.3 529.961 1326.3 535.945C1326.3 541.929 1331.15 546.78 1337.13 546.78Z" fill="#20F382" fill-opacity="0.5"/>
<path opacity="0.250156" d="M702.245 188.457C710.432 188.457 717.069 181.82 717.069 173.632C717.069 165.445 710.432 158.808 702.245 158.808C694.057 158.808 687.42 165.445 687.42 173.632C687.42 181.82 694.057 188.457 702.245 188.457Z" fill="#20F382" fill-opacity="0.5"/>
<path opacity="0.273381" d="M980.388 557.741C986.391 557.741 991.258 552.874 991.258 546.871C991.258 540.867 986.391 536 980.388 536C974.384 536 969.517 540.867 969.517 546.871C969.517 552.874 974.384 557.741 980.388 557.741Z" fill="#20F382" fill-opacity="0.5"/>
<path opacity="0.953265" d="M452.59 247.353C457.619 247.353 461.696 243.276 461.696 238.247C461.696 233.218 457.619 229.141 452.59 229.141C447.561 229.141 443.484 233.218 443.484 238.247C443.484 243.276 447.561 247.353 452.59 247.353Z" fill="#20F382" fill-opacity="0.5"/>
<path opacity="0.429156" d="M1302.55 292.288C1309.63 292.288 1315.36 286.552 1315.36 279.477C1315.36 272.402 1309.63 266.667 1302.55 266.667C1295.48 266.667 1289.74 272.402 1289.74 279.477C1289.74 286.552 1295.48 292.288 1302.55 292.288Z" fill="#20F382" fill-opacity="0.5"/>
<path opacity="0.244072" d="M368.769 927.677C376.323 927.677 382.447 921.553 382.447 913.999C382.447 906.445 376.323 900.321 368.769 900.321C361.214 900.321 355.09 906.445 355.09 913.999C355.09 921.553 361.214 927.677 368.769 927.677Z" fill="#20F382" fill-opacity="0.5"/>
<path opacity="0.503082" d="M1337.09 322.918C1342.21 322.918 1346.37 318.761 1346.37 313.633C1346.37 308.505 1342.21 304.349 1337.09 304.349C1331.96 304.349 1327.8 308.505 1327.8 313.633C1327.8 318.761 1331.96 322.918 1337.09 322.918Z" fill="#20F382" fill-opacity="0.5"/>
<path opacity="0.80256" d="M808.952 437.542C815.749 437.542 821.259 432.032 821.259 425.234C821.259 418.437 815.749 412.927 808.952 412.927C802.154 412.927 796.644 418.437 796.644 425.234C796.644 432.032 802.154 437.542 808.952 437.542Z" fill="#20F382" fill-opacity="0.5"/>
<path opacity="0.784036" d="M1243.03 917.628C1248.77 917.628 1253.43 912.971 1253.43 907.226C1253.43 901.482 1248.77 896.825 1243.03 896.825C1237.28 896.825 1232.63 901.482 1232.63 907.226C1232.63 912.971 1237.28 917.628 1243.03 917.628Z" fill="#20F382" fill-opacity="0.5"/>
<path opacity="0.713484" d="M1280.05 367.222C1287.26 367.222 1293.11 361.374 1293.11 354.159C1293.11 346.945 1287.26 341.097 1280.05 341.097C1272.83 341.097 1266.98 346.945 1266.98 354.159C1266.98 361.374 1272.83 367.222 1280.05 367.222Z" fill="#20F382" fill-opacity="0.5"/>
<path opacity="0.304867" d="M1324.46 924.195C1329.81 924.195 1334.14 919.861 1334.14 914.515C1334.14 909.169 1329.81 904.835 1324.46 904.835C1319.12 904.835 1314.78 909.169 1314.78 914.515C1314.78 919.861 1319.12 924.195 1324.46 924.195Z" fill="#20F382" fill-opacity="0.5"/>
<path opacity="0.367528" d="M409.803 229.638C415.685 229.638 420.453 224.87 420.453 218.988C420.453 213.107 415.685 208.339 409.803 208.339C403.921 208.339 399.153 213.107 399.153 218.988C399.153 224.87 403.921 229.638 409.803 229.638Z" fill="#20F382" fill-opacity="0.5"/>
<path opacity="0.612992" d="M1240.62 679.973C1252.17 679.973 1261.53 670.611 1261.53 659.064C1261.53 647.516 1252.17 638.154 1240.62 638.154C1229.08 638.154 1219.71 647.516 1219.71 659.064C1219.71 670.611 1229.08 679.973 1240.62 679.973Z" fill="#20F382" fill-opacity="0.5"/>
<path opacity="0.130934" d="M752.438 58.6866C757.212 58.6866 761.082 54.8165 761.082 50.0425C761.082 45.2684 757.212 41.3983 752.438 41.3983C747.664 41.3983 743.794 45.2684 743.794 50.0425C743.794 54.8165 747.664 58.6866 752.438 58.6866Z" fill="#20F382" fill-opacity="0.5"/>
<path opacity="0.228773" d="M284.666 113.282C291.822 113.282 297.624 107.481 297.624 100.325C297.624 93.1685 291.822 87.3674 284.666 87.3674C277.51 87.3674 271.709 93.1685 271.709 100.325C271.709 107.481 277.51 113.282 284.666 113.282Z" fill="#20F382" fill-opacity="0.5"/>
<path opacity="0.688197" d="M1205.15 27.3075C1210.3 27.3075 1214.48 23.1328 1214.48 17.983C1214.48 12.8332 1210.3 8.65845 1205.15 8.65845C1200 8.65845 1195.83 12.8332 1195.83 17.983C1195.83 23.1328 1200 27.3075 1205.15 27.3075Z" fill="#20F382" fill-opacity="0.5"/>
<path opacity="0.439938" d="M803.696 313.655C807.286 313.655 810.196 310.745 810.196 307.155C810.196 303.565 807.286 300.655 803.696 300.655C800.106 300.655 797.196 303.565 797.196 307.155C797.196 310.745 800.106 313.655 803.696 313.655Z" fill="#20F382" fill-opacity="0.5"/>
<path opacity="0.848862" d="M1287.54 461.551C1290.63 461.551 1293.13 459.047 1293.13 455.957C1293.13 452.867 1290.63 450.363 1287.54 450.363C1284.45 450.363 1281.94 452.867 1281.94 455.957C1281.94 459.047 1284.45 461.551 1287.54 461.551Z" fill="#20F382" fill-opacity="0.5"/>
<path opacity="0.238176" d="M684.411 261.763C688.74 261.763 692.249 258.254 692.249 253.924C692.249 249.595 688.74 246.086 684.411 246.086C680.081 246.086 676.572 249.595 676.572 253.924C676.572 258.254 680.081 261.763 684.411 261.763Z" fill="#20F382" fill-opacity="0.5"/>
<path opacity="0.187567" d="M695.81 968.223C701.976 968.223 706.974 963.225 706.974 957.059C706.974 950.893 701.976 945.895 695.81 945.895C689.644 945.895 684.646 950.893 684.646 957.059C684.646 963.225 689.644 968.223 695.81 968.223Z" fill="#20F382" fill-opacity="0.5"/>
<path opacity="0.531817" d="M519.42 990.53C522.852 990.53 525.634 987.748 525.634 984.316C525.634 980.885 522.852 978.103 519.42 978.103C515.988 978.103 513.206 980.885 513.206 984.316C513.206 987.748 515.988 990.53 519.42 990.53Z" fill="#20F382" fill-opacity="0.5"/>
<path opacity="0.819239" d="M909.624 812.208C915.184 812.208 919.691 807.701 919.691 802.141C919.691 796.582 915.184 792.075 909.624 792.075C904.065 792.075 899.557 796.582 899.557 802.141C899.557 807.701 904.065 812.208 909.624 812.208Z" fill="#20F382" fill-opacity="0.5"/>
<path opacity="0.16088" d="M579.83 196.74C584.215 196.74 587.769 193.186 587.769 188.801C587.769 184.417 584.215 180.862 579.83 180.862C575.446 180.862 571.891 184.417 571.891 188.801C571.891 193.186 575.446 196.74 579.83 196.74Z" fill="#20F382" fill-opacity="0.5"/>
<path opacity="0.164007" d="M633.763 206.632C641.298 206.632 647.406 200.524 647.406 192.989C647.406 185.454 641.298 179.346 633.763 179.346C626.228 179.346 620.12 185.454 620.12 192.989C620.12 200.524 626.228 206.632 633.763 206.632Z" fill="#20F382" fill-opacity="0.5"/>
<path opacity="0.973769" d="M250.338 174.708C258.722 174.708 265.518 167.912 265.518 159.528C265.518 151.144 258.722 144.348 250.338 144.348C241.954 144.348 235.158 151.144 235.158 159.528C235.158 167.912 241.954 174.708 250.338 174.708Z" fill="#20F382" fill-opacity="0.5"/>
<path opacity="0.303136" d="M464.497 174.55C472.171 174.55 478.391 168.33 478.391 160.656C478.391 152.983 472.171 146.763 464.497 146.763C456.824 146.763 450.604 152.983 450.604 160.656C450.604 168.33 456.824 174.55 464.497 174.55Z" fill="#20F382" fill-opacity="0.5"/>
<path opacity="0.724966" d="M125.279 147.525C133.849 147.525 140.797 140.577 140.797 132.007C140.797 123.436 133.849 116.489 125.279 116.489C116.708 116.489 109.76 123.436 109.76 132.007C109.76 140.577 116.708 147.525 125.279 147.525Z" fill="#20F382" fill-opacity="0.5"/>
<path opacity="0.228744" d="M260.965 554.137C268.022 554.137 273.743 548.417 273.743 541.36C273.743 534.303 268.022 528.582 260.965 528.582C253.908 528.582 248.188 534.303 248.188 541.36C248.188 548.417 253.908 554.137 260.965 554.137Z" fill="#20F382" fill-opacity="0.5"/>
<path opacity="0.433263" d="M1395.08 1024.96C1400.05 1024.96 1404.07 1020.93 1404.07 1015.97C1404.07 1011 1400.05 1006.98 1395.08 1006.98C1390.11 1006.98 1386.09 1011 1386.09 1015.97C1386.09 1020.93 1390.11 1024.96 1395.08 1024.96Z" fill="#20F382" fill-opacity="0.5"/>
<path opacity="0.794818" d="M635.834 526.149C639.619 526.149 642.687 523.081 642.687 519.296C642.687 515.511 639.619 512.443 635.834 512.443C632.049 512.443 628.981 515.511 628.981 519.296C628.981 523.081 632.049 526.149 635.834 526.149Z" fill="#20F382" fill-opacity="0.5"/>
<path opacity="0.135889" d="M619.662 830.865C622.868 830.865 625.467 828.266 625.467 825.061C625.467 821.855 622.868 819.256 619.662 819.256C616.456 819.256 613.857 821.855 613.857 825.061C613.857 828.266 616.456 830.865 619.662 830.865Z" fill="#20F382" fill-opacity="0.5"/>
<path opacity="0.856086" d="M1399.19 510.02C1403.69 510.02 1407.34 506.371 1407.34 501.87C1407.34 497.369 1403.69 493.72 1399.19 493.72C1394.69 493.72 1391.04 497.369 1391.04 501.87C1391.04 506.371 1394.69 510.02 1399.19 510.02Z" fill="#20F382" fill-opacity="0.5"/>
<path opacity="0.45948" d="M1425.74 437.755C1431.65 437.755 1436.43 432.97 1436.43 427.067C1436.43 421.163 1431.65 416.378 1425.74 416.378C1419.84 416.378 1415.05 421.163 1415.05 427.067C1415.05 432.97 1419.84 437.755 1425.74 437.755Z" fill="#20F382" fill-opacity="0.5"/>
<path opacity="0.186683" d="M21.2973 243.788C25.6769 243.788 29.2273 240.238 29.2273 235.858C29.2273 231.479 25.6769 227.929 21.2973 227.929C16.9178 227.929 13.3674 231.479 13.3674 235.858C13.3674 240.238 16.9178 243.788 21.2973 243.788Z" fill="#20F382" fill-opacity="0.5"/>
<path opacity="0.386826" d="M75.7534 852.384C81.7992 852.384 86.7004 847.483 86.7004 841.437C86.7004 835.391 81.7992 830.49 75.7534 830.49C69.7075 830.49 64.8064 835.391 64.8064 841.437C64.8064 847.483 69.7075 852.384 75.7534 852.384Z" fill="#20F382" fill-opacity="0.5"/>
<path opacity="0.762901" d="M823.704 839.878C830.096 839.878 835.278 834.696 835.278 828.304C835.278 821.911 830.096 816.729 823.704 816.729C817.312 816.729 812.13 821.911 812.13 828.304C812.13 834.696 817.312 839.878 823.704 839.878Z" fill="#20F382" fill-opacity="0.5"/>
<path opacity="0.92762" d="M102.118 963.382C109.354 963.382 115.22 957.516 115.22 950.28C115.22 943.045 109.354 937.179 102.118 937.179C94.8824 937.179 89.0166 943.045 89.0166 950.28C89.0166 957.516 94.8824 963.382 102.118 963.382Z" fill="#20F382" fill-opacity="0.5"/>
<path opacity="0.934011" d="M1137.37 426.652C1145.72 426.652 1152.49 419.881 1152.49 411.528C1152.49 403.176 1145.72 396.405 1137.37 396.405C1129.01 396.405 1122.24 403.176 1122.24 411.528C1122.24 419.881 1129.01 426.652 1137.37 426.652Z" fill="#20F382" fill-opacity="0.5"/>
<path opacity="0.55899" d="M1075.83 269.615C1084.05 269.615 1090.71 262.952 1090.71 254.734C1090.71 246.515 1084.05 239.853 1075.83 239.853C1067.61 239.853 1060.95 246.515 1060.95 254.734C1060.95 262.952 1067.61 269.615 1075.83 269.615Z" fill="#20F382" fill-opacity="0.5"/>
<path opacity="0.342895" d="M662.359 878.363C665.89 878.363 668.752 875.501 668.752 871.971C668.752 868.441 665.89 865.579 662.359 865.579C658.829 865.579 655.967 868.441 655.967 871.971C655.967 875.501 658.829 878.363 662.359 878.363Z" fill="#20F382" fill-opacity="0.5"/>
<path opacity="0.208143" d="M758.39 598.2C764.992 598.2 770.344 592.848 770.344 586.246C770.344 579.645 764.992 574.293 758.39 574.293C751.788 574.293 746.437 579.645 746.437 586.246C746.437 592.848 751.788 598.2 758.39 598.2Z" fill="#20F382" fill-opacity="0.5"/>
<path opacity="0.731726" d="M489.472 532.821C497.115 532.821 503.31 526.626 503.31 518.983C503.31 511.341 497.115 505.146 489.472 505.146C481.83 505.146 475.634 511.341 475.634 518.983C475.634 526.626 481.83 532.821 489.472 532.821Z" fill="#20F382" fill-opacity="0.5"/>
<path opacity="0.261485" d="M1161.98 839.354C1166.96 839.354 1171 835.316 1171 830.335C1171 825.353 1166.96 821.315 1161.98 821.315C1157 821.315 1152.96 825.353 1152.96 830.335C1152.96 835.316 1157 839.354 1161.98 839.354Z" fill="#20F382" fill-opacity="0.5"/>
<path opacity="0.761979" d="M1008.19 115.382C1015.38 115.382 1021.22 109.549 1021.22 102.354C1021.22 95.1595 1015.38 89.3269 1008.19 89.3269C1000.99 89.3269 995.16 95.1595 995.16 102.354C995.16 109.549 1000.99 115.382 1008.19 115.382Z" fill="#20F382" fill-opacity="0.5"/>
<path opacity="0.8263" d="M1372.39 456.059C1377.8 456.059 1382.19 451.673 1382.19 446.263C1382.19 440.853 1377.8 436.467 1372.39 436.467C1366.98 436.467 1362.59 440.853 1362.59 446.263C1362.59 451.673 1366.98 456.059 1372.39 456.059Z" fill="#20F382" fill-opacity="0.5"/>
<path opacity="0.153475" d="M496.449 1030.25C500.445 1030.25 503.684 1027.02 503.684 1023.02C503.684 1019.02 500.445 1015.78 496.449 1015.78C492.453 1015.78 489.214 1019.02 489.214 1023.02C489.214 1027.02 492.453 1030.25 496.449 1030.25Z" fill="#20F382" fill-opacity="0.5"/>
<path opacity="0.54586" d="M210.532 115.167C215.879 115.167 220.214 110.832 220.214 105.485C220.214 100.138 215.879 95.8029 210.532 95.8029C205.185 95.8029 200.85 100.138 200.85 105.485C200.85 110.832 205.185 115.167 210.532 115.167Z" fill="#20F382" fill-opacity="0.5"/>
<path opacity="0.306229" d="M96.2841 609.872C102.718 609.872 107.933 604.657 107.933 598.223C107.933 591.79 102.718 586.574 96.2841 586.574C89.8506 586.574 84.6351 591.79 84.6351 598.223C84.6351 604.657 89.8506 609.872 96.2841 609.872Z" fill="#20F382" fill-opacity="0.5"/>
<path opacity="0.979076" d="M605.826 886.743C611.009 886.743 615.211 882.541 615.211 877.358C615.211 872.174 611.009 867.972 605.826 867.972C600.642 867.972 596.44 872.174 596.44 877.358C596.44 882.541 600.642 886.743 605.826 886.743Z" fill="#20F382" fill-opacity="0.5"/>
<path opacity="0.26939" d="M252.55 710.277C260.355 710.277 266.682 703.949 266.682 696.144C266.682 688.339 260.355 682.011 252.55 682.011C244.745 682.011 238.417 688.339 238.417 696.144C238.417 703.949 244.745 710.277 252.55 710.277Z" fill="#20F382" fill-opacity="0.5"/>
<path opacity="0.671942" d="M1144.25 781.318C1148.43 781.318 1151.81 777.932 1151.81 773.754C1151.81 769.577 1148.43 766.19 1144.25 766.19C1140.07 766.19 1136.68 769.577 1136.68 773.754C1136.68 777.932 1140.07 781.318 1144.25 781.318Z" fill="#20F382" fill-opacity="0.5"/>
<path opacity="0.907882" d="M752.937 832.224C757.492 832.224 761.185 828.531 761.185 823.976C761.185 819.42 757.492 815.727 752.937 815.727C748.381 815.727 744.688 819.42 744.688 823.976C744.688 828.531 748.381 832.224 752.937 832.224Z" fill="#20F382" fill-opacity="0.5"/>
<path opacity="0.57216" d="M1357.57 396.294C1366.17 396.294 1373.15 389.32 1373.15 380.718C1373.15 372.116 1366.17 365.143 1357.57 365.143C1348.97 365.143 1342 372.116 1342 380.718C1342 389.32 1348.97 396.294 1357.57 396.294Z" fill="#20F382" fill-opacity="0.5"/>
<path opacity="0.304073" d="M438.732 77.3942C445.061 77.3942 450.192 72.2631 450.192 65.9334C450.192 59.6038 445.061 54.4727 438.732 54.4727C432.402 54.4727 427.271 59.6038 427.271 65.9334C427.271 72.2631 432.402 77.3942 438.732 77.3942Z" fill="#20F382" fill-opacity="0.5"/>
<path opacity="0.858983" d="M1004.15 948.142C1008.02 948.142 1011.17 945.001 1011.17 941.127C1011.17 937.253 1008.02 934.113 1004.15 934.113C1000.28 934.113 997.136 937.253 997.136 941.127C997.136 945.001 1000.28 948.142 1004.15 948.142Z" fill="#20F382" fill-opacity="0.5"/>
<path opacity="0.687417" d="M50.4259 904.788C54.5768 904.788 57.9418 901.423 57.9418 897.272C57.9418 893.121 54.5768 889.756 50.4259 889.756C46.2749 889.756 42.9099 893.121 42.9099 897.272C42.9099 901.423 46.2749 904.788 50.4259 904.788Z" fill="#20F382" fill-opacity="0.5"/>
<path opacity="0.285019" d="M953.2 42.1677C959.108 42.1677 963.896 37.3788 963.896 31.4715C963.896 25.5642 959.108 20.7754 953.2 20.7754C947.293 20.7754 942.504 25.5642 942.504 31.4715C942.504 37.3788 947.293 42.1677 953.2 42.1677Z" fill="#20F382" fill-opacity="0.5"/>
<path opacity="0.116968" d="M522.407 859.465C528.078 859.465 532.676 854.868 532.676 849.196C532.676 843.525 528.078 838.928 522.407 838.928C516.736 838.928 512.138 843.525 512.138 849.196C512.138 854.868 516.736 859.465 522.407 859.465Z" fill="#20F382" fill-opacity="0.5"/>
<path opacity="0.930092" d="M126.181 72.5722C133.117 72.5722 138.739 66.9496 138.739 60.0137C138.739 53.0778 133.117 47.4552 126.181 47.4552C119.245 47.4552 113.622 53.0778 113.622 60.0137C113.622 66.9496 119.245 72.5722 126.181 72.5722Z" fill="#20F382" fill-opacity="0.5"/>
<path opacity="0.454776" d="M657.057 1006.4C663.251 1006.4 668.272 1001.38 668.272 995.188C668.272 988.994 663.251 983.973 657.057 983.973C650.863 983.973 645.842 988.994 645.842 995.188C645.842 1001.38 650.863 1006.4 657.057 1006.4Z" fill="#20F382" fill-opacity="0.5"/>
<path opacity="0.244115" d="M1350 843.373C1356.33 843.373 1361.46 838.243 1361.46 831.916C1361.46 825.588 1356.33 820.459 1350 820.459C1343.67 820.459 1338.54 825.588 1338.54 831.916C1338.54 838.243 1343.67 843.373 1350 843.373Z" fill="#20F382" fill-opacity="0.5"/>
<path opacity="0.396348" d="M982.244 218.903C985.916 218.903 988.894 215.925 988.894 212.252C988.894 208.579 985.916 205.602 982.244 205.602C978.571 205.602 975.593 208.579 975.593 212.252C975.593 215.925 978.571 218.903 982.244 218.903Z" fill="#20F382" fill-opacity="0.5"/>
<path opacity="0.801783" d="M204.357 307.905C211.436 307.905 217.175 302.167 217.175 295.087C217.175 288.008 211.436 282.27 204.357 282.27C197.278 282.27 191.54 288.008 191.54 295.087C191.54 302.167 197.278 307.905 204.357 307.905Z" fill="#20F382" fill-opacity="0.5"/>
<path opacity="0.26195" d="M268.692 274.004C273.055 274.004 276.592 270.467 276.592 266.105C276.592 261.742 273.055 258.205 268.692 258.205C264.329 258.205 260.792 261.742 260.792 266.105C260.792 270.467 264.329 274.004 268.692 274.004Z" fill="#20F382" fill-opacity="0.5"/>
<path opacity="0.351823" d="M63.3085 1009.79C68.7752 1009.79 73.2069 1005.35 73.2069 999.887C73.2069 994.42 68.7752 989.989 63.3085 989.989C57.8418 989.989 53.4102 994.42 53.4102 999.887C53.4102 1005.35 57.8418 1009.79 63.3085 1009.79Z" fill="#20F382" fill-opacity="0.5"/>
<path opacity="0.427119" d="M116.52 664.108C121.084 664.108 124.785 660.408 124.785 655.843C124.785 651.279 121.084 647.579 116.52 647.579C111.955 647.579 108.255 651.279 108.255 655.843C108.255 660.408 111.955 664.108 116.52 664.108Z" fill="#20F382" fill-opacity="0.5"/>
<path opacity="0.778902" d="M637.59 361.805C643.394 361.805 648.098 357.101 648.098 351.297C648.098 345.494 643.394 340.789 637.59 340.789C631.787 340.789 627.082 345.494 627.082 351.297C627.082 357.101 631.787 361.805 637.59 361.805Z" fill="#20F382" fill-opacity="0.5"/>
<path opacity="0.499812" d="M1381.9 325.993C1388.3 325.993 1393.48 320.811 1393.48 314.418C1393.48 308.026 1388.3 302.843 1381.9 302.843C1375.51 302.843 1370.33 308.026 1370.33 314.418C1370.33 320.811 1375.51 325.993 1381.9 325.993Z" fill="#20F382" fill-opacity="0.5"/>
<path opacity="0.943266" d="M670.808 317.209C677.043 317.209 682.097 312.155 682.097 305.92C682.097 299.686 677.043 294.632 670.808 294.632C664.574 294.632 659.52 299.686 659.52 305.92C659.52 312.155 664.574 317.209 670.808 317.209Z" fill="#20F382" fill-opacity="0.5"/>
<path opacity="0.946394" d="M494.197 381.216C498.928 381.216 502.763 377.38 502.763 372.649C502.763 367.918 498.928 364.083 494.197 364.083C489.466 364.083 485.631 367.918 485.631 372.649C485.631 377.38 489.466 381.216 494.197 381.216Z" fill="#20F382" fill-opacity="0.5"/>
<path opacity="0.411543" d="M504.447 88.4982C511.297 88.4982 516.85 82.9451 516.85 76.095C516.85 69.2449 511.297 63.6918 504.447 63.6918C497.597 63.6918 492.044 69.2449 492.044 76.095C492.044 82.9451 497.597 88.4982 504.447 88.4982Z" fill="#20F382" fill-opacity="0.5"/>
<path opacity="0.258375" d="M887.139 371.032C891.995 371.032 895.931 367.096 895.931 362.241C895.931 357.386 891.995 353.449 887.139 353.449C882.284 353.449 878.348 357.386 878.348 362.241C878.348 367.096 882.284 371.032 887.139 371.032Z" fill="#20F382" fill-opacity="0.5"/>
<path opacity="0.357097" d="M1202.04 870.287C1205.93 870.287 1209.09 867.129 1209.09 863.233C1209.09 859.338 1205.93 856.18 1202.04 856.18C1198.14 856.18 1194.98 859.338 1194.98 863.233C1194.98 867.129 1198.14 870.287 1202.04 870.287Z" fill="#20F382" fill-opacity="0.5"/>
<path opacity="0.263839" d="M11.9845 308.793C18.6033 308.793 23.969 303.427 23.969 296.808C23.969 290.19 18.6033 284.824 11.9845 284.824C5.36564 284.824 0 290.19 0 296.808C0 303.427 5.36564 308.793 11.9845 308.793Z" fill="#20F382" fill-opacity="0.5"/>
<path opacity="0.72626" d="M545.618 246.73C550.256 246.73 554.017 242.969 554.017 238.331C554.017 233.692 550.256 229.931 545.618 229.931C540.979 229.931 537.218 233.692 537.218 238.331C537.218 242.969 540.979 246.73 545.618 246.73Z" fill="#20F382" fill-opacity="0.5"/>
<path opacity="0.825574" d="M353.403 234.107C360.349 234.107 365.98 228.476 365.98 221.53C365.98 214.584 360.349 208.953 353.403 208.953C346.457 208.953 340.826 214.584 340.826 221.53C340.826 228.476 346.457 234.107 353.403 234.107Z" fill="#20F382" fill-opacity="0.5"/>
<path opacity="0.125714" d="M376.76 665.15C381.942 665.15 386.142 660.95 386.142 655.768C386.142 650.586 381.942 646.386 376.76 646.386C371.578 646.386 367.378 650.586 367.378 655.768C367.378 660.95 371.578 665.15 376.76 665.15Z" fill="#20F382" fill-opacity="0.5"/>
<path opacity="0.523258" d="M1103.77 104.529C1110.96 104.529 1116.79 98.7019 1116.79 91.5133C1116.79 84.3246 1110.96 78.4971 1103.77 78.4971C1096.58 78.4971 1090.76 84.3246 1090.76 91.5133C1090.76 98.7019 1096.58 104.529 1103.77 104.529Z" fill="#20F382" fill-opacity="0.5"/>
<path opacity="0.680404" d="M103.161 727.468C106.482 727.468 109.175 724.775 109.175 721.453C109.175 718.131 106.482 715.438 103.161 715.438C99.8386 715.438 97.1456 718.131 97.1456 721.453C97.1456 724.775 99.8386 727.468 103.161 727.468Z" fill="#20F382" fill-opacity="0.5"/>
<path opacity="0.505039" d="M602.459 647.026C610.393 647.026 616.825 640.594 616.825 632.659C616.825 624.725 610.393 618.293 602.459 618.293C594.524 618.293 588.092 624.725 588.092 632.659C588.092 640.594 594.524 647.026 602.459 647.026Z" fill="#20F382" fill-opacity="0.5"/>
<path opacity="0.353362" d="M661.426 424.136C664.705 424.136 667.364 421.478 667.364 418.199C667.364 414.92 664.705 412.262 661.426 412.262C658.147 412.262 655.489 414.92 655.489 418.199C655.489 421.478 658.147 424.136 661.426 424.136Z" fill="#20F382" fill-opacity="0.5"/>
<path opacity="0.525575" d="M316.674 996.144C321.954 996.144 326.235 991.864 326.235 986.584C326.235 981.304 321.954 977.023 316.674 977.023C311.395 977.023 307.114 981.304 307.114 986.584C307.114 991.864 311.395 996.144 316.674 996.144Z" fill="#20F382" fill-opacity="0.5"/>
<path opacity="0.520792" d="M190.278 767.024C197.194 767.024 202.801 761.417 202.801 754.501C202.801 747.585 197.194 741.978 190.278 741.978C183.362 741.978 177.755 747.585 177.755 754.501C177.755 761.417 183.362 767.024 190.278 767.024Z" fill="#20F382" fill-opacity="0.5"/>
<path opacity="0.184607" d="M827.674 629.04C833.91 629.04 838.965 623.985 838.965 617.75C838.965 611.514 833.91 606.459 827.674 606.459C821.439 606.459 816.384 611.514 816.384 617.75C816.384 623.985 821.439 629.04 827.674 629.04Z" fill="#20F382" fill-opacity="0.5"/>
<path opacity="0.800391" d="M195.34 51.2825C199.997 51.2825 203.772 47.5074 203.772 42.8506C203.772 38.1937 199.997 34.4186 195.34 34.4186C190.683 34.4186 186.908 38.1937 186.908 42.8506C186.908 47.5074 190.683 51.2825 195.34 51.2825Z" fill="#20F382" fill-opacity="0.5"/>
<path opacity="0.612098" d="M1095.33 489.92C1101.49 489.92 1106.48 484.931 1106.48 478.777C1106.48 472.622 1101.49 467.633 1095.33 467.633C1089.18 467.633 1084.19 472.622 1084.19 478.777C1084.19 484.931 1089.18 489.92 1095.33 489.92Z" fill="#20F382" fill-opacity="0.5"/>
<path opacity="0.475693" d="M119.661 900.038C126.339 900.038 131.752 894.625 131.752 887.947C131.752 881.269 126.339 875.855 119.661 875.855C112.983 875.855 107.569 881.269 107.569 887.947C107.569 894.625 112.983 900.038 119.661 900.038Z" fill="#20F382" fill-opacity="0.5"/>
<path opacity="0.581294" d="M1211.23 180.479C1217.88 180.479 1223.27 175.086 1223.27 168.433C1223.27 161.781 1217.88 156.387 1211.23 156.387C1204.57 156.387 1199.18 161.781 1199.18 168.433C1199.18 175.086 1204.57 180.479 1211.23 180.479Z" fill="#20F382" fill-opacity="0.5"/>
<path opacity="0.921274" d="M870.023 1016.12C876.982 1016.12 882.623 1010.48 882.623 1003.52C882.623 996.56 876.982 990.919 870.023 990.919C863.064 990.919 857.423 996.56 857.423 1003.52C857.423 1010.48 863.064 1016.12 870.023 1016.12Z" fill="#20F382" fill-opacity="0.5"/>
<path opacity="0.423241" d="M43.0812 126.087C48.4094 126.087 52.7287 121.768 52.7287 116.44C52.7287 111.112 48.4094 106.792 43.0812 106.792C37.753 106.792 33.4336 111.112 33.4336 116.44C33.4336 121.768 37.753 126.087 43.0812 126.087Z" fill="#20F382" fill-opacity="0.5"/>
<path opacity="0.821886" d="M331.349 567.191C335.861 567.191 339.519 563.534 339.519 559.022C339.519 554.51 335.861 550.852 331.349 550.852C326.837 550.852 323.179 554.51 323.179 559.022C323.179 563.534 326.837 567.191 331.349 567.191Z" fill="#20F382" fill-opacity="0.5"/>
<path opacity="0.21777" d="M1383.41 955.364C1391.33 955.364 1397.75 948.944 1397.75 941.024C1397.75 933.104 1391.33 926.683 1383.41 926.683C1375.49 926.683 1369.07 933.104 1369.07 941.024C1369.07 948.944 1375.49 955.364 1383.41 955.364Z" fill="#20F382" fill-opacity="0.5"/>
<path opacity="0.5099" d="M872.463 564.738C877.265 564.738 881.157 560.846 881.157 556.045C881.157 551.244 877.265 547.351 872.463 547.351C867.662 547.351 863.77 551.244 863.77 556.045C863.77 560.846 867.662 564.738 872.463 564.738Z" fill="#20F382" fill-opacity="0.5"/>
<path opacity="0.568249" d="M347.814 342.827C353.388 342.827 357.906 338.308 357.906 332.734C357.906 327.16 353.388 322.641 347.814 322.641C342.24 322.641 337.721 327.16 337.721 332.734C337.721 338.308 342.24 342.827 347.814 342.827Z" fill="#20F382" fill-opacity="0.5"/>
<path opacity="0.20575" d="M584.092 502.043C588.374 502.043 591.845 498.572 591.845 494.29C591.845 490.008 588.374 486.536 584.092 486.536C579.809 486.536 576.338 490.008 576.338 494.29C576.338 498.572 579.809 502.043 584.092 502.043Z" fill="#20F382" fill-opacity="0.5"/>
<path opacity="0.867858" d="M19.7531 835.676C26.2466 835.676 31.5106 830.412 31.5106 823.918C31.5106 817.425 26.2466 812.161 19.7531 812.161C13.2596 812.161 7.99561 817.425 7.99561 823.918C7.99561 830.412 13.2596 835.676 19.7531 835.676Z" fill="#20F382" fill-opacity="0.5"/>
<path opacity="0.547601" d="M1001.23 883.613C1006.46 883.613 1010.69 879.377 1010.69 874.152C1010.69 868.927 1006.46 864.691 1001.23 864.691C996.007 864.691 991.771 868.927 991.771 874.152C991.771 879.377 996.007 883.613 1001.23 883.613Z" fill="#20F382" fill-opacity="0.5"/>
<path opacity="0.478711" d="M454.939 582.197C460.957 582.197 465.835 577.319 465.835 571.301C465.835 565.284 460.957 560.406 454.939 560.406C448.922 560.406 444.044 565.284 444.044 571.301C444.044 577.319 448.922 582.197 454.939 582.197Z" fill="#20F382" fill-opacity="0.5"/>
<path opacity="0.148204" d="M568.908 382.697C573.814 382.697 577.791 378.72 577.791 373.814C577.791 368.908 573.814 364.931 568.908 364.931C564.002 364.931 560.025 368.908 560.025 373.814C560.025 378.72 564.002 382.697 568.908 382.697Z" fill="#20F382" fill-opacity="0.5"/>
<path opacity="0.913296" d="M563.857 337.722C569.138 337.722 573.419 333.441 573.419 328.159C573.419 322.878 569.138 318.597 563.857 318.597C558.576 318.597 554.294 322.878 554.294 328.159C554.294 333.441 558.576 337.722 563.857 337.722Z" fill="#20F382" fill-opacity="0.5"/>
<path opacity="0.614711" d="M339.791 782.097C345.779 782.097 350.633 777.243 350.633 771.255C350.633 765.267 345.779 760.413 339.791 760.413C333.803 760.413 328.948 765.267 328.948 771.255C328.948 777.243 333.803 782.097 339.791 782.097Z" fill="#20F382" fill-opacity="0.5"/>
<path opacity="0.395622" d="M1172.96 579.619C1179.76 579.619 1185.27 574.105 1185.27 567.304C1185.27 560.503 1179.76 554.99 1172.96 554.99C1166.16 554.99 1160.64 560.503 1160.64 567.304C1160.64 574.105 1166.16 579.619 1172.96 579.619Z" fill="#20F382" fill-opacity="0.5"/>
<path opacity="0.451057" d="M531.406 292.345C536.306 292.345 540.277 288.373 540.277 283.473C540.277 278.574 536.306 274.602 531.406 274.602C526.506 274.602 522.535 278.574 522.535 283.473C522.535 288.373 526.506 292.345 531.406 292.345Z" fill="#20F382" fill-opacity="0.5"/>
<path opacity="0.180626" d="M1063.77 944.187C1070.26 944.187 1075.53 938.922 1075.53 932.426C1075.53 925.931 1070.26 920.665 1063.77 920.665C1057.27 920.665 1052.01 925.931 1052.01 932.426C1052.01 938.922 1057.27 944.187 1063.77 944.187Z" fill="#20F382" fill-opacity="0.5"/>
<path opacity="0.582784" d="M799.047 686.966C804.422 686.966 808.779 682.608 808.779 677.233C808.779 671.858 804.422 667.501 799.047 667.501C793.672 667.501 789.315 671.858 789.315 677.233C789.315 682.608 793.672 686.966 799.047 686.966Z" fill="#20F382" fill-opacity="0.5"/>
<path opacity="0.749462" d="M891.793 136.601C899.272 136.601 905.336 130.538 905.336 123.058C905.336 115.579 899.272 109.516 891.793 109.516C884.313 109.516 878.25 115.579 878.25 123.058C878.25 130.538 884.313 136.601 891.793 136.601Z" fill="#20F382" fill-opacity="0.5"/>
<path opacity="0.263469" d="M450.948 341.795C455.912 341.795 459.935 337.771 459.935 332.807C459.935 327.844 455.912 323.82 450.948 323.82C445.985 323.82 441.961 327.844 441.961 332.807C441.961 337.771 445.985 341.795 450.948 341.795Z" fill="#20F382" fill-opacity="0.5"/>
<path opacity="0.934624" d="M91.7425 484.383C99.5183 484.383 105.822 478.08 105.822 470.304C105.822 462.528 99.5183 456.224 91.7425 456.224C83.9666 456.224 77.6631 462.528 77.6631 470.304C77.6631 478.08 83.9666 484.383 91.7425 484.383Z" fill="#20F382" fill-opacity="0.5"/>
<path opacity="0.849553" d="M923.9 266.975C928.844 266.975 932.853 262.966 932.853 258.022C932.853 253.077 928.844 249.069 923.9 249.069C918.955 249.069 914.947 253.077 914.947 258.022C914.947 262.966 918.955 266.975 923.9 266.975Z" fill="#20F382" fill-opacity="0.5"/>
<path opacity="0.957176" d="M1423.59 361.13C1430.25 361.13 1435.65 355.73 1435.65 349.069C1435.65 342.407 1430.25 337.007 1423.59 337.007C1416.93 337.007 1411.53 342.407 1411.53 349.069C1411.53 355.73 1416.93 361.13 1423.59 361.13Z" fill="#20F382" fill-opacity="0.5"/>
<path opacity="0.335275" d="M1280.11 751.328C1286.8 751.328 1292.22 745.905 1292.22 739.216C1292.22 732.526 1286.8 727.103 1280.11 727.103C1273.42 727.103 1268 732.526 1268 739.216C1268 745.905 1273.42 751.328 1280.11 751.328Z" fill="#20F382" fill-opacity="0.5"/>
<path opacity="0.955223" d="M740.63 234.458C746.627 234.458 751.488 229.597 751.488 223.6C751.488 217.604 746.627 212.743 740.63 212.743C734.634 212.743 729.773 217.604 729.773 223.6C729.773 229.597 734.634 234.458 740.63 234.458Z" fill="#20F382" fill-opacity="0.5"/>
<path opacity="0.449269" d="M882.965 867.552C887.901 867.552 891.902 863.551 891.902 858.615C891.902 853.679 887.901 849.678 882.965 849.678C878.029 849.678 874.028 853.679 874.028 858.615C874.028 863.551 878.029 867.552 882.965 867.552Z" fill="#20F382" fill-opacity="0.5"/>
<path opacity="0.193928" d="M22.5486 651.234C29.9252 651.234 35.905 645.255 35.905 637.878C35.905 630.502 29.9252 624.522 22.5486 624.522C15.1721 624.522 9.19226 630.502 9.19226 637.878C9.19226 645.255 15.1721 651.234 22.5486 651.234Z" fill="#20F382" fill-opacity="0.5"/>
<path opacity="0.499492" d="M731.777 716.104C736.567 716.104 740.449 712.221 740.449 707.431C740.449 702.642 736.567 698.759 731.777 698.759C726.987 698.759 723.104 702.642 723.104 707.431C723.104 712.221 726.987 716.104 731.777 716.104Z" fill="#20F382" fill-opacity="0.5"/>
<path opacity="0.231465" d="M69.7008 288.682C74.6693 288.682 78.697 284.654 78.697 279.686C78.697 274.717 74.6693 270.689 69.7008 270.689C64.7323 270.689 60.7046 274.717 60.7046 279.686C60.7046 284.654 64.7323 288.682 69.7008 288.682Z" fill="#20F382" fill-opacity="0.5"/>
<path opacity="0.844766" d="M246.773 1057.02C256.257 1057.02 263.946 1049.33 263.946 1039.85C263.946 1030.36 256.257 1022.67 246.773 1022.67C237.289 1022.67 229.6 1030.36 229.6 1039.85C229.6 1049.33 237.289 1057.02 246.773 1057.02Z" fill="#20F382" fill-opacity="0.5"/>
<path opacity="0.261948" d="M658.802 762.03C661.722 762.03 664.089 759.663 664.089 756.743C664.089 753.823 661.722 751.456 658.802 751.456C655.882 751.456 653.515 753.823 653.515 756.743C653.515 759.663 655.882 762.03 658.802 762.03Z" fill="#20F382" fill-opacity="0.5"/>
<path opacity="0.368535" d="M1187.4 473.516C1192.41 473.516 1196.47 469.457 1196.47 464.451C1196.47 459.444 1192.41 455.386 1187.4 455.386C1182.4 455.386 1178.34 459.444 1178.34 464.451C1178.34 469.457 1182.4 473.516 1187.4 473.516Z" fill="#20F382" fill-opacity="0.5"/>
<path opacity="0.463201" d="M318.831 52.7502C324.701 52.7502 329.459 47.9919 329.459 42.1223C329.459 36.2527 324.701 31.4944 318.831 31.4944C312.961 31.4944 308.203 36.2527 308.203 42.1223C308.203 47.9919 312.961 52.7502 318.831 52.7502Z" fill="#20F382" fill-opacity="0.5"/>
<path opacity="0.881977" d="M1411.8 596.241C1419.86 596.241 1426.4 589.706 1426.4 581.645C1426.4 573.583 1419.86 567.048 1411.8 567.048C1403.74 567.048 1397.2 573.583 1397.2 581.645C1397.2 589.706 1403.74 596.241 1411.8 596.241Z" fill="#20F382" fill-opacity="0.5"/>
<path opacity="0.771981" d="M798.327 749.448C803.995 749.448 808.589 744.853 808.589 739.186C808.589 733.518 803.995 728.924 798.327 728.924C792.66 728.924 788.065 733.518 788.065 739.186C788.065 744.853 792.66 749.448 798.327 749.448Z" fill="#20F382" fill-opacity="0.5"/>
<path opacity="0.750094" d="M352.394 625.513C357.887 625.513 362.339 621.061 362.339 615.568C362.339 610.076 357.887 605.623 352.394 605.623C346.902 605.623 342.449 610.076 342.449 615.568C342.449 621.061 346.902 625.513 352.394 625.513Z" fill="#20F382" fill-opacity="0.5"/>
<path opacity="0.907809" d="M1421.57 112.428C1426.34 112.428 1430.2 108.564 1430.2 103.798C1430.2 99.0314 1426.34 95.1675 1421.57 95.1675C1416.8 95.1675 1412.94 99.0314 1412.94 103.798C1412.94 108.564 1416.8 112.428 1421.57 112.428Z" fill="#20F382" fill-opacity="0.5"/>
<path opacity="0.679249" d="M605.021 452.897C611.411 452.897 616.591 447.717 616.591 441.328C616.591 434.938 611.411 429.758 605.021 429.758C598.631 429.758 593.451 434.938 593.451 441.328C593.451 447.717 598.631 452.897 605.021 452.897Z" fill="#20F382" fill-opacity="0.5"/>
<path opacity="0.747904" d="M1161.52 211.035C1168.17 211.035 1173.57 205.641 1173.57 198.986C1173.57 192.332 1168.17 186.938 1161.52 186.938C1154.86 186.938 1149.47 192.332 1149.47 198.986C1149.47 205.641 1154.86 211.035 1161.52 211.035Z" fill="#20F382" fill-opacity="0.5"/>
<path opacity="0.968506" d="M1166.55 932.611C1172.21 932.611 1176.79 928.026 1176.79 922.369C1176.79 916.712 1172.21 912.126 1166.55 912.126C1160.89 912.126 1156.31 916.712 1156.31 922.369C1156.31 928.026 1160.89 932.611 1166.55 932.611Z" fill="#20F382" fill-opacity="0.5"/>
<path opacity="0.710538" d="M392.608 588.938C401.051 588.938 407.895 582.093 407.895 573.65C407.895 565.207 401.051 558.362 392.608 558.362C384.165 558.362 377.32 565.207 377.32 573.65C377.32 582.093 384.165 588.938 392.608 588.938Z" fill="#20F382" fill-opacity="0.5"/>
<path opacity="0.778422" d="M262.05 610.351C268.696 610.351 274.083 604.963 274.083 598.318C274.083 591.672 268.696 586.285 262.05 586.285C255.404 586.285 250.017 591.672 250.017 598.318C250.017 604.963 255.404 610.351 262.05 610.351Z" fill="#20F382" fill-opacity="0.5"/>
<path opacity="0.804708" d="M600.686 311.783C605.924 311.783 610.171 307.537 610.171 302.299C610.171 297.06 605.924 292.814 600.686 292.814C595.448 292.814 591.201 297.06 591.201 302.299C591.201 307.537 595.448 311.783 600.686 311.783Z" fill="#20F382" fill-opacity="0.5"/>
<path opacity="0.220962" d="M145.605 724.903C150.71 724.903 154.849 720.764 154.849 715.659C154.849 710.554 150.71 706.415 145.605 706.415C140.5 706.415 136.361 710.554 136.361 715.659C136.361 720.764 140.5 724.903 145.605 724.903Z" fill="#20F382" fill-opacity="0.5"/>
<path opacity="0.611992" d="M667.364 488.464C673.696 488.464 678.829 483.331 678.829 476.999C678.829 470.666 673.696 465.533 667.364 465.533C661.032 465.533 655.898 470.666 655.898 476.999C655.898 483.331 661.032 488.464 667.364 488.464Z" fill="#20F382" fill-opacity="0.5"/>
<path opacity="0.972713" d="M216.933 933.55C221.676 933.55 225.521 929.706 225.521 924.963C225.521 920.22 221.676 916.375 216.933 916.375C212.19 916.375 208.345 920.22 208.345 924.963C208.345 929.706 212.19 933.55 216.933 933.55Z" fill="#20F382" fill-opacity="0.5"/>
<path opacity="0.793699" d="M774.859 275.779C780.265 275.779 784.647 271.396 784.647 265.991C784.647 260.585 780.265 256.203 774.859 256.203C769.454 256.203 765.071 260.585 765.071 265.991C765.071 271.396 769.454 275.779 774.859 275.779Z" fill="#20F382" fill-opacity="0.5"/>
<path opacity="0.482589" d="M856.419 251.617C863.318 251.617 868.912 246.023 868.912 239.123C868.912 232.224 863.318 226.63 856.419 226.63C849.519 226.63 843.925 232.224 843.925 239.123C843.925 246.023 849.519 251.617 856.419 251.617Z" fill="#20F382" fill-opacity="0.5"/>
<path opacity="0.118268" d="M844.459 69.7278C849.063 69.7278 852.796 65.9953 852.796 61.3911C852.796 56.7868 849.063 53.0543 844.459 53.0543C839.855 53.0543 836.122 56.7868 836.122 61.3911C836.122 65.9953 839.855 69.7278 844.459 69.7278Z" fill="#20F382" fill-opacity="0.5"/>
<path opacity="0.100348" d="M224.963 233.984C229.725 233.984 233.585 230.124 233.585 225.362C233.585 220.6 229.725 216.74 224.963 216.74C220.202 216.74 216.342 220.6 216.342 225.362C216.342 230.124 220.202 233.984 224.963 233.984Z" fill="#20F382" fill-opacity="0.5"/>
<path opacity="0.611317" d="M1000.87 1005.54C1004.7 1005.54 1007.8 1002.43 1007.8 998.603C1007.8 994.772 1004.7 991.667 1000.87 991.667C997.038 991.667 993.933 994.772 993.933 998.603C993.933 1002.43 997.038 1005.54 1000.87 1005.54Z" fill="#20F382" fill-opacity="0.5"/>
<path opacity="0.611484" d="M322.532 512.419C328.893 512.419 334.05 507.262 334.05 500.901C334.05 494.54 328.893 489.384 322.532 489.384C316.171 489.384 311.015 494.54 311.015 500.901C311.015 507.262 316.171 512.419 322.532 512.419Z" fill="#20F382" fill-opacity="0.5"/>
<path opacity="0.902587" d="M462.925 705.523C469.962 705.523 475.666 699.819 475.666 692.782C475.666 685.745 469.962 680.041 462.925 680.041C455.888 680.041 450.184 685.745 450.184 692.782C450.184 699.819 455.888 705.523 462.925 705.523Z" fill="#20F382" fill-opacity="0.5"/>
<path opacity="0.82829" d="M51.797 418.969C56.6948 418.969 60.6653 414.999 60.6653 410.101C60.6653 405.203 56.6948 401.232 51.797 401.232C46.8991 401.232 42.9286 405.203 42.9286 410.101C42.9286 414.999 46.8991 418.969 51.797 418.969Z" fill="#20F382" fill-opacity="0.5"/>
<path opacity="0.400814" d="M583.15 934.56C587.519 934.56 591.06 931.019 591.06 926.651C591.06 922.283 587.519 918.741 583.15 918.741C578.782 918.741 575.241 922.283 575.241 926.651C575.241 931.019 578.782 934.56 583.15 934.56Z" fill="#20F382" fill-opacity="0.5"/>
<path opacity="0.674565" d="M263.168 332.217C267.081 332.217 270.252 329.046 270.252 325.133C270.252 321.221 267.081 318.049 263.168 318.049C259.256 318.049 256.084 321.221 256.084 325.133C256.084 329.046 259.256 332.217 263.168 332.217Z" fill="#20F382" fill-opacity="0.5"/>
<path opacity="0.166424" d="M1121.24 312.889C1128.56 312.889 1134.49 306.954 1134.49 299.632C1134.49 292.311 1128.56 286.376 1121.24 286.376C1113.92 286.376 1107.98 292.311 1107.98 299.632C1107.98 306.954 1113.92 312.889 1121.24 312.889Z" fill="#20F382" fill-opacity="0.5"/>
<path opacity="0.474935" d="M180.225 576.837C189.698 576.837 197.378 569.157 197.378 559.684C197.378 550.211 189.698 542.531 180.225 542.531C170.751 542.531 163.071 550.211 163.071 559.684C163.071 569.157 170.751 576.837 180.225 576.837Z" fill="#20F382" fill-opacity="0.5"/>
<path opacity="0.38028" d="M494.746 231.603C498.679 231.603 501.867 228.415 501.867 224.483C501.867 220.55 498.679 217.362 494.746 217.362C490.813 217.362 487.625 220.55 487.625 224.483C487.625 228.415 490.813 231.603 494.746 231.603Z" fill="#20F382" fill-opacity="0.5"/>
<path opacity="0.640483" d="M248.97 785.24C255.675 785.24 261.111 779.804 261.111 773.098C261.111 766.393 255.675 760.957 248.97 760.957C242.264 760.957 236.829 766.393 236.829 773.098C236.829 779.804 242.264 785.24 248.97 785.24Z" fill="#20F382" fill-opacity="0.5"/>
<path opacity="0.866276" d="M289.658 390.543C294.339 390.543 298.134 386.748 298.134 382.067C298.134 377.386 294.339 373.591 289.658 373.591C284.976 373.591 281.182 377.386 281.182 382.067C281.182 386.748 284.976 390.543 289.658 390.543Z" fill="#20F382" fill-opacity="0.5"/>
<path opacity="0.29075" d="M1043.19 890.446C1046.52 890.446 1049.22 887.746 1049.22 884.415C1049.22 881.084 1046.52 878.384 1043.19 878.384C1039.86 878.384 1037.16 881.084 1037.16 884.415C1037.16 887.746 1039.86 890.446 1043.19 890.446Z" fill="#20F382" fill-opacity="0.5"/>
<path opacity="0.120831" d="M947.323 136.148C954.128 136.148 959.645 130.632 959.645 123.826C959.645 117.021 954.128 111.505 947.323 111.505C940.517 111.505 935.001 117.021 935.001 123.826C935.001 130.632 940.517 136.148 947.323 136.148Z" fill="#20F382" fill-opacity="0.5"/>
<path opacity="0.530118" d="M298.406 634.972C303.808 634.972 308.188 630.592 308.188 625.19C308.188 619.788 303.808 615.408 298.406 615.408C293.004 615.408 288.624 619.788 288.624 625.19C288.624 630.592 293.004 634.972 298.406 634.972Z" fill="#20F382" fill-opacity="0.5"/>
<path opacity="0.968799" d="M493.762 457.542C498.711 457.542 502.724 453.53 502.724 448.58C502.724 443.631 498.711 439.618 493.762 439.618C488.812 439.618 484.8 443.631 484.8 448.58C484.8 453.53 488.812 457.542 493.762 457.542Z" fill="#20F382" fill-opacity="0.5"/>
<path opacity="0.364722" d="M1142.04 152.322C1149.07 152.322 1154.77 146.618 1154.77 139.582C1154.77 132.546 1149.07 126.843 1142.04 126.843C1135 126.843 1129.3 132.546 1129.3 139.582C1129.3 146.618 1135 152.322 1142.04 152.322Z" fill="#20F382" fill-opacity="0.5"/>
<path opacity="0.31865" d="M12.6641 758.567C19.6379 758.567 25.2912 752.913 25.2912 745.94C25.2912 738.966 19.6379 733.312 12.6641 733.312C5.69034 733.312 0.0369873 738.966 0.0369873 745.94C0.0369873 752.913 5.69034 758.567 12.6641 758.567Z" fill="#20F382" fill-opacity="0.5"/>
<path opacity="0.242082" d="M1032.27 318.696C1039.18 318.696 1044.78 313.098 1044.78 306.191C1044.78 299.285 1039.18 293.687 1032.27 293.687C1025.37 293.687 1019.77 299.285 1019.77 306.191C1019.77 313.098 1025.37 318.696 1032.27 318.696Z" fill="#20F382" fill-opacity="0.5"/>
<path opacity="0.600916" d="M908.295 422.998C913.744 422.998 918.162 418.58 918.162 413.131C918.162 407.682 913.744 403.264 908.295 403.264C902.846 403.264 898.429 407.682 898.429 413.131C898.429 418.58 902.846 422.998 908.295 422.998Z" fill="#20F382" fill-opacity="0.5"/>
<path opacity="0.634816" d="M1310.73 422.953C1315.09 422.953 1318.63 419.418 1318.63 415.057C1318.63 410.696 1315.09 407.16 1310.73 407.16C1306.37 407.16 1302.84 410.696 1302.84 415.057C1302.84 419.418 1306.37 422.953 1310.73 422.953Z" fill="#20F382" fill-opacity="0.5"/>
<path opacity="0.102339" d="M1141.15 668.047C1150.43 668.047 1157.96 660.521 1157.96 651.237C1157.96 641.953 1150.43 634.427 1141.15 634.427C1131.86 634.427 1124.34 641.953 1124.34 651.237C1124.34 660.521 1131.86 668.047 1141.15 668.047Z" fill="#20F382" fill-opacity="0.5"/>
<path opacity="0.575726" d="M1097.11 748.138C1104.48 748.138 1110.45 742.162 1110.45 734.791C1110.45 727.419 1104.48 721.443 1097.11 721.443C1089.74 721.443 1083.76 727.419 1083.76 734.791C1083.76 742.162 1089.74 748.138 1097.11 748.138Z" fill="#20F382" fill-opacity="0.5"/>
<path opacity="0.67039" d="M431.157 645.357C436.91 645.357 441.574 640.694 441.574 634.941C441.574 629.188 436.91 624.525 431.157 624.525C425.405 624.525 420.741 629.188 420.741 634.941C420.741 640.694 425.405 645.357 431.157 645.357Z" fill="#20F382" fill-opacity="0.5"/>
<path opacity="0.523675" d="M1167.77 92.0437C1172.11 92.0437 1175.62 88.5305 1175.62 84.1969C1175.62 79.8632 1172.11 76.3501 1167.77 76.3501C1163.44 76.3501 1159.93 79.8632 1159.93 84.1969C1159.93 88.5305 1163.44 92.0437 1167.77 92.0437Z" fill="#20F382" fill-opacity="0.5"/>
<path opacity="0.780609" d="M480.386 288.558C485.018 288.558 488.773 284.803 488.773 280.171C488.773 275.539 485.018 271.784 480.386 271.784C475.754 271.784 471.999 275.539 471.999 280.171C471.999 284.803 475.754 288.558 480.386 288.558Z" fill="#20F382" fill-opacity="0.5"/>
<path opacity="0.55238" d="M823.557 152.255C829.231 152.255 833.83 147.656 833.83 141.982C833.83 136.309 829.231 131.709 823.557 131.709C817.884 131.709 813.284 136.309 813.284 141.982C813.284 147.656 817.884 152.255 823.557 152.255Z" fill="#20F382" fill-opacity="0.5"/>
<path opacity="0.418731" d="M562.259 833.22C565.48 833.22 568.091 830.609 568.091 827.388C568.091 824.167 565.48 821.556 562.259 821.556C559.038 821.556 556.427 824.167 556.427 827.388C556.427 830.609 559.038 833.22 562.259 833.22Z" fill="#20F382" fill-opacity="0.5"/>
<path opacity="0.600853" d="M1358.86 171.708C1367.87 171.708 1375.18 164.398 1375.18 155.38C1375.18 146.363 1367.87 139.053 1358.86 139.053C1349.84 139.053 1342.53 146.363 1342.53 155.38C1342.53 164.398 1349.84 171.708 1358.86 171.708Z" fill="#20F382" fill-opacity="0.5"/>
<path opacity="0.701846" d="M638.246 726.778C642.218 726.778 645.438 723.559 645.438 719.587C645.438 715.615 642.218 712.396 638.246 712.396C634.274 712.396 631.055 715.615 631.055 719.587C631.055 723.559 634.274 726.778 638.246 726.778Z" fill="#20F382" fill-opacity="0.5"/>
<path opacity="0.469538" d="M75.5341 368.754C77.8331 368.754 79.6967 366.89 79.6967 364.591C79.6967 362.292 77.8331 360.428 75.5341 360.428C73.2351 360.428 71.3715 362.292 71.3715 364.591C71.3715 366.89 73.2351 368.754 75.5341 368.754Z" fill="#20F382" fill-opacity="0.5"/>
<path opacity="0.713072" d="M338.447 866.692C348.097 866.692 355.919 858.87 355.919 849.221C355.919 839.571 348.097 831.749 338.447 831.749C328.798 831.749 320.976 839.571 320.976 849.221C320.976 858.87 328.798 866.692 338.447 866.692Z" fill="#20F382" fill-opacity="0.5"/>
<path opacity="0.712841" d="M437.454 865.852C441.333 865.852 444.479 862.707 444.479 858.827C444.479 854.948 441.333 851.802 437.454 851.802C433.574 851.802 430.428 854.948 430.428 858.827C430.428 862.707 433.574 865.852 437.454 865.852Z" fill="#20F382" fill-opacity="0.5"/>
<path opacity="0.132461" d="M960.363 649.294C969.023 649.294 976.043 642.273 976.043 633.613C976.043 624.953 969.023 617.933 960.363 617.933C951.703 617.933 944.683 624.953 944.683 633.613C944.683 642.273 951.703 649.294 960.363 649.294Z" fill="#20F382" fill-opacity="0.5"/>
<path opacity="0.534425" d="M579.006 1010.79C584.081 1010.79 588.196 1006.68 588.196 1001.6C588.196 996.524 584.081 992.409 579.006 992.409C573.93 992.409 569.815 996.524 569.815 1001.6C569.815 1006.68 573.93 1010.79 579.006 1010.79Z" fill="#20F382" fill-opacity="0.5"/>
<path opacity="0.210921" d="M217.725 406.325C226.389 406.325 233.413 399.301 233.413 390.636C233.413 381.972 226.389 374.948 217.725 374.948C209.061 374.948 202.037 381.972 202.037 390.636C202.037 399.301 209.061 406.325 217.725 406.325Z" fill="#20F382" fill-opacity="0.5"/>
<path opacity="0.686995" d="M680.69 127.691C686.156 127.691 690.587 123.26 690.587 117.794C690.587 112.328 686.156 107.897 680.69 107.897C675.225 107.897 670.794 112.328 670.794 117.794C670.794 123.26 675.225 127.691 680.69 127.691Z" fill="#20F382" fill-opacity="0.5"/>
<path opacity="0.17868" d="M793.47 23.9553C797.496 23.9553 800.759 20.6916 800.759 16.6658C800.759 12.6399 797.496 9.37634 793.47 9.37634C789.444 9.37634 786.18 12.6399 786.18 16.6658C786.18 20.6916 789.444 23.9553 793.47 23.9553Z" fill="#20F382" fill-opacity="0.5"/>
<path opacity="0.778187" d="M1233.04 412.697C1239.7 412.697 1245.1 407.299 1245.1 400.639C1245.1 393.979 1239.7 388.58 1233.04 388.58C1226.38 388.58 1220.99 393.979 1220.99 400.639C1220.99 407.299 1226.38 412.697 1233.04 412.697Z" fill="#20F382" fill-opacity="0.5"/>
<path opacity="0.32149" d="M1183.32 351.256C1189.16 351.256 1193.89 346.525 1193.89 340.688C1193.89 334.851 1189.16 330.12 1183.32 330.12C1177.49 330.12 1172.76 334.851 1172.76 340.688C1172.76 346.525 1177.49 351.256 1183.32 351.256Z" fill="#20F382" fill-opacity="0.5"/>
<path opacity="0.617692" d="M1059.02 693.903C1066.52 693.903 1072.6 687.827 1072.6 680.333C1072.6 672.838 1066.52 666.762 1059.02 666.762C1051.53 666.762 1045.45 672.838 1045.45 680.333C1045.45 687.827 1051.53 693.903 1059.02 693.903Z" fill="#20F382" fill-opacity="0.5"/>
<path opacity="0.216193" d="M1154.32 1042.09C1163.54 1042.09 1171.02 1034.62 1171.02 1025.39C1171.02 1016.17 1163.54 1008.7 1154.32 1008.7C1145.1 1008.7 1137.62 1016.17 1137.62 1025.39C1137.62 1034.62 1145.1 1042.09 1154.32 1042.09Z" fill="#20F382" fill-opacity="0.5"/>
<path opacity="0.212434" d="M1046.28 828.777C1050.29 828.777 1053.53 825.533 1053.53 821.531C1053.53 817.529 1050.29 814.285 1046.28 814.285C1042.28 814.285 1039.04 817.529 1039.04 821.531C1039.04 825.533 1042.28 828.777 1046.28 828.777Z" fill="#20F382" fill-opacity="0.5"/>
<path opacity="0.846627" d="M189.097 507.022C197.63 507.022 204.547 500.105 204.547 491.572C204.547 483.04 197.63 476.123 189.097 476.123C180.565 476.123 173.648 483.04 173.648 491.572C173.648 500.105 180.565 507.022 189.097 507.022Z" fill="#20F382" fill-opacity="0.5"/>
<path opacity="0.334326" d="M1432.2 962.493C1436.51 962.493 1440 959.002 1440 954.696C1440 950.39 1436.51 946.9 1432.2 946.9C1427.9 946.9 1424.41 950.39 1424.41 954.696C1424.41 959.002 1427.9 962.493 1432.2 962.493Z" fill="#20F382" fill-opacity="0.5"/>
<path opacity="0.914062" d="M530.563 374.095C532.903 374.095 534.801 372.197 534.801 369.857C534.801 367.516 532.903 365.619 530.563 365.619C528.222 365.619 526.325 367.516 526.325 369.857C526.325 372.197 528.222 374.095 530.563 374.095Z" fill="#20F382" fill-opacity="0.5"/>
<path opacity="0.201316" d="M1122.6 956.019C1126.84 956.019 1130.28 952.578 1130.28 948.333C1130.28 944.088 1126.84 940.647 1122.6 940.647C1118.35 940.647 1114.91 944.088 1114.91 948.333C1114.91 952.578 1118.35 956.019 1122.6 956.019Z" fill="#20F382" fill-opacity="0.5"/>
<path opacity="0.65588" d="M865.559 934.92C873.486 934.92 879.913 928.494 879.913 920.567C879.913 912.64 873.486 906.213 865.559 906.213C857.632 906.213 851.206 912.64 851.206 920.567C851.206 928.494 857.632 934.92 865.559 934.92Z" fill="#20F382" fill-opacity="0.5"/>
<path opacity="0.418686" d="M652.194 680.589C657.292 680.589 661.424 676.457 661.424 671.36C661.424 666.262 657.292 662.13 652.194 662.13C647.097 662.13 642.965 666.262 642.965 671.36C642.965 676.457 647.097 680.589 652.194 680.589Z" fill="#20F382" fill-opacity="0.5"/>
<path opacity="0.536493" d="M1266.29 40.8518C1274.13 40.8518 1280.49 34.4962 1280.49 26.6561C1280.49 18.816 1274.13 12.4603 1266.29 12.4603C1258.45 12.4603 1252.1 18.816 1252.1 26.6561C1252.1 34.4962 1258.45 40.8518 1266.29 40.8518Z" fill="#20F382" fill-opacity="0.5"/>
<path opacity="0.397951" d="M1410.89 886.317C1416.79 886.317 1421.57 881.534 1421.57 875.633C1421.57 869.733 1416.79 864.949 1410.89 864.949C1404.99 864.949 1400.2 869.733 1400.2 875.633C1400.2 881.534 1404.99 886.317 1410.89 886.317Z" fill="#20F382" fill-opacity="0.5"/>
<path opacity="0.169064" d="M405.781 298.949C413.918 298.949 420.514 292.353 420.514 284.216C420.514 276.079 413.918 269.483 405.781 269.483C397.644 269.483 391.047 276.079 391.047 284.216C391.047 292.353 397.644 298.949 405.781 298.949Z" fill="#20F382" fill-opacity="0.5"/>
<path opacity="0.99793" d="M294.17 217.269C299.22 217.269 303.315 213.175 303.315 208.124C303.315 203.073 299.22 198.979 294.17 198.979C289.119 198.979 285.025 203.073 285.025 208.124C285.025 213.175 289.119 217.269 294.17 217.269Z" fill="#20F382" fill-opacity="0.5"/>
<path opacity="0.288876" d="M188.126 699.082C194.343 699.082 199.383 694.042 199.383 687.825C199.383 681.608 194.343 676.569 188.126 676.569C181.909 676.569 176.869 681.608 176.869 687.825C176.869 694.042 181.909 699.082 188.126 699.082Z" fill="#20F382" fill-opacity="0.5"/>
<path opacity="0.358206" d="M1408.74 24.4513C1417.94 24.4513 1425.39 17.0005 1425.39 7.80951C1425.39 -1.3815 1417.94 -8.83228 1408.74 -8.83228C1399.55 -8.83228 1392.1 -1.3815 1392.1 7.80951C1392.1 17.0005 1399.55 24.4513 1408.74 24.4513Z" fill="#20F382" fill-opacity="0.5"/>
<path opacity="0.978467" d="M1287.22 598.973C1294.59 598.973 1300.56 593.002 1300.56 585.635C1300.56 578.269 1294.59 572.298 1287.22 572.298C1279.86 572.298 1273.89 578.269 1273.89 585.635C1273.89 593.002 1279.86 598.973 1287.22 598.973Z" fill="#20F382" fill-opacity="0.5"/>
<path opacity="0.791304" d="M1419.43 825.88C1425.35 825.88 1430.16 821.077 1430.16 815.152C1430.16 809.227 1425.35 804.424 1419.43 804.424C1413.5 804.424 1408.7 809.227 1408.7 815.152C1408.7 821.077 1413.5 825.88 1419.43 825.88Z" fill="#20F382" fill-opacity="0.5"/>
<path opacity="0.62081" d="M278.81 904.638C282.649 904.638 285.761 901.526 285.761 897.687C285.761 893.848 282.649 890.736 278.81 890.736C274.971 890.736 271.859 893.848 271.859 897.687C271.859 901.526 274.971 904.638 278.81 904.638Z" fill="#20F382" fill-opacity="0.5"/>
<path opacity="0.973736" d="M943.905 499.34C949.283 499.34 953.642 494.98 953.642 489.602C953.642 484.224 949.283 479.865 943.905 479.865C938.527 479.865 934.167 484.224 934.167 489.602C934.167 494.98 938.527 499.34 943.905 499.34Z" fill="#20F382" fill-opacity="0.5"/>
<path opacity="0.754419" d="M653.417 840.235C657.244 840.235 660.347 837.132 660.347 833.306C660.347 829.479 657.244 826.376 653.417 826.376C649.591 826.376 646.488 829.479 646.488 833.306C646.488 837.132 649.591 840.235 653.417 840.235Z" fill="#20F382" fill-opacity="0.5"/>
<path opacity="0.550851" d="M1420.57 690.561C1425.07 690.561 1428.71 686.914 1428.71 682.416C1428.71 677.917 1425.07 674.27 1420.57 674.27C1416.07 674.27 1412.42 677.917 1412.42 682.416C1412.42 686.914 1416.07 690.561 1420.57 690.561Z" fill="#20F382" fill-opacity="0.5"/>
<path opacity="0.976832" d="M385.608 176.129C389.732 176.129 393.075 172.786 393.075 168.662C393.075 164.538 389.732 161.195 385.608 161.195C381.484 161.195 378.14 164.538 378.14 168.662C378.14 172.786 381.484 176.129 385.608 176.129Z" fill="#20F382" fill-opacity="0.5"/>
<path opacity="0.354788" d="M536.505 494.644C542.838 494.644 547.972 489.51 547.972 483.177C547.972 476.845 542.838 471.711 536.505 471.711C530.172 471.711 525.039 476.845 525.039 483.177C525.039 489.51 530.172 494.644 536.505 494.644Z" fill="#20F382" fill-opacity="0.5"/>
<path opacity="0.684425" d="M493.156 9.06588C498.96 9.06588 503.665 4.36084 503.665 -1.44313C503.665 -7.24711 498.96 -11.9521 493.156 -11.9521C487.352 -11.9521 482.647 -7.24711 482.647 -1.44313C482.647 4.36084 487.352 9.06588 493.156 9.06588Z" fill="#20F382" fill-opacity="0.5"/>
<path opacity="0.295214" d="M186.776 175.803C193.384 175.803 198.74 170.446 198.74 163.839C198.74 157.231 193.384 151.875 186.776 151.875C180.169 151.875 174.812 157.231 174.812 163.839C174.812 170.446 180.169 175.803 186.776 175.803Z" fill="#20F382" fill-opacity="0.5"/>
<path opacity="0.428598" d="M52.2022 714.229C58.9157 714.229 64.3581 708.786 64.3581 702.073C64.3581 695.359 58.9157 689.917 52.2022 689.917C45.4886 689.917 40.0463 695.359 40.0463 702.073C40.0463 708.786 45.4886 714.229 52.2022 714.229Z" fill="#20F382" fill-opacity="0.5"/>
<path opacity="0.317132" d="M81.8328 553.127C89.4433 553.127 95.6129 546.958 95.6129 539.347C95.6129 531.736 89.4433 525.567 81.8328 525.567C74.2223 525.567 68.0527 531.736 68.0527 539.347C68.0527 546.958 74.2223 553.127 81.8328 553.127Z" fill="#20F382" fill-opacity="0.5"/>
<path opacity="0.433233" d="M700.159 59.3223C705.655 59.3223 710.111 54.8665 710.111 49.3701C710.111 43.8736 705.655 39.4178 700.159 39.4178C694.662 39.4178 690.206 43.8736 690.206 49.3701C690.206 54.8665 694.662 59.3223 700.159 59.3223Z" fill="#20F382" fill-opacity="0.5"/>
<path opacity="0.903214" d="M1262.86 162.849C1267.19 162.849 1270.71 159.337 1270.71 155.005C1270.71 150.673 1267.19 147.161 1262.86 147.161C1258.53 147.161 1255.02 150.673 1255.02 155.005C1255.02 159.337 1258.53 162.849 1262.86 162.849Z" fill="#20F382" fill-opacity="0.5"/>
<path opacity="0.755337" d="M1001.7 265.34C1006.57 265.34 1010.52 261.39 1010.52 256.518C1010.52 251.645 1006.57 247.695 1001.7 247.695C996.825 247.695 992.875 251.645 992.875 256.518C992.875 261.39 996.825 265.34 1001.7 265.34Z" fill="#20F382" fill-opacity="0.5"/>
<path opacity="0.390987" d="M1090.09 175.413C1096.66 175.413 1101.98 170.091 1101.98 163.527C1101.98 156.963 1096.66 151.642 1090.09 151.642C1083.53 151.642 1078.21 156.963 1078.21 163.527C1078.21 170.091 1083.53 175.413 1090.09 175.413Z" fill="#20F382" fill-opacity="0.5"/>
<path opacity="0.734982" d="M1050.68 413.57C1057.8 413.57 1063.58 407.797 1063.58 400.675C1063.58 393.553 1057.8 387.78 1050.68 387.78C1043.56 387.78 1037.79 393.553 1037.79 400.675C1037.79 407.797 1043.56 413.57 1050.68 413.57Z" fill="#20F382" fill-opacity="0.5"/>
<path opacity="0.618439" d="M557.544 142.239C564.811 142.239 570.703 136.347 570.703 129.08C570.703 121.812 564.811 115.921 557.544 115.921C550.276 115.921 544.385 121.812 544.385 129.08C544.385 136.347 550.276 142.239 557.544 142.239Z" fill="#20F382" fill-opacity="0.5"/>
<path opacity="0.929003" d="M527.556 950.038C531.847 950.038 535.326 946.559 535.326 942.268C535.326 937.977 531.847 934.499 527.556 934.499C523.265 934.499 519.787 937.977 519.787 942.268C519.787 946.559 523.265 950.038 527.556 950.038Z" fill="#20F382" fill-opacity="0.5"/>
<path opacity="0.118767" d="M120.357 240.892C125.901 240.892 130.396 236.397 130.396 230.853C130.396 225.308 125.901 220.813 120.357 220.813C114.812 220.813 110.317 225.308 110.317 230.853C110.317 236.397 114.812 240.892 120.357 240.892Z" fill="#20F382" fill-opacity="0.5"/>
<path opacity="0.408094" d="M520.709 195.583C526.904 195.583 531.927 190.56 531.927 184.365C531.927 178.169 526.904 173.147 520.709 173.147C514.513 173.147 509.491 178.169 509.491 184.365C509.491 190.56 514.513 195.583 520.709 195.583Z" fill="#20F382" fill-opacity="0.5"/>
<path opacity="0.1617" d="M1110.39 30.2361C1115.84 30.2361 1120.27 25.8125 1120.27 20.3557C1120.27 14.8988 1115.84 10.4752 1110.39 10.4752C1104.93 10.4752 1100.51 14.8988 1100.51 20.3557C1100.51 25.8125 1104.93 30.2361 1110.39 30.2361Z" fill="#20F382" fill-opacity="0.5"/>
<path opacity="0.969147" d="M16.9421 522.147C23.1801 522.147 28.237 517.09 28.237 510.852C28.237 504.614 23.1801 499.557 16.9421 499.557C10.704 499.557 5.64709 504.614 5.64709 510.852C5.64709 517.09 10.704 522.147 16.9421 522.147Z" fill="#20F382" fill-opacity="0.5"/>
<path opacity="0.47183" d="M424.308 124.572C429.008 124.572 432.819 120.762 432.819 116.062C432.819 111.361 429.008 107.551 424.308 107.551C419.608 107.551 415.797 111.361 415.797 116.062C415.797 120.762 419.608 124.572 424.308 124.572Z" fill="#20F382" fill-opacity="0.5"/>
<path opacity="0.590233" d="M694.941 844.285C700.637 844.285 705.254 839.668 705.254 833.972C705.254 828.276 700.637 823.659 694.941 823.659C689.245 823.659 684.627 828.276 684.627 833.972C684.627 839.668 689.245 844.285 694.941 844.285Z" fill="#20F382" fill-opacity="0.5"/>
<path opacity="0.298425" d="M899.843 59.3022C906.174 59.3022 911.307 54.1696 911.307 47.8381C911.307 41.5067 906.174 36.374 899.843 36.374C893.511 36.374 888.379 41.5067 888.379 47.8381C888.379 54.1696 893.511 59.3022 899.843 59.3022Z" fill="#20F382" fill-opacity="0.5"/>
<path opacity="0.850408" d="M1090.41 892.062C1093.91 892.062 1096.76 889.22 1096.76 885.714C1096.76 882.209 1093.91 879.367 1090.41 879.367C1086.9 879.367 1084.06 882.209 1084.06 885.714C1084.06 889.22 1086.9 892.062 1090.41 892.062Z" fill="#20F382" fill-opacity="0.5"/>
<path opacity="0.122776" d="M310.655 694.515C315.898 694.515 320.147 690.265 320.147 685.023C320.147 679.781 315.898 675.531 310.655 675.531C305.413 675.531 301.163 679.781 301.163 685.023C301.163 690.265 305.413 694.515 310.655 694.515Z" fill="#20F382" fill-opacity="0.5"/>
<path opacity="0.406552" d="M618.293 781.897C622.973 781.897 626.767 778.104 626.767 773.424C626.767 768.744 622.973 764.951 618.293 764.951C613.614 764.951 609.82 768.744 609.82 773.424C609.82 778.104 613.614 781.897 618.293 781.897Z" fill="#20F382" fill-opacity="0.5"/>
<path opacity="0.266433" d="M1309.89 1013.66C1319.48 1013.66 1327.25 1005.89 1327.25 996.303C1327.25 986.718 1319.48 978.949 1309.89 978.949C1300.31 978.949 1292.54 986.718 1292.54 996.303C1292.54 1005.89 1300.31 1013.66 1309.89 1013.66Z" fill="#20F382" fill-opacity="0.5"/>
</g>
</svg>
