<svg width="204" height="312" viewBox="0 0 204 312" fill="none" xmlns="http://www.w3.org/2000/svg">
<g clip-path="url(#clip0_289_2663)">
<rect x="-108" y="155.563" width="220" height="220" rx="48" transform="rotate(-45 -108 155.563)" fill="white"/>
<g clip-path="url(#clip1_289_2663)">
<path d="M57.3445 102.604L13.0478 102.544C10.67 102.508 8.3092 102.95 6.10533 103.843C3.90146 104.736 1.8994 106.063 0.217841 107.745C-1.46372 109.426 -2.79055 111.429 -3.68399 113.632C-4.57743 115.836 -5.01929 118.197 -4.98338 120.575L-4.99139 164.94L41.5893 149.373L57.3445 102.604ZM74.7827 103.077H83.5579C85.9389 103.029 88.3051 103.463 90.5143 104.352C92.7236 105.241 94.7304 106.567 96.4144 108.251C98.0983 109.935 99.4248 111.942 100.314 114.151C101.203 116.361 101.637 118.727 101.589 121.108L101.938 192.147C101.955 193.842 101.691 195.527 101.156 197.135L57.8895 153.869L74.7827 103.077ZM-4.92729 182.787L-4.92728 191.562C-4.97508 193.943 -4.54134 196.309 -3.6521 198.518C-2.76287 200.727 -1.43646 202.734 0.247507 204.418C1.93148 206.102 3.9383 207.429 6.14755 208.318C8.35679 209.207 10.7229 209.641 13.1039 209.593L84.147 209.938C85.8459 209.954 87.5328 209.693 89.1356 209.156L45.8687 165.889L-4.92729 182.787Z" fill="#02002D"/>
</g>
</g>
<rect x="-106.586" y="155.563" width="218" height="218" rx="47" transform="rotate(-45 -106.586 155.563)" stroke="#BABABF" stroke-width="2"/>
<defs>
<clipPath id="clip0_289_2663">
<rect x="-108" y="155.563" width="220" height="220" rx="48" transform="rotate(-45 -108 155.563)" fill="white"/>
</clipPath>
<clipPath id="clip1_289_2663">
<rect width="136" height="136" fill="white" transform="translate(-48.603 155.563) rotate(-45)"/>
</clipPath>
</defs>
</svg>
