<svg width="1059" height="562" viewBox="0 0 1059 562" fill="none" xmlns="http://www.w3.org/2000/svg">
<g filter="url(#filter0_i_289_2640)">
<g clip-path="url(#clip0_289_2640)">
<rect width="1059" height="562" rx="64" fill="#D8D8D8" fill-opacity="0.1"/>
<line x1="-387" y1="185.5" x2="1447" y2="185.5" stroke="#BABABF"/>
<line x1="-387" y1="411.833" x2="1447" y2="411.833" stroke="#BABABF"/>
<line x1="104.278" y1="640.006" x2="104.278" y2="-74" stroke="#BABABF"/>
<line x1="274.167" y1="640.006" x2="274.167" y2="-74" stroke="#BABABF"/>
<line x1="444.056" y1="640.006" x2="444.056" y2="-74" stroke="#BABABF"/>
<line x1="613.944" y1="640.006" x2="613.944" y2="-74" stroke="#BABABF"/>
<line x1="783.833" y1="640.006" x2="783.833" y2="-74" stroke="#BABABF"/>
<line x1="953.722" y1="640.006" x2="953.722" y2="-74" stroke="#BABABF"/>
<rect x="302" y="446" width="456" height="66" rx="33" fill="url(#paint0_linear_289_2640)"/>
<path d="M347.602 473.727C347.483 472.72 346.999 471.938 346.151 471.381C345.302 470.824 344.261 470.545 343.028 470.545C342.127 470.545 341.338 470.691 340.662 470.983C339.992 471.275 339.469 471.676 339.091 472.186C338.72 472.696 338.534 473.277 338.534 473.926C338.534 474.47 338.663 474.937 338.922 475.328C339.187 475.713 339.525 476.034 339.936 476.293C340.347 476.545 340.778 476.753 341.229 476.919C341.679 477.078 342.094 477.207 342.472 477.307L344.54 477.864C345.07 478.003 345.66 478.195 346.31 478.44C346.966 478.686 347.592 479.02 348.189 479.445C348.792 479.862 349.289 480.399 349.68 481.055C350.071 481.712 350.267 482.517 350.267 483.472C350.267 484.572 349.979 485.566 349.402 486.455C348.832 487.343 347.997 488.049 346.896 488.572C345.803 489.096 344.473 489.358 342.909 489.358C341.451 489.358 340.188 489.123 339.121 488.652C338.06 488.181 337.225 487.525 336.615 486.683C336.012 485.841 335.67 484.864 335.591 483.75H338.136C338.203 484.519 338.461 485.155 338.912 485.659C339.369 486.156 339.946 486.527 340.642 486.773C341.345 487.011 342.1 487.131 342.909 487.131C343.85 487.131 344.696 486.978 345.445 486.673C346.194 486.362 346.787 485.931 347.224 485.381C347.662 484.824 347.881 484.174 347.881 483.432C347.881 482.756 347.692 482.205 347.314 481.781C346.936 481.357 346.439 481.012 345.822 480.747C345.206 480.482 344.54 480.25 343.824 480.051L341.318 479.335C339.727 478.878 338.468 478.225 337.54 477.376C336.612 476.528 336.148 475.418 336.148 474.045C336.148 472.905 336.456 471.911 337.072 471.062C337.696 470.207 338.531 469.545 339.578 469.074C340.632 468.597 341.809 468.358 343.108 468.358C344.42 468.358 345.587 468.593 346.608 469.064C347.629 469.528 348.438 470.164 349.034 470.973C349.637 471.782 349.955 472.7 349.989 473.727H347.602ZM360.645 473.727V475.716H352.73V473.727H360.645ZM355.037 470.068H357.384V484.625C357.384 485.288 357.48 485.785 357.672 486.116C357.871 486.441 358.123 486.66 358.428 486.773C358.739 486.879 359.068 486.932 359.412 486.932C359.671 486.932 359.883 486.919 360.049 486.892C360.214 486.859 360.347 486.832 360.446 486.812L360.924 488.92C360.765 488.98 360.542 489.04 360.257 489.099C359.972 489.166 359.611 489.199 359.174 489.199C358.511 489.199 357.861 489.056 357.225 488.771C356.595 488.486 356.071 488.052 355.654 487.469C355.243 486.885 355.037 486.15 355.037 485.261V470.068ZM368.669 489.358C367.702 489.358 366.823 489.176 366.034 488.811C365.246 488.44 364.619 487.906 364.155 487.21C363.691 486.508 363.459 485.659 363.459 484.665C363.459 483.79 363.632 483.08 363.976 482.537C364.321 481.987 364.782 481.556 365.358 481.244C365.935 480.933 366.571 480.701 367.267 480.548C367.97 480.389 368.676 480.263 369.385 480.17C370.313 480.051 371.066 479.962 371.642 479.902C372.226 479.836 372.65 479.726 372.915 479.574C373.187 479.421 373.323 479.156 373.323 478.778V478.699C373.323 477.718 373.054 476.955 372.517 476.412C371.987 475.868 371.182 475.597 370.101 475.597C368.981 475.597 368.103 475.842 367.466 476.332C366.83 476.823 366.382 477.347 366.124 477.903L363.897 477.108C364.294 476.18 364.825 475.457 365.488 474.94C366.157 474.417 366.886 474.052 367.675 473.847C368.471 473.634 369.253 473.528 370.022 473.528C370.512 473.528 371.076 473.588 371.712 473.707C372.355 473.82 372.975 474.055 373.571 474.413C374.175 474.771 374.675 475.312 375.073 476.034C375.471 476.757 375.669 477.724 375.669 478.938V489H373.323V486.932H373.203C373.044 487.263 372.779 487.618 372.408 487.996C372.037 488.374 371.543 488.695 370.926 488.96C370.31 489.225 369.558 489.358 368.669 489.358ZM369.027 487.25C369.955 487.25 370.738 487.068 371.374 486.703C372.017 486.339 372.501 485.868 372.826 485.291C373.157 484.714 373.323 484.108 373.323 483.472V481.324C373.223 481.443 373.005 481.553 372.667 481.652C372.335 481.745 371.951 481.828 371.513 481.901C371.082 481.967 370.661 482.027 370.25 482.08C369.846 482.126 369.518 482.166 369.266 482.199C368.656 482.278 368.086 482.408 367.556 482.587C367.032 482.759 366.608 483.021 366.283 483.372C365.965 483.717 365.806 484.187 365.806 484.784C365.806 485.599 366.107 486.216 366.711 486.634C367.32 487.045 368.093 487.25 369.027 487.25ZM379.952 489V473.727H382.219V476.034H382.379C382.657 475.278 383.161 474.665 383.89 474.195C384.619 473.724 385.441 473.489 386.356 473.489C386.528 473.489 386.744 473.492 387.002 473.499C387.261 473.505 387.456 473.515 387.589 473.528V475.915C387.509 475.895 387.327 475.865 387.042 475.825C386.763 475.779 386.469 475.756 386.157 475.756C385.415 475.756 384.752 475.911 384.168 476.223C383.592 476.528 383.134 476.952 382.796 477.496C382.465 478.033 382.299 478.646 382.299 479.335V489H379.952ZM397.969 473.727V475.716H390.055V473.727H397.969ZM392.362 470.068H394.708V484.625C394.708 485.288 394.804 485.785 394.996 486.116C395.195 486.441 395.447 486.66 395.752 486.773C396.064 486.879 396.392 486.932 396.737 486.932C396.995 486.932 397.207 486.919 397.373 486.892C397.539 486.859 397.671 486.832 397.771 486.812L398.248 488.92C398.089 488.98 397.867 489.04 397.582 489.099C397.297 489.166 396.935 489.199 396.498 489.199C395.835 489.199 395.185 489.056 394.549 488.771C393.919 488.486 393.396 488.052 392.978 487.469C392.567 486.885 392.362 486.15 392.362 485.261V470.068ZM415.977 489H409.692V468.636H416.255C418.23 468.636 419.921 469.044 421.326 469.859C422.731 470.668 423.808 471.831 424.558 473.349C425.307 474.861 425.681 476.67 425.681 478.778C425.681 480.9 425.303 482.726 424.548 484.257C423.792 485.782 422.692 486.955 421.246 487.777C419.801 488.592 418.045 489 415.977 489ZM412.158 486.812H415.817C417.501 486.812 418.897 486.488 420.004 485.838C421.111 485.188 421.936 484.264 422.479 483.064C423.023 481.864 423.295 480.436 423.295 478.778C423.295 477.134 423.026 475.719 422.489 474.533C421.952 473.339 421.15 472.425 420.083 471.788C419.016 471.145 417.687 470.824 416.096 470.824H412.158V486.812ZM435.903 489.318C434.431 489.318 433.162 488.993 432.094 488.344C431.034 487.688 430.215 486.773 429.638 485.599C429.068 484.42 428.783 483.047 428.783 481.483C428.783 479.919 429.068 478.54 429.638 477.347C430.215 476.147 431.017 475.212 432.045 474.543C433.079 473.866 434.285 473.528 435.664 473.528C436.46 473.528 437.245 473.661 438.021 473.926C438.796 474.191 439.502 474.622 440.138 475.219C440.775 475.809 441.282 476.591 441.66 477.565C442.038 478.54 442.227 479.74 442.227 481.165V482.159H430.454V480.131H439.84C439.84 479.269 439.668 478.5 439.323 477.824C438.985 477.148 438.501 476.614 437.871 476.223C437.248 475.832 436.513 475.636 435.664 475.636C434.729 475.636 433.921 475.868 433.238 476.332C432.562 476.79 432.041 477.386 431.677 478.122C431.312 478.858 431.13 479.647 431.13 480.489V481.841C431.13 482.994 431.329 483.972 431.727 484.774C432.131 485.57 432.691 486.176 433.407 486.594C434.123 487.005 434.955 487.21 435.903 487.21C436.519 487.21 437.076 487.124 437.573 486.952C438.077 486.773 438.511 486.508 438.876 486.156C439.24 485.798 439.522 485.354 439.721 484.824L441.988 485.46C441.749 486.229 441.348 486.905 440.785 487.489C440.221 488.065 439.525 488.516 438.697 488.841C437.868 489.159 436.937 489.318 435.903 489.318ZM452.001 489.318C450.569 489.318 449.336 488.98 448.302 488.304C447.268 487.628 446.472 486.696 445.915 485.51C445.359 484.323 445.08 482.968 445.08 481.443C445.08 479.892 445.365 478.523 445.935 477.337C446.512 476.143 447.314 475.212 448.342 474.543C449.376 473.866 450.582 473.528 451.961 473.528C453.035 473.528 454.003 473.727 454.864 474.125C455.726 474.523 456.432 475.08 456.982 475.795C457.532 476.511 457.874 477.347 458.006 478.301H455.66C455.481 477.605 455.083 476.989 454.467 476.452C453.857 475.908 453.035 475.636 452.001 475.636C451.086 475.636 450.284 475.875 449.594 476.352C448.912 476.823 448.378 477.489 447.994 478.351C447.616 479.206 447.427 480.21 447.427 481.364C447.427 482.544 447.612 483.571 447.984 484.446C448.362 485.321 448.892 486 449.575 486.484C450.264 486.968 451.073 487.21 452.001 487.21C452.611 487.21 453.164 487.104 453.661 486.892C454.158 486.68 454.579 486.375 454.924 485.977C455.269 485.58 455.514 485.102 455.66 484.545H458.006C457.874 485.447 457.546 486.259 457.022 486.982C456.505 487.697 455.819 488.268 454.964 488.692C454.115 489.109 453.128 489.318 452.001 489.318ZM467.84 489.318C466.369 489.318 465.099 488.993 464.032 488.344C462.971 487.688 462.153 486.773 461.576 485.599C461.006 484.42 460.721 483.047 460.721 481.483C460.721 479.919 461.006 478.54 461.576 477.347C462.153 476.147 462.955 475.212 463.982 474.543C465.016 473.866 466.223 473.528 467.602 473.528C468.397 473.528 469.183 473.661 469.958 473.926C470.734 474.191 471.44 474.622 472.076 475.219C472.712 475.809 473.219 476.591 473.597 477.565C473.975 478.54 474.164 479.74 474.164 481.165V482.159H462.391V480.131H471.778C471.778 479.269 471.605 478.5 471.261 477.824C470.923 477.148 470.439 476.614 469.809 476.223C469.186 475.832 468.45 475.636 467.602 475.636C466.667 475.636 465.858 475.868 465.175 476.332C464.499 476.79 463.979 477.386 463.614 478.122C463.25 478.858 463.067 479.647 463.067 480.489V481.841C463.067 482.994 463.266 483.972 463.664 484.774C464.068 485.57 464.629 486.176 465.344 486.594C466.06 487.005 466.892 487.21 467.84 487.21C468.457 487.21 469.013 487.124 469.511 486.952C470.014 486.773 470.449 486.508 470.813 486.156C471.178 485.798 471.46 485.354 471.658 484.824L473.925 485.46C473.687 486.229 473.286 486.905 472.722 487.489C472.159 488.065 471.463 488.516 470.634 488.841C469.806 489.159 468.874 489.318 467.84 489.318ZM480.08 479.812V489H477.734V473.727H480.001V476.114H480.2C480.558 475.338 481.101 474.715 481.83 474.244C482.559 473.767 483.501 473.528 484.654 473.528C485.688 473.528 486.593 473.741 487.369 474.165C488.144 474.582 488.747 475.219 489.178 476.074C489.609 476.922 489.825 477.996 489.825 479.295V489H487.478V479.455C487.478 478.255 487.166 477.32 486.543 476.651C485.92 475.974 485.065 475.636 483.978 475.636C483.229 475.636 482.559 475.799 481.969 476.124C481.386 476.448 480.925 476.922 480.587 477.545C480.249 478.169 480.08 478.924 480.08 479.812ZM500.755 473.727V475.716H492.84V473.727H500.755ZM495.147 470.068H497.493V484.625C497.493 485.288 497.589 485.785 497.782 486.116C497.98 486.441 498.232 486.66 498.537 486.773C498.849 486.879 499.177 486.932 499.522 486.932C499.78 486.932 499.992 486.919 500.158 486.892C500.324 486.859 500.456 486.832 500.556 486.812L501.033 488.92C500.874 488.98 500.652 489.04 500.367 489.099C500.082 489.166 499.721 489.199 499.283 489.199C498.62 489.199 497.971 489.056 497.334 488.771C496.704 488.486 496.181 488.052 495.763 487.469C495.352 486.885 495.147 486.15 495.147 485.261V470.068ZM504.284 489V473.727H506.551V476.034H506.711C506.989 475.278 507.493 474.665 508.222 474.195C508.951 473.724 509.773 473.489 510.688 473.489C510.86 473.489 511.076 473.492 511.334 473.499C511.593 473.505 511.788 473.515 511.921 473.528V475.915C511.841 475.895 511.659 475.865 511.374 475.825C511.096 475.779 510.801 475.756 510.489 475.756C509.747 475.756 509.084 475.911 508.5 476.223C507.924 476.528 507.466 476.952 507.128 477.496C506.797 478.033 506.631 478.646 506.631 479.335V489H504.284ZM519.197 489.358C518.229 489.358 517.351 489.176 516.562 488.811C515.773 488.44 515.147 487.906 514.683 487.21C514.219 486.508 513.987 485.659 513.987 484.665C513.987 483.79 514.159 483.08 514.504 482.537C514.848 481.987 515.309 481.556 515.886 481.244C516.462 480.933 517.099 480.701 517.795 480.548C518.497 480.389 519.203 480.263 519.913 480.17C520.841 480.051 521.593 479.962 522.17 479.902C522.753 479.836 523.177 479.726 523.442 479.574C523.714 479.421 523.85 479.156 523.85 478.778V478.699C523.85 477.718 523.582 476.955 523.045 476.412C522.514 475.868 521.709 475.597 520.629 475.597C519.508 475.597 518.63 475.842 517.994 476.332C517.357 476.823 516.91 477.347 516.651 477.903L514.424 477.108C514.822 476.18 515.352 475.457 516.015 474.94C516.684 474.417 517.414 474.052 518.202 473.847C518.998 473.634 519.78 473.528 520.549 473.528C521.04 473.528 521.603 473.588 522.239 473.707C522.882 473.82 523.502 474.055 524.099 474.413C524.702 474.771 525.202 475.312 525.6 476.034C525.998 476.757 526.197 477.724 526.197 478.938V489H523.85V486.932H523.731C523.572 487.263 523.307 487.618 522.935 487.996C522.564 488.374 522.07 488.695 521.454 488.96C520.837 489.225 520.085 489.358 519.197 489.358ZM519.555 487.25C520.483 487.25 521.265 487.068 521.901 486.703C522.544 486.339 523.028 485.868 523.353 485.291C523.684 484.714 523.85 484.108 523.85 483.472V481.324C523.751 481.443 523.532 481.553 523.194 481.652C522.862 481.745 522.478 481.828 522.04 481.901C521.61 481.967 521.189 482.027 520.778 482.08C520.373 482.126 520.045 482.166 519.793 482.199C519.183 482.278 518.613 482.408 518.083 482.587C517.559 482.759 517.135 483.021 516.81 483.372C516.492 483.717 516.333 484.187 516.333 484.784C516.333 485.599 516.635 486.216 517.238 486.634C517.848 487.045 518.62 487.25 519.555 487.25ZM532.826 468.636V489H530.48V468.636H532.826ZM537.124 489V473.727H539.471V489H537.124ZM538.317 471.182C537.86 471.182 537.466 471.026 537.134 470.714C536.809 470.403 536.647 470.028 536.647 469.591C536.647 469.153 536.809 468.779 537.134 468.467C537.466 468.156 537.86 468 538.317 468C538.775 468 539.166 468.156 539.491 468.467C539.822 468.779 539.988 469.153 539.988 469.591C539.988 470.028 539.822 470.403 539.491 470.714C539.166 471.026 538.775 471.182 538.317 471.182ZM554.587 477.148L552.479 477.744C552.346 477.393 552.151 477.052 551.892 476.72C551.641 476.382 551.296 476.104 550.858 475.885C550.421 475.666 549.861 475.557 549.178 475.557C548.243 475.557 547.464 475.772 546.841 476.203C546.225 476.627 545.917 477.168 545.917 477.824C545.917 478.407 546.129 478.868 546.553 479.206C546.977 479.544 547.64 479.826 548.542 480.051L550.809 480.608C552.174 480.939 553.192 481.446 553.861 482.129C554.531 482.805 554.865 483.677 554.865 484.744C554.865 485.619 554.614 486.402 554.11 487.091C553.613 487.78 552.917 488.324 552.022 488.722C551.127 489.119 550.086 489.318 548.9 489.318C547.342 489.318 546.052 488.98 545.032 488.304C544.011 487.628 543.364 486.64 543.093 485.341L545.32 484.784C545.532 485.606 545.933 486.223 546.523 486.634C547.12 487.045 547.899 487.25 548.86 487.25C549.953 487.25 550.822 487.018 551.465 486.554C552.114 486.083 552.439 485.52 552.439 484.864C552.439 484.333 552.254 483.889 551.882 483.531C551.511 483.167 550.941 482.895 550.172 482.716L547.627 482.119C546.228 481.788 545.201 481.274 544.544 480.578C543.895 479.875 543.57 478.997 543.57 477.943C543.57 477.081 543.812 476.319 544.296 475.656C544.786 474.993 545.453 474.473 546.294 474.095C547.143 473.717 548.104 473.528 549.178 473.528C550.689 473.528 551.876 473.86 552.738 474.523C553.606 475.186 554.222 476.061 554.587 477.148ZM564.801 489.318C563.33 489.318 562.06 488.993 560.993 488.344C559.932 487.688 559.114 486.773 558.537 485.599C557.967 484.42 557.682 483.047 557.682 481.483C557.682 479.919 557.967 478.54 558.537 477.347C559.114 476.147 559.916 475.212 560.943 474.543C561.977 473.866 563.184 473.528 564.562 473.528C565.358 473.528 566.143 473.661 566.919 473.926C567.695 474.191 568.401 474.622 569.037 475.219C569.673 475.809 570.18 476.591 570.558 477.565C570.936 478.54 571.125 479.74 571.125 481.165V482.159H559.352V480.131H568.739C568.739 479.269 568.566 478.5 568.222 477.824C567.884 477.148 567.4 476.614 566.77 476.223C566.147 475.832 565.411 475.636 564.562 475.636C563.628 475.636 562.819 475.868 562.136 476.332C561.46 476.79 560.94 477.386 560.575 478.122C560.211 478.858 560.028 479.647 560.028 480.489V481.841C560.028 482.994 560.227 483.972 560.625 484.774C561.029 485.57 561.589 486.176 562.305 486.594C563.021 487.005 563.853 487.21 564.801 487.21C565.418 487.21 565.974 487.124 566.472 486.952C566.975 486.773 567.41 486.508 567.774 486.156C568.139 485.798 568.42 485.354 568.619 484.824L570.886 485.46C570.648 486.229 570.247 486.905 569.683 487.489C569.12 488.065 568.424 488.516 567.595 488.841C566.767 489.159 565.835 489.318 564.801 489.318ZM580.462 489.318C579.189 489.318 578.065 488.997 577.091 488.354C576.116 487.704 575.354 486.789 574.804 485.609C574.254 484.423 573.979 483.021 573.979 481.403C573.979 479.799 574.254 478.407 574.804 477.227C575.354 476.047 576.12 475.136 577.101 474.493C578.082 473.85 579.215 473.528 580.501 473.528C581.496 473.528 582.281 473.694 582.858 474.026C583.441 474.35 583.885 474.722 584.19 475.139C584.502 475.55 584.744 475.888 584.916 476.153H585.115V468.636H587.462V489H585.195V486.653H584.916C584.744 486.932 584.499 487.283 584.18 487.707C583.862 488.125 583.408 488.5 582.818 488.831C582.228 489.156 581.443 489.318 580.462 489.318ZM580.78 487.21C581.721 487.21 582.517 486.965 583.166 486.474C583.816 485.977 584.31 485.291 584.648 484.416C584.986 483.535 585.155 482.517 585.155 481.364C585.155 480.223 584.989 479.226 584.658 478.371C584.326 477.509 583.836 476.839 583.186 476.362C582.536 475.878 581.734 475.636 580.78 475.636C579.786 475.636 578.957 475.892 578.294 476.402C577.638 476.906 577.144 477.592 576.812 478.46C576.488 479.322 576.325 480.29 576.325 481.364C576.325 482.451 576.491 483.438 576.822 484.327C577.161 485.208 577.658 485.911 578.314 486.435C578.977 486.952 579.799 487.21 580.78 487.21ZM606.562 489H600.278V468.636H606.841C608.816 468.636 610.507 469.044 611.912 469.859C613.317 470.668 614.394 471.831 615.143 473.349C615.893 474.861 616.267 476.67 616.267 478.778C616.267 480.9 615.889 482.726 615.134 484.257C614.378 485.782 613.277 486.955 611.832 487.777C610.387 488.592 608.631 489 606.562 489ZM602.744 486.812H606.403C608.087 486.812 609.482 486.488 610.589 485.838C611.696 485.188 612.522 484.264 613.065 483.064C613.609 481.864 613.881 480.436 613.881 478.778C613.881 477.134 613.612 475.719 613.075 474.533C612.538 473.339 611.736 472.425 610.669 471.788C609.602 471.145 608.273 470.824 606.682 470.824H602.744V486.812ZM626.489 489.318C625.017 489.318 623.748 488.993 622.68 488.344C621.62 487.688 620.801 486.773 620.224 485.599C619.654 484.42 619.369 483.047 619.369 481.483C619.369 479.919 619.654 478.54 620.224 477.347C620.801 476.147 621.603 475.212 622.631 474.543C623.665 473.866 624.871 473.528 626.25 473.528C627.045 473.528 627.831 473.661 628.607 473.926C629.382 474.191 630.088 474.622 630.724 475.219C631.361 475.809 631.868 476.591 632.246 477.565C632.624 478.54 632.812 479.74 632.812 481.165V482.159H621.04V480.131H630.426C630.426 479.269 630.254 478.5 629.909 477.824C629.571 477.148 629.087 476.614 628.457 476.223C627.834 475.832 627.098 475.636 626.25 475.636C625.315 475.636 624.507 475.868 623.824 476.332C623.148 476.79 622.627 477.386 622.263 478.122C621.898 478.858 621.716 479.647 621.716 480.489V481.841C621.716 482.994 621.915 483.972 622.312 484.774C622.717 485.57 623.277 486.176 623.993 486.594C624.709 487.005 625.541 487.21 626.489 487.21C627.105 487.21 627.662 487.124 628.159 486.952C628.663 486.773 629.097 486.508 629.462 486.156C629.826 485.798 630.108 485.354 630.307 484.824L632.574 485.46C632.335 486.229 631.934 486.905 631.371 487.489C630.807 488.065 630.111 488.516 629.283 488.841C628.454 489.159 627.523 489.318 626.489 489.318ZM642.587 489.318C641.155 489.318 639.922 488.98 638.888 488.304C637.854 487.628 637.058 486.696 636.501 485.51C635.945 484.323 635.666 482.968 635.666 481.443C635.666 479.892 635.951 478.523 636.521 477.337C637.098 476.143 637.9 475.212 638.928 474.543C639.962 473.866 641.168 473.528 642.547 473.528C643.621 473.528 644.589 473.727 645.45 474.125C646.312 474.523 647.018 475.08 647.568 475.795C648.118 476.511 648.46 477.347 648.592 478.301H646.246C646.067 477.605 645.669 476.989 645.053 476.452C644.443 475.908 643.621 475.636 642.587 475.636C641.672 475.636 640.87 475.875 640.18 476.352C639.498 476.823 638.964 477.489 638.58 478.351C638.202 479.206 638.013 480.21 638.013 481.364C638.013 482.544 638.198 483.571 638.57 484.446C638.947 485.321 639.478 486 640.161 486.484C640.85 486.968 641.659 487.21 642.587 487.21C643.196 487.21 643.75 487.104 644.247 486.892C644.744 486.68 645.165 486.375 645.51 485.977C645.855 485.58 646.1 485.102 646.246 484.545H648.592C648.46 485.447 648.132 486.259 647.608 486.982C647.091 487.697 646.405 488.268 645.55 488.692C644.701 489.109 643.714 489.318 642.587 489.318ZM652.023 489V473.727H654.369V489H652.023ZM653.216 471.182C652.759 471.182 652.364 471.026 652.033 470.714C651.708 470.403 651.545 470.028 651.545 469.591C651.545 469.153 651.708 468.779 652.033 468.467C652.364 468.156 652.759 468 653.216 468C653.673 468 654.064 468.156 654.389 468.467C654.721 468.779 654.886 469.153 654.886 469.591C654.886 470.028 654.721 470.403 654.389 470.714C654.064 471.026 653.673 471.182 653.216 471.182ZM669.485 477.148L667.377 477.744C667.245 477.393 667.049 477.052 666.791 476.72C666.539 476.382 666.194 476.104 665.757 475.885C665.319 475.666 664.759 475.557 664.076 475.557C663.142 475.557 662.363 475.772 661.74 476.203C661.123 476.627 660.815 477.168 660.815 477.824C660.815 478.407 661.027 478.868 661.451 479.206C661.876 479.544 662.538 479.826 663.44 480.051L665.707 480.608C667.073 480.939 668.09 481.446 668.76 482.129C669.429 482.805 669.764 483.677 669.764 484.744C669.764 485.619 669.512 486.402 669.008 487.091C668.511 487.78 667.815 488.324 666.92 488.722C666.025 489.119 664.984 489.318 663.798 489.318C662.24 489.318 660.951 488.98 659.93 488.304C658.909 487.628 658.263 486.64 657.991 485.341L660.218 484.784C660.431 485.606 660.832 486.223 661.422 486.634C662.018 487.045 662.797 487.25 663.758 487.25C664.852 487.25 665.72 487.018 666.363 486.554C667.013 486.083 667.338 485.52 667.338 484.864C667.338 484.333 667.152 483.889 666.781 483.531C666.41 483.167 665.84 482.895 665.071 482.716L662.525 482.119C661.127 481.788 660.099 481.274 659.443 480.578C658.793 479.875 658.468 478.997 658.468 477.943C658.468 477.081 658.71 476.319 659.194 475.656C659.685 474.993 660.351 474.473 661.193 474.095C662.041 473.717 663.002 473.528 664.076 473.528C665.588 473.528 666.774 473.86 667.636 474.523C668.504 475.186 669.121 476.061 669.485 477.148ZM673.296 489V473.727H675.643V489H673.296ZM674.489 471.182C674.032 471.182 673.638 471.026 673.306 470.714C672.981 470.403 672.819 470.028 672.819 469.591C672.819 469.153 672.981 468.779 673.306 468.467C673.638 468.156 674.032 468 674.489 468C674.947 468 675.338 468.156 675.663 468.467C675.994 468.779 676.16 469.153 676.16 469.591C676.16 470.028 675.994 470.403 675.663 470.714C675.338 471.026 674.947 471.182 674.489 471.182ZM686.145 489.318C684.766 489.318 683.557 488.99 682.516 488.334C681.482 487.678 680.673 486.759 680.09 485.58C679.513 484.4 679.225 483.021 679.225 481.443C679.225 479.852 679.513 478.464 680.09 477.277C680.673 476.09 681.482 475.169 682.516 474.513C683.557 473.857 684.766 473.528 686.145 473.528C687.524 473.528 688.73 473.857 689.765 474.513C690.805 475.169 691.614 476.09 692.191 477.277C692.774 478.464 693.066 479.852 693.066 481.443C693.066 483.021 692.774 484.4 692.191 485.58C691.614 486.759 690.805 487.678 689.765 488.334C688.73 488.99 687.524 489.318 686.145 489.318ZM686.145 487.21C687.193 487.21 688.054 486.942 688.73 486.405C689.407 485.868 689.907 485.162 690.232 484.287C690.557 483.412 690.719 482.464 690.719 481.443C690.719 480.422 690.557 479.471 690.232 478.589C689.907 477.708 689.407 476.995 688.73 476.452C688.054 475.908 687.193 475.636 686.145 475.636C685.098 475.636 684.236 475.908 683.56 476.452C682.884 476.995 682.383 477.708 682.059 478.589C681.734 479.471 681.571 480.422 681.571 481.443C681.571 482.464 681.734 483.412 682.059 484.287C682.383 485.162 682.884 485.868 683.56 486.405C684.236 486.942 685.098 487.21 686.145 487.21ZM698.994 479.812V489H696.648V473.727H698.915V476.114H699.114C699.472 475.338 700.015 474.715 700.744 474.244C701.473 473.767 702.415 473.528 703.568 473.528C704.602 473.528 705.507 473.741 706.283 474.165C707.058 474.582 707.661 475.219 708.092 476.074C708.523 476.922 708.739 477.996 708.739 479.295V489H706.392V479.455C706.392 478.255 706.08 477.32 705.457 476.651C704.834 475.974 703.979 475.636 702.892 475.636C702.143 475.636 701.473 475.799 700.884 476.124C700.3 476.448 699.839 476.922 699.501 477.545C699.163 478.169 698.994 478.924 698.994 479.812ZM723.845 477.148L721.737 477.744C721.604 477.393 721.409 477.052 721.15 476.72C720.898 476.382 720.554 476.104 720.116 475.885C719.679 475.666 719.118 475.557 718.436 475.557C717.501 475.557 716.722 475.772 716.099 476.203C715.483 476.627 715.174 477.168 715.174 477.824C715.174 478.407 715.386 478.868 715.811 479.206C716.235 479.544 716.898 479.826 717.799 480.051L720.066 480.608C721.432 480.939 722.449 481.446 723.119 482.129C723.788 482.805 724.123 483.677 724.123 484.744C724.123 485.619 723.871 486.402 723.368 487.091C722.87 487.78 722.174 488.324 721.279 488.722C720.385 489.119 719.344 489.318 718.157 489.318C716.6 489.318 715.31 488.98 714.289 488.304C713.269 487.628 712.622 486.64 712.35 485.341L714.578 484.784C714.79 485.606 715.191 486.223 715.781 486.634C716.377 487.045 717.156 487.25 718.118 487.25C719.211 487.25 720.08 487.018 720.723 486.554C721.372 486.083 721.697 485.52 721.697 484.864C721.697 484.333 721.511 483.889 721.14 483.531C720.769 483.167 720.199 482.895 719.43 482.716L716.885 482.119C715.486 481.788 714.458 481.274 713.802 480.578C713.153 479.875 712.828 478.997 712.828 477.943C712.828 477.081 713.07 476.319 713.554 475.656C714.044 474.993 714.71 474.473 715.552 474.095C716.401 473.717 717.362 473.528 718.436 473.528C719.947 473.528 721.134 473.86 721.995 474.523C722.864 475.186 723.48 476.061 723.845 477.148Z" fill="white"/>
<g clip-path="url(#clip1_289_2640)">
<rect x="-108" y="298.563" width="220" height="220" rx="48" transform="rotate(-45 -108 298.563)" fill="white"/>
<g clip-path="url(#clip2_289_2640)">
<path d="M57.3445 245.604L13.0478 245.544C10.67 245.508 8.3092 245.95 6.10533 246.843C3.90146 247.736 1.8994 249.063 0.217841 250.745C-1.46372 252.426 -2.79055 254.429 -3.68399 256.632C-4.57743 258.836 -5.01929 261.197 -4.98338 263.575L-4.99139 307.94L41.5893 292.373L57.3445 245.604ZM74.7827 246.077H83.5579C85.9389 246.029 88.3051 246.463 90.5143 247.352C92.7236 248.241 94.7304 249.567 96.4144 251.251C98.0983 252.935 99.4248 254.942 100.314 257.151C101.203 259.361 101.637 261.727 101.589 264.108L101.938 335.147C101.955 336.842 101.691 338.527 101.156 340.135L57.8895 296.869L74.7827 246.077ZM-4.92729 325.787L-4.92728 334.562C-4.97508 336.943 -4.54134 339.309 -3.6521 341.518C-2.76287 343.727 -1.43646 345.734 0.247507 347.418C1.93148 349.102 3.9383 350.429 6.14755 351.318C8.35679 352.207 10.7229 352.641 13.1039 352.593L84.147 352.938C85.8459 352.954 87.5328 352.693 89.1356 352.156L45.8687 308.889L-4.92729 325.787Z" fill="#02002D"/>
</g>
</g>
<rect x="-106.586" y="298.563" width="218" height="218" rx="47" transform="rotate(-45 -106.586 298.563)" stroke="#BABABF" stroke-width="2"/>
<g clip-path="url(#clip3_289_2640)">
<rect x="230.257" y="-78" width="220" height="220" rx="48" transform="rotate(37.9378 230.257 -78)" fill="white"/>
<g clip-path="url(#clip4_289_2640)">
<path d="M201.57 108.436L229.968 130.572C236.589 135.734 245.457 136.971 253.232 133.817L286.605 120.293C290.427 118.745 293.775 116.217 296.31 112.965C298.846 109.712 300.48 105.849 301.049 101.764L306.023 66.102C306.592 62.0181 306.076 57.8563 304.527 54.0349C302.978 50.2135 300.451 46.8672 297.199 44.3324L268.797 22.1923C265.545 19.657 261.683 18.0223 257.599 17.4527C253.515 16.8832 249.354 17.3987 245.532 18.9475L212.162 32.473C208.339 34.0216 204.992 36.5493 202.456 39.802C199.921 43.0546 198.286 46.9175 197.717 51.0023L192.744 86.6645C192.175 90.7484 192.69 94.9102 194.239 98.7316C195.788 102.553 198.318 105.901 201.57 108.436Z" stroke="#18B662" stroke-width="6" stroke-linecap="round" stroke-linejoin="round"/>
<path d="M228.725 78.0119C234.817 82.7606 243.605 81.6719 248.353 75.5802C253.102 69.4885 252.013 60.7007 245.922 55.952C239.83 51.2033 231.042 52.292 226.293 58.3837C221.545 64.4754 222.633 73.2632 228.725 78.0119Z" stroke="#18B662" stroke-width="6" stroke-linecap="round" stroke-linejoin="round"/>
<path d="M272.44 94.4213L248.322 75.6204M259.213 94.7194L264.357 88.1207" stroke="#18B662" stroke-width="6" stroke-linecap="round" stroke-linejoin="round"/>
</g>
</g>
<rect x="230.431" y="-76.5965" width="218" height="218" rx="47" transform="rotate(37.9378 230.431 -76.5965)" stroke="#BABABF" stroke-width="2"/>
<g clip-path="url(#clip5_289_2640)">
<rect x="857" y="298.563" width="220" height="220" rx="48" transform="rotate(-45 857 298.563)" fill="white"/>
<g clip-path="url(#clip6_289_2640)">
<path d="M972.494 306.577C963.639 297.722 963.639 283.377 972.494 274.522C981.349 265.667 995.694 265.667 1004.55 274.522C1013.4 283.377 1013.4 297.722 1004.55 306.577C995.694 315.433 981.349 315.433 972.494 306.577ZM1037.41 323.406C1033.56 319.56 1031.96 313.95 1032.36 308.741L1031.4 307.779C1029.83 306.217 1028.63 304.454 1027.63 302.57C1022.54 305.736 1017.41 309.743 1012.56 314.591C994.853 332.302 987.68 353.819 996.536 362.674L1004.55 370.688L1044.62 330.619L1037.41 323.406ZM1077.88 283.738L1091.9 297.762C1094.3 300.166 1094.3 304.975 1091.5 307.779L1069.46 329.818C1067.06 332.222 1062.25 332.222 1059.44 329.417L1045.42 315.393C1043.02 312.988 1043.02 308.18 1045.42 305.776L1039.41 299.766C1033.8 294.156 1035 284.138 1040.61 278.529C1046.22 272.919 1056.24 271.717 1061.85 277.327L1067.86 283.337C1070.26 280.933 1075.07 280.933 1077.88 283.738ZM1056.64 282.536C1053.43 279.33 1048.63 280.132 1045.42 283.337C1042.21 286.543 1041.41 291.351 1044.62 294.557L1050.63 300.567L1062.65 288.546L1056.64 282.536Z" fill="#D7263D"/>
</g>
</g>
<rect x="858.414" y="298.563" width="218" height="218" rx="47" transform="rotate(-45 858.414 298.563)" stroke="#BABABF" stroke-width="2"/>
<g clip-path="url(#clip7_289_2640)">
<rect x="791.264" y="-78" width="220" height="220" rx="48" transform="rotate(37.94 791.264 -78)" fill="white"/>
<g clip-path="url(#clip8_289_2640)">
<path d="M798.448 54.6625L792.1 42.5285L798.148 39.9868L804.479 52.1431L798.465 54.6402L798.448 54.6625ZM823.277 62.085C823.997 62.646 825.058 62.4742 825.636 61.7324C826.218 60.986 826.126 59.9154 825.406 59.3545C824.687 58.7935 823.627 58.9732 823.048 59.7151C822.47 60.457 822.558 61.5241 823.282 62.0885M820.372 58.5486C820.535 58.4444 820.678 58.3133 820.797 58.1609C821.379 57.4146 821.291 56.3474 820.571 55.7865C819.879 55.2464 818.796 55.4008 818.214 56.1471C817.632 56.8934 817.75 57.977 818.447 58.5205C818.611 58.6418 818.796 58.7324 818.993 58.7881L819.096 59.9825C818.958 60.0847 818.836 60.2074 818.734 60.3464C818.155 61.0882 818.243 62.1554 818.963 62.7163C819.655 63.2563 820.712 63.0811 821.294 62.3348C821.875 61.5884 821.789 60.5292 821.091 59.9857C820.921 59.8541 820.726 59.7562 820.519 59.6973L820.372 58.5486ZM816.743 58.5499C816.161 59.2963 815.082 59.4541 814.385 58.9106L814.189 58.7573L812.119 59.6152C812.08 59.9459 811.952 60.2596 811.747 60.5221C811.543 60.7846 811.27 60.9857 810.958 61.1034L810.862 62.149C811.106 62.2493 811.323 62.4054 811.496 62.6048C811.668 62.8041 811.792 63.0412 811.857 63.297C811.921 63.5527 811.925 63.8201 811.868 64.0776C811.811 64.3351 811.694 64.5756 811.527 64.7799C810.945 65.5262 809.887 65.6572 809.19 65.1137C809.019 64.9764 808.876 64.8065 808.771 64.6139C808.666 64.4212 808.6 64.2096 808.577 63.9913C808.554 63.773 808.575 63.5523 808.638 63.342C808.7 63.1316 808.805 62.9359 808.944 62.7661C809.094 62.5671 809.261 62.4199 809.446 62.3243L809.558 61.0104L809.406 60.8919C809.235 60.7546 809.092 60.5848 808.987 60.3921C808.882 60.1994 808.816 59.9878 808.793 59.7695C808.77 59.5512 808.791 59.3305 808.854 59.1202C808.917 58.9099 809.021 58.7141 809.16 58.5443C809.738 57.8024 810.794 57.6272 811.518 58.1916L811.639 58.2857L813.79 57.3692C813.835 57.0631 813.963 56.775 814.16 56.5361C814.742 55.7898 815.798 55.6146 816.517 56.1755C817.21 56.7155 817.321 57.8081 816.743 58.5499ZM809.676 55.8357C809.851 55.9684 810.05 56.065 810.263 56.1201C810.475 56.1751 810.697 56.1875 810.914 56.1564C811.131 56.1254 811.34 56.0516 811.529 55.9392C811.718 55.8269 811.882 55.6782 812.013 55.5019C812.595 54.7556 812.507 53.6884 811.787 53.1275C811.068 52.5666 810.029 52.7195 809.43 53.4881C809.294 53.6624 809.207 53.875 809.141 54.0608L806.957 54.7149C806.868 54.5948 806.764 54.4869 806.647 54.394C805.954 53.854 804.919 54.0024 804.32 54.7711C803.738 55.5174 803.826 56.5845 804.518 57.1246C805.265 57.7064 806.302 57.5093 806.88 56.7674C807.041 56.5777 807.158 56.3551 807.224 56.1153L809.317 55.4765C809.411 55.6202 809.526 55.7489 809.659 55.8581L809.676 55.8357ZM816.637 63.4969C816.055 64.2433 814.999 64.4185 814.279 63.8576C813.586 63.3175 813.475 62.225 814.054 61.4831C814.636 60.7368 815.719 60.5825 816.416 61.126C817.131 61.6835 817.236 62.7283 816.637 63.4969ZM804.774 78.1972C805.04 77.8733 805.177 77.4625 805.159 77.0437C805.141 76.6249 804.968 76.2277 804.675 75.9282C804.345 74.8664 804.402 73.7221 804.836 72.6984C805.053 72.5615 805.236 72.3774 805.371 72.1598C805.827 71.756 806.361 71.4506 806.94 71.2628C807.519 71.0751 808.131 71.009 808.736 71.0687C809.433 71.4104 810.256 71.1753 810.778 70.5049C811.357 69.7631 811.274 68.7357 810.581 68.1957C810.406 68.0584 810.206 67.9576 809.992 67.8989C809.777 67.8403 809.554 67.8251 809.333 67.8543C809.113 67.8834 808.901 67.9563 808.709 68.0687C808.518 68.1811 808.35 68.3306 808.217 68.5086L808.049 68.7797C806.834 69.8226 805.755 69.9804 805.026 69.8931C804.328 69.3496 803.299 69.5457 802.717 70.292C802.215 70.9356 802.215 71.8118 802.664 72.4062C803 73.2649 803.286 74.6871 802.707 75.7883C802.519 75.8946 802.353 76.0358 802.218 76.2043C801.636 76.9506 801.745 77.9909 802.469 78.5554C802.644 78.6871 802.843 78.783 803.055 78.8373C803.267 78.8917 803.488 78.9036 803.705 78.8722C803.922 78.8409 804.13 78.7669 804.318 78.6547C804.506 78.5424 804.67 78.394 804.801 78.2181L804.774 78.1972ZM796.434 65.3934C795.855 66.1353 794.803 66.314 794.084 65.7531C793.387 65.2096 793.299 64.1424 793.877 63.4005C794.459 62.6542 795.515 62.479 796.213 63.0225C796.928 63.5799 797.015 64.6471 796.434 65.3934ZM795.109 70.8992C795.419 70.7827 795.688 70.5781 795.884 70.3106C796.466 69.5643 796.335 68.5065 795.637 67.963C795.46 67.8303 795.258 67.7341 795.043 67.6801C794.828 67.6262 794.605 67.6154 794.386 67.6486C794.167 67.6817 793.957 67.7581 793.767 67.8732C793.578 67.9883 793.413 68.1399 793.283 68.3192C792.701 69.0655 792.81 70.1058 793.534 70.6703L793.682 70.7852L793.303 73.9249C793.044 74.0449 792.82 74.2283 792.651 74.4579C792.072 75.1998 792.16 76.2669 792.853 76.8069C793.577 77.3714 794.612 77.2229 795.211 76.4543C795.793 75.7079 795.685 74.6676 794.961 74.1032C794.891 74.039 794.816 73.9807 794.737 73.929L795.109 70.8992ZM791.271 72.5414C790.689 73.2877 789.632 73.463 788.913 72.902C788.571 72.615 788.356 72.2052 788.314 71.761C788.272 71.3168 788.406 70.8738 788.688 70.5276C789.266 69.7857 790.349 69.6314 791.046 70.1749C791.761 70.7324 791.849 71.7995 791.271 72.5414ZM790.206 68.1189C790.903 68.6624 791.96 68.4871 792.541 67.7408C793.123 66.9945 793.032 65.9318 792.335 65.3883C792.157 65.2555 791.955 65.1594 791.741 65.1054C791.526 65.0514 791.302 65.0407 791.083 65.0738C790.864 65.107 790.654 65.1833 790.465 65.2985C790.275 65.4136 790.111 65.5652 789.981 65.7444C789.399 66.4908 789.507 67.5311 790.231 68.0955L790.206 68.1189ZM802.225 58.4907C802.026 58.7225 801.783 58.9119 801.51 59.0475L801.42 61.0613L801.715 61.2912L803.637 60.6697C803.692 60.3798 803.821 60.1091 804.012 59.8843C804.594 59.138 805.65 58.9628 806.343 59.5028C807.067 60.0672 807.155 61.1344 806.573 61.8807C805.991 62.627 804.938 62.7978 804.214 62.2334L803.991 62.0592L802.029 62.6857C801.976 62.966 801.853 63.2284 801.672 63.4486C801.093 64.1905 800.037 64.3657 799.318 63.8048C798.625 63.2648 798.537 62.1976 799.115 61.4558C799.37 61.1295 799.702 60.9067 800.028 60.8017L800.084 58.9778L799.92 58.8852L798.127 59.8016C798.151 60.0268 798.13 60.2545 798.064 60.4712C797.999 60.688 797.891 60.8896 797.747 61.0641C797.165 61.8104 796.108 61.9856 795.411 61.4421C794.696 60.8847 794.608 59.8096 795.186 59.0677C795.747 58.3482 796.693 58.1664 797.419 58.6175L799.276 57.6648C799.254 57.2381 799.383 56.8175 799.641 56.4769C800.223 55.7306 801.306 55.5763 802.004 56.1198C802.719 56.6772 802.806 57.7444 802.225 58.4907ZM803.514 67.0764C804.233 67.6373 805.29 67.4621 805.886 66.6978C806.471 65.947 806.359 64.9112 805.639 64.3502C805.284 64.0882 804.84 63.9763 804.403 64.0388C803.965 64.1012 803.57 64.333 803.302 64.6841C802.724 65.4259 802.839 66.514 803.536 67.0575L803.514 67.0764ZM796.942 80.3179C797.688 80.8998 798.704 80.7294 799.304 79.9608C799.584 79.6137 799.717 79.1703 799.673 78.7263C799.629 78.2822 799.413 77.8732 799.07 77.5873C798.378 77.0473 797.321 77.2225 796.743 77.9644C796.161 78.7107 796.249 79.7779 796.942 80.3179ZM799.34 85.5362C798.758 86.2825 797.706 86.4612 796.982 85.8968C796.841 85.7824 796.719 85.6462 796.622 85.4933L795.273 86.0439C795.211 86.2269 795.119 86.3981 795 86.5501C794.422 87.2919 793.365 87.4672 792.646 86.9062C791.953 86.3662 791.845 85.3259 792.444 84.5572L792.639 84.3069L792.519 82.1011C792.287 82.0237 792.075 81.8972 791.896 81.7301L791.179 82.1339C791.185 82.5447 791.042 82.9439 790.777 83.2576C790.199 83.9995 789.147 84.1782 788.449 83.6347C788.277 83.4951 788.135 83.3226 788.03 83.1274C787.925 82.9322 787.861 82.7181 787.839 82.4976C787.818 82.2771 787.841 82.0545 787.906 81.8429C787.972 81.6312 788.078 81.4347 788.221 81.2647C788.802 80.5184 789.815 80.3526 790.529 80.8658L791.412 80.3971C791.438 80.0616 791.562 79.7412 791.77 79.4766C792.349 78.7347 793.432 78.5804 794.129 79.1239C794.844 79.6814 794.953 80.7217 794.353 81.4904L793.929 81.8781L794.044 83.8866C794.259 83.9199 794.465 83.997 794.649 84.1131C794.833 84.2292 794.991 84.3819 795.113 84.5617L796.485 84.0285C796.548 83.8465 796.641 83.6765 796.761 83.5258C797.34 82.784 798.418 82.6262 799.111 83.1662C799.835 83.7306 799.923 84.7978 799.341 85.5441M810.151 76.6551C809.573 77.397 808.516 77.5722 807.819 77.0287C807.1 76.4678 807.012 75.4006 807.594 74.6543C808.176 73.9079 809.141 73.748 809.85 74.2215C810.53 74.2704 811.577 74.0519 812.871 73.0559C812.983 72.6397 813.24 72.2772 813.596 72.0334C814.124 71.0785 814.281 69.9618 814.035 68.8984C813.718 68.6093 813.522 68.211 813.486 67.7833C813.45 67.3556 813.578 66.9303 813.843 66.5926C814.421 65.8507 815.5 65.6929 816.219 66.2538C816.912 66.7939 817.021 67.8342 816.421 68.6029C816.249 68.8233 816.047 69.0005 815.813 69.1345C815.578 69.9428 815.22 71.4245 815.502 72.0396C816.244 72.6179 816.353 73.6583 815.771 74.4046C815.575 74.6622 815.311 74.8605 815.009 74.9777C814.708 75.0949 814.379 75.1263 814.061 75.0687L814.115 75.1467C813.414 75.088 812.709 75.1782 812.045 75.4114C811.382 75.6446 810.775 76.0154 810.265 76.4997L810.151 76.6551ZM807.606 82.5745C807.78 82.708 807.98 82.8054 808.193 82.8612C808.406 82.9169 808.627 82.9297 808.845 82.899C809.063 82.8683 809.273 82.7945 809.462 82.6821C809.651 82.5697 809.816 82.4208 809.947 82.2441C810.529 81.4978 810.436 80.4272 809.717 79.8662C809.356 79.6055 808.907 79.4967 808.467 79.5633C808.027 79.6299 807.63 79.8666 807.363 80.2224C807.203 80.4333 807.096 80.6565 807.042 80.892L804.695 81.6994L804.521 81.5636C804.346 81.4309 804.146 81.3343 803.934 81.2792C803.721 81.2242 803.5 81.2118 803.283 81.2429C803.065 81.2739 802.856 81.3477 802.668 81.4601C802.479 81.5724 802.315 81.7211 802.184 81.8974C801.606 82.6392 801.693 83.7064 802.417 84.2708C802.778 84.5298 803.226 84.6372 803.666 84.5699C804.105 84.5027 804.5 84.2663 804.767 83.9112C804.959 83.655 805.084 83.355 805.131 83.0383L807.308 82.2923L807.606 82.5745ZM804.159 89.2999C803.577 90.0463 802.521 90.2215 801.801 89.6606C801.081 89.0996 800.973 88.0593 801.576 87.2861C802.154 86.5443 803.21 86.369 803.934 86.9335C804.649 87.4909 804.737 88.5581 804.155 89.3044M801.773 94.5172C802.488 95.0747 803.523 94.9262 804.126 94.1531C804.704 93.4112 804.621 92.3476 803.901 91.7866C803.204 91.2431 802.148 91.4184 801.57 92.1602C800.988 92.9065 801.075 93.9737 801.773 94.5172ZM815.38 80.1783C814.802 80.9202 813.75 81.0989 813.03 80.538C812.333 79.9944 812.245 78.9273 812.824 78.1854C813.405 77.4391 814.462 77.2639 815.181 77.8248C815.878 78.3683 815.962 79.432 815.38 80.1783ZM812.313 86.3237C812.674 86.5827 813.122 86.6901 813.562 86.6228C814.001 86.5556 814.396 86.3192 814.663 85.9641C815.245 85.2177 815.135 84.1332 814.438 83.5896C813.723 83.0322 812.658 83.2084 812.08 83.9503C811.927 84.1469 811.819 84.3863 811.758 84.5756L809.677 85.3461L809.628 85.3078C809.453 85.1751 809.253 85.0785 809.041 85.0235C808.828 84.9684 808.607 84.956 808.39 84.9871C808.172 85.0181 807.963 85.092 807.775 85.2043C807.586 85.3167 807.422 85.4653 807.291 85.6416C806.709 86.3879 806.797 87.4551 807.516 88.016C807.878 88.2774 808.328 88.386 808.769 88.3185C809.21 88.2511 809.607 88.0129 809.874 87.6554C810.106 87.3615 810.234 86.9993 810.239 86.625L812.003 86.0028C812.063 86.1286 812.188 86.2262 812.309 86.3202M809.143 93.0351C808.929 93.2985 808.641 93.4917 808.316 93.5898L808.203 94.7019L808.328 94.7995C809.048 95.3604 809.156 96.4008 808.575 97.1471C807.993 97.8934 806.94 98.0642 806.216 97.4998C805.501 96.9423 805.392 95.902 805.991 95.1333C806.204 94.8607 806.518 94.6603 806.824 94.5821L806.932 93.4665L806.807 93.3689C806.635 93.2316 806.493 93.0617 806.388 92.8691C806.282 92.6764 806.216 92.4648 806.194 92.2465C806.171 92.0282 806.191 91.8075 806.254 91.5972C806.317 91.3869 806.421 91.1911 806.56 91.0213C807.139 90.2794 808.195 90.1042 808.919 90.6686C809.612 91.2086 809.743 92.2664 809.143 93.0351ZM812.204 91.6708C812.951 92.2527 813.959 92.0833 814.562 91.3102C815.14 90.5683 815.053 89.5012 814.356 88.9576C813.64 88.4002 812.584 88.5754 812.002 89.3218C811.42 90.0681 811.507 91.1273 812.227 91.6882L812.204 91.6708ZM813.558 96.0817C812.98 96.8236 811.897 96.9779 811.2 96.4344C810.484 95.877 810.397 94.8098 810.975 94.0679C811.557 93.3216 812.613 93.1464 813.333 93.7073C814.025 94.2473 814.134 95.2877 813.531 96.0608L813.558 96.0817ZM821.751 87.4159C822.466 87.9733 823.527 87.8016 824.105 87.0597C824.387 86.7128 824.522 86.2687 824.478 85.8236C824.435 85.3785 824.219 84.9683 823.875 84.6818C823.16 84.1244 822.125 84.2728 821.522 85.0459C820.944 85.7878 821.032 86.855 821.751 87.4159ZM818.512 89.525C818.936 89.4498 819.315 89.2166 819.574 88.8726C819.714 88.702 819.82 88.5053 819.885 88.2939C819.949 88.0824 819.972 87.8603 819.95 87.6402C819.929 87.4201 819.865 87.2064 819.761 87.0112C819.657 86.816 819.515 86.6432 819.345 86.5027C818.652 85.9626 817.569 86.117 816.991 86.8588C816.409 87.6052 816.495 88.6281 817.167 89.1949L816.944 91.1767C816.731 91.2856 816.544 91.4381 816.394 91.6244C815.815 92.3662 815.9 93.4379 816.619 93.9988C817.339 94.5597 818.378 94.4068 818.977 93.6382C819.185 93.3736 819.309 93.0532 819.335 92.7176L821.03 91.9263C821.647 92.4071 822.507 92.2804 823.012 91.6324C823.514 90.9888 823.405 90.106 822.833 89.6601C822.532 89.4367 822.154 89.3417 821.783 89.396C821.412 89.4503 821.078 89.6493 820.854 89.9496C820.697 90.1507 820.585 90.3866 820.546 90.5933L818.851 91.3846C818.71 91.2424 818.546 91.1261 818.364 91.0411L818.53 89.5389L818.512 89.525ZM799.536 69.0549C799.86 68.9591 800.149 68.7688 800.364 68.5081C800.964 67.7394 800.85 66.6593 800.153 66.1158C799.407 65.534 798.38 65.7256 797.799 66.472C797.217 67.2183 797.308 68.281 798.028 68.8419L798.126 68.9186L797.875 71.9132C797.651 72.0258 797.454 72.1867 797.299 72.3842C796.718 73.1305 796.853 74.1918 797.55 74.7353C797.725 74.8671 797.925 74.9629 798.137 75.0173C798.349 75.0717 798.57 75.0835 798.787 75.0522C799.003 75.0208 799.212 74.9469 799.4 74.8346C799.588 74.7223 799.752 74.574 799.883 74.398C800.461 73.6561 800.373 72.589 799.654 72.0281C799.55 71.9385 799.436 71.8618 799.314 71.7995L799.536 69.0549ZM799.03 91.962L798.872 90.8833C799.059 90.7756 799.223 90.6332 799.357 90.4639C799.956 89.6953 799.873 88.6316 799.176 88.0881C798.456 87.5271 797.4 87.7024 796.821 88.4442C796.24 89.1906 796.327 90.2577 797.047 90.8187C797.172 90.9162 797.293 91.0103 797.456 91.0587L797.613 92.0931C797.404 92.2105 797.223 92.3705 797.081 92.5627C796.503 93.3045 796.591 94.3717 797.315 94.9361C798.007 95.4761 799.086 95.3183 799.664 94.5765C800.246 93.8301 800.136 92.7455 799.439 92.202C799.314 92.1033 799.177 92.0225 799.03 91.962ZM795.446 91.2875C795.177 91.644 794.78 91.8808 794.338 91.9468C793.897 92.0128 793.448 91.9027 793.087 91.6402C792.372 91.0827 792.284 90.0156 792.862 89.2737C793.444 88.5274 794.501 88.3521 795.22 88.9131C795.94 89.474 796.024 90.5456 795.446 91.2875ZM790.908 77.7987C790.326 78.5451 789.275 78.7238 788.551 78.1594C787.836 77.6019 787.748 76.5348 788.33 75.7884C788.912 75.0421 789.96 74.8678 790.679 75.4288C791.403 75.9932 791.491 77.0604 790.913 77.8022M820.113 78.1345C819.992 78.2992 819.843 78.4408 819.672 78.5525L819.434 81.162L819.729 81.3919C820.449 81.9529 820.562 82.9967 819.98 83.743C819.398 84.4894 818.341 84.6567 817.621 84.0957C816.929 83.5557 816.814 82.4676 817.392 81.7258C817.567 81.5023 817.773 81.3422 818.011 81.2454L818.238 78.5484L818.113 78.4509C817.519 77.9875 817.402 77.1057 817.924 76.4353C818.412 75.8096 819.312 75.678 819.911 76.1448C820.201 76.3823 820.385 76.725 820.423 77.098C820.461 77.4709 820.35 77.8436 820.113 78.1345ZM825.154 82.4239C824.572 83.1702 823.494 83.3281 822.797 82.7845C822.077 82.2236 821.993 81.152 822.571 80.4101C823.153 79.6638 824.206 79.493 824.93 80.0574C825.623 80.5975 825.754 81.6552 825.154 82.4239ZM825.669 76.4371C825.087 77.1835 824.013 77.381 823.293 76.8201C822.601 76.2801 822.486 75.192 823.065 74.4502C823.646 73.7038 824.729 73.5495 825.427 74.093C826.142 74.6505 826.247 75.6953 825.648 76.464L825.669 76.4371ZM825.99 65.9886C825.408 66.7349 824.356 66.9136 823.632 66.3492C822.939 65.8092 822.851 64.742 823.433 63.9957C824.015 63.2494 825.068 63.0786 825.761 63.6186C826.485 64.183 826.572 65.2502 825.994 65.9921M827.764 70.1738C828.483 70.7348 829.547 70.5586 830.126 69.8167C830.708 69.0704 830.615 67.9997 829.896 67.4388C829.203 66.8987 828.12 67.0531 827.538 67.7994C826.956 68.5457 827.074 69.6293 827.771 70.1729M821.569 67.3274C820.987 68.0738 819.931 68.249 819.211 67.6881C818.518 67.148 818.407 66.0555 818.986 65.3137C819.567 64.5673 820.651 64.413 821.348 64.9565C822.063 65.514 822.168 66.5588 821.569 67.3274ZM827.353 74.9123C828.099 75.4941 829.132 75.2935 829.711 74.5516C830.289 73.8098 830.201 72.7426 829.477 72.1782C828.785 71.6382 827.749 71.7866 827.15 72.5553C826.568 73.3016 826.656 74.3688 827.353 74.9123ZM823.913 71.7489C824.24 71.8217 824.581 71.7993 824.896 71.6845C825.211 71.5697 825.486 71.3672 825.69 71.1009C826.272 70.3545 826.189 69.2909 825.491 68.7474C824.772 68.1864 823.733 68.3393 823.134 69.108C823.019 69.2555 822.904 69.4029 822.855 69.5664C822.239 70.0065 821.485 70.2116 820.731 70.1445C820.357 70.0032 819.948 69.9875 819.565 70.0998C819.181 70.2121 818.845 70.4463 818.607 70.7668C817.987 71.5623 818.09 72.7204 818.832 73.2988C819.574 73.8771 820.74 73.7085 821.36 72.913C821.47 72.769 821.557 72.6084 821.616 72.4372C822.256 71.93 823.264 71.7606 823.913 71.7489ZM829.384 80.2891C829.098 80.6596 828.68 80.9053 828.217 80.9747L827.837 82.2734C828.175 82.5687 828.386 82.9834 828.426 83.4308C828.465 83.8781 828.331 84.3235 828.049 84.6736C827.467 85.42 826.384 85.5743 825.687 85.0308C824.972 84.4733 824.888 83.4017 825.466 82.6598C825.738 82.3113 826.089 82.1104 826.458 81.996L826.899 80.508C826.618 80.2103 826.453 79.8207 826.435 79.411C826.418 79.0014 826.549 78.5993 826.805 78.2788C827.387 77.5325 828.443 77.3572 829.163 77.9182C829.882 78.4791 829.991 79.5195 829.392 80.2881M834.571 44.9439C835.45 45.6224 836.454 46.121 837.526 46.411C838.597 46.701 839.716 46.7768 840.817 46.6341C841.918 46.4914 842.98 46.1329 843.942 45.5792C844.905 45.0255 845.748 44.2874 846.425 43.4072C849.327 39.6845 848.67 34.3798 845.023 31.5368C844.145 30.8583 843.141 30.3597 842.069 30.0697C840.997 29.7797 839.879 29.7038 838.778 29.8466C837.677 29.9893 836.615 30.3478 835.652 30.9015C834.69 31.4552 833.846 32.1933 833.17 33.0735C830.268 36.7962 830.92 42.0974 834.571 44.9439ZM852.122 90.6799C853.793 92.1558 855.981 92.9075 858.206 92.7698C860.431 92.632 862.51 91.616 863.986 89.9453C865.462 88.2746 866.214 86.0861 866.076 83.8611C865.938 81.6361 864.922 79.557 863.252 78.0811C861.581 76.6052 859.393 75.8535 857.168 75.9912C854.943 76.129 852.863 77.1449 851.388 78.8156C849.912 80.4863 849.16 82.6749 849.298 84.8999C849.435 87.1248 850.451 89.204 852.122 90.6799ZM836.359 124.577C835.723 125.392 834.933 126.074 834.034 126.584C833.135 127.094 832.144 127.422 831.118 127.549C830.093 127.676 829.052 127.6 828.056 127.325C827.059 127.05 826.127 126.581 825.312 125.945C824.496 125.31 823.814 124.52 823.305 123.621C822.795 122.722 822.467 121.731 822.34 120.705C822.213 119.679 822.289 118.639 822.564 117.642C822.839 116.646 823.308 115.714 823.944 114.898C825.227 113.252 827.112 112.183 829.184 111.927C831.255 111.67 833.344 112.247 834.99 113.53C836.637 114.814 837.706 116.699 837.962 118.77C838.219 120.842 837.642 122.931 836.359 124.577ZM785.795 39.2516C789.446 42.0981 794.724 41.4202 797.627 37.6975C800.529 33.9748 799.872 28.67 796.252 25.8479C795.373 25.1685 794.369 24.6692 793.297 24.3785C792.225 24.0878 791.106 24.0115 790.005 24.1539C788.903 24.2963 787.84 24.6547 786.878 25.2085C785.915 25.7623 785.071 26.5006 784.394 27.3811C781.491 31.1039 782.148 36.4086 785.795 39.2516ZM787.2 119.384C784.298 123.107 778.989 123.761 775.342 120.918C774.468 120.232 773.738 119.381 773.194 118.412C772.65 117.444 772.303 116.377 772.172 115.274C772.042 114.171 772.131 113.053 772.435 111.984C772.738 110.915 773.25 109.917 773.941 109.047C776.843 105.325 782.143 104.664 785.794 107.511C786.667 108.197 787.395 109.049 787.938 110.018C788.48 110.986 788.827 112.052 788.957 113.155C789.087 114.258 788.999 115.375 788.696 116.443C788.394 117.512 787.884 118.51 787.196 119.381M757.918 75.0005C761.569 77.847 766.847 77.1691 769.749 73.4464C772.652 69.7236 771.995 64.4189 768.348 61.5759C767.47 60.9005 766.467 60.405 765.396 60.1177C764.326 59.8304 763.21 59.757 762.112 59.9017C761.013 60.0464 759.954 60.4063 758.994 60.9608C758.035 61.5154 757.195 62.2537 756.521 63.1335C753.619 66.8562 754.276 72.161 757.9 74.9865L757.918 75.0005ZM823.177 54.4262L830.922 44.4915L835.887 48.3623L828.142 58.297L823.177 54.4262ZM831.075 82.8576L847.049 85.2518L847.938 78.9966L831.986 76.6197L831.097 82.875L831.075 82.8576ZM787.101 73.724L772.93 71.7726L773.848 66.5029L787.996 68.429L787.074 73.7031L787.101 73.724ZM792.865 93.3069L785.124 103.237L790.089 107.108L797.83 97.1777L792.865 93.3069ZM821.986 112.129L814.625 98.0128L819.903 95.3444L827.238 109.484L821.986 112.129ZM841.138 48.0228C842.784 47.7543 844.342 47.0931 845.697 46.0733L857.448 74.3182C855.774 74.3032 854.122 74.7006 852.637 75.4752L841.168 48.003L841.138 48.0228ZM851.09 91.9947C851.863 92.5975 852.707 93.0542 853.579 93.4105L837.395 114.169C836.285 112.605 834.741 111.401 832.953 110.706L849.136 89.9474C849.699 90.7094 850.321 91.3955 851.117 92.0156L851.09 91.9947ZM819.811 117.942L790.336 113.243C790.474 114.909 790.235 116.598 789.554 118.144L820.135 122.945C819.587 121.337 819.477 119.608 819.811 117.942ZM774.531 106.483C775.881 105.415 777.461 104.772 779.088 104.481L767.418 77.1469C765.901 77.8982 764.221 78.2603 762.53 78.2004L774.531 106.483ZM769.25 60.483C768.482 59.8838 767.638 59.4271 766.765 59.0628L782.945 38.3085C784.051 39.8753 785.598 41.0808 787.392 41.7752L771.212 62.5294C770.657 61.7465 769.988 61.0509 769.228 60.4656L769.25 60.483ZM800.555 34.8719L830.014 39.2784C829.855 37.6143 830.119 35.9372 830.783 34.4027L800.52 29.8939C800.941 31.5012 800.978 33.2044 800.555 34.8719Z" fill="#B74829"/>
</g>
</g>
<rect x="791.437" y="-76.5965" width="218" height="218" rx="47" transform="rotate(37.94 791.437 -76.5965)" stroke="#BABABF" stroke-width="2"/>
<rect x="421" y="172" width="218" height="218" rx="47" fill="#18B662"/>
<rect x="421" y="172" width="218" height="218" rx="47" stroke="#BABABF" stroke-width="2"/>
<path d="M556.05 292.333L538.341 332.04C534.998 339.542 525.002 339.542 521.659 332.04L479.929 238.483C476.15 230.011 484.542 221.217 492.407 225.416L525.863 243.277C528.464 244.665 531.53 244.665 534.125 243.277L567.581 225.416C575.447 221.222 583.845 230.006 580.059 238.483L568.057 265.417" stroke="#FEFEFF" stroke-width="6" stroke-linecap="round"/>
</g>
</g>
<defs>
<filter id="filter0_i_289_2640" x="0" y="0" width="1059" height="566" filterUnits="userSpaceOnUse" color-interpolation-filters="sRGB">
<feFlood flood-opacity="0" result="BackgroundImageFix"/>
<feBlend mode="normal" in="SourceGraphic" in2="BackgroundImageFix" result="shape"/>
<feColorMatrix in="SourceAlpha" type="matrix" values="0 0 0 0 0 0 0 0 0 0 0 0 0 0 0 0 0 0 127 0" result="hardAlpha"/>
<feMorphology radius="4" operator="dilate" in="SourceAlpha" result="effect1_innerShadow_289_2640"/>
<feOffset dy="4"/>
<feGaussianBlur stdDeviation="6"/>
<feComposite in2="hardAlpha" operator="arithmetic" k2="-1" k3="1"/>
<feColorMatrix type="matrix" values="0 0 0 0 0 0 0 0 0 0 0 0 0 0 0 0 0 0 0.15 0"/>
<feBlend mode="normal" in2="shape" result="effect1_innerShadow_289_2640"/>
</filter>
<linearGradient id="paint0_linear_289_2640" x1="530" y1="446" x2="530" y2="512" gradientUnits="userSpaceOnUse">
<stop offset="0.45" stop-color="#020022"/>
<stop offset="1"/>
</linearGradient>
<clipPath id="clip0_289_2640">
<rect width="1059" height="562" rx="64" fill="white"/>
</clipPath>
<clipPath id="clip1_289_2640">
<rect x="-108" y="298.563" width="220" height="220" rx="48" transform="rotate(-45 -108 298.563)" fill="white"/>
</clipPath>
<clipPath id="clip2_289_2640">
<rect width="136" height="136" fill="white" transform="translate(-48.603 298.563) rotate(-45)"/>
</clipPath>
<clipPath id="clip3_289_2640">
<rect x="230.257" y="-78" width="220" height="220" rx="48" transform="rotate(37.9378 230.257 -78)" fill="white"/>
</clipPath>
<clipPath id="clip4_289_2640">
<rect width="136" height="136" fill="white" transform="translate(237.56 -19.0537) rotate(37.9378)"/>
</clipPath>
<clipPath id="clip5_289_2640">
<rect x="857" y="298.563" width="220" height="220" rx="48" transform="rotate(-45 857 298.563)" fill="white"/>
</clipPath>
<clipPath id="clip6_289_2640">
<rect width="136" height="136" fill="white" transform="translate(916.397 298.563) rotate(-45)"/>
</clipPath>
<clipPath id="clip7_289_2640">
<rect x="791.264" y="-78" width="220" height="220" rx="48" transform="rotate(37.94 791.264 -78)" fill="white"/>
</clipPath>
<clipPath id="clip8_289_2640">
<rect width="136" height="136" fill="white" transform="translate(798.564 -19.0534) rotate(37.94)"/>
</clipPath>
</defs>
</svg>
