<svg width="309" height="231" viewBox="0 0 309 231" fill="none" xmlns="http://www.w3.org/2000/svg">
<g clip-path="url(#clip0_289_2675)">
<rect x="135.264" y="-78" width="220" height="220" rx="48" transform="rotate(37.94 135.264 -78)" fill="white"/>
<g clip-path="url(#clip1_289_2675)">
<path d="M142.448 54.6625L136.1 42.5285L142.148 39.9868L148.479 52.1431L142.465 54.6402L142.448 54.6625ZM167.277 62.085C167.997 62.646 169.058 62.4742 169.636 61.7324C170.218 60.986 170.126 59.9154 169.406 59.3545C168.687 58.7935 167.627 58.9732 167.048 59.7151C166.47 60.457 166.558 61.5241 167.282 62.0885M164.372 58.5486C164.535 58.4444 164.678 58.3133 164.797 58.1609C165.379 57.4146 165.291 56.3474 164.571 55.7865C163.879 55.2464 162.796 55.4008 162.214 56.1471C161.632 56.8934 161.75 57.977 162.447 58.5205C162.611 58.6418 162.796 58.7324 162.993 58.7881L163.096 59.9825C162.958 60.0847 162.836 60.2074 162.734 60.3464C162.155 61.0882 162.243 62.1554 162.963 62.7163C163.655 63.2563 164.712 63.0811 165.294 62.3348C165.875 61.5884 165.789 60.5292 165.091 59.9857C164.921 59.8541 164.726 59.7562 164.519 59.6973L164.372 58.5486ZM160.743 58.5499C160.161 59.2963 159.082 59.4541 158.385 58.9106L158.189 58.7573L156.119 59.6152C156.08 59.9459 155.952 60.2596 155.747 60.5221C155.543 60.7846 155.27 60.9857 154.958 61.1034L154.862 62.149C155.106 62.2493 155.323 62.4054 155.496 62.6048C155.668 62.8041 155.792 63.0412 155.857 63.297C155.921 63.5527 155.925 63.8201 155.868 64.0776C155.811 64.3351 155.694 64.5756 155.527 64.7799C154.945 65.5262 153.887 65.6572 153.19 65.1137C153.019 64.9764 152.876 64.8065 152.771 64.6139C152.666 64.4212 152.6 64.2096 152.577 63.9913C152.554 63.773 152.575 63.5523 152.638 63.342C152.7 63.1316 152.805 62.9359 152.944 62.7661C153.094 62.5671 153.261 62.4199 153.446 62.3243L153.558 61.0104L153.406 60.8919C153.235 60.7546 153.092 60.5848 152.987 60.3921C152.882 60.1994 152.816 59.9878 152.793 59.7695C152.77 59.5512 152.791 59.3305 152.854 59.1202C152.917 58.9099 153.021 58.7141 153.16 58.5443C153.738 57.8024 154.794 57.6272 155.518 58.1916L155.639 58.2857L157.79 57.3692C157.835 57.0631 157.963 56.775 158.16 56.5361C158.742 55.7898 159.798 55.6146 160.517 56.1755C161.21 56.7155 161.321 57.8081 160.743 58.5499ZM153.676 55.8357C153.851 55.9684 154.05 56.065 154.263 56.1201C154.475 56.1751 154.697 56.1875 154.914 56.1564C155.131 56.1254 155.34 56.0516 155.529 55.9392C155.718 55.8269 155.882 55.6782 156.013 55.5019C156.595 54.7556 156.507 53.6884 155.787 53.1275C155.068 52.5666 154.029 52.7195 153.43 53.4881C153.294 53.6624 153.207 53.875 153.141 54.0608L150.957 54.7149C150.868 54.5948 150.764 54.4869 150.647 54.394C149.954 53.854 148.919 54.0024 148.32 54.7711C147.738 55.5174 147.826 56.5845 148.518 57.1246C149.265 57.7064 150.302 57.5093 150.88 56.7674C151.041 56.5777 151.158 56.3551 151.224 56.1153L153.317 55.4765C153.411 55.6202 153.526 55.7489 153.659 55.8581L153.676 55.8357ZM160.637 63.4969C160.055 64.2433 158.999 64.4185 158.279 63.8576C157.586 63.3175 157.475 62.225 158.054 61.4831C158.636 60.7368 159.719 60.5825 160.416 61.126C161.131 61.6835 161.236 62.7283 160.637 63.4969ZM148.774 78.1972C149.04 77.8733 149.177 77.4625 149.159 77.0437C149.141 76.6249 148.968 76.2277 148.675 75.9282C148.345 74.8664 148.402 73.7221 148.836 72.6984C149.053 72.5615 149.236 72.3774 149.371 72.1598C149.827 71.756 150.361 71.4506 150.94 71.2628C151.519 71.0751 152.131 71.009 152.736 71.0687C153.433 71.4104 154.256 71.1753 154.778 70.5049C155.357 69.7631 155.274 68.7357 154.581 68.1957C154.406 68.0584 154.206 67.9576 153.992 67.8989C153.777 67.8403 153.554 67.8251 153.333 67.8543C153.113 67.8834 152.901 67.9563 152.709 68.0687C152.518 68.1811 152.35 68.3306 152.217 68.5086L152.049 68.7797C150.834 69.8226 149.755 69.9804 149.026 69.8931C148.328 69.3496 147.299 69.5457 146.717 70.292C146.215 70.9356 146.215 71.8118 146.664 72.4062C147 73.2649 147.286 74.6871 146.707 75.7883C146.519 75.8946 146.353 76.0358 146.218 76.2043C145.636 76.9506 145.745 77.9909 146.469 78.5554C146.644 78.6871 146.843 78.783 147.055 78.8373C147.267 78.8917 147.488 78.9036 147.705 78.8722C147.922 78.8409 148.13 78.7669 148.318 78.6547C148.506 78.5424 148.67 78.394 148.801 78.2181L148.774 78.1972ZM140.434 65.3934C139.855 66.1353 138.803 66.314 138.084 65.7531C137.387 65.2096 137.299 64.1424 137.877 63.4005C138.459 62.6542 139.515 62.479 140.213 63.0225C140.928 63.5799 141.015 64.6471 140.434 65.3934ZM139.109 70.8992C139.419 70.7827 139.688 70.5781 139.884 70.3106C140.466 69.5643 140.335 68.5065 139.637 67.963C139.46 67.8303 139.258 67.7341 139.043 67.6801C138.828 67.6262 138.605 67.6154 138.386 67.6486C138.167 67.6817 137.957 67.7581 137.767 67.8732C137.578 67.9883 137.413 68.1399 137.283 68.3192C136.701 69.0655 136.81 70.1058 137.534 70.6703L137.682 70.7852L137.303 73.9249C137.044 74.0449 136.82 74.2283 136.651 74.4579C136.072 75.1998 136.16 76.2669 136.853 76.8069C137.577 77.3714 138.612 77.2229 139.211 76.4543C139.793 75.7079 139.685 74.6676 138.961 74.1032C138.891 74.039 138.816 73.9807 138.737 73.929L139.109 70.8992ZM135.271 72.5414C134.689 73.2877 133.632 73.463 132.913 72.902C132.571 72.615 132.356 72.2052 132.314 71.761C132.272 71.3168 132.406 70.8738 132.688 70.5276C133.266 69.7857 134.349 69.6314 135.046 70.1749C135.761 70.7324 135.849 71.7995 135.271 72.5414ZM134.206 68.1189C134.903 68.6624 135.96 68.4871 136.541 67.7408C137.123 66.9945 137.032 65.9318 136.335 65.3883C136.157 65.2555 135.955 65.1594 135.741 65.1054C135.526 65.0514 135.302 65.0407 135.083 65.0738C134.864 65.107 134.654 65.1833 134.465 65.2985C134.275 65.4136 134.111 65.5652 133.981 65.7444C133.399 66.4908 133.507 67.5311 134.231 68.0955L134.206 68.1189ZM146.225 58.4907C146.026 58.7225 145.783 58.9119 145.51 59.0475L145.42 61.0613L145.715 61.2912L147.637 60.6697C147.692 60.3798 147.821 60.1091 148.012 59.8843C148.594 59.138 149.65 58.9628 150.343 59.5028C151.067 60.0672 151.155 61.1344 150.573 61.8807C149.991 62.627 148.938 62.7978 148.214 62.2334L147.991 62.0592L146.029 62.6857C145.976 62.966 145.853 63.2284 145.672 63.4486C145.093 64.1905 144.037 64.3657 143.318 63.8048C142.625 63.2648 142.537 62.1976 143.115 61.4558C143.37 61.1295 143.702 60.9067 144.028 60.8017L144.084 58.9778L143.92 58.8852L142.127 59.8016C142.151 60.0268 142.13 60.2545 142.064 60.4712C141.999 60.688 141.891 60.8896 141.747 61.0641C141.165 61.8104 140.108 61.9856 139.411 61.4421C138.696 60.8847 138.608 59.8096 139.186 59.0677C139.747 58.3482 140.693 58.1664 141.419 58.6175L143.276 57.6648C143.254 57.2381 143.383 56.8175 143.641 56.4769C144.223 55.7306 145.306 55.5763 146.004 56.1198C146.719 56.6772 146.806 57.7444 146.225 58.4907ZM147.514 67.0764C148.233 67.6373 149.29 67.4621 149.886 66.6978C150.471 65.947 150.359 64.9112 149.639 64.3502C149.284 64.0882 148.84 63.9763 148.403 64.0388C147.965 64.1012 147.57 64.333 147.302 64.6841C146.724 65.4259 146.839 66.514 147.536 67.0575L147.514 67.0764ZM140.942 80.3179C141.688 80.8998 142.704 80.7294 143.304 79.9608C143.584 79.6137 143.717 79.1703 143.673 78.7263C143.629 78.2822 143.413 77.8732 143.07 77.5873C142.378 77.0473 141.321 77.2225 140.743 77.9644C140.161 78.7107 140.249 79.7779 140.942 80.3179ZM143.34 85.5362C142.758 86.2825 141.706 86.4612 140.982 85.8968C140.841 85.7824 140.719 85.6462 140.622 85.4933L139.273 86.0439C139.211 86.2269 139.119 86.3981 139 86.5501C138.422 87.2919 137.365 87.4672 136.646 86.9062C135.953 86.3662 135.845 85.3259 136.444 84.5572L136.639 84.3069L136.519 82.1011C136.287 82.0237 136.075 81.8972 135.896 81.7301L135.179 82.1339C135.185 82.5447 135.042 82.9439 134.777 83.2576C134.199 83.9995 133.147 84.1782 132.449 83.6347C132.277 83.4951 132.135 83.3226 132.03 83.1274C131.925 82.9322 131.861 82.7181 131.839 82.4976C131.818 82.2771 131.841 82.0545 131.906 81.8429C131.972 81.6312 132.078 81.4347 132.221 81.2647C132.802 80.5184 133.815 80.3526 134.529 80.8658L135.412 80.3971C135.438 80.0616 135.562 79.7412 135.77 79.4766C136.349 78.7347 137.432 78.5804 138.129 79.1239C138.844 79.6814 138.953 80.7217 138.353 81.4904L137.929 81.8781L138.044 83.8866C138.259 83.9199 138.465 83.997 138.649 84.1131C138.833 84.2292 138.991 84.3819 139.113 84.5617L140.485 84.0285C140.548 83.8465 140.641 83.6765 140.761 83.5258C141.34 82.784 142.418 82.6262 143.111 83.1662C143.835 83.7306 143.923 84.7978 143.341 85.5441M154.151 76.6551C153.573 77.397 152.516 77.5722 151.819 77.0287C151.1 76.4678 151.012 75.4006 151.594 74.6543C152.176 73.9079 153.141 73.748 153.85 74.2215C154.53 74.2704 155.577 74.0519 156.871 73.0559C156.983 72.6397 157.24 72.2772 157.596 72.0334C158.124 71.0785 158.281 69.9618 158.035 68.8984C157.718 68.6093 157.522 68.211 157.486 67.7833C157.45 67.3556 157.578 66.9303 157.843 66.5926C158.421 65.8507 159.5 65.6929 160.219 66.2538C160.912 66.7939 161.021 67.8342 160.421 68.6029C160.249 68.8233 160.047 69.0005 159.813 69.1345C159.578 69.9428 159.22 71.4245 159.502 72.0396C160.244 72.6179 160.353 73.6583 159.771 74.4046C159.575 74.6622 159.311 74.8605 159.009 74.9777C158.708 75.0949 158.379 75.1263 158.061 75.0687L158.115 75.1467C157.414 75.088 156.709 75.1782 156.045 75.4114C155.382 75.6446 154.775 76.0154 154.265 76.4997L154.151 76.6551ZM151.606 82.5745C151.78 82.708 151.98 82.8054 152.193 82.8612C152.406 82.9169 152.627 82.9297 152.845 82.899C153.063 82.8683 153.273 82.7945 153.462 82.6821C153.651 82.5697 153.816 82.4208 153.947 82.2441C154.529 81.4978 154.436 80.4272 153.717 79.8662C153.356 79.6055 152.907 79.4967 152.467 79.5633C152.027 79.6299 151.63 79.8666 151.363 80.2224C151.203 80.4333 151.096 80.6565 151.042 80.892L148.695 81.6994L148.521 81.5636C148.346 81.4309 148.146 81.3343 147.934 81.2792C147.721 81.2242 147.5 81.2118 147.283 81.2429C147.065 81.2739 146.856 81.3477 146.668 81.4601C146.479 81.5724 146.315 81.7211 146.184 81.8974C145.606 82.6392 145.693 83.7064 146.417 84.2708C146.778 84.5298 147.226 84.6372 147.666 84.5699C148.105 84.5027 148.5 84.2663 148.767 83.9112C148.959 83.655 149.084 83.355 149.131 83.0383L151.308 82.2923L151.606 82.5745ZM148.159 89.2999C147.577 90.0463 146.521 90.2215 145.801 89.6606C145.081 89.0996 144.973 88.0593 145.576 87.2861C146.154 86.5443 147.21 86.369 147.934 86.9335C148.649 87.4909 148.737 88.5581 148.155 89.3044M145.773 94.5172C146.488 95.0747 147.523 94.9262 148.126 94.1531C148.704 93.4112 148.621 92.3476 147.901 91.7866C147.204 91.2431 146.148 91.4184 145.57 92.1602C144.988 92.9065 145.075 93.9737 145.773 94.5172ZM159.38 80.1783C158.802 80.9202 157.75 81.0989 157.03 80.538C156.333 79.9944 156.245 78.9273 156.824 78.1854C157.405 77.4391 158.462 77.2639 159.181 77.8248C159.878 78.3683 159.962 79.432 159.38 80.1783ZM156.313 86.3237C156.674 86.5827 157.122 86.6901 157.562 86.6228C158.001 86.5556 158.396 86.3192 158.663 85.9641C159.245 85.2177 159.135 84.1332 158.438 83.5896C157.723 83.0322 156.658 83.2084 156.08 83.9503C155.927 84.1469 155.819 84.3863 155.758 84.5756L153.677 85.3461L153.628 85.3078C153.453 85.1751 153.253 85.0785 153.041 85.0235C152.828 84.9684 152.607 84.956 152.39 84.9871C152.172 85.0181 151.963 85.092 151.775 85.2043C151.586 85.3167 151.422 85.4653 151.291 85.6416C150.709 86.3879 150.797 87.4551 151.516 88.016C151.878 88.2774 152.328 88.386 152.769 88.3185C153.21 88.2511 153.607 88.0129 153.874 87.6554C154.106 87.3615 154.234 86.9993 154.239 86.625L156.003 86.0028C156.063 86.1286 156.188 86.2262 156.309 86.3202M153.143 93.0351C152.929 93.2985 152.641 93.4917 152.316 93.5898L152.203 94.7019L152.328 94.7995C153.048 95.3604 153.156 96.4008 152.575 97.1471C151.993 97.8934 150.94 98.0642 150.216 97.4998C149.501 96.9423 149.392 95.902 149.991 95.1333C150.204 94.8607 150.518 94.6603 150.824 94.5821L150.932 93.4665L150.807 93.3689C150.635 93.2316 150.493 93.0617 150.388 92.8691C150.282 92.6764 150.216 92.4648 150.194 92.2465C150.171 92.0282 150.191 91.8075 150.254 91.5972C150.317 91.3869 150.421 91.1911 150.56 91.0213C151.139 90.2794 152.195 90.1042 152.919 90.6686C153.612 91.2086 153.743 92.2664 153.143 93.0351ZM156.204 91.6708C156.951 92.2527 157.959 92.0833 158.562 91.3102C159.14 90.5683 159.053 89.5012 158.356 88.9576C157.64 88.4002 156.584 88.5754 156.002 89.3218C155.42 90.0681 155.507 91.1273 156.227 91.6882L156.204 91.6708ZM157.558 96.0817C156.98 96.8236 155.897 96.9779 155.2 96.4344C154.484 95.877 154.397 94.8098 154.975 94.0679C155.557 93.3216 156.613 93.1464 157.333 93.7073C158.025 94.2473 158.134 95.2877 157.531 96.0608L157.558 96.0817ZM165.751 87.4159C166.466 87.9733 167.527 87.8016 168.105 87.0597C168.387 86.7128 168.522 86.2687 168.478 85.8236C168.435 85.3785 168.219 84.9683 167.875 84.6818C167.16 84.1244 166.125 84.2728 165.522 85.0459C164.944 85.7878 165.032 86.855 165.751 87.4159ZM162.512 89.525C162.936 89.4498 163.315 89.2166 163.574 88.8726C163.714 88.702 163.82 88.5053 163.885 88.2939C163.949 88.0824 163.972 87.8603 163.95 87.6402C163.929 87.4201 163.865 87.2064 163.761 87.0112C163.657 86.816 163.515 86.6432 163.345 86.5027C162.652 85.9626 161.569 86.117 160.991 86.8588C160.409 87.6052 160.495 88.6281 161.167 89.1949L160.944 91.1767C160.731 91.2856 160.544 91.4381 160.394 91.6244C159.815 92.3662 159.9 93.4379 160.619 93.9988C161.339 94.5597 162.378 94.4068 162.977 93.6382C163.185 93.3736 163.309 93.0532 163.335 92.7176L165.03 91.9263C165.647 92.4071 166.507 92.2804 167.012 91.6324C167.514 90.9888 167.405 90.106 166.833 89.6601C166.532 89.4367 166.154 89.3417 165.783 89.396C165.412 89.4503 165.078 89.6493 164.854 89.9496C164.697 90.1507 164.585 90.3866 164.546 90.5933L162.851 91.3846C162.71 91.2424 162.546 91.1261 162.364 91.0411L162.53 89.5389L162.512 89.525ZM143.536 69.0549C143.86 68.9591 144.149 68.7688 144.364 68.5081C144.964 67.7394 144.85 66.6593 144.153 66.1158C143.407 65.534 142.38 65.7256 141.799 66.472C141.217 67.2183 141.308 68.281 142.028 68.8419L142.126 68.9186L141.875 71.9132C141.651 72.0258 141.454 72.1867 141.299 72.3842C140.718 73.1305 140.853 74.1918 141.55 74.7353C141.725 74.8671 141.925 74.9629 142.137 75.0173C142.349 75.0717 142.57 75.0835 142.787 75.0522C143.003 75.0208 143.212 74.9469 143.4 74.8346C143.588 74.7223 143.752 74.574 143.883 74.398C144.461 73.6561 144.373 72.589 143.654 72.0281C143.55 71.9385 143.436 71.8618 143.314 71.7995L143.536 69.0549ZM143.03 91.962L142.872 90.8833C143.059 90.7756 143.223 90.6332 143.357 90.4639C143.956 89.6953 143.873 88.6316 143.176 88.0881C142.456 87.5271 141.4 87.7024 140.821 88.4442C140.24 89.1906 140.327 90.2577 141.047 90.8187C141.172 90.9162 141.293 91.0103 141.456 91.0587L141.613 92.0931C141.404 92.2105 141.223 92.3705 141.081 92.5627C140.503 93.3045 140.591 94.3717 141.315 94.9361C142.007 95.4761 143.086 95.3183 143.664 94.5765C144.246 93.8301 144.136 92.7455 143.439 92.202C143.314 92.1033 143.177 92.0225 143.03 91.962ZM139.446 91.2875C139.177 91.644 138.78 91.8808 138.338 91.9468C137.897 92.0128 137.448 91.9027 137.087 91.6402C136.372 91.0827 136.284 90.0156 136.862 89.2737C137.444 88.5274 138.501 88.3521 139.22 88.9131C139.94 89.474 140.024 90.5456 139.446 91.2875ZM134.908 77.7987C134.326 78.5451 133.275 78.7238 132.551 78.1594C131.836 77.6019 131.748 76.5348 132.33 75.7884C132.912 75.0421 133.96 74.8678 134.679 75.4288C135.403 75.9932 135.491 77.0604 134.913 77.8022M164.113 78.1345C163.992 78.2992 163.843 78.4408 163.672 78.5525L163.434 81.162L163.729 81.3919C164.449 81.9529 164.562 82.9967 163.98 83.743C163.398 84.4894 162.341 84.6567 161.621 84.0957C160.929 83.5557 160.814 82.4676 161.392 81.7258C161.567 81.5023 161.773 81.3422 162.011 81.2454L162.238 78.5484L162.113 78.4509C161.519 77.9875 161.402 77.1057 161.924 76.4353C162.412 75.8096 163.312 75.678 163.911 76.1448C164.201 76.3823 164.385 76.725 164.423 77.098C164.461 77.4709 164.35 77.8436 164.113 78.1345ZM169.154 82.4239C168.572 83.1702 167.494 83.3281 166.797 82.7845C166.077 82.2236 165.993 81.152 166.571 80.4101C167.153 79.6638 168.206 79.493 168.93 80.0574C169.623 80.5975 169.754 81.6552 169.154 82.4239ZM169.669 76.4371C169.087 77.1835 168.013 77.381 167.293 76.8201C166.601 76.2801 166.486 75.192 167.065 74.4502C167.646 73.7038 168.729 73.5495 169.427 74.093C170.142 74.6505 170.247 75.6953 169.648 76.464L169.669 76.4371ZM169.99 65.9886C169.408 66.7349 168.356 66.9136 167.632 66.3492C166.939 65.8092 166.851 64.742 167.433 63.9957C168.015 63.2494 169.068 63.0786 169.761 63.6186C170.485 64.183 170.572 65.2502 169.994 65.9921M171.764 70.1738C172.483 70.7348 173.547 70.5586 174.126 69.8167C174.708 69.0704 174.615 67.9997 173.896 67.4388C173.203 66.8987 172.12 67.0531 171.538 67.7994C170.956 68.5457 171.074 69.6293 171.771 70.1729M165.569 67.3274C164.987 68.0738 163.931 68.249 163.211 67.6881C162.518 67.148 162.407 66.0555 162.986 65.3137C163.567 64.5673 164.651 64.413 165.348 64.9565C166.063 65.514 166.168 66.5588 165.569 67.3274ZM171.353 74.9123C172.099 75.4941 173.132 75.2935 173.711 74.5516C174.289 73.8098 174.201 72.7426 173.477 72.1782C172.785 71.6382 171.749 71.7866 171.15 72.5553C170.568 73.3016 170.656 74.3688 171.353 74.9123ZM167.913 71.7489C168.24 71.8217 168.581 71.7993 168.896 71.6845C169.211 71.5697 169.486 71.3672 169.69 71.1009C170.272 70.3545 170.189 69.2909 169.491 68.7474C168.772 68.1864 167.733 68.3393 167.134 69.108C167.019 69.2555 166.904 69.4029 166.855 69.5664C166.239 70.0065 165.485 70.2116 164.731 70.1445C164.357 70.0032 163.948 69.9875 163.565 70.0998C163.181 70.2121 162.845 70.4463 162.607 70.7668C161.987 71.5623 162.09 72.7204 162.832 73.2988C163.574 73.8771 164.74 73.7085 165.36 72.913C165.47 72.769 165.557 72.6084 165.616 72.4372C166.256 71.93 167.264 71.7606 167.913 71.7489ZM173.384 80.2891C173.098 80.6596 172.68 80.9053 172.217 80.9747L171.837 82.2734C172.175 82.5687 172.386 82.9834 172.426 83.4308C172.465 83.8781 172.331 84.3235 172.049 84.6736C171.467 85.42 170.384 85.5743 169.687 85.0308C168.972 84.4733 168.888 83.4017 169.466 82.6598C169.738 82.3113 170.089 82.1104 170.458 81.996L170.899 80.508C170.618 80.2103 170.453 79.8207 170.435 79.411C170.418 79.0014 170.549 78.5993 170.805 78.2788C171.387 77.5325 172.443 77.3572 173.163 77.9182C173.882 78.4791 173.991 79.5195 173.392 80.2881M178.571 44.9439C179.45 45.6224 180.454 46.121 181.526 46.411C182.597 46.701 183.716 46.7768 184.817 46.6341C185.918 46.4914 186.98 46.1329 187.942 45.5792C188.905 45.0255 189.748 44.2874 190.425 43.4072C193.327 39.6845 192.67 34.3798 189.023 31.5368C188.145 30.8583 187.141 30.3597 186.069 30.0697C184.997 29.7797 183.879 29.7038 182.778 29.8466C181.677 29.9893 180.615 30.3478 179.652 30.9015C178.69 31.4552 177.846 32.1933 177.17 33.0735C174.268 36.7962 174.92 42.0974 178.571 44.9439ZM196.122 90.6799C197.793 92.1558 199.981 92.9075 202.206 92.7698C204.431 92.632 206.51 91.616 207.986 89.9453C209.462 88.2746 210.214 86.0861 210.076 83.8611C209.938 81.6361 208.922 79.557 207.252 78.0811C205.581 76.6052 203.393 75.8535 201.168 75.9912C198.943 76.129 196.863 77.1449 195.388 78.8156C193.912 80.4863 193.16 82.6749 193.298 84.8999C193.435 87.1248 194.451 89.204 196.122 90.6799ZM180.359 124.577C179.723 125.392 178.933 126.074 178.034 126.584C177.135 127.094 176.144 127.422 175.118 127.549C174.093 127.676 173.052 127.6 172.056 127.325C171.059 127.05 170.127 126.581 169.312 125.945C168.496 125.31 167.814 124.52 167.305 123.621C166.795 122.722 166.467 121.731 166.34 120.705C166.213 119.679 166.289 118.639 166.564 117.642C166.839 116.646 167.308 115.714 167.944 114.898C169.227 113.252 171.112 112.183 173.184 111.927C175.255 111.67 177.344 112.247 178.99 113.53C180.637 114.814 181.706 116.699 181.962 118.77C182.219 120.842 181.642 122.931 180.359 124.577ZM129.795 39.2516C133.446 42.0981 138.724 41.4202 141.627 37.6975C144.529 33.9748 143.872 28.67 140.252 25.8479C139.373 25.1685 138.369 24.6692 137.297 24.3785C136.225 24.0878 135.106 24.0115 134.005 24.1539C132.903 24.2963 131.84 24.6547 130.878 25.2085C129.915 25.7623 129.071 26.5006 128.394 27.3811C125.491 31.1039 126.148 36.4086 129.795 39.2516ZM131.2 119.384C128.298 123.107 122.989 123.761 119.342 120.918C118.468 120.232 117.738 119.381 117.194 118.412C116.65 117.444 116.303 116.377 116.172 115.274C116.042 114.171 116.131 113.053 116.435 111.984C116.738 110.915 117.25 109.917 117.941 109.047C120.843 105.325 126.143 104.664 129.794 107.511C130.667 108.197 131.395 109.049 131.938 110.018C132.48 110.986 132.827 112.052 132.957 113.155C133.087 114.258 132.999 115.375 132.696 116.443C132.394 117.512 131.884 118.51 131.196 119.381M101.918 75.0005C105.569 77.847 110.847 77.1691 113.749 73.4464C116.652 69.7236 115.995 64.4189 112.348 61.5759C111.47 60.9005 110.467 60.405 109.396 60.1177C108.326 59.8304 107.21 59.757 106.112 59.9017C105.013 60.0464 103.954 60.4063 102.994 60.9608C102.035 61.5154 101.195 62.2537 100.521 63.1335C97.6189 66.8562 98.2759 72.161 101.9 74.9865L101.918 75.0005ZM167.177 54.4262L174.922 44.4915L179.887 48.3623L172.142 58.297L167.177 54.4262ZM175.075 82.8576L191.049 85.2518L191.938 78.9966L175.986 76.6197L175.097 82.875L175.075 82.8576ZM131.101 73.724L116.93 71.7726L117.848 66.5029L131.996 68.429L131.074 73.7031L131.101 73.724ZM136.865 93.3069L129.124 103.237L134.089 107.108L141.83 97.1777L136.865 93.3069ZM165.986 112.129L158.625 98.0128L163.903 95.3444L171.238 109.484L165.986 112.129ZM185.138 48.0228C186.784 47.7543 188.342 47.0931 189.697 46.0733L201.448 74.3182C199.774 74.3032 198.122 74.7006 196.637 75.4752L185.168 48.003L185.138 48.0228ZM195.09 91.9947C195.863 92.5975 196.707 93.0542 197.579 93.4105L181.395 114.169C180.285 112.605 178.741 111.401 176.953 110.706L193.136 89.9474C193.699 90.7094 194.321 91.3955 195.117 92.0156L195.09 91.9947ZM163.811 117.942L134.336 113.243C134.474 114.909 134.235 116.598 133.554 118.144L164.135 122.945C163.587 121.337 163.477 119.608 163.811 117.942ZM118.531 106.483C119.881 105.415 121.461 104.772 123.088 104.481L111.418 77.1469C109.901 77.8982 108.221 78.2603 106.53 78.2004L118.531 106.483ZM113.25 60.483C112.482 59.8838 111.638 59.4271 110.765 59.0628L126.945 38.3085C128.051 39.8753 129.598 41.0808 131.392 41.7752L115.212 62.5294C114.657 61.7465 113.988 61.0509 113.228 60.4656L113.25 60.483ZM144.555 34.8719L174.014 39.2784C173.855 37.6143 174.119 35.9372 174.783 34.4027L144.52 29.8939C144.941 31.5012 144.978 33.2044 144.555 34.8719Z" fill="#B74829"/>
</g>
</g>
<rect x="135.437" y="-76.5965" width="218" height="218" rx="47" transform="rotate(37.94 135.437 -76.5965)" stroke="#BABABF" stroke-width="2"/>
<defs>
<clipPath id="clip0_289_2675">
<rect x="135.264" y="-78" width="220" height="220" rx="48" transform="rotate(37.94 135.264 -78)" fill="white"/>
</clipPath>
<clipPath id="clip1_289_2675">
<rect width="136" height="136" fill="white" transform="translate(142.564 -19.0534) rotate(37.94)"/>
</clipPath>
</defs>
</svg>
