<svg width="202" height="312" viewBox="0 0 202 312" fill="none" xmlns="http://www.w3.org/2000/svg">
<g clip-path="url(#clip0_289_2672)">
<rect y="155.563" width="220" height="220" rx="48" transform="rotate(-45 0 155.563)" fill="white"/>
<g clip-path="url(#clip1_289_2672)">
<path d="M115.494 163.577C106.639 154.722 106.639 140.377 115.494 131.522C124.349 122.667 138.694 122.667 147.549 131.522C156.405 140.377 156.405 154.722 147.549 163.577C138.694 172.433 124.349 172.433 115.494 163.577ZM180.406 180.406C176.56 176.56 174.957 170.95 175.358 165.741L174.396 164.779C172.833 163.217 171.631 161.454 170.629 159.57C165.541 162.736 160.412 166.743 155.563 171.591C137.853 189.302 130.68 210.819 139.536 219.674L147.549 227.688L187.619 187.619L180.406 180.406ZM220.876 140.738L234.901 154.762C237.305 157.166 237.305 161.975 234.5 164.779L212.462 186.818C210.058 189.222 205.249 189.222 202.445 186.417L188.42 172.393C186.016 169.988 186.016 165.18 188.42 162.776L182.41 156.766C176.8 151.156 178.002 141.138 183.612 135.529C189.222 129.919 199.239 128.717 204.849 134.327L210.859 140.337C213.263 137.933 218.072 137.933 220.876 140.738ZM199.64 139.536C196.434 136.33 191.626 137.132 188.42 140.337C185.215 143.543 184.413 148.351 187.619 151.557L193.629 157.567L205.65 145.546L199.64 139.536Z" fill="#D7263D"/>
</g>
</g>
<rect x="1.41421" y="155.563" width="218" height="218" rx="47" transform="rotate(-45 1.41421 155.563)" stroke="#BABABF" stroke-width="2"/>
<defs>
<clipPath id="clip0_289_2672">
<rect y="155.563" width="220" height="220" rx="48" transform="rotate(-45 0 155.563)" fill="white"/>
</clipPath>
<clipPath id="clip1_289_2672">
<rect width="136" height="136" fill="white" transform="translate(59.397 155.563) rotate(-45)"/>
</clipPath>
</defs>
</svg>
