<svg width="309" height="231" viewBox="0 0 309 231" fill="none" xmlns="http://www.w3.org/2000/svg">
<g clip-path="url(#clip0_289_2666)">
<rect x="135.257" y="-78" width="220" height="220" rx="48" transform="rotate(37.9378 135.257 -78)" fill="white"/>
<g clip-path="url(#clip1_289_2666)">
<path d="M106.57 108.436L134.968 130.572C141.589 135.734 150.457 136.971 158.232 133.817L191.605 120.293C195.427 118.745 198.775 116.217 201.31 112.965C203.846 109.712 205.48 105.849 206.049 101.764L211.023 66.102C211.592 62.0181 211.076 57.8563 209.527 54.0349C207.978 50.2135 205.451 46.8672 202.199 44.3324L173.797 22.1923C170.545 19.657 166.683 18.0223 162.599 17.4527C158.515 16.8832 154.354 17.3987 150.532 18.9475L117.162 32.473C113.339 34.0216 109.992 36.5493 107.456 39.802C104.921 43.0546 103.286 46.9175 102.717 51.0023L97.7442 86.6645C97.1747 90.7484 97.6904 94.9102 99.2394 98.7316C100.788 102.553 103.318 105.901 106.57 108.436Z" stroke="#18B662" stroke-width="6" stroke-linecap="round" stroke-linejoin="round"/>
<path d="M133.725 78.0119C139.817 82.7606 148.605 81.6719 153.353 75.5802C158.102 69.4885 157.013 60.7007 150.922 55.952C144.83 51.2033 136.042 52.292 131.293 58.3837C126.545 64.4754 127.633 73.2632 133.725 78.0119Z" stroke="#18B662" stroke-width="6" stroke-linecap="round" stroke-linejoin="round"/>
<path d="M177.44 94.4213L153.322 75.6204M164.213 94.7194L169.357 88.1207" stroke="#18B662" stroke-width="6" stroke-linecap="round" stroke-linejoin="round"/>
</g>
</g>
<rect x="135.431" y="-76.5965" width="218" height="218" rx="47" transform="rotate(37.9378 135.431 -76.5965)" stroke="#BABABF" stroke-width="2"/>
<defs>
<clipPath id="clip0_289_2666">
<rect x="135.257" y="-78" width="220" height="220" rx="48" transform="rotate(37.9378 135.257 -78)" fill="white"/>
</clipPath>
<clipPath id="clip1_289_2666">
<rect width="136" height="136" fill="white" transform="translate(142.56 -19.0537) rotate(37.9378)"/>
</clipPath>
</defs>
</svg>
