<svg width="122" height="98" viewBox="0 0 122 98" fill="none" xmlns="http://www.w3.org/2000/svg">
<path d="M88.9998 48.2084C88.9998 46.4284 88.9998 45.5458 89.5932 44.997C90.2013 44.4481 91.032 44.5149 92.7082 44.6558C100.179 45.2798 107.372 47.7814 113.618 51.9283C119.864 56.0752 124.961 61.733 128.436 68.3764C131.911 75.0198 133.651 82.4335 133.495 89.9292C133.338 97.4249 131.291 104.76 127.542 111.252C123.793 117.745 118.465 123.186 112.051 127.068C105.638 130.951 98.3469 133.151 90.8561 133.463C83.3653 133.775 75.917 132.189 69.2029 128.853C62.4887 125.517 56.7262 120.538 52.4505 114.38C51.4863 113 51.0117 112.311 51.1897 111.517C51.3677 110.723 52.139 110.286 53.6742 109.396L87.1457 90.068C88.0505 89.5489 88.5029 89.2893 88.7477 88.8591C88.9998 88.429 88.9998 87.9024 88.9998 86.8566V48.2084Z" fill="#0D0D0D"/>
<path d="M89 155.75C125.865 155.75 155.75 125.865 155.75 89C155.75 52.135 125.865 22.25 89 22.25C52.135 22.25 22.25 52.135 22.25 89C22.25 125.865 52.135 155.75 89 155.75Z" stroke="#0D0D0D" stroke-width="1.33333"/>
</svg>
