<svg width="122" height="98" viewBox="0 0 122 98" fill="none" xmlns="http://www.w3.org/2000/svg">
<path d="M66.7502 44.5C66.7502 50.4011 69.0944 56.0604 73.2671 60.2331C77.4398 64.4058 83.0992 66.75 89.0002 66.75C94.9013 66.75 100.561 64.4058 104.733 60.2331C108.906 56.0604 111.25 50.4011 111.25 44.5C111.25 38.5989 108.906 32.9396 104.733 28.7669C100.561 24.5942 94.9013 22.25 89.0002 22.25C83.0992 22.25 77.4398 24.5942 73.2671 28.7669C69.0944 32.9396 66.7502 38.5989 66.7502 44.5ZM32.9154 103.107C30.329 104.538 28.0537 106.47 26.2225 108.791C24.3912 111.111 23.0408 113.773 22.25 116.622C21.4591 119.47 21.2438 122.447 21.6166 125.38C21.9893 128.312 22.9427 131.141 24.421 133.701C25.8992 136.261 27.8728 138.501 30.2264 140.289C32.5799 142.078 35.2663 143.38 38.1285 144.118C40.9908 144.857 43.9716 145.018 46.8968 144.592C49.822 144.166 52.6329 143.161 55.1654 141.636C60.2341 138.665 63.9217 133.809 65.4235 128.129C66.9253 122.448 66.1193 116.404 63.1815 111.316C60.2437 106.228 55.4125 102.508 49.7423 100.969C44.072 99.4292 38.0231 100.195 32.9154 103.099V103.107ZM145.085 103.107C147.667 104.539 149.938 106.471 151.765 108.79C153.593 111.11 154.94 113.77 155.729 116.615C156.518 119.46 156.732 122.434 156.359 125.364C155.987 128.293 155.034 131.118 153.558 133.676C152.082 136.233 150.112 138.471 147.762 140.258C145.412 142.046 142.729 143.348 139.871 144.088C137.013 144.829 134.035 144.993 131.113 144.57C128.191 144.148 125.382 143.148 122.85 141.629C117.848 138.627 114.225 133.78 112.762 128.133C111.3 122.486 112.114 116.49 115.031 111.437C117.947 106.385 122.731 102.68 128.353 101.122C133.975 99.5636 139.984 100.276 145.085 103.107Z" stroke="#0D0D0D" stroke-width="1.33333"/>
<path fill-rule="evenodd" clip-rule="evenodd" d="M67.2694 49.269C66.6347 46.3778 66.5833 43.3891 67.1182 40.4778C67.6531 37.5665 68.7635 34.7912 70.3844 32.3145C53.8469 37.1174 39.8056 48.1258 31.1949 63.0392C22.5841 77.9526 20.0702 95.6168 24.1785 112.34C25.5138 109.699 27.3626 107.351 29.6168 105.433C31.8709 103.515 34.485 102.066 37.306 101.171C36.3233 90.4836 38.6768 79.7545 44.0426 70.4599C49.4084 61.1653 57.5229 53.7621 67.2694 49.269ZM110.731 49.269C120.477 53.7621 128.592 61.1653 133.958 70.4599C139.324 79.7545 141.677 90.4836 140.694 101.171C143.516 102.067 146.131 103.517 148.385 105.436C150.639 107.355 152.487 109.705 153.822 112.348C157.93 95.6242 155.416 77.96 146.806 63.0466C138.195 48.1332 124.153 37.1248 107.616 32.3219C109.236 34.7977 110.346 37.5717 110.881 40.4816C111.416 43.3916 111.365 46.3789 110.731 49.269ZM135.206 144.588C132.25 144.754 129.292 144.328 126.502 143.336C123.713 142.344 121.15 140.805 118.964 138.81C110.2 145.004 99.7318 148.33 89.0002 148.33C78.2686 148.33 67.8007 145.004 59.0369 138.81C56.8506 140.807 54.2878 142.347 51.4987 143.34C48.7097 144.334 45.7504 144.76 42.7944 144.595C55.2231 156.517 71.7784 163.173 89.0002 163.173C106.222 163.173 122.777 156.509 135.206 144.588Z" fill="#0D0D0D"/>
</svg>
