<svg width="122" height="98" viewBox="0 0 122 98" fill="none" xmlns="http://www.w3.org/2000/svg">
<path d="M14.8335 89C14.8335 61.0317 14.8335 47.0439 23.5258 38.359C32.2182 29.674 46.1986 29.6666 74.1668 29.6666H103.833C131.802 29.6666 145.79 29.6666 154.474 38.359C163.159 47.0513 163.167 61.0317 163.167 89C163.167 116.968 163.167 130.956 154.474 139.641C145.782 148.326 131.802 148.333 103.833 148.333H74.1668C46.1986 148.333 32.2107 148.333 23.5258 139.641C14.8409 130.949 14.8335 116.968 14.8335 89Z" stroke="#0D0D0D" stroke-width="1.5"/>
<path opacity="0.5" d="M74.1668 122.375H44.5002M59.3335 100.125H44.5002M14.8335 74.1666H163.167" stroke="#0D0D0D" stroke-width="1.5" stroke-linecap="round"/>
<path opacity="0.5" d="M103.833 111.25C103.833 104.256 103.833 100.763 106.007 98.5897C108.18 96.4166 111.673 96.4166 118.667 96.4166C125.661 96.4166 129.154 96.4166 131.327 98.5897C133.5 100.763 133.5 104.256 133.5 111.25C133.5 118.244 133.5 121.737 131.327 123.91C129.154 126.083 125.661 126.083 118.667 126.083C111.673 126.083 108.18 126.083 106.007 123.91C103.833 121.737 103.833 118.244 103.833 111.25Z" stroke="#0D0D0D" stroke-width="1.5"/>
</svg>
