<svg width="118" height="118" viewBox="0 0 118 118" fill="none" xmlns="http://www.w3.org/2000/svg">
<g opacity="0.4">
<path d="M21.4477 102.249C42.1874 113.084 75.8127 113.084 96.5547 102.249C117.297 91.4147 117.292 73.8492 96.5547 63.0121C75.8174 52.1749 42.1874 52.1797 21.4453 63.0121C0.703295 73.8445 0.708014 91.4147 21.4477 102.249Z" fill="#F5F5F5"/>
<path d="M98.9194 85.9559C104.184 85.9559 108.451 83.9219 108.451 81.4129C108.451 78.9038 104.184 76.8699 98.9194 76.8699C93.655 76.8699 89.3874 78.9038 89.3874 81.4129C89.3874 83.9219 93.655 85.9559 98.9194 85.9559Z" fill="#E0E0E0"/>
<path d="M22.2407 90.9566C27.5051 90.9566 31.7727 88.9226 31.7727 86.4136C31.7727 83.9046 27.5051 81.8706 22.2407 81.8706C16.9763 81.8706 12.7086 83.9046 12.7086 86.4136C12.7086 88.9226 16.9763 90.9566 22.2407 90.9566Z" fill="#E0E0E0"/>
<path d="M57.6949 104.312L33.5616 90.3879C33.4794 90.3344 33.4109 90.2623 33.3617 90.1774C33.3125 90.0925 33.284 89.9973 33.2784 89.8994V89.5336C33.284 89.4356 33.3125 89.3404 33.3617 89.2555C33.4109 89.1706 33.4794 89.0985 33.5616 89.045L62.9861 72.053C63.0735 72.0089 63.1701 71.9858 63.2681 71.9858C63.3661 71.9858 63.4627 72.0089 63.5501 72.053L87.6835 85.977C87.7654 86.0307 87.8335 86.1029 87.8823 86.1877C87.9311 86.2726 87.9592 86.3678 87.9643 86.4656V86.8337C87.9592 86.9315 87.9311 87.0267 87.8823 87.1115C87.8335 87.1964 87.7654 87.2686 87.6835 87.3222L58.259 104.312C58.1715 104.356 58.0749 104.379 57.977 104.379C57.879 104.379 57.7824 104.356 57.6949 104.312Z" fill="#EBEBEB"/>
<path d="M87.6835 86.2981L58.2566 103.29C58.1695 103.335 58.0728 103.359 57.9746 103.359C57.8764 103.359 57.7797 103.335 57.6926 103.29L33.5616 89.3661C33.5277 89.3544 33.4983 89.3324 33.4775 89.3032C33.4567 89.274 33.4456 89.2391 33.4456 89.2032C33.4456 89.1674 33.4567 89.1325 33.4775 89.1033C33.4983 89.0741 33.5277 89.0521 33.5616 89.0404L62.9861 72.0484C63.0735 72.0042 63.1701 71.9812 63.2681 71.9812C63.3661 71.9812 63.4627 72.0042 63.5501 72.0484L87.6835 85.9724C87.7174 85.9841 87.7467 86.0061 87.7675 86.0353C87.7883 86.0645 87.7995 86.0994 87.7995 86.1352C87.7995 86.1711 87.7883 86.206 87.7675 86.2352C87.7467 86.2644 87.7174 86.2864 87.6835 86.2981Z" fill="#FAFAFA"/>
<path d="M87.6835 86.2981L58.2566 103.29C58.1695 103.335 58.0728 103.359 57.9746 103.359C57.8764 103.359 57.7797 103.335 57.6926 103.29L33.5616 89.3661C33.5277 89.3544 33.4983 89.3324 33.4775 89.3032C33.4567 89.274 33.4456 89.2391 33.4456 89.2032C33.4456 89.1674 33.4567 89.1325 33.4775 89.1033C33.4983 89.0741 33.5277 89.0521 33.5616 89.0404L62.9861 72.0484C63.0735 72.0042 63.1701 71.9812 63.2681 71.9812C63.3661 71.9812 63.4627 72.0042 63.5501 72.0484L87.6835 85.9724C87.7174 85.9841 87.7467 86.0061 87.7675 86.0353C87.7883 86.0645 87.7995 86.0994 87.7995 86.1352C87.7995 86.1711 87.7883 86.206 87.7675 86.2352C87.7467 86.2644 87.7174 86.2864 87.6835 86.2981Z" fill="#FAFAFA"/>
<path d="M57.9758 103.451V104.373C57.8779 104.375 57.7812 104.351 57.6949 104.305L33.5616 90.3809C33.4791 90.3277 33.4104 90.2557 33.3612 90.1707C33.312 90.0858 33.2836 89.9904 33.2784 89.8924V89.5266C33.284 89.4388 33.308 89.3532 33.3486 89.2752C33.3892 89.1971 33.4457 89.1284 33.5144 89.0735C33.4129 89.1632 33.4294 89.2859 33.5663 89.3638L57.6997 103.288C57.7228 103.301 57.7473 103.311 57.7728 103.318L57.9758 103.451Z" fill="#E0E0E0"/>
<path d="M43.424 87.9452C43.4258 87.957 43.4258 87.9689 43.424 87.9806L43.398 88.016L43.2635 88.0703L40.1247 88.2308C40.0761 88.2388 40.0298 88.2573 39.9891 88.2851C39.9483 88.3128 39.9141 88.349 39.8887 88.3913C39.8392 88.4762 39.8651 88.5447 39.9477 88.5494L42.9072 88.7004L42.9756 88.7547C42.973 88.7672 42.9682 88.7792 42.9614 88.7901C42.9471 88.8133 42.9274 88.8327 42.904 88.8467C42.8806 88.8606 42.8541 88.8688 42.8269 88.8704L39.8415 88.717C39.674 88.717 39.6197 88.5659 39.7188 88.3913C39.7724 88.3027 39.8452 88.2273 39.9318 88.1706C40.0184 88.1138 40.1165 88.0771 40.2191 88.0632L43.3839 87.9004C43.4098 87.9004 43.424 87.9169 43.424 87.9452Z" fill="#455A64"/>
<path d="M71.0785 86.0431C71.0772 86.0619 71.0707 86.0799 71.0596 86.095C71.0439 86.117 71.0235 86.135 70.9997 86.1477C70.976 86.1604 70.9496 86.1674 70.9227 86.1682C70.9227 86.1682 70.1392 86.0762 68.7067 85.9534C68.6642 85.9534 68.6524 85.9086 68.6831 85.8614C68.6979 85.8391 68.7179 85.8206 68.7412 85.8075C68.7646 85.7944 68.7908 85.787 68.8176 85.7859C70.2525 85.9086 71.0313 86.0006 71.0383 86.0006C71.0492 86.0013 71.0594 86.006 71.0669 86.0139C71.0743 86.0218 71.0785 86.0323 71.0785 86.0431Z" fill="#455A64"/>
<path d="M68.473 90.5674C68.4761 90.5774 68.4761 90.5881 68.473 90.5981C68.4607 90.6227 68.4428 90.6442 68.4206 90.6606C68.3985 90.677 68.3728 90.6879 68.3456 90.6925C68.3456 90.6925 67.4511 90.7869 65.8747 90.9143C65.8251 90.9143 65.8039 90.8836 65.8275 90.8388C65.8402 90.8143 65.8587 90.7931 65.8813 90.7771C65.9038 90.7611 65.9299 90.7507 65.9573 90.7467C67.5314 90.6193 68.414 90.5249 68.4235 90.5249C68.4329 90.5249 68.473 90.5391 68.473 90.5674Z" fill="#455A64"/>
<path d="M65.136 85.557C65.1354 85.5736 65.1306 85.5899 65.1218 85.6042C65.1063 85.6266 65.086 85.6452 65.0623 85.6587C65.0386 85.6722 65.0122 85.6801 64.985 85.682C63.6752 85.6018 62.304 85.5333 60.9092 85.4743C54.549 85.2171 52.4321 85.4508 50.5016 85.7599C48.406 86.095 43.0747 88.0349 42.6192 88.3866C42.6712 88.7359 45.7746 90.6664 47.4856 90.9944C49.0644 91.2988 50.9146 91.5277 57.584 91.2493C59.0425 91.1879 60.4963 91.1148 61.9075 91.0298C61.9547 91.0298 61.9736 91.0628 61.95 91.1077C61.9369 91.1318 61.9184 91.1524 61.8958 91.168C61.8733 91.1836 61.8474 91.1936 61.8202 91.1973C60.4042 91.2823 58.9528 91.3555 57.4943 91.4168C50.8061 91.6977 48.9488 91.4664 47.3605 91.162C45.8265 90.8646 42.1944 88.8185 42.4422 88.3866C42.69 87.9547 48.6892 85.8944 50.5677 85.5923C52.51 85.2832 54.6364 85.0472 61.0131 85.3068C62.4078 85.3634 63.7814 85.4342 65.0935 85.5145C65.0993 85.5137 65.1052 85.5143 65.1107 85.5161C65.1162 85.518 65.1212 85.5211 65.1253 85.5252C65.1294 85.5293 65.1325 85.5343 65.1344 85.5398C65.1362 85.5453 65.1368 85.5512 65.136 85.557Z" fill="#455A64"/>
<path d="M53.2062 86.9682C53.0481 86.6024 52.6705 86.3994 52.1489 86.3994C51.5293 86.4312 50.9302 86.632 50.4167 86.98C50.1279 87.163 49.8604 87.3775 49.619 87.6195C49.3933 87.846 49.1967 88.0997 49.0337 88.3747C48.8146 88.7153 48.7119 89.1178 48.7411 89.5217C48.8142 90.0409 49.239 90.35 49.8739 90.3477C50.4936 90.317 51.093 90.1161 51.6061 89.7671C52.1697 89.4166 52.6434 88.9389 52.9891 88.3724C53.1658 88.0873 53.2695 87.7631 53.2911 87.4284C53.2959 87.2707 53.267 87.1138 53.2062 86.9682ZM52.8191 88.3724C52.5038 88.8915 52.0704 89.329 51.5542 89.6491C51.0852 89.9667 50.5385 90.1503 49.973 90.1801C49.3877 90.1801 49.0007 89.8969 48.9369 89.4249C48.9271 89.3649 48.9231 89.304 48.9251 89.2432C48.9456 88.9353 49.0412 88.6371 49.2036 88.3747C49.5194 87.8567 49.9517 87.4195 50.4662 87.098C50.9358 86.7803 51.4835 86.5975 52.0498 86.5693C52.5218 86.5693 52.8734 86.7534 53.0197 87.0885C53.1661 87.4237 53.1 87.8839 52.8191 88.3724Z" fill="#455A64"/>
<path d="M53.0197 87.0839C52.8734 86.7488 52.5312 86.5647 52.0498 86.5647C51.4835 86.5928 50.9358 86.7757 50.4662 87.0933C49.9517 87.4149 49.5194 87.8521 49.2036 88.3701C49.0412 88.6325 48.9456 88.9307 48.9251 89.2386C48.9231 89.2994 48.9271 89.3603 48.9369 89.4203C49.0007 89.8923 49.3877 90.1755 49.973 90.1755C50.5385 90.1456 51.0852 89.962 51.5542 89.6445C52.0704 89.3243 52.5038 88.8869 52.8191 88.3677C53.1 87.8839 53.1684 87.4285 53.0197 87.0839ZM52.392 88.3725C51.9507 89.1347 50.976 89.7578 50.209 89.7578C49.4514 89.7578 49.1895 89.1347 49.6261 88.3748C50.0627 87.6149 51.0421 86.9919 51.8067 86.9895C52.3306 86.9895 52.6185 87.2821 52.6067 87.6975C52.5914 87.9367 52.5177 88.1684 52.392 88.3725Z" fill="#02002D"/>
<path d="M47.5446 86.4136C47.5345 86.4094 47.5237 86.4072 47.5127 86.4072C47.5018 86.4072 47.4909 86.4094 47.4809 86.4136C45.9846 86.8856 42.6358 88.042 42.4352 88.3889C42.2346 88.7359 44.2547 89.8828 45.2082 90.3525C45.2303 90.3606 45.2545 90.3606 45.2766 90.3525C45.3042 90.3413 45.3291 90.3244 45.3498 90.3029C46.5156 89.0238 47.2614 87.7329 47.5611 86.4679V86.4537C47.5632 86.4462 47.5627 86.4381 47.5597 86.4309C47.5567 86.4236 47.5514 86.4175 47.5446 86.4136Z" fill="#455A64"/>
<path d="M47.3487 86.6118C47.0513 87.7918 46.3622 88.9718 45.2955 90.1707C43.8488 89.4509 42.6429 88.6155 42.6122 88.396C42.8954 88.1671 45.076 87.3198 47.3487 86.6118Z" fill="#02002D"/>
<path d="M71.1068 86.2696C71.0796 86.6161 70.9909 86.9549 70.8448 87.2702C70.8328 87.2954 70.815 87.3172 70.7928 87.3341C70.7707 87.3509 70.7448 87.3622 70.7174 87.367C70.6678 87.367 70.6419 87.3434 70.6607 87.2986C70.9723 86.5481 70.9156 86.2389 70.8967 86.1658C70.774 86.1516 70.2572 86.0926 69.3887 86.0147C69.3049 86.5492 69.131 87.0655 68.8742 87.5416C68.8611 87.5659 68.8426 87.5869 68.8201 87.6028C68.7976 87.6188 68.7717 87.6294 68.7444 87.6337C68.6949 87.6337 68.676 87.603 68.6972 87.5582C69.1079 86.7109 69.1952 86.2153 69.2023 85.9581C69.205 85.9406 69.2112 85.9239 69.2206 85.9089C69.2299 85.8939 69.2421 85.881 69.2565 85.8708C69.2839 85.8466 69.3191 85.8332 69.3557 85.833C70.446 85.9298 71.0336 86.0006 71.0407 86.0006C71.0478 86.0012 71.0547 86.0034 71.0608 86.0071C71.067 86.0108 71.0722 86.0158 71.0761 86.0218C71.1053 86.1009 71.1158 86.1857 71.1068 86.2696Z" fill="#455A64"/>
<path d="M69.62 89.3754C69.6169 89.3952 69.6087 89.4139 69.5964 89.4297C68.9073 90.3737 68.4164 90.6592 68.3928 90.671C68.3749 90.6822 68.3548 90.6895 68.3338 90.6923C68.3338 90.6923 67.6588 90.7654 66.4458 90.8669C66.4128 90.8669 66.3915 90.8669 66.3892 90.8268C66.3904 90.8101 66.3952 90.7938 66.4034 90.7791C66.4115 90.7644 66.4228 90.7517 66.4364 90.7418C66.9473 90.2693 67.3954 89.7332 67.7698 89.1465C67.7844 89.1233 67.8046 89.104 67.8285 89.0905C67.8523 89.0769 67.8792 89.0694 67.9066 89.0686C67.9491 89.0686 67.9609 89.1134 67.9302 89.1606C67.5731 89.7125 67.1569 90.2237 66.6889 90.6852C67.647 90.6026 68.2323 90.5412 68.3716 90.5271C68.7853 90.2116 69.1455 89.8315 69.4383 89.4014C69.454 89.3799 69.4746 89.3625 69.4984 89.3506C69.5223 89.3387 69.5485 89.3326 69.5752 89.3329C69.5811 89.3317 69.5872 89.332 69.5931 89.3336C69.5989 89.3353 69.6042 89.3384 69.6086 89.3425C69.613 89.3467 69.6163 89.3519 69.6183 89.3576C69.6203 89.3633 69.6209 89.3694 69.62 89.3754Z" fill="#455A64"/>
<path d="M72.6219 92.6583L66.6016 93.0642L66.0021 90.7751C66.0002 90.7681 65.9963 90.7619 65.9908 90.7573C65.9853 90.7527 65.9786 90.7498 65.9714 90.7491C64.8245 90.4376 63.4439 90.5343 61.8698 91.0346C61.8362 91.0467 61.8061 91.067 61.7824 91.0936C61.7731 91.1041 61.7662 91.1165 61.7626 91.1301C61.7589 91.1436 61.7584 91.1578 61.7612 91.1715L63.1347 94.7871C63.1378 94.7955 63.1437 94.8027 63.1514 94.8074C63.1592 94.8121 63.1682 94.8141 63.1772 94.813L65.5372 94.8531H65.5679L72.5653 92.8282C72.5896 92.821 72.6121 92.8086 72.6313 92.7919C72.6504 92.7753 72.6657 92.7546 72.6762 92.7315C72.6769 92.7236 72.6769 92.7157 72.6762 92.7079C72.688 92.6748 72.6573 92.656 72.6219 92.6583ZM65.608 94.6832L63.3046 94.6455L61.976 91.1456C63.4392 90.7019 64.7277 90.6216 65.8062 90.9096L66.408 93.2082C66.408 93.2271 66.434 93.2389 66.4623 93.2365L71.8691 92.8731L65.608 94.6832Z" fill="#455A64"/>
<path d="M71.8785 92.8706L65.608 94.683L63.3046 94.6453L61.976 91.1454C63.4392 90.7017 64.7277 90.6215 65.8062 90.9094L66.408 93.208C66.408 93.2269 66.434 93.2387 66.4623 93.2364L71.8785 92.8706Z" fill="#02002D"/>
<path d="M77.7266 83.8531L73.0514 81.8447H73.0254L70.6206 81.8919C70.5942 81.8933 70.5688 81.9024 70.5474 81.9179L65.0038 85.5428C64.9743 85.5614 64.9512 85.5886 64.9377 85.6207C64.9326 85.6315 64.9316 85.6437 64.9351 85.6551C64.9386 85.6665 64.9463 85.6761 64.9566 85.6821C65.9572 86.1777 67.2269 86.2697 68.7326 85.9558C68.7545 85.9499 68.7753 85.9404 68.794 85.9275L72.0319 83.6336L77.5991 84.0159C77.6241 84.0146 77.6485 84.0078 77.6705 83.996C77.6925 83.9841 77.7117 83.9676 77.7266 83.9475C77.7405 83.9318 77.7488 83.9118 77.7502 83.8908C77.7507 83.8829 77.7488 83.8749 77.7445 83.8681C77.7403 83.8613 77.734 83.8561 77.7266 83.8531ZM72.1003 83.459C72.0685 83.4588 72.0377 83.4696 72.013 83.4896L68.7586 85.793C67.3426 86.0809 66.1626 86.0054 65.1997 85.557L70.564 82.0548L72.924 82.0099L77.1059 83.8059L72.1003 83.459Z" fill="#455A64"/>
<path d="M77.0988 83.806L72.1004 83.4591C72.0686 83.4588 72.0377 83.4697 72.013 83.4897L68.7586 85.7931C67.3426 86.081 66.1626 86.0055 65.1997 85.5571L70.564 82.0549L72.924 82.01L77.0988 83.806Z" fill="#02002D"/>
<path d="M77.5001 88.2309L71.6331 87.084H71.6071L62.8633 88.264C62.8388 88.2691 62.8155 88.279 62.7948 88.2932C62.7742 88.3074 62.7565 88.3255 62.743 88.3466C62.717 88.3891 62.7288 88.4245 62.7666 88.4315L70.1557 89.6115H70.1841L77.4057 88.3985C77.4302 88.3934 77.4533 88.3831 77.4736 88.3685C77.494 88.3539 77.511 88.3352 77.5237 88.3135C77.5305 88.3012 77.5345 88.2875 77.5355 88.2734C77.5361 88.2632 77.5328 88.253 77.5262 88.2451C77.5197 88.2372 77.5103 88.2321 77.5001 88.2309ZM70.2643 89.444L63.4203 88.3513L71.5293 87.2633L76.9714 88.3206L70.2643 89.444Z" fill="#455A64"/>
<path d="M76.9619 88.3183L70.2643 89.4416L63.4108 88.3489L71.5198 87.261L76.9619 88.3183Z" fill="#02002D"/>
<path d="M69.9079 93.4393L69.2306 93.6375L68.5462 93.8381L67.7816 94.06C67.5043 94.1429 67.2496 94.2878 67.0366 94.4836C66.8236 94.6794 66.6579 94.9211 66.552 95.1904C66.4198 95.6624 66.7408 95.9385 67.286 95.8229L68.0081 95.6695H68.0294L68.6972 95.5279L69.3533 95.3886C69.7097 95.299 69.9858 94.742 70.1132 94.2936C70.1598 94.1354 70.1875 93.9722 70.1958 93.8074C70.2076 93.5549 70.1321 93.3826 69.9079 93.4393ZM69.9268 94.3361C69.8017 94.7845 69.5657 95.181 69.4076 95.2211L68.9356 95.3202L68.7114 95.3674L68.2394 95.4665L68.0246 95.5137L67.3284 95.66C66.9461 95.7403 66.6983 95.5822 66.7054 95.2919C66.7077 95.2406 66.7165 95.1899 66.7314 95.1408C66.8175 94.9212 66.9526 94.7242 67.1265 94.5647C67.3003 94.4052 67.5082 94.2874 67.7344 94.2204L68.4424 94.0104L68.6618 93.9467L69.1338 93.8074L69.3698 93.739L69.8418 93.5998C70.0236 93.562 70.0542 93.8924 69.9268 94.3361Z" fill="#455A64"/>
<path d="M69.384 93.7391C69.3741 93.7156 69.3596 93.6943 69.3414 93.6765C69.3231 93.6586 69.3015 93.6446 69.2778 93.6353C69.2608 93.6307 69.2428 93.6307 69.2259 93.6353L68.5415 93.8359C68.501 93.8482 68.466 93.874 68.4423 93.9091C68.4187 93.9421 68.4187 93.9751 68.4423 93.9893C68.449 93.9944 68.4546 94.0008 68.4589 94.0082C68.5391 94.1049 68.5297 94.3787 68.4353 94.7162C68.363 95.0095 68.2259 95.2829 68.0341 95.5162L68.0034 95.5469C67.9892 95.5578 67.9776 95.5717 67.9694 95.5876C67.9612 95.6035 67.9567 95.621 67.9562 95.6389C67.959 95.6496 67.9655 95.6588 67.9747 95.6649C67.9838 95.671 67.9949 95.6735 68.0057 95.672H68.027L68.6949 95.5304C68.7137 95.5251 68.7313 95.5163 68.7468 95.5044C68.8166 95.4549 68.8786 95.3952 68.9309 95.3274C69.1183 95.0777 69.2553 94.794 69.3344 94.492C69.3825 94.3349 69.4102 94.1723 69.417 94.0082C69.4263 93.9172 69.415 93.8252 69.384 93.7391ZM69.148 94.5321C69.0739 94.8429 68.9229 95.1302 68.709 95.3675L68.237 95.4667C68.4081 95.2241 68.5352 94.9533 68.6123 94.6666C68.6932 94.4356 68.7119 94.1873 68.6665 93.9468L69.1385 93.8076C69.2542 93.8737 69.2542 94.1639 69.148 94.5321Z" fill="#455A64"/>
<path d="M69.148 94.5321C69.0739 94.843 68.923 95.1302 68.7091 95.3676L68.2371 95.4667C68.4082 95.2241 68.5352 94.9533 68.6123 94.6667C68.6932 94.4356 68.712 94.1874 68.6666 93.9469L69.1386 93.8076C69.2542 93.8737 69.2542 94.164 69.148 94.5321Z" fill="#02002D"/>
<path d="M77.467 81.2948L76.9667 81.158L76.464 81.0187L75.9 80.863C75.4893 80.7497 74.8451 81.0305 74.4368 81.5002C74.0285 81.9698 73.9955 82.4654 74.366 82.6282L74.8734 82.8477L75.3289 83.046L75.7796 83.2418C75.8622 83.2702 76.0274 83.2418 76.3437 83.0058C76.5704 82.82 76.7804 82.6146 76.9714 82.3922C77.1545 82.1871 77.3166 81.9642 77.4552 81.7267C77.5095 81.6375 77.5441 81.5377 77.5567 81.4341C77.5613 81.4039 77.5547 81.3731 77.5382 81.3475C77.5217 81.3218 77.4964 81.3031 77.467 81.2948ZM77.2806 81.7314C77.153 81.9505 77.0036 82.1561 76.8345 82.345C76.6589 82.5498 76.4654 82.7386 76.2563 82.9091C76.0959 83.0365 75.9731 83.0979 75.9212 83.0814L75.605 82.9445L75.4492 82.876L75.133 82.7392L74.989 82.6754L74.517 82.4678C74.2149 82.3356 74.2385 81.932 74.5737 81.5474C74.9088 81.1627 75.4327 80.9338 75.7702 81.0282L76.3012 81.1745L76.4593 81.217L76.8157 81.3137L76.9856 81.3609L77.3372 81.4577C77.3821 81.4766 77.3632 81.5757 77.2806 81.7314Z" fill="#455A64"/>
<path d="M76.995 81.1839C76.9933 81.1773 76.9897 81.1713 76.9847 81.1667C76.9796 81.1621 76.9734 81.1591 76.9667 81.1579L76.464 81.0187C76.4266 81.0161 76.3896 81.0271 76.3597 81.0497C76.3298 81.0722 76.309 81.1048 76.3012 81.1414C76.3012 81.1414 76.3012 81.1603 76.3012 81.1721C76.1799 81.4681 76.0028 81.7382 75.7796 81.9674C75.5565 82.2432 75.2912 82.4821 74.9937 82.6754L74.9536 82.6943C74.9146 82.7096 74.8821 82.7379 74.8616 82.7745C74.845 82.8075 74.8498 82.8359 74.8757 82.8477L75.3312 83.0459C75.348 83.0519 75.3663 83.0519 75.3831 83.0459C75.4665 83.0232 75.5461 82.9882 75.6191 82.9421C75.922 82.7292 76.1957 82.4777 76.4333 82.194C76.6644 81.9481 76.8534 81.6659 76.9926 81.3585C77.0064 81.3198 77.0144 81.2792 77.0162 81.2382C77.0129 81.2188 77.0057 81.2003 76.995 81.1839ZM76.287 82.1491C76.0572 82.4422 75.7736 82.6889 75.4516 82.876L75.1353 82.7391C75.4208 82.5296 75.6806 82.2872 75.9094 82.017C76.1294 81.7785 76.3131 81.5089 76.4546 81.2169L76.8109 81.3137C76.818 81.4387 76.5985 81.7857 76.2846 82.1491H76.287Z" fill="#455A64"/>
<path d="M76.8085 81.3138C76.8085 81.4389 76.5985 81.7858 76.2846 82.1492C76.0548 82.4423 75.7712 82.689 75.4492 82.8761L75.1329 82.7392C75.4184 82.5297 75.6782 82.2873 75.907 82.0171C76.127 81.7786 76.3107 81.509 76.4522 81.217L76.8085 81.3138Z" fill="#02002D"/>
<path d="M51.8067 86.9895C51.0444 86.9895 50.065 87.6125 49.6261 88.3748C49.1871 89.1371 49.4514 89.7578 50.209 89.7578C50.9736 89.7578 51.9507 89.1347 52.392 88.3725C52.5142 88.1715 52.5862 87.944 52.602 87.7093C52.628 87.2821 52.3306 86.9895 51.8067 86.9895ZM52.2268 88.3725C51.8397 89.0427 50.9831 89.5879 50.3105 89.5879C49.6379 89.5879 49.4089 89.0451 49.796 88.3748C50.183 87.7046 51.0397 87.1618 51.7099 87.1594C52.3802 87.1571 52.6115 87.7022 52.2268 88.3725Z" fill="#455A64"/>
<path d="M94.1357 42.716C93.1516 44.0258 91.1645 46.374 90.178 47.613C89.6555 48.2602 89.3729 49.0681 89.3779 49.8998C89.3779 50.5158 89.5549 51.0302 90.1567 50.7683C90.5933 50.5771 90.8647 50.3529 91.5067 49.7252C92.0778 49.1611 95.3818 44.9839 95.3818 44.9839C95.3818 44.9839 95.6532 42.6428 96.5075 42.3879C97.3618 42.133 96.2007 41.425 96.2007 41.425C95.8396 41.4652 95.1293 41.3944 94.1357 42.716Z" fill="#9A4A4D"/>
<path d="M82.0478 74.0355L75.8787 81.0777C75.8392 81.1219 75.7869 81.1528 75.729 81.1659C75.6712 81.179 75.6106 81.1738 75.5559 81.151C75.5011 81.1281 75.4548 81.0888 75.4235 81.0385C75.3921 80.9881 75.3772 80.9292 75.3808 80.87L75.9944 71.4749L82.0478 74.0355Z" fill="#FFA8A7"/>
<path d="M75.3808 80.8701C75.3772 80.9293 75.3921 80.9882 75.4235 81.0385C75.4548 81.0889 75.5011 81.1282 75.5559 81.1511C75.6106 81.1739 75.6712 81.1791 75.729 81.166C75.7869 81.1528 75.8392 81.122 75.8787 81.0778L77.0823 79.7019C76.7941 79.7318 76.5031 79.6815 76.2416 79.5565C75.9801 79.4316 75.7582 79.2369 75.6003 78.9939L75.5106 78.8594L75.3808 80.8701Z" fill="#263238"/>
<path d="M91.096 34.9775L90.7656 35.7799L90.362 36.7452L75.992 71.4726C76.3715 72.4587 77.1101 73.2647 78.0594 73.7287C79.4754 74.4839 81.1722 74.6208 82.0407 74.0332L96.288 39.5607L97.0526 37.7128C96.5004 38.881 90.5414 36.1575 91.096 34.9775Z" fill="#02002D"/>
<path d="M89.8193 38.022L89.0829 39.8132C88.8469 40.3253 89.8193 41.1136 91.0488 41.7531C92.6772 42.6098 94.7635 43.2045 95.0608 42.5272L95.606 41.208L95.7924 40.736C95.4856 41.4133 93.3994 40.8209 91.7686 39.9643C90.5886 39.3483 89.6446 38.5931 89.7909 38.0763C89.7955 38.056 89.8053 38.0373 89.8193 38.022Z" fill="#EBEBEB"/>
<path d="M89.6399 38.468C89.1018 39.648 95.0844 42.369 95.6225 41.182L96.3659 39.3907C95.8278 40.5707 89.8452 37.8662 90.3833 36.6791L89.6399 38.468Z" fill="#02002D"/>
<path d="M91.096 34.9775L90.3621 36.7452C89.8193 37.9063 95.58 40.592 96.288 39.5607C96.303 39.5409 96.3157 39.5195 96.3258 39.4969L97.0527 37.7128C96.5004 38.881 90.5414 36.1575 91.096 34.9775Z" fill="#EBEBEB"/>
<path opacity="0.1" d="M96.288 39.5607L97.0526 37.7128C96.7978 38.2414 95.4431 37.9724 94.0838 37.4131L79.204 74.1913L75.8787 81.0778L82.0478 74.0356L96.288 39.5607Z" fill="black"/>
<path d="M94.1971 27.4822L91.096 34.9776C90.86 35.4826 91.804 36.2685 93.0312 36.9104C94.6573 37.7718 96.7482 38.3831 97.0692 37.7128L100.064 30.4959C100.899 28.8723 98.0179 26.8285 95.9482 26.7199C95.1647 26.668 94.5086 26.8757 94.1971 27.4822Z" fill="#FFA8A7"/>
<path d="M97.0621 29.9554L94.0932 37.4107C95.3039 37.9086 96.5051 38.1753 96.9252 37.8544C96.9557 37.8292 96.9842 37.8016 97.0102 37.7718C97.0243 37.7505 97.0408 37.734 97.0526 37.7128L100.132 30.2811C99.7501 31.1732 97.0621 29.9554 97.0621 29.9554Z" fill="#F28F8F"/>
<path d="M106.363 79.355L104.661 79.8624L103.925 77.3821L105.664 76.7874L106.363 79.355Z" fill="#B16668"/>
<path d="M104.411 79.0222L104.338 78.7862C104.196 78.9042 104.154 80.4099 103.755 81.2784C103.321 82.2224 102.861 82.9021 102.667 83.3292C102.408 83.9004 103.418 84.2024 104.534 83.6526C105.086 83.3788 105.973 82.6661 106.115 82.2082C106.257 81.7504 106.207 81.158 106.33 80.8158C106.453 80.4736 106.835 80.0252 106.851 79.6689C106.795 79.3571 106.671 79.0615 106.488 78.8028C106.32 78.5266 106.136 78.2198 106.042 78.2788C106.042 78.3166 106.096 78.4653 106.096 78.4653C105.933 78.7603 105.687 79.0014 105.388 79.1591C105.122 79.296 104.501 79.3172 104.411 79.0222Z" fill="#263238"/>
<path d="M102.146 51.0705C103.172 52.3874 103.356 53.7468 103.132 57.596C102.908 61.4451 102.839 64.676 102.896 64.8813C102.953 65.0866 104.161 66.6442 104.548 68.0531C104.935 69.462 105.995 77.4436 105.995 77.4436C105.763 77.7303 105.467 77.959 105.131 78.1114C104.795 78.2638 104.428 78.3357 104.06 78.3215C104.06 78.3215 99.7761 66.6583 99.4882 65.7899C99.2003 64.9214 97.3642 55.8024 97.3642 55.8024L97.6427 50.6528L102.146 51.0705Z" fill="#37474F"/>
<path d="M97.6804 39.7307H99.0964C99.9873 39.7307 100.842 39.3769 101.472 38.7472C102.102 38.1175 102.456 37.2633 102.457 36.3724C102.457 35.2927 102.028 34.2572 101.265 33.4938C100.501 32.7303 99.4658 32.3014 98.3861 32.3014C97.3064 32.3014 96.2709 32.7303 95.5074 33.4938C94.744 34.2572 94.3151 35.2927 94.3151 36.3724C94.3151 36.814 94.4022 37.2513 94.5714 37.6592C94.7406 38.0671 94.9886 38.4376 95.3012 38.7496C95.6138 39.0615 95.9848 39.3087 96.3931 39.4771C96.8013 39.6454 97.2388 39.7316 97.6804 39.7307Z" fill="#263238"/>
<path d="M95.5443 76.0985L93.7697 76.075L93.7354 78.6613L95.51 78.6848L95.5443 76.0985Z" fill="#B16668"/>
<path d="M94.3056 55.4978C94.4637 53.7207 94.8437 50.6409 94.8437 50.6409L99.3891 50.3743C100.125 51.5212 99.8044 53.4423 99.6038 55.1556L97.0078 65.3319C97.0597 65.8205 97.5081 66.8541 97.0078 69.4737C96.4485 72.4002 95.6178 76.5939 95.6178 76.5939C95.6178 76.5939 94.3221 77.2452 93.6826 76.5349C93.6826 76.5349 93.3404 67.0241 93.5811 64.4989C93.8383 61.7518 94.1994 56.7156 94.3056 55.4978Z" fill="#37474F"/>
<path d="M93.7534 77.7786V77.5237C93.5835 77.5945 93.0926 79.0199 92.4554 79.7303C91.7592 80.5067 91.1173 81.0141 90.8034 81.3634C90.388 81.8354 91.2612 82.4207 92.4884 82.2272C93.0997 82.1328 94.1593 81.7127 94.4283 81.3209C94.6974 80.9292 94.8295 80.3439 95.049 80.056C95.2685 79.768 95.757 79.4494 95.8868 79.112C95.9272 78.7945 95.8966 78.4721 95.7971 78.168C95.7193 77.8541 95.6343 77.5072 95.5281 77.5355C95.5281 77.5732 95.5281 77.729 95.5281 77.729C95.2818 77.9615 94.9737 78.118 94.6407 78.1798C94.3528 78.2388 93.751 78.0877 93.7534 77.7786Z" fill="#263238"/>
<path d="M95.3842 47.0797C95.2709 48.1181 94.6006 52.628 94.6006 52.628C98.0274 54.4547 102.278 53.244 102.927 52.4912C102.339 50.5512 101.704 49.4468 101.22 48.9323L101.952 46.0814C101.952 46.0814 100.3 44.3209 101.77 41.5479L99.9531 41.3992L97.2863 41.3213C96.6491 41.3567 96.1936 41.418 96.1936 41.418C95.7064 42.2268 95.2887 43.0755 94.9452 43.955C94.6809 44.6442 94.4 45.6519 95.3842 47.0797Z" fill="#F0F0F0"/>
<path d="M95.7735 34.0737C95.344 34.3286 94.813 35.4095 94.8649 37.6774C94.9098 39.5985 95.5328 40.0729 95.8443 40.2097C96.1558 40.3466 96.76 40.264 97.3476 40.1649V41.3189C97.3476 41.3189 96.5358 42.2629 96.5877 42.7892C96.6396 43.3155 97.7677 43.4429 98.5158 42.9261C99.0644 42.5006 99.5369 41.9851 99.913 41.4015L99.8988 38.7512C99.8988 38.7512 100.246 39.0864 100.831 38.5742C101.303 38.1518 101.475 37.4414 101.1 37.0591C101.002 36.9682 100.884 36.9018 100.756 36.8653C100.628 36.8288 100.492 36.8234 100.362 36.8495C100.231 36.8755 100.108 36.9323 100.003 37.0151C99.8985 37.0979 99.815 37.2044 99.7596 37.3258C99.7596 37.3258 98.8156 37.3588 97.5813 36.6744C97.0966 36.4138 96.6803 36.0424 96.3661 35.5904C96.052 35.1385 95.849 34.6189 95.7735 34.0737Z" fill="#B16668"/>
<path d="M97.0102 37.1937C97.0065 37.2268 97.0099 37.2603 97.0201 37.292C97.0303 37.3237 97.0471 37.3528 97.0694 37.3776C97.0917 37.4023 97.119 37.4221 97.1494 37.4355C97.1799 37.449 97.2129 37.4558 97.2462 37.4556C97.2956 37.4584 97.3448 37.4464 97.3874 37.4211C97.4301 37.3959 97.4643 37.3586 97.4857 37.3139C97.5071 37.2692 97.5147 37.2191 97.5076 37.1701C97.5005 37.1211 97.479 37.0752 97.4459 37.0384C97.4127 37.0016 97.3694 36.9755 97.3213 36.9633C97.2733 36.9512 97.2227 36.9536 97.1761 36.9702C97.1294 36.9868 97.0887 37.0169 97.0592 37.0567C97.0296 37.0965 97.0126 37.1442 97.0102 37.1937Z" fill="#263238"/>
<path d="M96.9464 38.822L96.3848 39.0014C96.3951 39.039 96.4128 39.0741 96.4369 39.1047C96.461 39.1354 96.4909 39.1609 96.525 39.1798C96.5591 39.1987 96.5966 39.2106 96.6353 39.2148C96.674 39.219 96.7132 39.2155 96.7506 39.2043C96.8257 39.1775 96.8878 39.123 96.9242 39.0519C96.9605 38.9809 96.9685 38.8987 96.9464 38.822Z" fill="#9A4A4D"/>
<path d="M95.0302 36.4526L95.5187 36.1127C95.4981 36.0799 95.4711 36.0515 95.4393 36.0294C95.4074 36.0074 95.3714 35.992 95.3335 35.9843C95.2955 35.9765 95.2563 35.9766 95.2184 35.9845C95.1805 35.9924 95.1445 36.0079 95.1128 36.0301C95.0477 36.0768 95.003 36.1465 94.9876 36.225C94.9723 36.3035 94.9875 36.3849 95.0302 36.4526Z" fill="#263238"/>
<path d="M95.1411 37.0191C95.1412 37.0649 95.1547 37.1097 95.1799 37.148C95.2051 37.1863 95.2409 37.2164 95.2829 37.2347C95.3249 37.253 95.3714 37.2587 95.4166 37.251C95.4618 37.2433 95.5038 37.2226 95.5374 37.1915C95.571 37.1603 95.5949 37.1201 95.606 37.0756C95.6171 37.0311 95.6151 36.9844 95.6001 36.9411C95.585 36.8978 95.5578 36.8597 95.5215 36.8317C95.4853 36.8036 95.4416 36.7867 95.3959 36.7831C95.331 36.7811 95.2679 36.8048 95.2202 36.8489C95.1725 36.8931 95.1441 36.9542 95.1411 37.0191Z" fill="#263238"/>
<path d="M96.281 36.8822L96.2432 38.336L95.4786 38.1L96.281 36.8822Z" fill="#9A4A4D"/>
<path d="M97.3477 40.1649C97.966 40.0847 99.2357 39.7189 99.4339 39.2209C99.3544 39.4755 99.1987 39.6996 98.9879 39.8629C98.6079 40.1885 97.3477 40.5543 97.3477 40.5543V40.1649Z" fill="#9A4A4D"/>
<path d="M102.424 37.0048L103.29 36.37C103.251 36.3113 103.201 36.2611 103.142 36.2224C103.084 36.1836 103.018 36.1572 102.948 36.1446C102.879 36.1321 102.808 36.1336 102.739 36.1492C102.671 36.1648 102.606 36.1942 102.549 36.2355C102.434 36.3233 102.356 36.4521 102.333 36.5952C102.31 36.7384 102.342 36.885 102.424 37.0048Z" fill="#263238"/>
<path d="M98.176 59.8166L97.4326 56.0807C96.7758 55.8481 96.1522 55.5308 95.5776 55.1367C95.9447 55.6013 96.3828 56.0051 96.8756 56.3332L98.176 59.8166Z" fill="#263238"/>
<path d="M101.952 39.7472C101.164 39.3483 101.272 38.6026 101.671 37.812C102.07 37.0214 102.603 36.4904 103.394 36.8869C103.759 37.086 104.033 37.4194 104.157 37.8166C104.281 38.2138 104.245 38.6437 104.058 39.0152C103.871 39.3868 103.546 39.6709 103.153 39.8075C102.76 39.9441 102.329 39.9225 101.952 39.7472Z" fill="#263238"/>
<path d="M89.2364 51.5519C89.6328 51.6557 90.0175 51.6227 90.565 51.8115C90.929 51.9694 91.3258 52.0366 91.7214 52.0074C92.2359 51.9743 93.5788 51.3395 94.7706 50.615C96.0781 49.766 97.23 48.6987 98.176 47.4597C99.2546 45.9327 100.449 43.5232 101.02 42.6028C101.591 41.6824 101.787 41.5479 101.787 41.5479C102.533 41.5785 103.274 42.2558 102.778 44.0825C102.367 45.5882 101.265 47.5399 99.9083 49.1824C98.8772 50.3969 97.6533 51.4334 96.2857 52.2504C95.0254 53.0198 93.9257 53.4021 92.5097 53.8718C92.1274 53.9992 91.8772 54.188 91.1786 54.5184C90.8973 54.6709 90.5952 54.7814 90.2818 54.8464C89.8905 54.9029 89.4932 54.9029 89.1018 54.8464C88.6045 54.778 88.1349 54.5766 87.7425 54.2635C87.5275 54.0923 87.3554 53.8733 87.2398 53.624C87.1254 53.3713 87.1037 53.0863 87.1784 52.8192C87.1922 52.7651 87.2199 52.7154 87.2587 52.6752C87.2996 52.646 87.3459 52.6251 87.3949 52.6138C87.4439 52.6024 87.4946 52.6009 87.5442 52.6092C88.1159 52.666 88.6902 52.6936 89.2647 52.6918C89.7367 52.6587 90.0647 52.5691 89.9963 52.503C89.9278 52.4369 89.6541 52.4747 89.2765 52.3118C88.8989 52.149 88.6511 51.7903 88.7549 51.6038C88.8588 51.4174 88.8399 51.4481 89.2364 51.5519Z" fill="#B16668"/>
<path d="M86.6309 45.7534C87.1772 45.5164 87.78 45.441 88.3679 45.5363C88.8399 45.6142 88.8399 47.1883 87.3224 47.691C86.3336 48.0143 85.7388 47.8703 85.4202 48.6845C85.4202 48.6845 84.7783 48.5996 84.9246 47.691C85.0851 46.7526 85.5063 45.8784 86.14 45.1681C86.5743 44.6536 86.612 44.2241 86.8174 44.3657C87.0227 44.5073 86.9472 45.01 86.9472 45.01L86.6309 45.7534Z" fill="#B16668"/>
<path d="M25.3629 46.9028C26.4155 48.1607 28.3342 50.5608 29.3206 51.7998C29.8441 52.4464 30.1269 53.2547 30.1207 54.0866C30.1207 54.7026 29.946 55.2171 29.3419 54.9551C28.9076 54.7639 28.6339 54.5397 27.9943 53.912C27.4232 53.3479 25.3983 50.9148 25.3983 50.9148C25.3983 50.9148 23.8454 46.8296 22.9911 46.57C22.525 46.4164 22.0345 46.3508 21.5444 46.3765C22.5758 46.0201 24.0272 45.3121 25.3629 46.9028Z" fill="#F28F8F"/>
<path d="M21.0347 45.5599C22.0896 44.7669 23.8667 44.9723 24.8626 46.1664C25.5871 47.042 27.3075 49.1778 27.3075 49.1778C27.0976 49.6455 26.7919 50.064 26.4102 50.4063C26.0285 50.7485 25.5793 51.007 25.0915 51.1649L21.0347 45.5599Z" fill="#E0E0E0"/>
<path d="M41.2246 73.7382C41.2246 73.7382 38.2604 62.9931 34.0809 52.864C29.9344 42.8316 23.5411 32.653 22.472 31.1166L22.4579 31.0977L22.4414 31.0741C22.3393 30.9386 22.1972 30.8385 22.0351 30.7881C21.8731 30.7377 21.6993 30.7395 21.5384 30.7933C21.3774 30.847 21.2374 30.95 21.1381 31.0876C21.0389 31.2252 20.9854 31.3906 20.9852 31.5603C20.985 31.6223 20.9922 31.6841 21.0065 31.7444C21.0065 31.7444 23.8385 45.64 27.9284 55.5072C32.0182 65.3744 37.6044 75.2486 37.6044 75.2486C37.6951 75.3784 37.8144 75.4857 37.9531 75.5622C38.0918 75.6387 38.2462 75.6824 38.4044 75.6899C38.8884 75.7266 39.3743 75.6489 39.8228 75.4632C40.2713 75.2775 40.6698 74.9889 40.9862 74.6208C41.0907 74.5017 41.1665 74.3602 41.2078 74.2072C41.2491 74.0542 41.2548 73.8938 41.2246 73.7382Z" fill="#02002D"/>
<path opacity="0.1" d="M20.9828 31.5697C20.9826 31.6317 20.9897 31.6935 21.004 31.7538C21.004 31.7538 23.836 45.6495 27.9259 55.5167C30.6706 62.1553 34.0949 68.794 36.0443 72.4308L38.1825 71.0761C38.1825 71.0761 21.1598 31.0647 21.7946 30.7603C21.6881 30.7599 21.5826 30.7807 21.4841 30.8212C21.3856 30.8617 21.2961 30.9213 21.2207 30.9965C21.1453 31.0717 21.0855 31.1611 21.0446 31.2594C21.0038 31.3578 20.9828 31.4632 20.9828 31.5697Z" fill="black"/>
<path d="M37.5925 75.258C37.2479 76.9926 36.6485 79.2204 37.7388 82.1138C38.9684 85.3989 42.6948 86.3051 44.4837 86.3075C46.9782 86.3075 48.5571 85.3824 48.5571 85.3824C48.5571 85.3824 47.2661 84.8868 46.7328 83.0224C46.6268 82.6161 46.562 82.2002 46.5393 81.781C46.4236 80.2706 46.3741 78.6257 45.0548 76.8014C44.0982 75.434 42.7698 74.3693 41.2269 73.7334L37.5925 75.258Z" fill="#EBEBEB"/>
<path d="M46.728 83.0224C46.6221 82.6161 46.5572 82.2002 46.5345 81.781C46.5345 81.7928 46.0837 83.7492 44.9816 83.6336C43.8795 83.518 43.5656 82.345 42.1001 82.345C40.3183 82.345 39.7047 83.8413 38.1777 83.0342C39.707 85.6042 42.8576 86.3051 44.4789 86.3075C46.9735 86.3075 48.5523 85.3824 48.5523 85.3824C48.5523 85.3824 47.2661 84.8868 46.728 83.0224Z" fill="#02002D"/>
<path opacity="0.1" d="M42.0741 83.6526C39.1902 81.6537 39.733 76.3366 39.818 75.4705L37.5925 75.2581C37.2479 76.9927 36.6485 79.2205 37.7388 82.1139C38.9684 85.399 42.6948 86.3052 44.4837 86.3076C46.9782 86.3076 48.5571 85.3825 48.5571 85.3825C48.5571 85.3825 45.4513 85.9961 42.0741 83.6526Z" fill="black"/>
<path d="M37.5925 75.2581C37.6832 75.3879 37.8025 75.4952 37.9412 75.5717C38.0799 75.6482 38.2343 75.6919 38.3925 75.6994C38.8765 75.736 39.3624 75.6584 39.8109 75.4727C40.2594 75.287 40.6579 74.9984 40.9744 74.6303C41.0825 74.5112 41.1616 74.3687 41.2054 74.2139C41.2493 74.0592 41.2566 73.8963 41.2269 73.7382C40.8068 72.2467 40.323 70.6301 39.7967 68.9309C39.9006 69.2613 39.7967 69.6672 39.4876 70.0826C39.0888 70.5481 38.5858 70.913 38.0195 71.1475C37.4532 71.3821 36.8395 71.4797 36.2284 71.4325C35.695 71.3641 35.3363 71.1328 35.1829 70.8166C36.108 72.5464 36.9718 74.163 37.5925 75.2581Z" fill="#455A64"/>
<path d="M38.1825 71.076C37.5759 71.3711 36.9001 71.4944 36.2284 71.4324C35.695 71.3639 35.3363 71.1326 35.1829 70.8164C36.1033 72.5463 36.9718 74.1629 37.5925 75.2579C37.6832 75.3878 37.8025 75.495 37.9412 75.5715C38.0799 75.6481 38.2343 75.6917 38.3925 75.6992C38.8769 75.7415 39.364 75.6603 39.8085 75.4632L39.8345 75.4184L38.1825 71.0689V71.076Z" fill="#37474F"/>
<path d="M23.1119 41.8143C24.4883 41.4894 25.3407 40.1103 25.0159 38.734C24.691 37.3576 23.3119 36.5052 21.9355 36.83C20.5592 37.1549 19.7068 38.534 20.0316 39.9103C20.3565 41.2867 21.7356 42.1391 23.1119 41.8143Z" fill="#263238"/>
<path d="M16.3973 85.72H18.2003V82.6331H16.3973V85.72Z" fill="#FFA8A7"/>
<path d="M22.6465 82.4679L24.4496 82.5293L24.5393 79.263L22.7386 79.2017L22.6465 82.4679Z" fill="#FFA8A7"/>
<path d="M16.52 58.1646C16.52 59.8874 16.284 70.3209 16.284 70.3209C16.2415 70.8165 15.779 71.7369 15.8781 73.6249C16.015 76.2091 16.2392 82.9304 16.2392 82.9304C16.2392 82.9304 17.084 83.7682 18.2782 82.9304C18.2782 82.9304 19.9113 73.6343 20.2323 71.0714C20.532 68.8435 21.004 62.776 21.004 62.776L22.6749 69.9244C22.6749 69.9244 22.3799 71.6047 22.3162 72.7895C22.2524 73.9742 22.6206 80.1857 22.6206 80.1857C22.913 80.3684 23.2481 80.4713 23.5926 80.4841C23.9371 80.4969 24.279 80.4193 24.5841 80.2589C24.5841 80.2589 26.0308 70.892 26.2172 69.8206C26.4037 68.7492 24.9499 58.1693 24.9499 58.1693L16.52 58.1646Z" fill="#37474F"/>
<path d="M18.2475 45.7109C17.8632 45.778 17.5074 45.9575 17.2252 46.2268C16.9429 46.496 16.7468 46.8429 16.6616 47.2236C16.5636 47.6733 16.5146 48.1322 16.5153 48.5924V58.1646C17.7779 59.5405 22.1793 60.18 24.9475 58.1646C24.9475 58.1646 24.8933 49.7111 24.6856 48.321C24.3269 45.9068 23.1728 45.0477 22.0117 45.1374L19.2293 45.548L18.2475 45.7109Z" fill="#F0F0F0"/>
<path d="M18.1012 41.1396C18.1012 41.1396 18.5166 43.089 18.6818 43.41C18.7935 43.6065 18.9757 43.7533 19.1915 43.8206L19.1632 42.4494L18.1012 41.1396Z" fill="#263238"/>
<path d="M18.6228 38.3477C18.4776 38.3311 18.3305 38.3477 18.1927 38.3964C18.0549 38.445 17.93 38.5244 17.8275 38.6285C17.4853 38.9778 17.6764 40.0705 18.1012 41.1396L18.8824 41.2292L18.6228 38.3477Z" fill="#263238"/>
<path d="M19.116 41.2316C18.9602 41.3236 18.736 41.0239 18.5425 40.8209C18.349 40.618 17.7189 40.3489 17.405 41.005C17.0911 41.6611 17.6835 42.5744 18.1791 42.7302C19.0358 42.9992 19.1632 42.4493 19.1632 42.4493L19.2293 45.548C19.4181 45.962 19.7067 46.3227 20.0691 46.5978C20.4316 46.873 20.8566 47.0539 21.3061 47.1245C22.8236 47.3298 22.512 46.079 22.0141 45.4725V44.5285C22.3955 44.5895 22.7824 44.6101 23.1681 44.5899C23.7982 44.4907 24.1947 43.9951 24.3835 43.3131C24.6903 42.2204 24.8083 41.3354 24.5464 39.1855C24.2632 36.8255 21.5185 36.8019 20.0388 37.7341C18.559 38.6663 19.116 41.2316 19.116 41.2316Z" fill="#FFA8A7"/>
<path d="M19.116 41.4936C19.0381 41.4936 18.7384 40.998 18.5425 40.821C18.2735 40.585 18.6228 38.3477 18.6228 38.3477C18.5513 38.1552 18.5377 37.946 18.5839 37.7459C18.63 37.5459 18.7338 37.3637 18.8824 37.222C19.2529 36.8161 19.8712 36.7689 20.9285 36.6037C21.4807 36.5163 22.3209 36.3677 22.8755 36.2591C23.5363 36.1364 24.0838 36.0066 24.5487 36.4125C24.7309 36.5715 24.8599 36.7826 24.9181 37.0173C24.9764 37.252 24.9611 37.4989 24.8744 37.7247C24.826 37.8272 24.7623 37.9219 24.6856 38.0055C24.5601 38.1541 24.3971 38.2666 24.2136 38.3312C24.2136 38.3312 23.9257 38.5884 22.9227 38.7088C21.9972 38.7783 21.0672 38.7609 20.145 38.6569C19.8547 38.6167 19.7933 38.8929 19.6352 39.6693C19.496 40.3561 19.3803 41.4889 19.116 41.4936Z" fill="#263238"/>
<path d="M18.6228 38.5224L17.6788 38.0126C17.7091 37.9501 17.7517 37.8942 17.8039 37.8483C17.8562 37.8025 17.9171 37.7675 17.9831 37.7455C18.049 37.7235 18.1187 37.7149 18.1881 37.7203C18.2574 37.7256 18.325 37.7448 18.3868 37.7766C18.5145 37.8467 18.6102 37.9633 18.6542 38.1022C18.6981 38.2411 18.6869 38.3916 18.6228 38.5224Z" fill="#263238"/>
<path d="M22.0094 44.5145C22.0094 44.5145 20.5934 44.2336 20.1214 43.9717C19.8324 43.8209 19.5955 43.5865 19.4417 43.2991C19.5145 43.5864 19.6445 43.8561 19.824 44.092C20.1828 44.5522 22.0118 44.8897 22.0118 44.8897L22.0094 44.5145Z" fill="#F28F8F"/>
<path d="M21.6719 40.88C21.6705 40.9352 21.6528 40.9888 21.6211 41.034C21.5895 41.0793 21.5451 41.1141 21.4937 41.1343C21.4423 41.1545 21.386 41.1591 21.332 41.1474C21.278 41.1358 21.2287 41.1085 21.1901 41.069C21.1515 41.0294 21.1255 40.9794 21.1152 40.9251C21.1049 40.8708 21.1109 40.8147 21.1323 40.7638C21.1538 40.7129 21.1898 40.6695 21.2358 40.6389C21.2818 40.6084 21.3358 40.5921 21.391 40.592C21.4284 40.5923 21.4654 40.6001 21.4998 40.6147C21.5342 40.6294 21.5653 40.6507 21.5914 40.6775C21.6176 40.7043 21.6381 40.7359 21.6519 40.7707C21.6657 40.8054 21.6725 40.8426 21.6719 40.88Z" fill="#263238"/>
<path d="M21.3745 39.8179L20.768 40.1483C20.7272 40.0666 20.7189 39.9725 20.7447 39.8849C20.7706 39.7974 20.8286 39.7228 20.9072 39.6763C20.9469 39.6535 20.9908 39.6391 21.0362 39.6339C21.0817 39.6287 21.1277 39.6329 21.1715 39.6461C21.2152 39.6594 21.2558 39.6815 21.2908 39.711C21.3257 39.7406 21.3542 39.7769 21.3745 39.8179Z" fill="#263238"/>
<path d="M21.8819 42.8247L22.5262 43.0607C22.5122 43.1038 22.4896 43.1436 22.4598 43.1778C22.4301 43.2119 22.3937 43.2397 22.353 43.2596C22.3123 43.2794 22.2679 43.2908 22.2227 43.2931C22.1774 43.2955 22.1322 43.2886 22.0896 43.2731C22.0041 43.2392 21.9349 43.1738 21.8963 43.0904C21.8576 43.0069 21.8525 42.9118 21.8819 42.8247Z" fill="#F28F8F"/>
<path d="M24.1829 40.0516L23.6331 39.6291C23.6588 39.5928 23.6916 39.562 23.7295 39.5385C23.7674 39.5151 23.8096 39.4995 23.8536 39.4927C23.8976 39.4859 23.9425 39.488 23.9857 39.4988C24.0289 39.5097 24.0695 39.5291 24.1051 39.556C24.1792 39.6127 24.2287 39.6959 24.2432 39.7882C24.2577 39.8805 24.2361 39.9748 24.1829 40.0516Z" fill="#263238"/>
<path d="M24.013 40.7997C24.0107 40.8547 23.9923 40.9078 23.9601 40.9524C23.9278 40.997 23.8832 41.0312 23.8317 41.0506C23.7803 41.0701 23.7242 41.074 23.6705 41.0619C23.6168 41.0497 23.5679 41.0221 23.5298 40.9824C23.4917 40.9427 23.4661 40.8926 23.4562 40.8385C23.4463 40.7844 23.4525 40.7285 23.474 40.6779C23.4956 40.6273 23.5316 40.5841 23.5775 40.5537C23.6234 40.5233 23.6772 40.5071 23.7322 40.5071C23.77 40.5074 23.8073 40.5152 23.8421 40.5302C23.8768 40.5452 23.9081 40.5669 23.9343 40.5942C23.9605 40.6215 23.9809 40.6537 23.9945 40.689C24.008 40.7243 24.0143 40.7619 24.013 40.7997Z" fill="#263238"/>
<path d="M22.5805 40.5331L22.6725 42.2252L23.5552 41.9255L22.5805 40.5331Z" fill="#F28F8F"/>
<path d="M18.198 84.8278V84.5706C18.3726 84.6461 18.7715 86.1754 19.4889 86.8267C20.0577 87.3459 20.8317 87.9454 21.03 88.5236C21.2282 89.1018 19.9491 89.4676 19.4181 89.3637C18.7998 89.2528 17.7307 88.8186 17.4617 88.4197C17.1926 88.0209 17.0675 87.4238 16.8504 87.1288C16.6333 86.8338 16.1283 86.5034 16.0103 86.1612C15.9442 85.9724 16.0103 85.5618 16.1141 85.2172C16.2179 84.8726 16.2864 84.547 16.3949 84.5776C16.3949 84.6154 16.3949 84.7735 16.3949 84.7735C16.6513 84.9759 16.9698 85.0835 17.2965 85.078C17.5608 85.0827 18.2003 85.0284 18.198 84.8278Z" fill="#263238"/>
<path d="M24.4685 81.9723C24.5629 81.9723 24.6384 82.1091 24.8437 82.331C25.1527 82.6431 25.5117 82.9016 25.9057 83.0956C26.5807 83.4331 27.8928 83.9523 28.4876 84.2214C28.8581 84.3866 28.8416 84.835 28.4569 85.0922C28.0722 85.3494 27.1471 85.5288 26.0355 85.281C25.429 85.1465 24.6408 84.5872 24.1475 84.6155C23.6543 84.6438 22.7126 84.6391 22.3445 84.3795C21.9763 84.1199 22.1226 83.5818 22.2288 83.1169C22.3421 82.6071 22.5049 81.8283 22.6725 81.8637V82.0242C22.8896 82.3522 23.9918 82.4962 24.4685 82.2437V81.9723Z" fill="#263238"/>
<path d="M21.004 62.776C21.9361 62.4851 22.7931 61.9938 23.5151 61.3364C23.5151 61.3364 23.0289 62.2427 21.5893 63.0875L22.1297 67.6966L21.004 62.776Z" fill="#263238"/>
<path d="M31.093 56.0452C30.6965 56.1467 30.3142 56.1136 29.7667 56.3024C29.4022 56.4614 29.0044 56.5287 28.6079 56.4983C28.0958 56.4676 26.7506 55.8304 25.5588 55.1083C24.255 54.2571 23.1064 53.1891 22.1627 51.9506C21.0842 50.4237 19.8901 48.0165 19.3307 47.0961C18.7714 46.1757 18.2192 46.0766 17.5843 46.1049C16.8386 46.1356 16.3619 46.8129 17.0179 48.2289C17.9547 50.16 19.1041 51.9806 20.4447 53.6569C21.4748 54.8713 22.6979 55.9079 24.0649 56.7249C25.3251 57.4966 26.4249 57.8766 27.8409 58.3462C28.2232 58.4736 28.4757 58.6624 29.1743 58.9928C29.4547 59.1461 29.7561 59.2574 30.0687 59.3232C30.46 59.3808 30.8575 59.3808 31.2487 59.3232C31.7459 59.2556 32.2155 59.055 32.6081 58.7427C32.8244 58.5712 32.9974 58.3513 33.1131 58.1008C33.2268 57.8478 33.2477 57.5628 33.1721 57.296C33.1587 57.2422 33.1319 57.1927 33.0943 57.152C33.011 57.0943 32.9088 57.0707 32.8087 57.086C32.2363 57.1436 31.6612 57.172 31.0859 57.1709C30.6139 57.1355 30.2882 57.0482 30.3543 56.9821C30.4204 56.916 30.6989 56.9538 31.0765 56.791C31.4541 56.6281 31.6995 56.267 31.598 56.083C31.4965 55.8989 31.4895 55.9437 31.093 56.0452Z" fill="#FFA8A7"/>
<path d="M17.8156 45.8406C17.2422 45.8689 16.5011 46.2182 16.5153 47.1976C16.5294 48.177 18.0328 51.0208 19.1915 52.6445C19.1915 52.6445 21.0016 52.5288 21.9504 51.1648C21.9504 51.1648 20.2606 48.4767 19.8028 47.6248C19.3898 46.8483 18.644 45.7981 17.8156 45.8406Z" fill="#E0E0E0"/>
<path d="M32.804 49.9092C32.2828 49.6892 31.7089 49.6253 31.152 49.7252C30.68 49.803 30.68 51.3772 32.1975 51.8798C33.1863 52.2032 33.781 52.0616 34.0996 52.8734C34.0996 52.8734 34.7392 52.7884 34.5952 51.8798C34.4365 50.9429 34.0188 50.069 33.3893 49.357C32.9527 48.8425 32.9173 48.413 32.7096 48.557C32.5019 48.7009 32.5043 49.2296 32.5043 49.2296L32.804 49.9092Z" fill="#FFA8A7"/>
<path d="M74.2456 56.4466L65.5844 56.3286L65.5089 63.4086C65.5089 64.0482 65.9171 64.6925 66.7573 65.1904C68.44 66.1863 71.1823 66.2147 72.8933 65.2565C73.7523 64.7727 74.1819 64.1308 74.1795 63.4841L74.2456 56.4466Z" fill="#37474F"/>
<path d="M66.8729 54.5751C65.1714 55.5356 65.1548 57.1191 66.8352 58.1151C68.5155 59.111 71.2578 59.1393 72.9594 58.1811C74.6609 57.223 74.6798 55.6394 72.9995 54.6411C71.3192 53.6429 68.5745 53.6169 66.8729 54.5751Z" fill="#455A64"/>
<path d="M73.868 56.4183C73.866 56.5342 73.8452 56.6489 73.8066 56.7582C73.6768 57.1641 73.3228 57.5393 72.7706 57.8508C71.874 58.2898 70.8871 58.5129 69.8888 58.5023C68.8906 58.4916 67.9087 58.2475 67.0216 57.7895C66.4883 57.4732 66.139 57.0815 66.0163 56.6968C65.9749 56.5801 65.9542 56.4571 65.9549 56.3334C65.9549 55.8071 66.3514 55.2973 67.0547 54.9174C67.9517 54.48 68.9384 54.2578 69.9364 54.2684C70.9344 54.2791 71.9161 54.5223 72.8036 54.9787C73.5022 55.3776 73.868 55.8897 73.868 56.4183Z" fill="#263238"/>
<path d="M73.8114 56.7581C73.6816 57.164 73.3276 57.5392 72.7753 57.8507C71.8787 58.2897 70.8918 58.5128 69.8936 58.5022C68.8953 58.4915 67.9134 58.2474 67.0264 57.7894C66.493 57.4731 66.1437 57.0814 66.021 56.6967C66.2181 56.2164 66.5888 55.828 67.0594 55.6087C67.9552 55.1668 68.9424 54.9421 69.9412 54.9528C70.94 54.9634 71.9222 55.2092 72.8084 55.6701C73.264 55.8985 73.6206 56.2854 73.8114 56.7581Z" fill="#02002D"/>
<path d="M71.7605 59.0969C71.9517 58.9907 72.1027 59.0804 72.1004 59.2975C72.0927 59.4161 72.0573 59.5313 71.9971 59.6338C71.9368 59.7362 71.8534 59.8231 71.7534 59.8875C71.5623 59.9937 71.4112 59.904 71.4136 59.6869C71.4213 59.5683 71.4566 59.4531 71.5169 59.3506C71.5771 59.2482 71.6606 59.1613 71.7605 59.0969Z" fill="#263238"/>
<path d="M65.5702 57.5841C65.0982 58.5281 64.1542 60.756 65.3767 61.6669C65.4286 61.7047 65.4758 61.7377 65.5277 61.7708V62.2215C65.405 62.1484 65.2776 62.0634 65.1549 61.9737C63.3164 60.6097 65.3909 57.1145 65.4805 56.9682C65.5034 56.9289 65.5406 56.9002 65.5844 56.8879L65.5702 57.5841Z" fill="#E0E0E0"/>
<path d="M71.9233 59.5805C71.8714 59.6891 70.5333 62.2473 68.3314 62.7618C68.0826 62.8218 67.8275 62.8519 67.5715 62.8515C66.8413 62.8378 66.1304 62.615 65.523 62.2096V61.7588C66.4316 62.3889 67.3473 62.606 68.2417 62.3984C70.2737 61.9264 71.574 59.4295 71.5835 59.4059C71.5949 59.3839 71.6106 59.3643 71.6296 59.3484C71.6486 59.3324 71.6706 59.3204 71.6943 59.3129C71.718 59.3055 71.7429 59.3027 71.7676 59.3049C71.7923 59.3071 71.8164 59.3142 71.8384 59.3256C71.8612 59.3362 71.8817 59.3513 71.8985 59.37C71.9153 59.3888 71.9281 59.4108 71.9361 59.4347C71.944 59.4586 71.947 59.4838 71.9448 59.5089C71.9426 59.534 71.9353 59.5584 71.9233 59.5805Z" fill="#E0E0E0"/>
<path d="M60.7157 42.3667H40.8917L43.1078 60.6048C43.2092 61.6621 43.9479 62.7005 45.345 63.5076C48.3588 65.2469 53.2416 65.2469 56.253 63.5076C57.6501 62.7005 58.3911 61.6621 58.4926 60.6048L60.7157 42.3667Z" fill="#37474F"/>
<path d="M43.804 38.3171C47.6767 36.0821 53.952 36.0821 57.8271 38.3171C61.7022 40.552 61.6998 44.1793 57.8271 46.4142C53.9543 48.6491 47.6791 48.6491 43.804 46.4142C39.9288 44.1793 39.9312 40.5543 43.804 38.3171Z" fill="#455A64"/>
<path d="M50.8155 46.9405C48.3658 46.9405 46.079 46.4001 44.3798 45.4183C42.8765 44.5498 42.0505 43.4666 42.0505 42.3644C42.0505 41.2623 42.8765 40.1815 44.3798 39.313C46.079 38.3312 48.3658 37.7908 50.8155 37.7908C53.2652 37.7908 55.552 38.3312 57.2512 39.313C58.7546 40.1815 59.5806 41.2647 59.5806 42.3644C59.5806 43.4642 58.7546 44.5498 57.2512 45.4159C55.552 46.4001 53.2652 46.9405 50.8155 46.9405Z" fill="#263238"/>
<mask id="mask0_277_2149" style="mask-type:luminance" maskUnits="userSpaceOnUse" x="38" y="7" width="27" height="40">
<path d="M50.6834 46.9404C48.2337 46.9404 45.9468 46.4 44.2476 45.4182C42.7443 44.5498 41.9183 43.4665 41.9183 42.3644C41.9183 41.2623 38.2178 14.4763 38.2178 14.4763L47.0891 7.18152L64.7065 13.5771C64.7065 13.5771 59.5806 41.2646 59.5806 42.3691C59.5806 43.4736 58.6531 44.6135 57.1521 45.4796C55.46 46.4566 53.133 46.9404 50.6834 46.9404Z" fill="white"/>
</mask>
<g mask="url(#mask0_277_2149)">
<path d="M56.0264 23.6637L55.9155 24.3717L55.7739 25.2378L50.858 56.4347C51.3592 57.1647 52.118 57.6782 52.982 57.8719C54.28 58.2141 55.6984 57.9899 56.286 57.3385L61.1807 26.3848L61.4426 24.7328C61.2137 25.7901 55.8117 24.7351 56.0264 23.6637Z" fill="#02002D"/>
<path d="M55.5875 26.3989L55.3373 28.0061C55.25 28.4781 56.194 28.9241 57.3245 29.2073C58.8207 29.5849 60.6426 29.6628 60.7606 29.0492L60.9471 27.8692L61.0061 27.4444C60.8881 28.058 59.0661 27.9825 57.5699 27.6049C56.4867 27.3311 55.571 26.8969 55.5828 26.4556C55.5776 26.4367 55.5793 26.4167 55.5875 26.3989Z" fill="#EBEBEB"/>
<path d="M55.5285 26.8025C55.3208 27.8763 60.7417 28.9265 60.9565 27.8432L61.2113 26.2361C61.006 27.3099 55.5851 26.2691 55.7833 25.1953L55.5285 26.8025Z" fill="#02002D"/>
<path d="M56.0264 23.6637L55.7739 25.252C55.5639 26.3069 60.7866 27.376 61.1807 26.3871C61.1898 26.3685 61.1961 26.3486 61.1996 26.3281L61.4356 24.7281C61.2137 25.7901 55.8117 24.7351 56.0264 23.6637Z" fill="#EBEBEB"/>
<path opacity="0.1" d="M61.1807 26.3848L61.4426 24.7328C61.3388 25.2048 60.1777 25.2614 58.9576 25.0703L54.0134 58.0253L52.6469 64.3029L56.3049 57.3409L61.1807 26.3848Z" fill="black"/>
<path d="M57.0955 16.9306L56.0264 23.6637C55.9344 24.1215 56.8689 24.577 57.9876 24.8626C59.4838 25.2473 61.3128 25.3346 61.4426 24.7257L62.4692 18.2499C62.8327 16.7583 60.0785 15.6539 58.3628 15.963C57.7233 16.0669 57.2324 16.3737 57.0955 16.9306Z" fill="#FFA8A7"/>
<path d="M44.4955 55.814L44.3963 55.0918L44.2713 54.2234L39.8958 22.9557C40.3017 23.3734 41.3519 23.5953 42.4918 23.4726C43.8252 23.3286 45.0548 22.7811 45.3474 22.1462L49.6898 53.1826L49.9258 54.8464C49.7181 53.7773 44.2996 54.7378 44.4955 55.814Z" fill="#02002D"/>
<path d="M42.1308 16.8055C41.3378 17.0109 41.057 16.8457 41.057 16.8457L39.8982 22.9557C40.5307 23.8643 42.0718 24.0531 43.3768 23.6637L43.3367 23.364L42.1308 16.8055Z" fill="#FFA8A7"/>
<path d="M42.5107 16.4918L41.8216 15.1206L42.5107 16.4918Z" fill="#E0E0E0"/>
<path d="M41.3732 15.1843L41.0569 16.8363C41.0569 16.8363 41.326 17.0274 42.1307 16.7962L41.8216 15.1111C41.808 15.0832 41.789 15.0582 41.7658 15.0376C41.7425 15.0171 41.7154 15.0013 41.686 14.9912C41.6566 14.9811 41.6255 14.9769 41.5945 14.9789C41.5635 14.9808 41.5332 14.9889 41.5053 15.0026C41.4699 15.0195 41.4393 15.045 41.4163 15.0767C41.3932 15.1084 41.3784 15.1454 41.3732 15.1843Z" fill="#455A64"/>
<path opacity="0.1" d="M49.6969 53.1826L45.3545 22.1533C45.0477 22.892 44.2666 23.4159 43.3768 23.6732L47.4502 54.4641C48.675 54.2942 49.8338 54.3626 49.9282 54.8464L49.6969 53.1826Z" fill="black"/>
<path d="M45.3545 22.1534L42.5083 16.4894C42.4224 16.6353 42.2879 16.7464 42.1284 16.8033L43.3367 23.3641L43.3768 23.6685C44.2665 23.416 45.0477 22.8921 45.3545 22.1534Z" fill="#F28F8F"/>
<path d="M42.1308 16.8056C42.2137 16.7855 42.291 16.7468 42.3568 16.6924C42.4226 16.638 42.4753 16.5694 42.5107 16.4918L41.8216 15.1206L42.1308 16.8056Z" fill="#37474F"/>
<path d="M49.055 20.1332C49.055 20.1332 48 28.5962 47.9906 36.9765C47.9906 45.2837 49.5175 54.3532 49.8243 55.7527C49.8243 55.7527 49.8243 55.7527 49.8243 55.7692C49.8254 55.7771 49.8254 55.785 49.8243 55.7928C49.8554 55.9208 49.9264 56.0356 50.027 56.1206C50.1277 56.2056 50.2527 56.2563 50.3841 56.2655C50.5155 56.2747 50.6464 56.2419 50.7579 56.1717C50.8694 56.1016 50.9557 55.9978 51.0043 55.8754C51.0226 55.8316 51.0353 55.7856 51.0421 55.7385C51.0421 55.7385 53.1 45.0761 53.1165 36.9105C53.133 28.7449 52.0687 20.1238 52.0687 20.1238C52.0406 20.0075 51.9868 19.8991 51.9112 19.8064C51.8357 19.7136 51.7403 19.639 51.6321 19.5881C51.3008 19.4198 50.9345 19.332 50.563 19.332C50.1915 19.332 49.8252 19.4198 49.4939 19.5881C49.3835 19.6387 49.2864 19.7143 49.2102 19.8089C49.134 19.9035 49.0809 20.0145 49.055 20.1332Z" fill="#02002D"/>
<path opacity="0.1" d="M51.0067 55.8754C51.025 55.8316 51.0377 55.7856 51.0444 55.7385C51.0444 55.7385 53.1 45.076 53.1165 36.9104C53.1165 31.414 52.6445 25.717 52.333 22.5758L50.4261 22.9062C50.4261 22.9062 50.7329 56.1822 50.1901 56.2105C50.2657 56.2426 50.3469 56.2594 50.429 56.2599C50.511 56.2604 50.5924 56.2446 50.6684 56.2134C50.7443 56.1822 50.8133 56.1363 50.8714 56.0783C50.9295 56.0203 50.9754 55.9513 51.0067 55.8754Z" fill="black"/>
<path d="M50.5583 19.3213C50.8226 18.8257 52.2646 16.1495 51.7996 13.9689C51.5094 13.961 51.2231 13.9002 50.9548 13.7895C49.9187 13.36 50.0414 12.4396 49.3028 12.0337C48.5641 11.6277 47.6696 12.8785 47.6626 12.8903C47.3015 13.9901 46.8531 15.1677 47.2519 16.8457C47.5291 18.0912 48.1573 19.2312 49.062 20.1308H52.0758L50.5583 19.3213Z" fill="#F0F0F0"/>
<path opacity="0.1" d="M53.9307 14.4503C53.2888 13.6786 52.6304 13.9972 51.8067 13.9783C52.2787 16.1589 50.8297 18.8352 50.5654 19.3308L52.0758 20.1308C52.2646 19.85 52.4723 19.5503 52.6776 19.2246C52.7295 19.1443 52.7814 19.0594 52.8333 18.9744C52.9372 18.8045 53.0386 18.6251 53.1354 18.4387C53.2902 18.1449 53.4258 17.8414 53.5413 17.5301C53.6192 17.313 53.6924 17.0864 53.7537 16.8457C53.8919 16.322 53.971 15.7845 53.9897 15.2433C53.9936 14.9777 53.9738 14.7124 53.9307 14.4503Z" fill="black"/>
<path d="M53.9283 14.4385C53.9071 14.304 53.8811 14.1742 53.8505 14.0444V14.0066C53.8245 13.9099 53.7962 13.8131 53.7655 13.7211L53.7301 13.6125C53.7301 13.5842 53.7065 13.5559 53.6971 13.5275L53.6381 13.3789C53.6121 13.3175 53.5862 13.2585 53.5578 13.2019C53.4916 13.0686 53.4175 12.9394 53.336 12.8148C53.2628 12.6897 53.185 12.5788 53.1 12.4514C53.015 12.3239 52.9324 12.2154 52.8428 12.1139C52.2847 11.4466 51.6027 10.8936 50.8344 10.4855L50.6668 10.4005L50.6196 10.3769L50.4261 10.292C50.0261 10.1243 49.6124 9.99164 49.1895 9.89551C49.0007 9.85303 48.8213 9.82235 48.6538 9.79639C48.4862 9.77043 48.3304 9.75627 48.1818 9.74683L47.9788 9.73267H47.7994H47.5115C47.3534 9.73267 47.2755 9.75155 47.2755 9.75155C47.2755 9.75155 48.0449 10.4808 47.875 11.9534C47.8283 12.2752 47.7492 12.5915 47.639 12.8974C47.639 12.8974 48.5358 11.6372 49.2792 12.0407C50.0226 12.4443 49.9022 13.3671 50.9312 13.7966C51.1995 13.9073 51.4858 13.9681 51.776 13.9759C52.6068 14.0043 53.2652 13.6857 53.9 14.4479L53.9283 14.4385Z" fill="#02002D"/>
<path opacity="0.1" d="M47.2826 9.75155C47.2826 9.75155 49.6591 10.2235 51.3607 12.8738C51.5725 13.209 51.7212 13.5802 51.7996 13.9689C52.6304 13.9972 53.2888 13.6786 53.9236 14.4409C53.9024 14.3063 53.8764 14.1765 53.8458 14.0467V14.009C53.8198 13.9122 53.7915 13.8155 53.7608 13.7234L53.7254 13.6149C53.7254 13.5865 53.7018 13.5582 53.6923 13.5299L53.6333 13.3812C53.6074 13.3199 53.5814 13.2609 53.5531 13.2042C53.4875 13.0708 53.415 12.9408 53.336 12.8148C53.2628 12.6897 53.185 12.5788 53.1 12.4514C53.015 12.3239 52.9324 12.2154 52.8428 12.1139C52.2847 11.4466 51.6027 10.8936 50.8344 10.4855L50.6668 10.4005L50.6196 10.3769L50.4261 10.292C50.0261 10.1243 49.6124 9.99164 49.1895 9.89551C49.0007 9.85303 48.8213 9.82235 48.6538 9.79639C48.4862 9.77043 48.3304 9.75627 48.1818 9.74683L47.9788 9.73267H47.7994H47.5115C47.3534 9.73267 47.2755 9.75155 47.2755 9.75155H47.2826Z" fill="black"/>
<path d="M52.0687 20.1214C52.0401 20.0057 51.9861 19.8977 51.9106 19.8055C51.835 19.7132 51.7399 19.6389 51.6321 19.5881C51.3008 19.4198 50.9345 19.332 50.563 19.332C50.1914 19.332 49.8251 19.4198 49.4939 19.5881C49.3822 19.6393 49.2841 19.7163 49.2078 19.8127C49.1315 19.9091 49.0792 20.0221 49.0549 20.1427C48.9133 21.3227 48.7812 22.6065 48.6537 23.9611C48.6813 23.8044 48.7463 23.6567 48.8433 23.5305C48.9403 23.4043 49.0663 23.3035 49.2107 23.2366C49.629 23.0243 50.0915 22.9137 50.5606 22.9137C51.0297 22.9137 51.4922 23.0243 51.9105 23.2366C52.0582 23.3037 52.1867 23.4066 52.2844 23.5361C52.3821 23.6655 52.4458 23.8173 52.4699 23.9777C52.3259 22.4767 52.1867 21.0796 52.0687 20.1214Z" fill="#455A64"/>
<path d="M50.4261 22.9062C50.9442 22.8734 51.4612 22.9845 51.92 23.2272C52.0677 23.2942 52.1962 23.3972 52.2938 23.5266C52.3915 23.656 52.4553 23.8078 52.4793 23.9682C52.3354 22.4767 52.1961 21.0796 52.0781 20.1214C52.0486 20.0047 51.9931 19.8962 51.9159 19.8039C51.8387 19.7116 51.7417 19.6378 51.6321 19.588C51.3018 19.4128 50.9321 19.3251 50.5583 19.3332L50.5253 19.3568L50.4261 22.918V22.9062Z" fill="#37474F"/>
</g>
<path d="M61.4426 24.7258L62.4692 18.2499C62.4854 18.1842 62.4949 18.117 62.4975 18.0493C62.068 19.1562 59.944 18.5898 59.944 18.5898L58.9504 25.0609C60.18 25.252 61.3388 25.2072 61.4426 24.7258Z" fill="#F28F8F"/>
</g>
</svg>
