<svg width="425" height="188" viewBox="0 0 425 188" fill="none" xmlns="http://www.w3.org/2000/svg">
<path d="M490.625 18.375L392.5 -79.75H490.625V18.375Z" fill="#13924E"/>
<path d="M490.625 116.5V18.375H392.5L490.625 116.5Z" fill="#13924E"/>
<path d="M98.125 -79.75V18.375H196.25L98.125 -79.75Z" fill="#13924E"/>
<path d="M0 -79.75L98.125 18.375H0V-79.75Z" fill="#13924E"/>
<path d="M98.125 18.375V116.5H0L98.125 18.375Z" fill="#13924E"/>
<path d="M196.25 18.375H98.125V116.5L196.25 18.375Z" fill="#13924E"/>
<path d="M294.375 -79.75H392.5V18.375L294.375 -79.75Z" fill="#13924E"/>
<path d="M294.375 18.375L196.25 -79.75H294.375V18.375Z" fill="#13924E"/>
<path d="M196.25 116.5L294.375 18.375H196.25V116.5Z" fill="#13924E"/>
<path d="M392.5 18.375H343.438V67.4375L392.5 18.375Z" fill="#13924E"/>
<path d="M343.438 18.375H294.375V67.4375L343.438 18.375Z" fill="#13924E"/>
<path d="M294.375 116.5L343.438 67.4375V116.5H294.375Z" fill="#13924E"/>
<path d="M392.5 67.4375V116.5H343.438L392.5 67.4375Z" fill="#13924E"/>
<path d="M294.375 214.625V116.5L392.5 214.625H294.375Z" fill="#13924E"/>
<path d="M196.25 214.625V116.5L294.375 214.625H196.25Z" fill="#13924E"/>
<path d="M196.25 214.625H98.125V116.5L196.25 214.625Z" fill="#13924E"/>
<path d="M98.125 116.5V214.625H0L98.125 116.5Z" fill="#13924E"/>
<path d="M392.5 214.625H490.625L392.5 116.5V214.625Z" fill="#13924E"/>
</svg>
