<svg width="322" height="149" viewBox="0 0 322 149" fill="none" xmlns="http://www.w3.org/2000/svg">
<path opacity="0.72" d="M0 -20L23.6765 4.985" stroke="#13924E" stroke-width="5" stroke-linecap="round"/>
<path opacity="0.77" d="M23.6765 -20L47.353 4.985" stroke="#13924E" stroke-width="5" stroke-linecap="round"/>
<path opacity="0.96" d="M47.353 -20L71.0295 4.985" stroke="#13924E" stroke-width="5" stroke-linecap="round"/>
<path opacity="0.38" d="M71.0295 -20L94.7061 4.985" stroke="#13924E" stroke-width="5" stroke-linecap="round"/>
<path opacity="0.42" d="M94.7061 -20L118.383 4.985" stroke="#13924E" stroke-width="5" stroke-linecap="round"/>
<path opacity="0.79" d="M118.383 -20L142.059 4.985" stroke="#13924E" stroke-width="5" stroke-linecap="round"/>
<path opacity="0.74" d="M165.736 -20L142.059 4.985" stroke="#13924E" stroke-width="5" stroke-linecap="round"/>
<path opacity="0.65" d="M165.736 -20L189.412 4.985" stroke="#13924E" stroke-width="5" stroke-linecap="round"/>
<path opacity="0.5" d="M213.089 -20L189.412 4.985" stroke="#13924E" stroke-width="5" stroke-linecap="round"/>
<path opacity="0.88" d="M236.765 -20L213.089 4.985" stroke="#13924E" stroke-width="5" stroke-linecap="round"/>
<path opacity="0.47" d="M260.442 -20L236.765 4.985" stroke="#13924E" stroke-width="5" stroke-linecap="round"/>
<path opacity="0.47" d="M260.442 -20L284.118 4.985" stroke="#13924E" stroke-width="5" stroke-linecap="round"/>
<path opacity="0.2" d="M307.795 -20L284.118 4.985" stroke="#13924E" stroke-width="5" stroke-linecap="round"/>
<path opacity="0.59" d="M307.795 -20L331.471 4.985" stroke="#13924E" stroke-width="5" stroke-linecap="round"/>
<path d="M23.6765 4.98499L0 29.97" stroke="#13924E" stroke-width="5" stroke-linecap="round"/>
<path opacity="0.89" d="M23.6765 4.98499L47.353 29.97" stroke="#13924E" stroke-width="5" stroke-linecap="round"/>
<path opacity="0.19" d="M47.353 4.98499L71.0295 29.97" stroke="#13924E" stroke-width="5" stroke-linecap="round"/>
<path opacity="0.8" d="M71.0295 4.98499L94.7061 29.97" stroke="#13924E" stroke-width="5" stroke-linecap="round"/>
<path opacity="0.91" d="M94.7061 4.98499L118.383 29.97" stroke="#13924E" stroke-width="5" stroke-linecap="round"/>
<path opacity="0.52" d="M118.383 4.98499L142.059 29.97" stroke="#13924E" stroke-width="5" stroke-linecap="round"/>
<path opacity="0.46" d="M142.059 4.98499L165.736 29.97" stroke="#13924E" stroke-width="5" stroke-linecap="round"/>
<path opacity="0.21" d="M189.412 4.98499L165.736 29.97" stroke="#13924E" stroke-width="5" stroke-linecap="round"/>
<path opacity="0.6" d="M189.412 4.98499L213.089 29.97" stroke="#13924E" stroke-width="5" stroke-linecap="round"/>
<path opacity="0.36" d="M213.089 4.98499L236.765 29.97" stroke="#13924E" stroke-width="5" stroke-linecap="round"/>
<path opacity="0.5" d="M236.765 4.98499L260.442 29.97" stroke="#13924E" stroke-width="5" stroke-linecap="round"/>
<path opacity="0.67" d="M260.442 4.98499L284.118 29.97" stroke="#13924E" stroke-width="5" stroke-linecap="round"/>
<path opacity="0.25" d="M284.118 4.98499L307.795 29.97" stroke="#13924E" stroke-width="5" stroke-linecap="round"/>
<path opacity="0.79" d="M307.795 4.98499L331.471 29.97" stroke="#13924E" stroke-width="5" stroke-linecap="round"/>
<path opacity="0.15" d="M23.6765 29.97L0 54.955" stroke="#13924E" stroke-width="5" stroke-linecap="round"/>
<path opacity="0.96" d="M23.6765 29.97L47.353 54.955" stroke="#13924E" stroke-width="5" stroke-linecap="round"/>
<path opacity="0.18" d="M47.353 29.97L71.0295 54.955" stroke="#13924E" stroke-width="5" stroke-linecap="round"/>
<path opacity="0.43" d="M71.0295 29.97L94.7061 54.955" stroke="#13924E" stroke-width="5" stroke-linecap="round"/>
<path opacity="0.88" d="M94.7061 29.97L118.383 54.955" stroke="#13924E" stroke-width="5" stroke-linecap="round"/>
<path opacity="0.31" d="M118.383 29.97L142.059 54.955" stroke="#13924E" stroke-width="5" stroke-linecap="round"/>
<path opacity="0.25" d="M165.736 29.97L142.059 54.955" stroke="#13924E" stroke-width="5" stroke-linecap="round"/>
<path opacity="0.32" d="M189.412 29.97L165.736 54.955" stroke="#13924E" stroke-width="5" stroke-linecap="round"/>
<path opacity="0.68" d="M189.412 29.97L213.089 54.955" stroke="#13924E" stroke-width="5" stroke-linecap="round"/>
<path opacity="0.07" d="M213.089 29.97L236.765 54.955" stroke="#13924E" stroke-width="5" stroke-linecap="round"/>
<path opacity="0.71" d="M236.765 29.97L260.442 54.955" stroke="#13924E" stroke-width="5" stroke-linecap="round"/>
<path opacity="0.8" d="M260.442 29.97L284.118 54.955" stroke="#13924E" stroke-width="5" stroke-linecap="round"/>
<path opacity="0.33" d="M307.795 29.97L284.118 54.955" stroke="#13924E" stroke-width="5" stroke-linecap="round"/>
<path opacity="0.82" d="M307.795 29.97L331.471 54.955" stroke="#13924E" stroke-width="5" stroke-linecap="round"/>
<path opacity="0.1" d="M23.6765 54.955L0 79.94" stroke="#13924E" stroke-width="5" stroke-linecap="round"/>
<path opacity="0.54" d="M23.6765 54.955L47.353 79.94" stroke="#13924E" stroke-width="5" stroke-linecap="round"/>
<path opacity="0.35" d="M47.353 54.955L71.0295 79.94" stroke="#13924E" stroke-width="5" stroke-linecap="round"/>
<path opacity="0.33" d="M94.7061 54.955L71.0295 79.94" stroke="#13924E" stroke-width="5" stroke-linecap="round"/>
<path opacity="0.93" d="M94.7061 54.955L118.383 79.94" stroke="#13924E" stroke-width="5" stroke-linecap="round"/>
<path opacity="0.38" d="M118.383 54.955L142.059 79.94" stroke="#13924E" stroke-width="5" stroke-linecap="round"/>
<path opacity="0.8" d="M142.059 54.955L165.736 79.94" stroke="#13924E" stroke-width="5" stroke-linecap="round"/>
<path opacity="0.48" d="M165.736 54.955L189.412 79.94" stroke="#13924E" stroke-width="5" stroke-linecap="round"/>
<path opacity="0.74" d="M189.412 54.955L213.089 79.94" stroke="#13924E" stroke-width="5" stroke-linecap="round"/>
<path opacity="0.84" d="M213.089 54.955L236.765 79.94" stroke="#13924E" stroke-width="5" stroke-linecap="round"/>
<path opacity="0.32" d="M236.765 54.955L260.442 79.94" stroke="#13924E" stroke-width="5" stroke-linecap="round"/>
<path opacity="0.36" d="M260.442 54.955L284.118 79.94" stroke="#13924E" stroke-width="5" stroke-linecap="round"/>
<path opacity="0.78" d="M284.118 54.955L307.795 79.94" stroke="#13924E" stroke-width="5" stroke-linecap="round"/>
<path opacity="0.95" d="M307.795 54.955L331.471 79.94" stroke="#13924E" stroke-width="5" stroke-linecap="round"/>
<path opacity="0.4" d="M0 79.9399L23.6765 104.925" stroke="#13924E" stroke-width="5" stroke-linecap="round"/>
<path opacity="0.99" d="M47.353 79.9399L23.6765 104.925" stroke="#13924E" stroke-width="5" stroke-linecap="round"/>
<path opacity="0.18" d="M47.353 79.9399L71.0295 104.925" stroke="#13924E" stroke-width="5" stroke-linecap="round"/>
<path opacity="0.65" d="M94.7061 79.9399L71.0295 104.925" stroke="#13924E" stroke-width="5" stroke-linecap="round"/>
<path opacity="0.38" d="M118.383 79.9399L94.7061 104.925" stroke="#13924E" stroke-width="5" stroke-linecap="round"/>
<path opacity="0.25" d="M118.383 79.9399L142.059 104.925" stroke="#13924E" stroke-width="5" stroke-linecap="round"/>
<path opacity="0.66" d="M142.059 79.9399L165.736 104.925" stroke="#13924E" stroke-width="5" stroke-linecap="round"/>
<path opacity="0.82" d="M189.412 79.9399L165.736 104.925" stroke="#13924E" stroke-width="5" stroke-linecap="round"/>
<path opacity="0.34" d="M189.412 79.9399L213.089 104.925" stroke="#13924E" stroke-width="5" stroke-linecap="round"/>
<path opacity="0.99" d="M236.765 79.9399L213.089 104.925" stroke="#13924E" stroke-width="5" stroke-linecap="round"/>
<path opacity="0.22" d="M260.442 79.9399L236.765 104.925" stroke="#13924E" stroke-width="5" stroke-linecap="round"/>
<path opacity="0.3" d="M260.442 79.9399L284.118 104.925" stroke="#13924E" stroke-width="5" stroke-linecap="round"/>
<path opacity="0.15" d="M284.118 79.9399L307.795 104.925" stroke="#13924E" stroke-width="5" stroke-linecap="round"/>
<path opacity="0.88" d="M331.471 79.9399L307.795 104.925" stroke="#13924E" stroke-width="5" stroke-linecap="round"/>
<path opacity="0.96" d="M0 104.925L23.6765 129.91" stroke="#13924E" stroke-width="5" stroke-linecap="round"/>
<path opacity="0.94" d="M23.6765 104.925L47.353 129.91" stroke="#13924E" stroke-width="5" stroke-linecap="round"/>
<path opacity="0.66" d="M47.353 104.925L71.0295 129.91" stroke="#13924E" stroke-width="5" stroke-linecap="round"/>
<path opacity="0.14" d="M71.0295 104.925L94.7061 129.91" stroke="#13924E" stroke-width="5" stroke-linecap="round"/>
<path opacity="0.88" d="M94.7061 104.925L118.383 129.91" stroke="#13924E" stroke-width="5" stroke-linecap="round"/>
<path opacity="0.21" d="M142.059 104.925L118.383 129.91" stroke="#13924E" stroke-width="5" stroke-linecap="round"/>
<path opacity="0.51" d="M142.059 104.925L165.736 129.91" stroke="#13924E" stroke-width="5" stroke-linecap="round"/>
<path opacity="0.83" d="M165.736 104.925L189.412 129.91" stroke="#13924E" stroke-width="5" stroke-linecap="round"/>
<path opacity="0.81" d="M189.412 104.925L213.089 129.91" stroke="#13924E" stroke-width="5" stroke-linecap="round"/>
<path opacity="0.88" d="M236.765 104.925L213.089 129.91" stroke="#13924E" stroke-width="5" stroke-linecap="round"/>
<path opacity="0.82" d="M236.765 104.925L260.442 129.91" stroke="#13924E" stroke-width="5" stroke-linecap="round"/>
<path opacity="0.5" d="M260.442 104.925L284.118 129.91" stroke="#13924E" stroke-width="5" stroke-linecap="round"/>
<path opacity="0.44" d="M284.118 104.925L307.795 129.91" stroke="#13924E" stroke-width="5" stroke-linecap="round"/>
<path opacity="0.66" d="M307.795 104.925L331.471 129.91" stroke="#13924E" stroke-width="5" stroke-linecap="round"/>
<path opacity="0.27" d="M23.6765 129.91L0 154.895" stroke="#13924E" stroke-width="5" stroke-linecap="round"/>
<path opacity="0.39" d="M23.6765 129.91L47.353 154.895" stroke="#13924E" stroke-width="5" stroke-linecap="round"/>
<path opacity="0.91" d="M47.353 129.91L71.0295 154.895" stroke="#13924E" stroke-width="5" stroke-linecap="round"/>
<path opacity="0.78" d="M94.7061 129.91L71.0295 154.895" stroke="#13924E" stroke-width="5" stroke-linecap="round"/>
<path opacity="0.32" d="M94.7061 129.91L118.383 154.895" stroke="#13924E" stroke-width="5" stroke-linecap="round"/>
<path opacity="0.14" d="M142.059 129.91L118.383 154.895" stroke="#13924E" stroke-width="5" stroke-linecap="round"/>
<path opacity="0.18" d="M165.736 129.91L142.059 154.895" stroke="#13924E" stroke-width="5" stroke-linecap="round"/>
<path opacity="0.7" d="M165.736 129.91L189.412 154.895" stroke="#13924E" stroke-width="5" stroke-linecap="round"/>
<path opacity="0.74" d="M189.412 129.91L213.089 154.895" stroke="#13924E" stroke-width="5" stroke-linecap="round"/>
<path opacity="0.25" d="M213.089 129.91L236.765 154.895" stroke="#13924E" stroke-width="5" stroke-linecap="round"/>
<path opacity="0.75" d="M260.442 129.91L236.765 154.895" stroke="#13924E" stroke-width="5" stroke-linecap="round"/>
<path opacity="0.54" d="M260.442 129.91L284.118 154.895" stroke="#13924E" stroke-width="5" stroke-linecap="round"/>
<path opacity="0.23" d="M284.118 129.91L307.795 154.895" stroke="#13924E" stroke-width="5" stroke-linecap="round"/>
<path opacity="0.72" d="M307.795 129.91L331.471 154.895" stroke="#13924E" stroke-width="5" stroke-linecap="round"/>
</svg>
