<svg width="118" height="118" viewBox="0 0 118 118" fill="none" xmlns="http://www.w3.org/2000/svg">
<g opacity="0.4">
<path d="M24.2655 99.1201C45.1656 108.367 79.0552 108.369 99.9577 99.1201C120.86 89.8713 120.86 74.8829 99.9577 65.6364C79.0552 56.3899 45.1656 56.3876 24.2631 65.6364C3.36059 74.8853 3.36295 89.8783 24.2655 99.1201Z" fill="#FAFAFA"/>
<path d="M22.3728 81.5239C27.3153 81.5239 31.3219 79.6146 31.3219 77.2594C31.3219 74.9042 27.3153 72.9949 22.3728 72.9949C17.4304 72.9949 13.4237 74.9042 13.4237 77.2594C13.4237 79.6146 17.4304 81.5239 22.3728 81.5239Z" fill="#EBEBEB"/>
<path d="M98.53 88.6062C103.686 88.6062 107.866 86.6145 107.866 84.1576C107.866 81.7007 103.686 79.709 98.53 79.709C93.3738 79.709 89.1938 81.7007 89.1938 84.1576C89.1938 86.6145 93.3738 88.6062 98.53 88.6062Z" fill="#EBEBEB"/>
<path d="M42.0221 62.4881C41.8782 60.8503 40.3985 57.5628 38.5128 55.5851C36.6272 53.6075 33.8211 52.2811 31.9803 53.1001C30.2646 53.86 30.6587 56.1681 32.9385 57.5109C35.2183 58.8537 38.6025 60.5081 39.7825 63.0828L42.0457 66.1697L42.0221 62.4881Z" fill="#20F382"/>
<path opacity="0.1" d="M42.0221 62.4881C41.8782 60.8503 40.3985 57.5628 38.5128 55.5851C36.6272 53.6075 33.8211 52.2811 31.9803 53.1001C30.2646 53.86 30.6587 56.1681 32.9385 57.5109C35.2183 58.8537 38.6025 60.5081 39.7825 63.0828L42.0457 66.1697L42.0221 62.4881Z" fill="black"/>
<path d="M42.3384 64.7182C42.3121 64.7186 42.2865 64.7102 42.2656 64.6944C42.2446 64.6786 42.2296 64.6562 42.2227 64.6309C40.6368 59.1368 35.7186 54.9903 32.9243 54.2209C32.8931 54.2125 32.8664 54.192 32.8502 54.1638C32.8341 54.1357 32.8298 54.1024 32.8382 54.0711C32.8467 54.0398 32.8672 54.0131 32.8953 53.997C32.9234 53.9808 32.9568 53.9765 32.9881 53.9849C35.8366 54.7685 40.8445 58.9834 42.454 64.5601C42.4628 64.5908 42.459 64.6237 42.4435 64.6515C42.428 64.6794 42.4021 64.7 42.3714 64.7088L42.3384 64.7182Z" fill="white"/>
<path d="M41.8168 68.3692C41.4746 67.4724 40.2168 66.0517 38.2886 64.9543C36.1646 63.7436 33.5545 63.3259 32.8748 62.2969C32.0559 61.0626 33.0424 59.741 35.131 59.8166C37.2196 59.8921 41.0994 62.3937 42.0505 66.5874L41.8168 68.3692Z" fill="#20F382"/>
<path d="M42.1331 67.3686C42.1098 67.3686 42.087 67.3619 42.0674 67.3494C42.0477 67.3368 42.032 67.319 42.0222 67.2978C39.8982 62.6604 36.0915 61.2987 34.3781 61.2256C34.3624 61.225 34.347 61.2212 34.3328 61.2146C34.3185 61.2079 34.3057 61.1985 34.2952 61.1869C34.2846 61.1752 34.2765 61.1616 34.2713 61.1467C34.2661 61.1319 34.2639 61.1162 34.2649 61.1005C34.2651 61.0847 34.2686 61.0691 34.2752 61.0547C34.2817 61.0403 34.2911 61.0274 34.3029 61.0167C34.3146 61.0061 34.3284 60.998 34.3433 60.9929C34.3583 60.9879 34.3742 60.9859 34.3899 60.9872C36.2779 61.0651 40.0657 62.4622 42.2417 67.1987C42.2545 67.2275 42.2556 67.2603 42.2445 67.2899C42.2335 67.3194 42.2113 67.3435 42.1827 67.3568C42.1671 67.3641 42.1503 67.3681 42.1331 67.3686Z" fill="white"/>
<path d="M83.7351 73.7029V66.25H37.996V73.717C37.996 77.0966 40.2285 80.4761 44.6937 83.0532C53.6239 88.2098 68.1025 88.2098 77.0257 83.0532C81.5097 80.4761 83.7399 77.0871 83.7351 73.7029Z" fill="#E0E0E0"/>
<path d="M77.0374 75.5861C68.1072 80.7403 53.6286 80.7403 44.7054 75.5861C35.7822 70.4318 35.7752 62.0703 44.7054 56.9137C48.0802 54.9644 52.2574 53.7537 56.6092 53.277C56.7695 53.26 56.9305 53.3005 57.0637 53.3913C57.1968 53.4821 57.2934 53.6172 57.3361 53.7726L60.8761 66.2499L82.8052 63.9772C82.9698 63.9595 83.1352 64.0025 83.2703 64.0981C83.4055 64.1937 83.5011 64.3353 83.5392 64.4964C84.4431 68.44 82.2766 72.5605 77.0374 75.5861Z" fill="#F0F0F0"/>
<path d="M84.9954 53.0031C84.0679 50.6738 82.0289 48.4601 78.8854 46.6311C73.6509 43.6127 66.5119 42.3595 59.7009 42.8787C59.5164 42.8973 59.3452 42.983 59.2198 43.1197C59.0945 43.2564 59.0238 43.4344 59.0212 43.6198V49.7251C59.0314 50.1768 59.094 50.6259 59.2077 51.0632L62.54 62.7924C62.5974 62.9732 62.7141 63.1294 62.8713 63.2356C63.0285 63.3418 63.2169 63.3919 63.4061 63.3777L84.5588 61.1876C84.7433 61.1644 84.9133 61.0756 85.0376 60.9373C85.162 60.7991 85.2325 60.6207 85.2361 60.4348V54.3295C85.2263 53.8774 85.1451 53.4298 84.9954 53.0031Z" fill="#20F382"/>
<path opacity="0.3" d="M85.1606 53.6547L62.7146 55.9816L59.1156 43.2825C59.1728 43.1736 59.2563 43.0808 59.3585 43.0123C59.4607 42.9439 59.5784 42.9021 59.7009 42.8907C66.5118 42.3715 73.6508 43.6247 78.8853 46.6431C82.0288 48.4603 84.0655 50.6716 84.9954 53.0151C85.0704 53.2226 85.1257 53.4368 85.1606 53.6547Z" fill="white"/>
<path opacity="0.1" d="M59.0212 43.6318V49.7371C59.0314 50.1888 59.094 50.6379 59.2077 51.0752L62.54 62.7926C62.5767 62.9111 62.6406 63.0193 62.7264 63.1088V55.9816L59.1156 43.2825C59.0545 43.3888 59.0219 43.5091 59.0212 43.6318Z" fill="black"/>
<path d="M67.85 44.6253L67.7815 44.1533C67.836 44.0463 67.8527 43.924 67.8288 43.8064L67.6423 43.1762L67.5243 42.3502L67.4063 42.388L67.4252 41.3685L67.0523 41.1561C67.0292 41.1421 67.0026 41.1348 66.9756 41.1348C66.9486 41.1348 66.9221 41.1421 66.8989 41.1561L66.4954 41.3921L65.7685 41.8098L65.3224 42.067C65.2978 42.0817 65.2763 42.1012 65.2592 42.1243C65.2422 42.1474 65.23 42.1737 65.2233 42.2016L64.428 45.7581C64.395 45.9091 64.428 46.0295 64.5011 46.072L64.9212 46.308L65.4145 44.2713L65.4263 45.1138L65.169 49.1258C65.1596 49.1744 65.1639 49.2246 65.1814 49.2708C65.1989 49.3171 65.229 49.3576 65.2681 49.3878L65.6811 49.6238L66.0375 46.2891L65.9006 46.2018L65.9903 44.7858L66.2523 44.6347L66.5142 48.4107C66.5127 48.4502 66.5217 48.4894 66.5403 48.5243C66.559 48.5591 66.5867 48.5884 66.6204 48.609L67.0381 48.845L67.024 48.2998C67.0645 48.2086 67.0831 48.1092 67.0783 48.0095L66.9721 46.4732L66.9438 45.4064L66.8965 45.3781L66.821 44.2902L66.847 42.5744L67.3497 44.2642C67.3602 44.3049 67.3854 44.3402 67.4205 44.3633L67.85 44.6253Z" fill="#263238"/>
<path d="M68.2464 44.0377L67.4629 41.4063C67.4597 41.3958 67.4543 41.3861 67.4468 41.378C67.4394 41.3699 67.4303 41.3636 67.4201 41.3595C67.4098 41.3554 67.3989 41.3537 67.3879 41.3544C67.3769 41.3552 67.3663 41.3584 67.3567 41.3638L66.913 41.621L66.1862 42.0411L65.7401 42.2984C65.7154 42.313 65.694 42.3325 65.6769 42.3556C65.6599 42.3787 65.6477 42.405 65.641 42.4329L64.8504 45.9988C64.8079 46.1971 64.8764 46.3458 65.0062 46.3292C65.136 46.3127 65.2776 46.1381 65.32 45.9398L65.7614 43.9551C65.7614 43.9463 65.7648 43.9379 65.771 43.9317C65.7772 43.9255 65.7856 43.922 65.7944 43.922C65.8032 43.922 65.8116 43.9255 65.8178 43.9317C65.824 43.9379 65.8274 43.9463 65.8274 43.9551L65.8487 45.3522L65.5914 49.3642C65.5773 49.5813 65.6929 49.697 65.8487 49.6262L65.8746 49.612C65.9565 49.5539 66.0242 49.4781 66.0728 49.3903C66.1214 49.3024 66.1497 49.2048 66.1555 49.1046L66.4174 45.0242L66.6794 44.8731L66.9414 48.6491C66.9555 48.8379 67.0782 48.9158 67.2246 48.8308L67.2482 48.8167C67.3313 48.7497 67.3978 48.6643 67.4425 48.5672C67.4871 48.4702 67.5086 48.3641 67.5054 48.2574L67.26 44.5498L67.2812 43.0559C67.2832 43.0484 67.2876 43.0417 67.2938 43.0369C67.3 43.0322 67.3076 43.0296 67.3154 43.0296C67.3232 43.0296 67.3308 43.0322 67.337 43.0369C67.3432 43.0417 67.3476 43.0484 67.3496 43.0559L67.7886 44.5309C67.8311 44.6796 67.9727 44.6914 68.1025 44.5569C68.1665 44.4883 68.213 44.4053 68.238 44.3149C68.2631 44.2245 68.266 44.1294 68.2464 44.0377Z" fill="#455A64"/>
<path d="M66.9178 39.9524L66.493 39.7164C66.4362 39.6874 66.3725 39.6744 66.3088 39.679C66.2452 39.6836 66.184 39.7055 66.1319 39.7424C65.9644 39.8623 65.8272 40.0197 65.7313 40.202C65.6354 40.3844 65.5835 40.5866 65.5797 40.7926C65.5706 40.875 65.5827 40.9584 65.6149 41.0349C65.6471 41.1113 65.6984 41.1782 65.7637 41.2292L66.1933 41.4794L66.9178 39.9524Z" fill="#263238"/>
<path d="M65.5797 40.7879C65.5706 40.8704 65.5827 40.9537 65.6149 41.0302C65.6471 41.1066 65.6984 41.1735 65.7637 41.2245L66.1933 41.4747L66.4293 40.9791L65.6174 40.5071C65.5942 40.599 65.5815 40.6932 65.5797 40.7879Z" fill="#263238"/>
<path d="M66.552 41.4417C66.7199 41.3215 66.8572 41.1637 66.9531 40.981C67.049 40.7982 67.1008 40.5955 67.1043 40.3891C67.1043 39.9855 66.8565 39.8015 66.552 39.9785C66.3838 40.0977 66.2461 40.2549 66.1502 40.4374C66.0542 40.6199 66.0027 40.8225 65.9998 41.0287C65.9974 41.4322 66.2429 41.6163 66.552 41.4417Z" fill="#455A64"/>
<path d="M72.5228 48.7765L72.4544 48.3045C72.509 48.1967 72.5257 48.0736 72.5016 47.9552L72.3128 47.3275L72.1948 46.5015L72.0791 46.5369L72.0956 45.5197L71.7228 45.3049C71.6997 45.2921 71.6737 45.2854 71.6472 45.2854C71.6208 45.2854 71.5948 45.2921 71.5717 45.3049L71.1658 45.5409L70.4389 45.961L69.9952 46.2183C69.9702 46.2325 69.9485 46.2518 69.9314 46.275C69.9143 46.2981 69.9023 46.3247 69.8961 46.3528L69.1055 49.9187C69.0725 50.0674 69.1055 50.1901 69.1763 50.2326L69.5964 50.4686L70.092 48.4319L70.1038 49.2745L69.8466 53.2865C69.8367 53.3351 69.8405 53.3856 69.8576 53.4323C69.8747 53.4789 69.9044 53.5199 69.9433 53.5508L70.3563 53.7868L70.7103 50.4545L70.5734 50.3671L70.6655 48.9511L70.9274 48.8001L71.1894 52.5761C71.1886 52.6155 71.1976 52.6546 71.2158 52.6896C71.2339 52.7247 71.2605 52.7546 71.2932 52.7767L71.7133 53.0127L71.6992 52.4675C71.7385 52.376 71.757 52.2768 71.7534 52.1773L71.6472 50.6385L71.6166 49.5742L71.5717 49.5459L71.4962 48.4579L71.5198 46.7422L72.0248 48.4296C72.029 48.4502 72.0374 48.4696 72.0496 48.4867C72.0618 48.5038 72.0775 48.5181 72.0956 48.5287L72.5228 48.7765Z" fill="#263238"/>
<path d="M72.924 48.1913L72.1334 45.5481C72.1303 45.5378 72.1248 45.5284 72.1175 45.5206C72.1102 45.5128 72.1012 45.5067 72.0912 45.5028C72.0812 45.4989 72.0705 45.4974 72.0598 45.4983C72.0491 45.4992 72.0388 45.5025 72.0296 45.508L71.5835 45.7841L70.8566 46.2042L70.413 46.4591C70.3878 46.4736 70.3659 46.4934 70.3489 46.517C70.3318 46.5405 70.3199 46.5674 70.3139 46.5959L69.5233 50.1619C69.4784 50.3601 69.5492 50.5065 69.679 50.4899C69.8088 50.4734 69.948 50.3011 69.9929 50.1029L70.4319 48.1158C70.4339 48.1082 70.4383 48.1015 70.4445 48.0968C70.4507 48.092 70.4583 48.0894 70.4661 48.0894C70.4739 48.0894 70.4815 48.092 70.4877 48.0968C70.4939 48.1015 70.4983 48.1082 70.5003 48.1158L70.5215 49.5129L70.2643 53.5249C70.2501 53.7397 70.3658 53.8577 70.5215 53.7869L70.5451 53.7727C70.6273 53.7147 70.6953 53.639 70.7444 53.5512C70.7934 53.4633 70.8221 53.3657 70.8283 53.2653L71.0903 49.1825L71.3523 49.0315L71.6119 52.8075C71.626 52.9963 71.7511 53.0741 71.8951 52.9892L71.921 52.9727C72.004 52.906 72.0704 52.821 72.115 52.7244C72.1597 52.6277 72.1813 52.5221 72.1783 52.4157L71.921 48.6963L71.9423 47.2001C71.9423 47.1913 71.9457 47.1829 71.9519 47.1767C71.9581 47.1705 71.9665 47.1671 71.9753 47.1671C71.9841 47.1671 71.9925 47.1705 71.9987 47.1767C72.0049 47.1829 72.0083 47.1913 72.0083 47.2001L72.4473 48.6751C72.4921 48.8238 72.6337 48.8332 72.7635 48.7011C72.8285 48.6347 72.8769 48.554 72.9048 48.4654C72.9327 48.3768 72.9393 48.2829 72.924 48.1913Z" fill="#455A64"/>
<path d="M71.5882 44.1037L71.1634 43.8677C71.1059 43.8393 71.0418 43.8269 70.9778 43.8319C70.9139 43.8369 70.8524 43.859 70.8 43.896C70.6322 44.0157 70.4948 44.173 70.3989 44.3554C70.303 44.5378 70.2512 44.7402 70.2478 44.9462C70.2391 45.0283 70.2514 45.1112 70.2836 45.1872C70.3158 45.2631 70.3668 45.3297 70.4318 45.3805L70.8614 45.6306L71.5882 44.1037Z" fill="#263238"/>
<path d="M70.2501 44.9415C70.2415 45.0235 70.2538 45.1065 70.286 45.1824C70.3182 45.2584 70.3692 45.3249 70.4342 45.3757L70.8637 45.6259L71.0997 45.1326L70.2879 44.6606C70.2635 44.7523 70.2508 44.8467 70.2501 44.9415Z" fill="#263238"/>
<path d="M71.2201 45.5929C71.3879 45.4732 71.5253 45.3159 71.6212 45.1335C71.7171 44.9511 71.7689 44.7487 71.7723 44.5427C71.7723 44.1391 71.5245 43.955 71.2201 44.1297C71.0526 44.2495 70.9154 44.407 70.8195 44.5893C70.7236 44.7716 70.6717 44.9739 70.6678 45.1799C70.6678 45.5858 70.9156 45.7699 71.2201 45.5929Z" fill="#455A64"/>
<path d="M78.5408 46.8341L78.4724 46.3621C78.527 46.2543 78.5437 46.1312 78.5196 46.0128L78.3308 45.3851L78.2128 44.5591L78.0971 44.5945L78.1136 43.5773L77.7408 43.3625C77.7177 43.3497 77.6917 43.343 77.6652 43.343C77.6388 43.343 77.6128 43.3497 77.5897 43.3625L77.1862 43.5985L76.464 44.0115L76.0203 44.2688C75.9953 44.283 75.9735 44.3023 75.9565 44.3255C75.9394 44.3487 75.9274 44.3752 75.9212 44.4033L75.1306 47.9693C75.0976 48.1179 75.1306 48.2383 75.2014 48.2831L75.6215 48.5191L76.1171 46.4801L76.1289 47.3226L75.8716 51.3346C75.8621 51.3833 75.866 51.4337 75.8831 51.4803C75.9001 51.5269 75.9297 51.5679 75.9684 51.5989L76.3814 51.8349L76.7354 48.5026L76.5985 48.4129L76.6906 46.9969L76.9525 46.8483L77.2145 50.6243C77.2136 50.6637 77.2227 50.7028 77.2408 50.7378C77.259 50.7728 77.2856 50.8028 77.3183 50.8249L77.7384 51.0609L77.7242 50.5181C77.7645 50.4268 77.7831 50.3274 77.7785 50.2278L77.6723 48.6891L77.6416 47.6247L77.5968 47.594L77.5213 46.5084L77.5449 44.7903L78.0499 46.4801C78.0598 46.5211 78.0852 46.5566 78.1207 46.5792L78.5408 46.8341Z" fill="#263238"/>
<path d="M78.9373 46.2561L78.1514 43.6223C78.1483 43.6121 78.1428 43.6027 78.1355 43.5948C78.1282 43.587 78.1192 43.5809 78.1092 43.577C78.0992 43.5732 78.0885 43.5716 78.0778 43.5725C78.0671 43.5734 78.0568 43.5767 78.0476 43.5822L77.6015 43.8394L76.8747 44.2595L76.431 44.5168C76.4062 44.5313 76.3847 44.5507 76.3676 44.5739C76.3506 44.597 76.3384 44.6233 76.3319 44.6513L75.5413 48.2172C75.4964 48.4155 75.5672 48.5642 75.697 48.5476C75.8268 48.5311 75.9684 48.3565 76.0109 48.1582L76.4522 46.1735C76.4522 46.1647 76.4557 46.1563 76.4619 46.1501C76.4681 46.1439 76.4765 46.1404 76.4853 46.1404C76.494 46.1404 76.5024 46.1439 76.5086 46.1501C76.5148 46.1563 76.5183 46.1647 76.5183 46.1735L76.5395 47.5706L76.2823 51.5826C76.2681 51.7974 76.3838 51.9153 76.5395 51.8445L76.5631 51.8304C76.6448 51.7719 76.7125 51.6961 76.7615 51.6084C76.8104 51.5206 76.8394 51.4232 76.8463 51.323L77.1083 47.2402L77.3703 47.0891L77.6322 50.8651C77.644 51.0539 77.7691 51.1295 77.9131 51.0469L77.939 51.0303C78.0222 50.9633 78.0887 50.8779 78.1333 50.7809C78.1779 50.6839 78.1995 50.5778 78.1963 50.471L77.939 46.754L77.9603 45.2578C77.9603 45.249 77.9637 45.2406 77.9699 45.2344C77.9761 45.2282 77.9845 45.2248 77.9933 45.2248C78.0021 45.2248 78.0105 45.2282 78.0167 45.2344C78.0229 45.2406 78.0263 45.249 78.0263 45.2578L78.4677 46.7351C78.5101 46.8815 78.6517 46.8933 78.7815 46.7611C78.8448 46.6947 78.8918 46.6146 78.9189 46.5269C78.9459 46.4393 78.9522 46.3466 78.9373 46.2561Z" fill="#455A64"/>
<path d="M77.6086 42.1614L77.1814 41.9254C77.1242 41.8974 77.0605 41.8853 76.997 41.8903C76.9335 41.8952 76.8725 41.9171 76.8203 41.9537C76.6524 42.0732 76.5149 42.2305 76.419 42.413C76.3231 42.5954 76.2714 42.7978 76.2681 43.0039C76.2632 43.0847 76.2786 43.1654 76.3128 43.2388C76.347 43.3122 76.3989 43.3758 76.464 43.424L76.8935 43.6741L77.6086 42.1614Z" fill="#263238"/>
<path d="M76.2681 42.9993C76.2624 43.0808 76.2773 43.1625 76.3116 43.2368C76.3458 43.311 76.3982 43.3754 76.464 43.4241L76.8935 43.6742L77.1295 43.181L76.3177 42.709C76.2883 42.8031 76.2717 42.9007 76.2681 42.9993Z" fill="#263238"/>
<path d="M77.2381 43.66C77.406 43.5405 77.5435 43.3832 77.6394 43.2008C77.7354 43.0183 77.7871 42.8159 77.7903 42.6098C77.7903 42.2063 77.5543 42.0198 77.2381 42.1968C77.0706 42.3167 76.9334 42.4741 76.8375 42.6565C76.7416 42.8388 76.6897 43.041 76.6859 43.247C76.6859 43.6411 76.936 43.8276 77.2381 43.66Z" fill="#455A64"/>
<path d="M104.081 81.137H102.282V83.7542H104.081V81.137Z" fill="#FFA8A7"/>
<path d="M97.7573 77.8962L95.9601 77.958L96.0501 80.5737L97.8473 80.5119L97.7573 77.8962Z" fill="#FFA8A7"/>
<path d="M103.96 55.5874C103.96 57.3031 104.182 68.4046 104.182 68.4046C104.225 68.9002 104.687 69.8206 104.588 71.7086C104.451 74.2857 104.229 81.4436 104.229 81.4436C104.229 81.4436 103.387 82.279 102.195 81.4436C102.195 81.4436 100.569 71.718 100.246 69.1716C99.9649 66.9437 99.4882 60.8903 99.4882 60.8903L97.8244 68.0152C97.8244 68.0152 98.117 69.6908 98.1807 70.8731C98.2445 72.0555 97.8763 78.883 97.8763 78.883C97.5853 79.0656 97.2515 79.1687 96.9082 79.182C96.5648 79.1952 96.2241 79.1182 95.9199 78.9585C95.9199 78.9585 94.4755 68.9804 94.2915 67.9137C94.1074 66.847 95.5541 55.5968 95.5541 55.5968L103.96 55.5874Z" fill="#37474F"/>
<path d="M102.282 82.8668V82.6001C102.11 82.6757 101.709 84.2002 100.996 84.8516C100.43 85.3684 99.6557 85.9655 99.4598 86.5413C99.2639 87.1172 100.536 87.4712 101.067 87.3768C101.683 87.2682 102.75 86.8363 103.016 86.4328C103.283 86.0292 103.41 85.4392 103.628 85.1442C103.845 84.8492 104.336 84.5212 104.463 84.1813C104.529 83.9949 104.451 83.5843 104.362 83.2373C104.272 82.8904 104.187 82.5718 104.078 82.6001V82.796C103.823 82.9979 103.505 83.1055 103.179 83.1005C102.917 83.1193 102.28 83.0721 102.282 82.8668Z" fill="#263238"/>
<path d="M96.0332 80.0205C95.9388 80.0205 95.8632 80.155 95.6579 80.3792C95.35 80.6892 94.9927 80.946 94.6007 81.1391C93.9281 81.4766 92.6182 81.9934 92.0259 82.2601C91.6577 82.4277 91.6743 82.8737 92.0566 83.1286C92.4389 83.3835 93.3616 83.5675 94.4708 83.3174C95.075 83.1829 95.8609 82.6259 96.3588 82.6566C96.8568 82.6873 97.7866 82.6778 98.1548 82.4206C98.523 82.1633 98.3743 81.6276 98.2704 81.1627C98.1572 80.6553 97.9943 79.8789 97.8268 79.9143V80.0747C97.6096 80.4004 96.5099 80.5349 96.0355 80.2942L96.0332 80.0205Z" fill="#263238"/>
<path d="M108.716 53.9073C108.676 53.6713 107.555 51.0753 107.094 50.0581L104.768 51.1484L105.66 53.1898L108.072 55.0542C108.307 54.9844 108.506 54.8256 108.626 54.6115C108.747 54.3973 108.779 54.1447 108.716 53.9073Z" fill="#FFA8A7"/>
<path d="M98.1996 43.646C97.0881 43.7357 95.9789 44.0401 94.9853 45.5151C93.9918 46.9901 92.2524 49.5271 92.2524 49.5271L95.5281 50.5655L98.1996 43.646Z" fill="#20F382"/>
<path opacity="0.1" d="M98.1996 43.646C97.0881 43.7357 95.9789 44.0401 94.9853 45.5151C93.9918 46.9901 92.2524 49.5271 92.2524 49.5271L95.5281 50.5655L98.1996 43.646Z" fill="black"/>
<path d="M101.256 43.7025C102.868 44.0895 104.911 44.7409 105.627 46.2253C106.342 47.7098 107.448 50.117 107.448 50.117L104.784 51.6958L103.965 50.2798V55.5969C102.705 56.968 98.3011 57.6076 95.5588 55.5969V46.8271C95.5588 45.4276 96.3376 43.745 98.4852 43.6199L101.256 43.7025Z" fill="#20F382"/>
<path opacity="0.1" d="M103.96 50.2681C103.96 50.2681 103.153 48.8663 102.979 48.5288L103.96 50.9242V50.2681Z" fill="black"/>
<path d="M101.86 36.5376C102.006 36.5198 102.154 36.5356 102.292 36.5839C102.431 36.6322 102.557 36.7116 102.66 36.8161C103 37.1654 102.929 37.8097 102.66 39.2894L101.607 39.4097L101.86 36.5376Z" fill="#263238"/>
<path d="M95.7263 36.1081C95.5007 36.1091 95.2773 36.0633 95.0703 35.9736C94.7469 35.7871 94.662 36.1553 94.8343 36.4739C94.9508 36.7023 95.1239 36.8971 95.3371 37.0396C95.5503 37.1822 95.7964 37.2677 96.052 37.2881C96.052 37.2433 96.3541 36.4668 96.3541 36.4668L95.7263 36.1081Z" fill="#263238"/>
<path d="M101.367 39.412C101.523 39.5064 101.747 39.2067 101.938 39.0037C102.129 38.8008 102.759 38.5317 103.073 39.1878C103.387 39.8439 102.667 40.7572 102.242 41.0522C102.123 41.1556 101.974 41.2188 101.817 41.2327C101.66 41.2467 101.502 41.2108 101.367 41.1301L101.256 43.7048C101.067 44.1175 100.779 44.477 100.417 44.7512C100.056 45.0255 99.632 45.206 99.1837 45.2766C97.6733 45.4819 97.9825 44.2335 98.4757 43.6246V42.6806C98.4757 42.6806 97.6946 42.8364 97.3264 42.7396C97.1282 42.6853 96.6586 42.1166 96.3541 41.4817C96.0143 40.7737 95.4455 39.497 95.9506 37.3517C96.4934 35.046 98.969 34.9752 100.435 35.905C101.9 36.8349 101.367 39.412 101.367 39.412Z" fill="#FFA8A7"/>
<path d="M101.367 39.674C101.445 39.674 101.744 39.1784 101.938 39.0014C102.207 38.7654 101.86 36.5376 101.86 36.5376C101.86 36.5376 102.134 35.6951 101.6 35.1381C101.067 34.5811 100.036 34.6661 99.2828 34.6472C98.356 34.6534 97.4377 34.4686 96.5854 34.1044C95.5139 33.6324 95.4337 33.5852 95.3015 34.0549C95.1694 34.5245 95.1174 35.603 95.757 36.3252L96.2904 36.5211C96.2904 36.5211 96.5759 36.7759 97.5766 36.8963C98.4989 36.9658 99.4257 36.9484 100.345 36.8444C100.635 36.8043 100.696 37.0804 100.852 37.8521C100.989 38.5271 101.102 39.6669 101.367 39.674Z" fill="#263238"/>
<path d="M101.86 36.7099L102.804 36.2024C102.773 36.1401 102.731 36.0845 102.678 36.0388C102.626 35.9931 102.565 35.9583 102.499 35.9363C102.433 35.9144 102.364 35.9057 102.295 35.9109C102.225 35.9161 102.158 35.9349 102.096 35.9664C101.968 36.0357 101.872 36.1518 101.828 36.2905C101.784 36.4292 101.795 36.5795 101.86 36.7099Z" fill="#263238"/>
<path d="M98.4828 42.6855C98.4828 42.6855 99.8823 42.4023 100.371 42.1427C100.659 41.9928 100.894 41.7591 101.046 41.4724C100.973 41.7591 100.843 42.028 100.663 42.263C100.305 42.7209 98.4805 43.056 98.4805 43.056L98.4828 42.6855Z" fill="#F28F8F"/>
<path d="M98.8203 39.0605C98.8226 39.1156 98.8411 39.1687 98.8734 39.2134C98.9057 39.258 98.9505 39.2922 99.0021 39.3116C99.0537 39.331 99.1099 39.3347 99.1637 39.3224C99.2174 39.3101 99.2663 39.2822 99.3043 39.2423C99.3423 39.2023 99.3677 39.1521 99.3774 39.0978C99.387 39.0435 99.3805 38.9876 99.3586 38.937C99.3366 38.8864 99.3003 38.8434 99.2541 38.8133C99.2079 38.7832 99.1539 38.7674 99.0988 38.7678C99.0613 38.7687 99.0243 38.777 98.99 38.7923C98.9557 38.8075 98.9247 38.8293 98.8989 38.8564C98.873 38.8836 98.8528 38.9156 98.8393 38.9506C98.8258 38.9856 98.8193 39.023 98.8203 39.0605Z" fill="#263238"/>
<path d="M99.12 37.996L99.7194 38.3264C99.7608 38.2448 99.7694 38.1505 99.7435 38.0628C99.7176 37.975 99.6592 37.9005 99.5802 37.8544C99.5409 37.8324 99.4976 37.8186 99.4528 37.8139C99.4081 37.8091 99.3628 37.8135 99.3198 37.8267C99.2768 37.84 99.2369 37.8618 99.2025 37.8909C99.1682 37.92 99.1401 37.9557 99.12 37.996Z" fill="#263238"/>
<path d="M98.8392 40.9625L98.1996 41.1985C98.2134 41.2415 98.2358 41.2813 98.2653 41.3154C98.2948 41.3496 98.331 41.3774 98.3715 41.3972C98.4121 41.4171 98.4562 41.4285 98.5013 41.4309C98.5464 41.4332 98.5915 41.4264 98.6339 41.4109C98.7189 41.3766 98.7876 41.311 98.8258 41.2276C98.864 41.1442 98.8688 41.0493 98.8392 40.9625Z" fill="#F28F8F"/>
<path d="M96.3163 38.232L96.8638 37.8096C96.8383 37.773 96.8056 37.7419 96.7677 37.7183C96.7298 37.6947 96.6876 37.6789 96.6435 37.6721C96.5994 37.6653 96.5543 37.6674 96.5111 37.6785C96.4678 37.6895 96.4273 37.7092 96.3918 37.7364C96.3185 37.7939 96.2699 37.8771 96.2558 37.9692C96.2418 38.0613 96.2634 38.1553 96.3163 38.232Z" fill="#263238"/>
<path d="M96.4862 38.9801C96.4885 39.0351 96.507 39.0882 96.5392 39.1328C96.5714 39.1774 96.616 39.2116 96.6675 39.231C96.719 39.2505 96.7751 39.2544 96.8287 39.2423C96.8824 39.2301 96.9314 39.2025 96.9695 39.1628C97.0076 39.1231 97.0332 39.0731 97.0431 39.0189C97.053 38.9648 97.0468 38.909 97.0252 38.8583C97.0037 38.8077 96.9677 38.7645 96.9218 38.7341C96.8759 38.7038 96.8221 38.6875 96.7671 38.6875C96.7294 38.6881 96.6922 38.6962 96.6576 38.7113C96.623 38.7263 96.5918 38.7481 96.5657 38.7753C96.5396 38.8025 96.5191 38.8346 96.5055 38.8698C96.4918 38.9049 96.4853 38.9424 96.4862 38.9801Z" fill="#263238"/>
<path d="M97.914 38.7135L97.822 40.4009L96.9417 40.1012L97.914 38.7135Z" fill="#F28F8F"/>
<path d="M90.5815 48.8804L97.7607 50.7707L99.8799 59.6797L93.0548 57.6973L90.5815 48.8804Z" fill="#EBEBEB"/>
<path d="M93.7109 54.7756C93.6448 54.9574 93.2531 55.4624 92.4176 55.4223L92.3138 55.0541L93.7109 54.7756Z" fill="#E0E0E0"/>
<path d="M95.3157 55.0542C95.3487 55.2902 95.8349 55.7315 96.6609 55.9982C97.6049 56.3097 99.0421 56.1445 99.0421 56.1445L98.9123 55.7008L95.3157 55.0542Z" fill="#E0E0E0"/>
<path d="M92.6843 50.1714L92.6253 49.8976C92.5923 49.7466 93.0123 49.7395 93.5693 49.8835L94.6289 50.1572C95.1812 50.3012 95.6555 50.5396 95.6862 50.6906L95.7476 50.9644L92.6843 50.1714Z" fill="#E0E0E0"/>
<path d="M94.8484 50.2681C94.8484 50.2515 94.8484 50.2374 94.8484 50.2232C94.8248 50.0958 94.8791 50.0179 95.1198 50.0793L95.9317 50.2917L95.8798 50.1217C95.8514 50.0273 95.6272 49.8857 95.3794 49.8244L94.9334 49.6969C94.9334 49.6969 94.7304 49.0243 93.8006 48.819C92.8708 48.6137 92.9958 49.2037 92.9958 49.2037L92.5758 49.0881C92.3398 49.0243 92.1746 49.0479 92.1958 49.1423L92.2359 49.3193L92.9581 49.5081C93.025 49.5256 93.0853 49.5621 93.1318 49.6132C93.1784 49.6643 93.209 49.7278 93.22 49.7961C93.2251 49.8139 93.229 49.832 93.2318 49.8503C92.8283 49.7772 92.5474 49.8008 92.5758 49.9259L92.6348 50.1996L95.7028 50.9926L95.6438 50.7188C95.6107 50.5914 95.278 50.4049 94.8484 50.2681Z" fill="#37474F"/>
<path d="M108.071 55.054L105.66 53.1896C105.66 53.1896 100.796 53.9802 100.232 54.0251C99.9305 54.0326 99.6342 53.949 99.3815 53.7851C99.1288 53.6213 98.9315 53.3849 98.8156 53.107C98.5984 52.5454 98.2138 52.6162 98.2138 52.6162L98.438 53.5602C98.4899 53.7962 97.1211 53.9732 96.3635 53.7159C95.606 53.4587 94.5038 53.8339 95.1835 54.8676C95.8632 55.9013 97.1872 56.0193 98.1076 56.0193C98.4919 56.0177 98.8757 55.9925 99.2569 55.9438C99.5542 55.906 99.8516 55.8753 100.149 55.8541C102.02 55.7125 107.215 55.3231 108.071 55.054Z" fill="#FFA8A7"/>
<path d="M91.3131 51.4859L91.6317 52.6211C91.6931 52.8406 92.5262 53.237 93.0477 53.3834C93.5693 53.5297 94.1522 53.6996 93.902 54.4383C93.666 55.118 92.8046 55.2737 92.3633 55.2548C91.922 55.236 91.3155 54.8112 91.0771 54.1315C90.7727 53.263 90.9355 52.3332 90.8152 51.8258C90.6948 51.3184 91.0488 51.1838 91.3131 51.4859Z" fill="#FFA8A7"/>
<path d="M22.1486 26.4462H23.4183C24.3571 26.4462 25.2576 26.8191 25.9214 27.483C26.5853 28.1469 26.9583 29.0473 26.9583 29.9862V38.9801H18.618V29.972C18.6218 29.0372 18.9951 28.1419 19.6565 27.4813C20.318 26.8208 21.2138 26.4487 22.1486 26.4462Z" fill="#263238"/>
<path d="M27.0716 75.5815C27.5568 76.0918 28.0894 76.5549 28.6622 76.9644C28.7535 77.0241 28.8289 77.1051 28.8817 77.2004C28.9572 77.3562 29.0729 77.7432 28.3625 77.991C28.0036 78.1162 27.6218 78.1622 27.2433 78.1259C26.8649 78.0897 26.4988 77.972 26.1701 77.781C25.5872 77.4152 25.5588 76.6553 25.009 76.221C24.6007 75.9001 24.0909 75.8175 23.7629 75.3997C23.5269 75.1071 23.593 74.7177 23.711 74.2363C23.8431 73.71 23.9021 73.3135 24.0768 73.3536L24.0484 73.5896C24.2656 73.9365 25.3889 74.038 25.8892 73.7997C26.2523 74.4136 26.647 75.0084 27.0716 75.5815Z" fill="#263238"/>
<path d="M27.5649 76.0721C27.3973 75.9187 27.2298 75.7583 27.0717 75.586C26.7399 75.1524 26.4334 74.7001 26.1536 74.2313C25.9621 73.9467 25.8715 73.606 25.8964 73.2637L26.038 71.9681L24.2562 71.843L24.0485 73.5894C24.006 73.9859 24.3317 74.3375 24.9123 74.8379C25.4928 75.3382 26.2291 76.5017 26.7531 76.7943C27.277 77.0869 27.6546 77.0775 27.8764 76.9288C28.0983 76.7801 28.1313 76.6503 27.5649 76.0721Z" fill="#FFA8A7"/>
<path d="M20.2961 75.7396V75.4729C20.4023 75.7868 20.8908 77.1391 21.6342 77.8164C22.2242 78.3568 23.0313 78.9775 23.2366 79.5793C23.4419 80.1811 22.1133 80.4124 21.5634 80.3156C20.9215 80.2024 20.0907 79.8436 19.64 79.2843C19.3214 78.8926 19.1208 78.43 18.8942 78.1232C18.6677 77.8164 18.1437 77.4742 18.021 77.1202C17.9549 76.9243 18.0352 76.4972 18.1296 76.1361C18.224 75.775 18.3089 75.4422 18.4222 75.4729V75.6759C18.6868 75.8848 19.015 75.9964 19.3521 75.9921C19.6329 76.0039 20.2961 75.9496 20.2961 75.7396Z" fill="#263238"/>
<path d="M22.1699 78.2906C21.9858 78.1278 21.8018 77.9673 21.6342 77.8186C21.115 77.3466 20.7185 76.5419 20.492 75.9944C20.3624 75.6825 20.2958 75.348 20.2961 75.0102V73.9412H18.4222V75.6805V75.7253C18.5119 76.1147 19.3662 77.1413 19.8618 77.8257C20.1875 78.2788 20.8058 78.8547 21.554 78.9538C22.2667 79.0458 22.6278 78.824 22.1699 78.2906Z" fill="#FFA8A7"/>
<path d="M18.7951 46.6359C17.3437 49.8077 18.847 60.9776 18.847 60.9776C18.8045 61.4921 18.2169 62.5045 17.9974 64.7701C17.7378 67.444 18.408 74.1653 18.408 74.1653C18.6931 74.3301 19.014 74.4228 19.343 74.4356C19.672 74.4483 19.9991 74.3807 20.296 74.2385C20.296 74.2385 22.0802 64.1188 22.42 61.4591C22.7127 59.1368 23.2767 53.6711 23.2767 53.6711L24.8744 61.4402C24.8744 61.4402 24.2608 62.7759 24.1664 63.7671C24.0154 65.3318 24.1664 72.1074 24.1664 72.1074C24.1664 72.1074 24.806 72.5959 26.0332 72.4142C26.0332 72.4142 28.11 62.9742 28.2728 61.0862C28.3719 59.9605 27.0928 46.1663 27.0928 46.1663L18.7951 46.6359Z" fill="#37474F"/>
<path d="M23.272 53.6781L23.744 51.0821C23.744 51.0821 25.7382 50.6691 26.6444 49.8171C26.0194 50.5495 25.2019 51.0923 24.2844 51.3842L23.7558 53.6521L24.6809 60.5174L23.272 53.6781Z" fill="#263238"/>
<path d="M16.428 45.2576C16.4445 45.0499 16.8339 42.8292 17.1006 41.5854L19.7131 42.3855L19.2411 44.6723L17.0416 46.4376C16.3596 46.3007 16.4138 45.4653 16.428 45.2576Z" fill="#FFA8A7"/>
<path d="M29.054 40.5754L30.2882 42.8387L28.3672 44.4836L26.609 41.6964L29.054 40.5754Z" fill="#F28F8F"/>
<path d="M24.4237 35.5345C25.6485 35.5463 26.9961 35.9924 27.4587 36.9505C27.9212 37.9087 29.3726 40.8988 29.3726 40.8988C29.3726 40.8988 28.2894 42.4824 26.5737 42.3715L24.4237 35.5345Z" fill="#EBEBEB"/>
<path d="M21.3557 35.6195C20.8218 35.7495 20.3239 35.9977 19.8988 36.3457C19.4736 36.6937 19.1319 37.1326 18.8989 37.6302C18.5579 38.3874 18.5266 39.248 18.8116 40.028L20.1072 43.7804C20.1072 43.7804 19.5007 45.2483 18.7951 46.636C22.0495 48.4532 26.1111 47.4974 27.0928 46.164C27.1353 45.8831 27.0787 44.6158 27.1589 43.1739C27.2415 41.6351 27.4539 39.8982 27.2108 38.9495C26.7624 37.1842 25.9223 35.5275 24.249 35.5275L21.3557 35.6195Z" fill="#F5F5F5"/>
<path d="M20.8718 35.6195C19.7626 35.7753 18.1295 35.9995 17.5678 38.6403C16.992 41.3165 16.8339 42.244 16.8339 42.244C16.8339 42.244 17.7448 43.306 19.588 43.2966L20.1615 41.267L20.8718 35.6195Z" fill="#F5F5F5"/>
<path d="M19.7462 42.7372C19.7462 42.7372 20.1238 41.543 20.3504 40.5754C20.3582 41.5944 20.2609 42.6114 20.0601 43.6104L19.7462 42.7372Z" fill="#EBEBEB"/>
<path d="M21.5021 37.845C21.1157 37.845 20.745 37.6917 20.4716 37.4186C20.1981 37.1456 20.0442 36.7753 20.0436 36.3889V32.1409H21.5021V37.845Z" fill="#263238"/>
<path d="M25.5824 28.1312C26.0214 28.3908 26.5666 29.4977 26.5123 31.8175C26.4674 33.7834 25.8302 34.2696 25.5093 34.4135C25.1883 34.5575 24.5653 34.4678 23.9729 34.3663V35.5463C23.9729 35.5463 24.8013 36.5116 24.7494 37.052C24.6975 37.5925 23.5529 37.7199 22.7764 37.1913C22.273 36.8292 21.8409 36.3771 21.502 35.8579V33.0046C21.439 33.0819 21.3613 33.1459 21.2734 33.1928C21.1855 33.2398 21.0891 33.2689 20.9899 33.2783C20.8906 33.2878 20.7905 33.2774 20.6953 33.2478C20.6001 33.2183 20.5117 33.1701 20.4353 33.1061C19.7721 32.6648 19.7462 31.5768 20.1309 31.1851C20.5155 30.7933 21.3462 30.9184 21.502 31.4588C21.502 31.4588 22.4602 31.4919 23.7346 30.7933C24.2297 30.5256 24.655 30.1451 24.976 29.6827C25.297 29.2202 25.5048 28.6888 25.5824 28.1312Z" fill="#FFA8A7"/>
<path d="M24.3081 31.3243C24.3103 31.3574 24.306 31.3907 24.2953 31.4222C24.2846 31.4537 24.2679 31.4828 24.2459 31.5078C24.224 31.5328 24.1974 31.5532 24.1675 31.5679C24.1377 31.5826 24.1052 31.5912 24.0721 31.5933C24.0065 31.5947 23.943 31.5711 23.8943 31.5272C23.8456 31.4834 23.8155 31.4226 23.8101 31.3573C23.8085 31.3247 23.8134 31.2922 23.8244 31.2616C23.8355 31.2309 23.8524 31.2027 23.8743 31.1786C23.8962 31.1545 23.9227 31.135 23.9522 31.1211C23.9816 31.1072 24.0136 31.0992 24.0461 31.0977C24.0786 31.0961 24.1112 31.101 24.1418 31.112C24.1725 31.1231 24.2007 31.14 24.2248 31.1619C24.2489 31.1838 24.2684 31.2103 24.2823 31.2398C24.2962 31.2692 24.3041 31.3012 24.3057 31.3337L24.3081 31.3243Z" fill="#263238"/>
<path d="M24.3836 32.9905L24.9571 33.1746C24.9471 33.2131 24.9293 33.2493 24.9049 33.2808C24.8804 33.3122 24.8498 33.3384 24.8149 33.3576C24.78 33.3769 24.7415 33.3887 24.7018 33.3926C24.6622 33.3964 24.6221 33.3921 24.5842 33.3799C24.5066 33.3539 24.4422 33.2987 24.4047 33.226C24.3673 33.1532 24.3597 33.0687 24.3836 32.9905Z" fill="#F28F8F"/>
<path d="M26.3447 30.5644L25.8444 30.208C25.8654 30.1744 25.893 30.1454 25.9256 30.1228C25.9582 30.1002 25.995 30.0844 26.0338 30.0765C26.0727 30.0685 26.1127 30.0686 26.1516 30.0766C26.1904 30.0846 26.2272 30.1004 26.2597 30.1231C26.3283 30.1712 26.3756 30.2442 26.3914 30.3265C26.4073 30.4089 26.3905 30.4942 26.3447 30.5644Z" fill="#263238"/>
<path d="M26.2291 31.152C26.2288 31.1976 26.2154 31.2422 26.1904 31.2803C26.1653 31.3185 26.1298 31.3485 26.088 31.3669C26.0462 31.3852 26.0001 31.3911 25.955 31.3837C25.91 31.3764 25.8681 31.3561 25.8343 31.3255C25.8006 31.2948 25.7764 31.255 25.7648 31.2108C25.7532 31.1667 25.7547 31.1202 25.769 31.0769C25.7833 31.0335 25.8098 30.9953 25.8454 30.9667C25.881 30.9382 25.9241 30.9206 25.9695 30.916C26.0349 30.914 26.0985 30.9375 26.147 30.9816C26.1954 31.0256 26.2248 31.0867 26.2291 31.152Z" fill="#263238"/>
<path d="M25.0632 31.0033L25.101 32.4925L25.8845 32.2494L25.0632 31.0033Z" fill="#F28F8F"/>
<path d="M23.9729 34.364C23.3404 34.2814 22.0377 33.9085 21.8489 33.394C21.9293 33.6545 22.0884 33.8837 22.3044 34.0501C22.6914 34.3829 23.9847 34.7581 23.9847 34.7581L23.9729 34.364Z" fill="#F28F8F"/>
<path d="M34.3215 40.4363L27.1424 42.3266L25.0231 51.2356L31.8482 49.2532L34.3215 40.4363Z" fill="#20F382"/>
<path opacity="0.15" d="M31.1921 46.3315C31.2582 46.5133 31.65 47.0183 32.4854 46.9782L32.5893 46.61L31.1921 46.3315Z" fill="black"/>
<path opacity="0.15" d="M29.5874 46.6101C29.5567 46.8461 29.0682 47.2874 28.2422 47.5541C27.2982 47.8656 25.8633 47.7004 25.8633 47.7004L25.9907 47.2567L29.5874 46.6101Z" fill="black"/>
<path opacity="0.15" d="M32.2188 41.7271C32.2188 41.7271 32.2471 41.6043 32.2778 41.4533C32.3084 41.3023 31.8907 41.2952 31.3338 41.4391L30.2765 41.7129C29.7219 41.8569 29.2499 42.0952 29.2168 42.2463L29.1578 42.52L32.2188 41.7271Z" fill="black"/>
<path d="M32.7167 40.6935C32.738 40.5991 32.568 40.5755 32.3368 40.6392L31.9167 40.7549C31.9167 40.7549 32.0418 40.1625 31.1119 40.3702C30.1821 40.5779 29.9791 41.2481 29.9791 41.2481L29.5331 41.3756C29.2971 41.4464 29.0611 41.5785 29.0328 41.6729L28.9808 41.8428L32.6766 40.8705L32.7167 40.6935Z" fill="#37474F"/>
<path d="M32.2069 40.9908C31.8694 41.071 31.7349 41.1159 31.6783 41.3495C31.6216 41.5832 31.5957 41.8215 31.5957 41.8215L29.972 42.244C29.972 42.244 30.0499 41.9065 30.0758 41.772C30.1018 41.6374 30.0452 41.5619 29.7856 41.6304L29.762 41.5265L32.3273 40.8728L32.2069 40.9908Z" fill="#37474F"/>
<path d="M32.2636 41.7532L32.3226 41.4794C32.3556 41.3284 31.9356 41.3213 31.3786 41.4653L30.319 41.739C29.7667 41.883 29.2924 42.1213 29.2617 42.2724L29.2003 42.5461L32.2636 41.7532Z" fill="#37474F"/>
<path d="M17.0487 46.4377L19.2482 44.6724C19.2482 44.6724 24.1075 45.5361 24.6762 45.581C24.9773 45.5888 25.2738 45.5053 25.5265 45.3415C25.7793 45.1776 25.9765 44.9411 26.0922 44.6629C26.3117 44.1013 26.694 44.1721 26.694 44.1721C26.694 44.1721 26.5241 44.8801 26.4722 45.1161C26.4203 45.3521 27.7867 45.5291 28.5443 45.2718C29.3018 45.0146 30.4039 45.3898 29.7243 46.4235C29.0446 47.4572 27.7206 47.5752 26.8002 47.5775C26.4159 47.5738 26.0322 47.5478 25.6509 47.4997C25.3535 47.4619 25.0562 47.4312 24.7588 47.41C22.8921 47.2684 17.9054 46.7043 17.0487 46.4377Z" fill="#FFA8A7"/>
<path d="M33.5899 43.0417L33.276 44.1768C33.2147 44.3963 32.3816 44.7928 31.86 44.9391C31.3385 45.0854 30.7556 45.2553 31.0057 45.994C31.2417 46.6737 32.1031 46.8295 32.5468 46.8106C32.9905 46.7917 33.5923 46.3669 33.8306 45.6872C34.1351 44.8187 33.9722 43.8913 34.0926 43.3815C34.213 42.8717 33.8542 42.7396 33.5899 43.0417Z" fill="#FFA8A7"/>
</g>
</svg>
